<svg width="30" height="29" viewBox="0 0 30 29" fill="none" xmlns="http://www.w3.org/2000/svg">
<path d="M1.81189 1.97949H28.2389V27.5863H1.81189V1.97949Z" fill="url(#paint0_radia2)"/>
<path d="M1.8118 1.97879H28.2388V27.5856H1.8118V1.97879ZM0.610596 28.7822H29.44V0.782227H0.610596V28.7822ZM19.4938 10.7617C19.4938 10.666 19.5299 10.6181 19.638 10.6181H21.5239C21.62 10.6181 21.668 10.654 21.668 10.7617V20.2027C21.668 20.2984 21.644 20.3463 21.5239 20.3463H19.662C19.5419 20.3463 19.5058 20.2865 19.5058 20.1908V10.7617H19.4938ZM19.3617 8.04545C19.3617 7.27965 19.9022 6.82496 20.587 6.82496C21.3197 6.82496 21.8122 7.31554 21.8122 8.04545C21.8122 8.83518 21.2957 9.26594 20.563 9.26594C19.8662 9.26599 19.3617 8.83518 19.3617 8.04545ZM13.9562 14.6985C13.6199 13.3702 12.8271 10.4745 12.5267 9.07451H12.5027C12.2504 10.4745 11.6138 12.8437 11.1093 14.6985H13.9562ZM10.6168 16.6369L9.66782 20.2267C9.6438 20.3223 9.60777 20.3463 9.48766 20.3463H7.72186C7.60175 20.3463 7.57768 20.3104 7.60175 20.1668L11.0132 8.27277C11.0733 8.05741 11.1093 7.86594 11.1333 7.27965C11.1333 7.1959 11.1693 7.16 11.2294 7.16H13.752C13.836 7.16 13.8721 7.18393 13.8961 7.27965L17.716 20.1907C17.74 20.2864 17.716 20.3463 17.6199 20.3463H15.6259C15.5298 20.3463 15.4697 20.3223 15.4457 20.2386L14.4607 16.6369H10.6168Z" fill="#FF7F18"/>
<defs>
<radialGradient id="paint0_radia2" cx="0" cy="0" r="1" gradientUnits="userSpaceOnUse" gradientTransform="translate(10.5156 7.718) scale(20.0845 19.3702)">
<stop stop-color="#423325" stop-opacity="0.98"/>
<stop offset="1" stop-color="#1C0A00"/>
</radialGradient>
</defs>
</svg>
