<svg width="33" height="32" viewBox="0 0 33 32" fill="none" xmlns="http://www.w3.org/2000/svg">
<path d="M13.6066 18.4434C13.6066 17.1074 12.7628 16.5449 11.4972 16.5449H8.26282V20.2715H11.4269C12.6222 20.2715 13.6066 19.8496 13.6066 18.4434ZM13.0441 12.6777C13.0441 11.4121 12.13 11.1309 11.005 11.1309H8.26282V14.2949H11.2863C12.3409 14.2949 13.0441 13.8027 13.0441 12.6777ZM22.3956 14.2949C21.0597 14.2949 20.2159 15.1387 20.1456 16.4043H24.505C24.3644 15.1387 23.7316 14.2949 22.3956 14.2949ZM32.0284 3.4668C32.0284 1.63867 30.4816 0.0917969 28.6534 0.0917969H3.90344C2.005 0.0917969 0.528442 1.63867 0.528442 3.4668V28.2168C0.528442 30.1152 2.005 31.5918 3.90344 31.5918H28.6534C30.4816 31.5918 32.0284 30.1152 32.0284 28.2168V3.4668ZM19.5831 10.8496V9.58398H25.0675V10.8496H19.5831ZM16.5597 18.6543C16.5597 21.3965 14.3097 22.5215 11.8488 22.5918H5.30969V9.0918H11.6378C13.9581 9.0918 15.9269 9.72461 15.9269 12.3965C15.9269 13.7324 15.2941 14.4355 14.0988 14.998C15.7863 15.4902 16.5597 16.9668 16.5597 18.6543ZM27.2472 17.5996C27.2472 17.7402 27.1769 17.9512 27.1769 18.0918H20.1456C20.1456 19.6387 20.9894 20.5527 22.5363 20.5527C23.38 20.5527 24.4347 20.1309 24.6456 19.2871H27.0363C26.3331 21.5371 24.7863 22.5918 22.4659 22.5918C19.3722 22.5918 17.4738 20.4824 17.4738 17.459C17.4738 14.5059 19.5128 12.3262 22.4659 12.3262C25.4894 12.3262 27.2472 14.7168 27.2472 17.5996Z" fill="#287AFF"/>
</svg>
