<svg width="505" height="500" viewBox="0 0 505 500" fill="none" xmlns="http://www.w3.org/2000/svg">
<path d="M414.129 84.8707L421.591 84.4997C423.529 84.4172 425.507 84.6646 427.486 85.3242L420.024 85.6952C418.046 85.0356 416.067 84.7882 414.129 84.8707Z" fill="#DB910E"/>
<path d="M427.527 85.322L420.066 85.693C419.695 85.5693 419.324 85.4869 418.953 85.3632L426.414 84.9922C426.785 85.1159 427.156 85.1983 427.527 85.322Z" fill="#DB910E"/>
<path d="M426.414 85.0364L418.953 85.4074C418.54 85.2838 418.128 85.2013 417.757 85.1601L425.219 84.7891C425.631 84.8303 426.043 84.9127 426.414 85.0364Z" fill="#DB910E"/>
<path d="M425.219 84.7469L417.757 85.118C417.304 85.0355 416.891 84.9943 416.438 84.9531L423.9 84.582C424.353 84.6233 424.765 84.6645 425.219 84.7469Z" fill="#DB910E"/>
<path d="M423.9 84.5824L416.438 84.9535C415.943 84.9122 415.448 84.871 414.954 84.871L422.416 84.5C422.951 84.5 423.405 84.5412 423.9 84.5824Z" fill="#DB910E"/>
<path d="M422.457 84.5L414.995 84.871C414.707 84.871 414.459 84.871 414.171 84.871L421.633 84.5C421.88 84.5 422.168 84.5 422.457 84.5Z" fill="#DB910E"/>
<path d="M425.137 156.561L417.675 156.932C428.393 156.396 437.628 145.059 439.565 128.569C441.874 109.111 433.134 89.9414 420.066 85.6952L427.528 85.3242C440.596 89.5704 449.336 108.74 447.027 128.198C445.089 144.688 435.855 156.066 425.137 156.561Z" fill="#DB910E"/>
<path d="M425.136 156.562L417.675 156.933C422.086 156.727 426.208 154.666 429.712 151.203L437.174 150.832C433.67 154.336 429.547 156.356 425.136 156.562Z" fill="#DB910E"/>
<path d="M437.174 150.871L429.712 151.242C430.289 150.665 430.867 150.046 431.403 149.387L438.864 149.016C438.328 149.675 437.751 150.294 437.174 150.871Z" fill="#DB910E"/>
<path d="M438.864 149.016L431.403 149.387C431.815 148.851 432.268 148.315 432.681 147.738L440.142 147.367C439.689 147.944 439.277 148.48 438.864 149.016Z" fill="#DB910E"/>
<path d="M440.101 147.367L432.639 147.738C432.969 147.243 433.34 146.749 433.629 146.254L441.09 145.883C440.802 146.419 440.472 146.913 440.101 147.367Z" fill="#DB910E"/>
<path d="M441.132 145.882L433.67 146.253C433.959 145.8 434.247 145.305 434.536 144.852L441.997 144.48C441.709 144.975 441.42 145.429 441.132 145.882Z" fill="#DB910E"/>
<path d="M441.956 144.484L434.494 144.855C434.742 144.401 434.989 143.948 435.237 143.453L442.698 143.082C442.492 143.536 442.245 144.03 441.956 144.484Z" fill="#DB910E"/>
<path d="M442.739 143.079L435.278 143.45C435.525 142.997 435.731 142.543 435.937 142.09L443.399 141.719C443.152 142.172 442.946 142.626 442.739 143.079Z" fill="#DB910E"/>
<path d="M443.399 141.681L435.937 142.052C436.143 141.598 436.35 141.145 436.514 140.691L443.976 140.32C443.77 140.815 443.564 141.268 443.399 141.681Z" fill="#DB910E"/>
<path d="M443.976 140.36L436.514 140.731C436.679 140.278 436.886 139.824 437.05 139.371L444.512 139C444.347 139.453 444.141 139.907 443.976 140.36Z" fill="#DB910E"/>
<path d="M444.512 138.958L437.05 139.329C437.215 138.876 437.38 138.422 437.504 137.969L444.966 137.598C444.801 138.092 444.677 138.546 444.512 138.958Z" fill="#DB910E"/>
<path d="M444.966 137.597L437.504 137.968C437.669 137.515 437.792 137.061 437.916 136.566L445.378 136.195C445.254 136.69 445.131 137.143 444.966 137.597Z" fill="#DB910E"/>
<path d="M445.419 136.238L437.957 136.609C438.081 136.155 438.205 135.702 438.328 135.207L445.79 134.836C445.666 135.289 445.543 135.784 445.419 136.238Z" fill="#DB910E"/>
<path d="M445.79 134.834L438.328 135.205C438.452 134.751 438.576 134.256 438.658 133.762L446.12 133.391C446.037 133.885 445.914 134.339 445.79 134.834Z" fill="#DB910E"/>
<path d="M446.12 133.394L438.658 133.765C438.782 133.271 438.864 132.776 438.988 132.281L446.45 131.91C446.367 132.405 446.244 132.9 446.12 133.394Z" fill="#DB910E"/>
<path d="M446.45 131.908L438.988 132.279C439.07 131.784 439.194 131.249 439.277 130.754L446.738 130.383C446.656 130.919 446.532 131.413 446.45 131.908Z" fill="#DB910E"/>
<path d="M446.738 130.383L439.277 130.754C439.359 130.218 439.442 129.723 439.524 129.187L446.986 128.816C446.862 129.352 446.821 129.888 446.738 130.383Z" fill="#DB910E"/>
<path d="M446.944 128.817L439.483 129.188C439.524 128.982 439.524 128.776 439.565 128.611C439.606 128.24 439.648 127.91 439.689 127.539L447.151 127.168C447.109 127.539 447.068 127.869 447.027 128.24C446.986 128.405 446.986 128.611 446.944 128.817Z" fill="#DB910E"/>
<path d="M447.151 127.167L439.689 127.538C439.73 126.961 439.771 126.425 439.812 125.848L447.274 125.477C447.233 126.012 447.192 126.59 447.151 127.167Z" fill="#DB910E"/>
<path d="M447.274 125.478L439.812 125.849C439.854 125.231 439.895 124.653 439.895 124.035L447.357 123.664C447.357 124.282 447.315 124.86 447.274 125.478Z" fill="#DB910E"/>
<path d="M447.357 123.664L439.895 124.035C439.895 123.416 439.936 122.798 439.936 122.18L447.398 121.809C447.398 122.427 447.398 123.045 447.357 123.664Z" fill="#DB910E"/>
<path d="M447.398 121.809L439.936 122.18C439.936 121.521 439.936 120.861 439.895 120.16L447.357 119.789C447.357 120.449 447.398 121.149 447.398 121.809Z" fill="#DB910E"/>
<path d="M447.357 119.787L439.895 120.158C439.854 119.375 439.813 118.592 439.73 117.809L447.192 117.438C447.274 118.221 447.316 119.004 447.357 119.787Z" fill="#DB910E"/>
<path d="M447.192 117.437L439.73 117.808C439.648 116.819 439.524 115.788 439.4 114.84L446.862 114.469C446.986 115.458 447.109 116.448 447.192 117.437Z" fill="#DB910E"/>
<path d="M446.862 114.471L439.4 114.842C438.823 110.884 437.834 107.092 436.514 103.629L443.976 103.258C445.337 106.721 446.326 110.513 446.862 114.471Z" fill="#DB910E"/>
<path d="M443.976 103.258L436.514 103.629C436.102 102.557 435.649 101.527 435.154 100.496L442.616 100.125C443.11 101.156 443.564 102.186 443.976 103.258Z" fill="#DB910E"/>
<path d="M442.616 100.166L435.154 100.537C434.783 99.7536 434.371 99.0115 433.959 98.2695L441.42 97.8984C441.833 98.6405 442.245 99.3825 442.616 100.166Z" fill="#DB910E"/>
<path d="M441.42 97.8998L433.959 98.2709C433.629 97.6525 433.258 97.0341 432.887 96.457L440.348 96.0859C440.719 96.6631 441.09 97.2815 441.42 97.8998Z" fill="#DB910E"/>
<path d="M440.348 96.0839L432.887 96.4549C432.557 95.919 432.227 95.4243 431.856 94.9296L439.318 94.5586C439.648 95.0533 439.977 95.548 440.348 96.0839Z" fill="#DB910E"/>
<path d="M439.318 94.5592L431.856 94.9303C431.526 94.4768 431.238 94.0645 430.908 93.6523L438.37 93.2812C438.658 93.6935 438.988 94.1057 439.318 94.5592Z" fill="#DB910E"/>
<path d="M438.328 93.2793L430.867 93.6503C430.537 93.2793 430.248 92.867 429.918 92.496L437.38 92.125C437.71 92.496 437.999 92.8671 438.328 93.2793Z" fill="#DB910E"/>
<path d="M437.38 92.1283L429.918 92.4993C429.589 92.1283 429.3 91.7985 428.97 91.4687L436.432 91.0977C436.762 91.4275 437.05 91.7985 437.38 92.1283Z" fill="#DB910E"/>
<path d="M436.432 91.0944L428.97 91.4655C428.682 91.1357 428.352 90.8471 428.063 90.5585L435.525 90.1875C435.814 90.4761 436.144 90.8059 436.432 91.0944Z" fill="#DB910E"/>
<path d="M435.525 90.1878L428.063 90.5588C427.775 90.2702 427.445 89.9817 427.115 89.7343L434.577 89.3633C434.907 89.6519 435.195 89.8992 435.525 90.1878Z" fill="#DB910E"/>
<path d="M434.577 89.3631L427.115 89.7342C426.827 89.4868 426.497 89.2395 426.208 88.9921L433.67 88.6211C433.959 88.8684 434.288 89.1158 434.577 89.3631Z" fill="#DB910E"/>
<path d="M433.67 88.6227L426.208 88.9937C425.878 88.7464 425.59 88.5402 425.26 88.2929L432.722 87.9219C433.01 88.128 433.34 88.3753 433.67 88.6227Z" fill="#DB910E"/>
<path d="M432.722 87.9231L425.26 88.2941C424.93 88.088 424.642 87.8818 424.312 87.6757L431.774 87.3047C432.062 87.5108 432.392 87.7169 432.722 87.9231Z" fill="#DB910E"/>
<path d="M431.732 87.3037L424.271 87.6747C423.941 87.4686 423.611 87.3037 423.281 87.0976L430.743 86.7266C431.114 86.9327 431.444 87.0976 431.732 87.3037Z" fill="#DB910E"/>
<path d="M430.784 86.7252L423.322 87.0962C422.993 86.9313 422.663 86.7252 422.333 86.6015L429.795 86.2305C430.083 86.3954 430.454 86.5603 430.784 86.7252Z" fill="#DB910E"/>
<path d="M429.754 86.2308L422.292 86.6018C421.962 86.4369 421.591 86.272 421.22 86.1484L428.682 85.7773C429.053 85.901 429.424 86.0659 429.754 86.2308Z" fill="#DB910E"/>
<path d="M428.682 85.7755L421.22 86.1466C420.849 86.0229 420.478 85.858 420.148 85.7343L427.61 85.3633C427.981 85.487 428.352 85.6106 428.682 85.7755Z" fill="#DB910E"/>
<path d="M427.61 85.3654L420.148 85.7365C420.107 85.7365 420.107 85.7365 420.066 85.6952L427.527 85.3242C427.569 85.3242 427.569 85.3654 427.61 85.3654Z" fill="#DB910E"/>
<path d="M417.62 156.922C430.856 156.284 440.807 139.636 439.848 119.738C438.889 99.8397 427.382 84.2264 414.147 84.8644C400.912 85.5023 390.96 102.15 391.92 122.048C392.879 141.946 404.385 157.56 417.62 156.922Z" fill="#FDC510"/>
<path d="M418.458 98.1445L420.725 98.8866L420.148 104.163C422.333 104.988 423.735 106.348 424.724 107.626L423.405 110.924C422.704 110.017 421.344 108.327 418.994 107.585C416.149 106.678 414.83 108.822 414.583 110.966C414.253 113.769 415.49 115.624 418.458 118.633C422.003 122.137 423.57 125.559 423.034 130.424C422.539 134.711 420.107 138.05 416.191 137.762L415.572 143.41L413.264 142.668L413.882 137.185C411.738 136.443 409.677 134.752 408.523 132.98L409.801 129.64C410.996 131.372 412.769 133.021 414.83 133.681C417.427 134.546 419.447 132.897 419.777 129.805C420.107 126.837 418.87 124.529 416.355 122.014C412.851 118.633 410.831 115.377 411.326 110.677C411.821 106.183 414.377 103.463 417.84 103.751L418.458 98.1445Z" fill="white"/>
<path d="M259.731 190.758C259.731 190.758 280.797 222.46 287.764 247.154C294.731 271.847 307.305 263.025 307.305 263.025C307.305 263.025 350.921 236.847 389.631 227.819C428.341 218.791 454.519 226.788 454.519 226.788C454.519 226.788 460.043 231.694 454.519 233.178C448.995 234.662 410.285 233.013 380.768 250.493C351.251 267.972 328.123 284.792 306.934 299.551C285.744 314.309 277.788 299.551 277.788 299.551C277.788 299.551 242.21 254.945 238.541 222.872C234.831 190.758 259.731 190.758 259.731 190.758Z" fill="#EAC2AB"/>
<path d="M217.64 133.535C217.64 133.535 255.155 141.615 272.676 201.144L237.964 243.029C237.923 243.029 192.04 203.494 217.64 133.535Z" fill="#C6110C"/>
<path d="M152.999 93.4262V128.962C152.999 128.962 157.988 141.989 173.694 139.145C189.401 136.3 193.688 127.107 193.688 127.107C193.688 127.107 184.083 126.365 187.34 101.3C190.638 76.2354 152.999 93.4262 152.999 93.4262Z" fill="#D4A79A"/>
<path d="M177.941 24.1669C162.811 23.1775 144.425 33.5249 140.549 48.9019C137.087 62.7947 139.766 79.7382 146.568 92.2294C155.184 108.019 176.044 113.295 191.05 105.957C196.244 103.401 197.234 99.8148 199.584 95.2388C203.995 86.6228 206.839 78.9137 205.479 74.7912C203.376 68.4838 197.729 69.4319 199.625 50.6333C201.068 36.2046 188.7 24.8677 177.941 24.1669Z" fill="#EAC2AB"/>
<path d="M136.427 78.0072C136.427 78.0072 146.074 76.0696 147.434 70.1745C148.794 64.2793 141.003 63.0838 147.393 58.8788C153.783 54.6738 158.317 51.6232 158.606 46.0578C159.224 35.4218 168.459 41.3169 182.269 44.2851C196.121 47.2533 201.191 49.6032 212.034 48.2427C222.876 46.8823 208.241 29.238 208.241 29.238C208.241 29.238 217.805 29.8152 213.848 22.8481C209.972 15.9223 186.969 5.12136 165.862 8.13079C144.796 11.1402 130.614 22.5596 128.924 26.1049C128.924 26.1049 128.264 21.4052 125.214 22.5183C122.163 23.5902 121.957 30.0625 121.957 30.0625C121.957 30.0625 116.557 31.4642 116.721 33.4017C116.886 35.2981 120.72 35.9577 120.72 35.9577C120.72 35.9577 118.206 41.7292 121.132 50.0566C124.059 58.3017 136.427 78.0072 136.427 78.0072Z" fill="#011627"/>
<path d="M148.341 74.7058C148.341 74.7058 140.014 62.9979 133.541 66.4608C127.069 69.8825 129.584 78.952 135.767 85.012C141.951 91.0721 149.413 84.3524 149.413 84.3524" fill="#EAC2AB"/>
<path d="M236.563 422.934L170.809 415.101L103.241 423.346L104.065 348.234H230.502L236.563 422.934Z" fill="#0028D0"/>
<path d="M87.4928 239.731C87.4928 239.731 62.428 275.308 62.799 282.522C63.1701 289.696 75.1666 321.233 75.1666 321.233C75.1666 321.233 98.1701 370.455 114.207 372.104C114.207 372.104 113.794 397.54 103.529 405.291L59.8308 344.813C59.8308 344.813 31.6329 309.03 28.8709 295.756C26.1088 282.481 24.2536 276.586 34.024 261.456C43.7943 246.327 66.8391 213.512 66.8391 213.512L87.4928 239.731Z" fill="#EAC2AB"/>
<path d="M98.5824 482.631C98.5824 482.631 101.427 459.215 103.241 405.252C103.241 405.252 113.588 389.916 114.578 362.254H217.517C217.517 362.254 220.732 397.79 235.408 404.51L241.139 482.59H179.713C179.713 482.59 172.293 460.04 169.448 418.485L168.871 482.59H98.5824V482.631Z" fill="#3555DB"/>
<path d="M108.847 147.637C108.847 147.637 78.0936 167.796 56.8627 212.401L88.8121 247.442L111.445 220.894C111.445 220.894 140.178 172.124 108.847 147.637Z" fill="#C6110C"/>
<path d="M146.857 127.269C146.857 127.269 110.249 144.707 99.6543 154.313C95.4081 158.147 92.8522 163.423 91.2856 168.412C89.2656 174.802 88.7297 181.521 89.4717 188.158C92.2338 212.234 103.035 307.711 104.313 348.276H230.173C230.173 348.276 234.213 229.919 240.232 181.851C241.468 170.308 239.242 142.028 217.599 133.535C195.956 125.043 194.183 125.043 194.183 125.043L181.486 134.154C178.765 136.091 174.272 133.206 171.056 133.412C168.005 133.618 166.315 136.957 163.471 135.555L146.857 127.269Z" fill="#FF644E"/>
<path d="M153.164 122.898C153.164 122.898 155.762 131.102 171.056 133.411C171.056 133.411 160.255 141.779 157.782 149.447C157.782 149.447 142.199 147.633 134.902 133.205L153.164 122.898Z" fill="#C6110C"/>
<path d="M188.948 122.859C188.948 122.859 186.35 131.104 171.056 133.413C171.056 133.413 181.857 141.782 184.33 149.408C184.33 149.408 202.511 142.73 209.972 130.651L188.948 122.859Z" fill="#C6110C"/>
<path d="M231.78 362.251H103.488L103.9 348.234H230.544L231.78 362.251Z" fill="#C6110C"/>
<path d="M421.086 149.574H367.988V228.479H421.086V149.574Z" fill="#3555DB"/>
<path d="M465.32 149.574H421.086V228.479H465.32V149.574Z" fill="#0028D0"/>
<path d="M421.086 149.82L405.833 173.896H349.066L367.988 149.82H421.086Z" fill="#2B2B68"/>
<path d="M420.962 149.82L436.174 173.896H487.211L466.227 149.82H420.962Z" fill="#030047"/>
<path d="M178.829 499.368C277.506 499.368 357.499 492.262 357.499 483.497C357.499 474.731 277.506 467.625 178.829 467.625C80.1531 467.625 0.160156 474.731 0.160156 483.497C0.160156 492.262 80.1531 499.368 178.829 499.368Z" fill="#EBEFFB"/>
<path d="M73.7337 428.418C73.7337 428.418 35.683 428.418 23.4804 428.418C21.1718 428.418 19.7702 428.418 19.7702 428.418C20.471 433.035 21.1306 437.694 21.8314 442.352H26.5311H70.6419H75.3415C76.0423 437.694 76.7019 433.035 77.4028 428.418C77.444 428.418 76.0423 428.418 73.7337 428.418Z" fill="#0028D0"/>
<path d="M70.6419 442.355H26.5311H21.8314C23.6865 454.641 25.7066 467.008 28.7572 478.675C29.1283 480.035 29.5405 481.437 30.365 482.302C31.3544 483.333 32.7561 483.333 33.9928 483.292C34.3638 483.292 34.7349 483.292 35.1471 483.292C37.0022 483.622 39.1047 483.539 41.2896 483.58C43.7219 483.58 46.1542 483.539 48.5865 483.498C51.0187 483.539 53.451 483.58 55.8833 483.58C58.1094 483.58 60.2119 483.622 62.0258 483.292C62.3968 483.292 62.7679 483.292 63.1801 483.292C64.4581 483.333 65.8185 483.292 66.8079 482.302C67.6737 481.437 68.0859 480.035 68.4157 478.675C71.4664 467.008 73.4864 454.641 75.3415 442.355H70.6419Z" fill="#FDC510"/>
<path d="M48.5865 467.997C53.2994 467.997 57.1201 464.176 57.1201 459.463C57.1201 454.75 53.2994 450.93 48.5865 450.93C43.8735 450.93 40.0529 454.75 40.0529 459.463C40.0529 464.176 43.8735 467.997 48.5865 467.997Z" fill="white"/>
<path d="M49.5759 424.091C43.3097 423.802 37.3733 420.875 33.663 415.804C30.7772 411.847 29.4993 406.941 35.8479 403.148C48.5865 395.563 46.6901 385.051 41.0011 383.36C35.312 381.67 52.9151 374.703 52.9151 374.703C52.9151 374.703 41.0011 378.743 47.9681 383.36C54.9351 387.978 72.6206 399.356 59.3462 403.148C46.0717 406.941 72.7443 413.207 64.1695 420.216C59.9233 423.637 54.2343 424.297 49.5759 424.091Z" fill="#E3E5FC"/>
<path d="M476.731 25.7475L470.713 25.459C469.146 25.3765 467.579 25.5826 465.972 26.1186L471.991 26.4071C473.598 25.8712 475.165 25.6651 476.731 25.7475Z" fill="#DB910E"/>
<path d="M465.972 26.1184L471.99 26.407C472.279 26.3246 472.568 26.2421 472.856 26.1597L466.837 25.8711C466.549 25.9123 466.26 25.9948 465.972 26.1184Z" fill="#DB910E"/>
<path d="M466.837 25.8311L472.856 26.1197C473.186 26.0372 473.516 25.9548 473.846 25.9136L467.827 25.625C467.497 25.7075 467.167 25.7487 466.837 25.8311Z" fill="#DB910E"/>
<path d="M467.827 25.6237L473.846 25.9123C474.217 25.8298 474.546 25.7886 474.876 25.7886L468.857 25.5C468.528 25.5412 468.198 25.5825 467.827 25.6237Z" fill="#DB910E"/>
<path d="M468.899 25.4997L474.917 25.7883C475.33 25.7471 475.701 25.7471 476.113 25.7471L470.094 25.4585C469.682 25.4173 469.27 25.4585 468.899 25.4997Z" fill="#DB910E"/>
<path d="M470.053 25.418L476.072 25.7065C476.278 25.7065 476.525 25.7065 476.731 25.7065L470.712 25.418C470.506 25.4592 470.259 25.418 470.053 25.418Z" fill="#DB910E"/>
<path d="M467.909 83.3787L473.928 83.6673C465.312 83.2551 457.892 74.1031 456.325 60.8699C454.47 45.2456 461.478 29.7862 471.991 26.4058L465.972 26.1172C455.459 29.5389 448.451 44.957 450.306 60.5813C451.873 73.8145 459.293 82.9665 467.909 83.3787Z" fill="#DB910E"/>
<path d="M467.909 83.3789L473.928 83.6675C470.383 83.5026 467.043 81.8536 464.24 79.0503L458.221 78.7617C461.025 81.565 464.364 83.214 467.909 83.3789Z" fill="#DB910E"/>
<path d="M458.221 78.7653L464.24 79.0539C463.787 78.6005 463.333 78.1057 462.88 77.5698L456.861 77.2812C457.314 77.8172 457.768 78.3119 458.221 78.7653Z" fill="#DB910E"/>
<path d="M456.861 77.3192L462.88 77.6078C462.55 77.1955 462.179 76.742 461.849 76.2886L455.83 76C456.16 76.4535 456.531 76.8657 456.861 77.3192Z" fill="#DB910E"/>
<path d="M455.871 76.0002L461.89 76.2888C461.602 75.9178 461.354 75.5055 461.066 75.0933L455.047 74.8047C455.294 75.2169 455.583 75.588 455.871 76.0002Z" fill="#DB910E"/>
<path d="M455.047 74.8066L461.066 75.0952C460.818 74.7242 460.612 74.3532 460.365 73.9409L454.346 73.6523C454.593 74.0234 454.8 74.4356 455.047 74.8066Z" fill="#DB910E"/>
<path d="M454.346 73.6521L460.365 73.9407C460.159 73.5697 459.953 73.1987 459.747 72.8276L453.728 72.5391C453.934 72.9101 454.14 73.2811 454.346 73.6521Z" fill="#DB910E"/>
<path d="M453.769 72.5389L459.788 72.8274C459.623 72.4564 459.417 72.0854 459.252 71.7144L453.233 71.4258C453.398 71.7968 453.563 72.1678 453.769 72.5389Z" fill="#DB910E"/>
<path d="M453.233 71.4273L459.252 71.7159C459.087 71.3449 458.922 71.0151 458.798 70.644L452.78 70.3555C452.903 70.6853 453.068 71.0563 453.233 71.4273Z" fill="#DB910E"/>
<path d="M452.738 70.3123L458.757 70.6009C458.592 70.2298 458.469 69.8588 458.345 69.4878L452.326 69.1992C452.45 69.6115 452.615 69.9825 452.738 70.3123Z" fill="#DB910E"/>
<path d="M452.326 69.2398L458.345 69.5284C458.221 69.1574 458.098 68.8276 457.974 68.4565L451.955 68.168C452.079 68.4978 452.202 68.8688 452.326 69.2398Z" fill="#DB910E"/>
<path d="M451.955 68.1287L457.974 68.4173C457.85 68.0463 457.727 67.6752 457.644 67.3042L451.625 67.0156C451.708 67.3867 451.831 67.7577 451.955 68.1287Z" fill="#DB910E"/>
<path d="M451.584 67.0154L457.603 67.304C457.479 66.933 457.397 66.5619 457.273 66.1909L451.254 65.9023C451.378 66.2734 451.502 66.6444 451.584 67.0154Z" fill="#DB910E"/>
<path d="M451.296 65.9004L457.314 66.189C457.232 65.8179 457.108 65.4057 457.026 65.0347L451.007 64.7461C451.089 65.1171 451.172 65.5294 451.296 65.9004Z" fill="#DB910E"/>
<path d="M451.007 64.7463L457.026 65.0349C456.943 64.6639 456.861 64.2516 456.778 63.8394L450.76 63.5508C450.842 63.963 450.924 64.3341 451.007 64.7463Z" fill="#DB910E"/>
<path d="M450.76 63.5532L456.778 63.8417C456.696 63.4295 456.613 63.0172 456.572 62.605L450.553 62.3164C450.595 62.7287 450.677 63.1409 450.76 63.5532Z" fill="#DB910E"/>
<path d="M450.553 62.317L456.572 62.6056C456.49 62.1934 456.449 61.7811 456.407 61.3276L450.389 61.0391C450.43 61.4925 450.471 61.9048 450.553 62.317Z" fill="#DB910E"/>
<path d="M450.347 61.0362L456.366 61.3248C456.325 61.1599 456.325 60.995 456.325 60.8301C456.284 60.5415 456.242 60.2529 456.242 59.9644L450.224 59.6758C450.265 59.9644 450.265 60.2529 450.306 60.5415C450.306 60.7476 450.347 60.9125 450.347 61.0362Z" fill="#DB910E"/>
<path d="M450.182 59.7159L456.201 60.0045C456.16 59.551 456.119 59.0975 456.078 58.644L450.059 58.3555C450.141 58.8089 450.141 59.2624 450.182 59.7159Z" fill="#DB910E"/>
<path d="M450.1 58.3569L456.119 58.6455C456.078 58.1508 456.078 57.6973 456.036 57.2026L450.018 56.9141C450.018 57.4088 450.059 57.9035 450.1 58.3569Z" fill="#DB910E"/>
<path d="M450.018 56.9138L456.036 57.2024C456.036 56.7077 455.995 56.213 455.995 55.7183L449.976 55.4297C450.017 55.9244 450.018 56.4191 450.018 56.9138Z" fill="#DB910E"/>
<path d="M450.018 55.432L456.036 55.7206C456.036 55.1846 456.036 54.6487 456.078 54.1128L450.059 53.8242C450.018 54.3601 450.018 54.8961 450.018 55.432Z" fill="#DB910E"/>
<path d="M450.018 53.8221L456.036 54.1107C456.078 53.4923 456.119 52.8327 456.16 52.2144L450.141 51.9258C450.1 52.5442 450.059 53.1625 450.018 53.8221Z" fill="#DB910E"/>
<path d="M450.141 51.9262L456.16 52.2148C456.242 51.3903 456.325 50.607 456.449 49.8237L450.43 49.5352C450.306 50.3184 450.224 51.1017 450.141 51.9262Z" fill="#DB910E"/>
<path d="M450.43 49.5339L456.449 49.8225C456.902 46.6482 457.685 43.5975 458.798 40.8355L452.78 40.5469C451.666 43.309 450.883 46.3596 450.43 49.5339Z" fill="#DB910E"/>
<path d="M452.738 40.5069L458.757 40.7955C459.087 39.9298 459.458 39.1053 459.829 38.2808L453.81 37.9922C453.439 38.8167 453.109 39.6824 452.738 40.5069Z" fill="#DB910E"/>
<path d="M453.851 38.0327L459.87 38.3212C460.159 37.7029 460.489 37.0845 460.818 36.5073L454.8 36.2188C454.47 36.7959 454.14 37.3731 453.851 38.0327Z" fill="#DB910E"/>
<path d="M454.8 36.1773L460.818 36.4658C461.107 35.9711 461.396 35.4764 461.684 35.023L455.665 34.7344C455.377 35.2291 455.088 35.6826 454.8 36.1773Z" fill="#DB910E"/>
<path d="M455.665 34.7368L461.684 35.0253C461.973 34.6131 462.22 34.2008 462.509 33.7886L456.49 33.5C456.242 33.9123 455.954 34.3245 455.665 34.7368Z" fill="#DB910E"/>
<path d="M456.49 33.4994L462.509 33.788C462.756 33.4169 463.003 33.0871 463.292 32.7573L457.273 32.4688C457.026 32.8398 456.778 33.1696 456.49 33.4994Z" fill="#DB910E"/>
<path d="M457.273 32.4655L463.292 32.7541C463.539 32.4243 463.787 32.1357 464.075 31.8472L458.056 31.5586C457.809 31.8472 457.52 32.177 457.273 32.4655Z" fill="#DB910E"/>
<path d="M458.056 31.5628L464.075 31.8514C464.323 31.5628 464.57 31.2742 464.859 31.0269L458.84 30.7383C458.551 31.0269 458.304 31.2742 458.056 31.5628Z" fill="#DB910E"/>
<path d="M458.798 30.7381L464.817 31.0267C465.065 30.7794 465.312 30.532 465.559 30.2847L459.541 29.9961C459.293 30.2434 459.046 30.4908 458.798 30.7381Z" fill="#DB910E"/>
<path d="M459.54 30.0346L465.559 30.3232C465.807 30.0758 466.054 29.8697 466.301 29.6636L460.282 29.375C460.035 29.5399 459.788 29.7872 459.54 30.0346Z" fill="#DB910E"/>
<path d="M460.282 29.3332L466.301 29.6218C466.549 29.4157 466.796 29.2095 467.043 29.0034L461.025 28.7148C460.777 28.921 460.53 29.1271 460.282 29.3332Z" fill="#DB910E"/>
<path d="M461.066 28.7586L467.085 29.0472C467.332 28.841 467.579 28.6761 467.827 28.5112L461.808 28.2227C461.561 28.3463 461.313 28.5525 461.066 28.7586Z" fill="#DB910E"/>
<path d="M461.808 28.1822L467.827 28.4708C468.074 28.3059 468.321 28.141 468.61 27.9761L462.591 27.6875C462.303 27.8524 462.055 28.0173 461.808 28.1822Z" fill="#DB910E"/>
<path d="M462.591 27.6839L468.61 27.9725C468.857 27.8076 469.146 27.6427 469.393 27.519L463.374 27.2305C463.086 27.3541 462.838 27.519 462.591 27.6839Z" fill="#DB910E"/>
<path d="M463.374 27.2326L469.393 27.5211C469.641 27.3562 469.929 27.2326 470.218 27.1089L464.199 26.8203C463.91 26.944 463.622 27.0677 463.374 27.2326Z" fill="#DB910E"/>
<path d="M464.158 26.8202L470.177 27.1088C470.465 26.9851 470.754 26.8615 471.042 26.7378L465.023 26.4492C464.735 26.5729 464.446 26.6966 464.158 26.8202Z" fill="#DB910E"/>
<path d="M465.023 26.447L471.042 26.7356C471.331 26.6119 471.619 26.5294 471.908 26.4058L465.889 26.1172C465.601 26.1996 465.312 26.3233 465.023 26.447Z" fill="#DB910E"/>
<path d="M465.889 26.1193L471.908 26.4079C471.949 26.4079 471.949 26.4079 471.99 26.3667L465.972 26.0781C465.93 26.1194 465.93 26.1193 465.889 26.1193Z" fill="#DB910E"/>
<path d="M494.573 55.6497C495.344 39.663 487.341 26.2874 476.699 25.7744C466.056 25.2613 456.804 37.8052 456.033 53.7919C455.263 69.7786 463.265 83.1542 473.908 83.6672C484.551 84.1802 493.803 71.6364 494.573 55.6497Z" fill="#FDC510"/>
<path d="M475.659 36.3828L477.473 36.96L477.02 41.2061C478.793 41.8657 479.906 42.9788 480.689 43.9682L479.617 46.6066C479.04 45.8646 477.968 44.5454 476.072 43.927C473.804 43.1849 472.733 44.9164 472.526 46.6478C472.279 48.9152 473.227 50.3993 475.618 52.7904C478.463 55.5937 479.741 58.397 479.287 62.2721C478.916 65.735 476.937 68.4147 473.804 68.1673L473.31 72.7021L471.455 72.0837L471.949 67.6726C470.259 67.0542 468.569 65.6938 467.662 64.2922L468.692 61.6125C469.641 63.0142 471.084 64.3334 472.733 64.8693C474.835 65.5701 476.443 64.2097 476.731 61.7362C476.979 59.3452 476.031 57.49 473.969 55.47C471.166 52.7491 469.517 50.152 469.929 46.3593C470.341 42.7315 472.361 40.5465 475.165 40.7939L475.659 36.3828Z" fill="white"/>
<path d="M362.875 42.0756L367.533 41.8695C368.729 41.8282 369.966 41.9931 371.202 42.3642L366.544 42.5703C365.307 42.1993 364.07 42.0344 362.875 42.0756Z" fill="#DB910E"/>
<path d="M371.244 42.3663L366.585 42.5724C366.338 42.49 366.132 42.4487 365.884 42.3663L370.543 42.1602C370.79 42.2426 370.996 42.2838 371.244 42.3663Z" fill="#DB910E"/>
<path d="M370.543 42.1571L365.884 42.3632C365.637 42.2808 365.39 42.2395 365.142 42.1983L369.801 41.9922C370.048 42.0334 370.295 42.1159 370.543 42.1571Z" fill="#DB910E"/>
<path d="M369.801 41.9948L365.142 42.2009C364.854 42.1597 364.606 42.1184 364.318 42.0772L368.976 41.8711C369.223 41.9123 369.512 41.9535 369.801 41.9948Z" fill="#DB910E"/>
<path d="M368.976 41.9123L364.318 42.1184C364.029 42.0772 363.699 42.0772 363.411 42.0772L368.069 41.8711C368.358 41.8711 368.646 41.8711 368.976 41.9123Z" fill="#DB910E"/>
<path d="M368.07 41.8711L363.412 42.0772C363.247 42.0772 363.082 42.0772 362.917 42.0772L367.575 41.8711C367.699 41.8711 367.905 41.8711 368.07 41.8711Z" fill="#DB910E"/>
<path d="M369.718 86.7665L365.06 86.9727C371.738 86.6429 377.51 79.5522 378.705 69.2871C380.148 57.167 374.706 45.2117 366.544 42.5733L371.202 42.3672C379.324 45.0056 384.765 56.9608 383.364 69.081C382.168 79.346 376.397 86.4367 369.718 86.7665Z" fill="#DB910E"/>
<path d="M369.718 86.768L365.06 86.9741C367.781 86.8505 370.378 85.5725 372.563 83.4288L377.221 83.2227C375.036 85.3664 372.48 86.6443 369.718 86.768Z" fill="#DB910E"/>
<path d="M377.221 83.1816L372.563 83.3878C372.934 83.0167 373.264 82.6457 373.593 82.2335L378.252 82.0273C377.963 82.4396 377.592 82.8518 377.221 83.1816Z" fill="#DB910E"/>
<path d="M378.293 82.0658L373.635 82.2719C373.923 81.9421 374.17 81.6123 374.418 81.2413L379.076 81.0352C378.829 81.365 378.54 81.736 378.293 82.0658Z" fill="#DB910E"/>
<path d="M379.076 81.0341L374.418 81.2402C374.624 80.9517 374.83 80.6219 375.036 80.2921L379.695 80.0859C379.488 80.4157 379.282 80.7455 379.076 81.0341Z" fill="#DB910E"/>
<path d="M379.695 80.0884L375.036 80.2945C375.201 80.0059 375.407 79.7174 375.572 79.4288L380.231 79.2227C380.066 79.5112 379.86 79.7998 379.695 80.0884Z" fill="#DB910E"/>
<path d="M380.231 79.2212L375.572 79.4273C375.737 79.1387 375.902 78.8502 376.026 78.5616L380.684 78.3555C380.519 78.644 380.395 78.9326 380.231 79.2212Z" fill="#DB910E"/>
<path d="M380.684 78.3579L376.026 78.564C376.149 78.2755 376.314 77.9869 376.438 77.6983L381.096 77.4922C380.973 77.7808 380.849 78.0693 380.684 78.3579Z" fill="#DB910E"/>
<path d="M381.096 77.4925L376.438 77.6986C376.561 77.41 376.685 77.1214 376.809 76.8741L381.467 76.668C381.344 76.9153 381.22 77.2039 381.096 77.4925Z" fill="#DB910E"/>
<path d="M381.467 76.6235L376.809 76.8297C376.933 76.5411 377.015 76.2525 377.139 75.9639L381.797 75.7578C381.673 76.0876 381.591 76.3762 381.467 76.6235Z" fill="#DB910E"/>
<path d="M381.797 75.8011L377.139 76.0072C377.221 75.7186 377.345 75.43 377.427 75.1827L382.086 74.9766C382.003 75.2239 381.921 75.5125 381.797 75.8011Z" fill="#DB910E"/>
<path d="M382.086 74.936L377.427 75.1422C377.51 74.8536 377.592 74.565 377.716 74.2764L382.374 74.0703C382.292 74.3589 382.168 74.6475 382.086 74.936Z" fill="#DB910E"/>
<path d="M382.374 74.0689L377.716 74.275C377.798 73.9864 377.881 73.6978 377.963 73.4093L382.622 73.2031C382.539 73.4917 382.457 73.7803 382.374 74.0689Z" fill="#DB910E"/>
<path d="M382.622 73.2038L377.963 73.4099C378.046 73.1214 378.128 72.8328 378.169 72.503L382.828 72.2969C382.745 72.6267 382.663 72.9152 382.622 73.2038Z" fill="#DB910E"/>
<path d="M382.828 72.2976L378.169 72.5037C378.252 72.2151 378.293 71.8853 378.375 71.5968L383.034 71.3906C382.951 71.7204 382.91 72.009 382.828 72.2976Z" fill="#DB910E"/>
<path d="M383.034 71.3896L378.375 71.5957C378.417 71.2659 378.499 70.9773 378.54 70.6475L383.199 70.4414C383.116 70.7712 383.075 71.101 383.034 71.3896Z" fill="#DB910E"/>
<path d="M383.199 70.4425L378.54 70.6487C378.582 70.3189 378.623 69.9891 378.664 69.6593L383.322 69.4531C383.281 69.7829 383.24 70.1127 383.199 70.4425Z" fill="#DB910E"/>
<path d="M383.322 69.4525L378.664 69.6586C378.664 69.535 378.705 69.4113 378.705 69.2876C378.746 69.0815 378.746 68.8341 378.788 68.628L383.446 68.4219C383.405 68.628 383.405 68.8754 383.364 69.0815C383.364 69.2052 383.364 69.3288 383.322 69.4525Z" fill="#DB910E"/>
<path d="M383.446 68.4195L378.788 68.6256C378.829 68.2546 378.87 67.9248 378.87 67.5538L383.529 67.3477C383.487 67.7187 383.487 68.0897 383.446 68.4195Z" fill="#DB910E"/>
<path d="M383.529 67.3904L378.87 67.5965C378.911 67.2255 378.911 66.8545 378.911 66.4835L383.57 66.2773C383.57 66.6071 383.57 67.0194 383.529 67.3904Z" fill="#DB910E"/>
<path d="M383.57 66.2363L378.911 66.4425C378.911 66.0714 378.911 65.6592 378.911 65.2882L383.57 65.082C383.611 65.4943 383.611 65.8653 383.57 66.2363Z" fill="#DB910E"/>
<path d="M383.611 65.0805L378.953 65.2866C378.953 64.8744 378.953 64.4621 378.911 64.0499L383.57 63.8438C383.611 64.256 383.611 64.6683 383.611 65.0805Z" fill="#DB910E"/>
<path d="M383.57 63.8452L378.911 64.0513C378.911 63.5566 378.87 63.0619 378.829 62.6085L383.487 62.4023C383.529 62.8558 383.57 63.3505 383.57 63.8452Z" fill="#DB910E"/>
<path d="M383.487 62.402L378.829 62.6081C378.788 61.9898 378.705 61.3714 378.623 60.753L383.281 60.5469C383.364 61.124 383.446 61.7424 383.487 62.402Z" fill="#DB910E"/>
<path d="M383.281 60.5061L378.623 60.7122C378.293 58.2387 377.675 55.8889 376.809 53.7452L381.467 53.5391C382.292 55.724 382.91 58.0738 383.281 60.5061Z" fill="#DB910E"/>
<path d="M381.467 53.5391L376.809 53.7453C376.562 53.0857 376.273 52.4261 375.943 51.8077L380.602 51.6016C380.931 52.2199 381.22 52.8795 381.467 53.5391Z" fill="#DB910E"/>
<path d="M380.602 51.6009L375.943 51.807C375.696 51.3123 375.448 50.8588 375.201 50.4053L379.859 50.1992C380.148 50.6527 380.395 51.1062 380.602 51.6009Z" fill="#DB910E"/>
<path d="M379.901 50.199L375.242 50.4051C375.036 50.0341 374.789 49.6631 374.583 49.2921L379.241 49.0859C379.447 49.4157 379.653 49.7868 379.901 50.199Z" fill="#DB910E"/>
<path d="M379.2 49.0458L374.542 49.252C374.335 48.9222 374.129 48.5924 373.882 48.3038L378.54 48.0977C378.788 48.4275 378.994 48.7573 379.2 49.0458Z" fill="#DB910E"/>
<path d="M378.54 48.0958L373.882 48.3019C373.676 48.0133 373.47 47.766 373.263 47.5186L377.922 47.3125C378.169 47.5599 378.375 47.8484 378.54 48.0958Z" fill="#DB910E"/>
<path d="M377.963 47.3141L373.305 47.5202C373.099 47.2729 372.893 47.0255 372.728 46.8194L377.386 46.6133C377.551 46.8194 377.757 47.0668 377.963 47.3141Z" fill="#DB910E"/>
<path d="M377.345 46.6127L372.686 46.8188C372.48 46.6127 372.315 46.3654 372.109 46.1593L376.768 45.9531C376.974 46.1593 377.18 46.4066 377.345 46.6127Z" fill="#DB910E"/>
<path d="M376.768 45.9539L372.109 46.2012C371.903 45.9951 371.738 45.8302 371.532 45.6241L376.191 45.418C376.397 45.5829 376.603 45.789 376.768 45.9539Z" fill="#DB910E"/>
<path d="M376.19 45.4187L371.532 45.6249C371.326 45.46 371.161 45.2538 370.955 45.0889L375.613 44.8828C375.819 45.0477 376.026 45.2126 376.19 45.4187Z" fill="#DB910E"/>
<path d="M375.613 44.8832L370.955 45.0893C370.749 44.9244 370.584 44.7595 370.378 44.6358L375.036 44.4297C375.242 44.5534 375.448 44.7183 375.613 44.8832Z" fill="#DB910E"/>
<path d="M375.036 44.4279L370.378 44.634C370.172 44.4691 370.007 44.3454 369.801 44.2218L374.459 44.0156C374.665 44.1393 374.83 44.263 375.036 44.4279Z" fill="#DB910E"/>
<path d="M374.459 43.9726L369.801 44.1787C369.595 44.055 369.388 43.9314 369.224 43.8077L373.882 43.6016C374.047 43.7252 374.253 43.8489 374.459 43.9726Z" fill="#DB910E"/>
<path d="M373.841 43.6054L369.182 43.8115C368.976 43.6878 368.77 43.5642 368.564 43.4405L373.222 43.2344C373.47 43.3581 373.635 43.4817 373.841 43.6054Z" fill="#DB910E"/>
<path d="M373.264 43.2321L368.605 43.4383C368.399 43.3146 368.193 43.2321 367.987 43.1085L372.645 42.9023C372.81 43.026 373.057 43.1497 373.264 43.2321Z" fill="#DB910E"/>
<path d="M372.604 42.9448L367.946 43.1509C367.739 43.0685 367.492 42.9448 367.286 42.8624L371.944 42.6562C372.192 42.7387 372.398 42.8211 372.604 42.9448Z" fill="#DB910E"/>
<path d="M371.944 42.6536L367.286 42.8597C367.08 42.7773 366.832 42.6948 366.626 42.6124L371.285 42.4062C371.491 42.4475 371.738 42.5299 371.944 42.6536Z" fill="#DB910E"/>
<path d="M371.285 42.4098L366.626 42.616H366.585L371.243 42.4098C371.243 42.3686 371.243 42.3686 371.285 42.4098Z" fill="#DB910E"/>
<path d="M365.054 86.9832C373.286 86.5863 379.475 76.2176 378.878 63.824C378.281 51.4303 371.123 41.705 362.891 42.1018C354.659 42.4986 348.469 52.8673 349.067 65.261C349.664 77.6546 356.822 87.38 365.054 86.9832Z" fill="#FDC510"/>
<path d="M365.554 50.3633L366.956 50.8168L366.585 54.0735C367.946 54.5682 368.811 55.434 369.43 56.2172L368.605 58.2785C368.152 57.7013 367.327 56.6707 365.843 56.176C364.07 55.5989 363.246 56.9593 363.081 58.2785C362.875 60.0512 363.617 61.2055 365.472 63.0606C367.657 65.2455 368.646 67.3892 368.317 70.3986C368.028 73.0783 366.503 75.1395 364.07 74.9746L363.699 78.4788L362.256 78.0253L362.627 74.6036C361.308 74.1501 359.989 73.0783 359.288 71.9652L360.072 69.8627C360.814 70.9346 361.927 71.9652 363.205 72.3774C364.812 72.9134 366.09 71.8827 366.297 69.9452C366.503 68.09 365.719 66.6472 364.153 65.0806C361.968 62.9781 360.69 60.9581 361.02 57.9899C361.35 55.1866 362.916 53.4964 365.06 53.6613L365.554 50.3633Z" fill="white"/>
<path d="M504.195 119.233C497.476 120.058 491.333 125.293 491.333 132.096C490.55 125.293 485.273 119.233 478.471 119.233C485.191 118.368 491.333 113.173 491.333 106.371C492.075 113.173 497.352 119.233 504.195 119.233Z" fill="#DB910E"/>
<path d="M434.908 19.7451C424.785 20.9872 415.53 28.8751 415.53 39.123C414.35 28.8751 406.401 19.7451 396.153 19.7451C406.276 18.4408 415.53 10.6151 415.53 0.367188C416.648 10.6151 424.598 19.7451 434.908 19.7451Z" fill="#FDC510"/>
<path d="M358.754 122.406L356.775 120.427C355.868 119.52 355.868 118.036 356.775 117.17L358.754 115.191C359.207 114.738 359.248 113.996 358.836 113.501C358.382 112.965 357.558 112.965 357.063 113.46L355.043 115.48C354.136 116.387 352.652 116.387 351.786 115.48L349.808 113.501C349.354 113.048 348.612 113.006 348.117 113.419C347.582 113.872 347.582 114.697 348.076 115.191L350.096 117.211C351.003 118.118 351.003 119.602 350.096 120.468L348.117 122.447C347.664 122.9 347.623 123.642 348.035 124.137C348.488 124.673 349.313 124.673 349.808 124.178L351.828 122.158C352.735 121.251 354.219 121.251 355.084 122.158L357.105 124.178C357.599 124.673 358.424 124.632 358.877 124.137C359.289 123.601 359.248 122.859 358.754 122.406Z" fill="#DB910E"/>
</svg>
