<svg width="160" height="164" viewBox="0 0 160 164" fill="none" xmlns="http://www.w3.org/2000/svg">
<path d="M156.633 85.2905L85.506 156.418C82.3464 159.577 77.2029 159.577 73.9699 156.418L2.84294 85.2905C-0.316625 82.131 -0.316625 76.9875 2.84294 73.7544L73.9699 2.62749C77.1295 -0.532079 82.2729 -0.532079 85.506 2.62749L156.633 73.7544C159.866 76.914 159.866 82.0575 156.633 85.2905Z" fill="#2B2B68"/>
<rect x="37.5152" y="9.85156" width="99.1961" height="128.054" rx="24" fill="#DB910E"/>
<rect x="27.5957" y="19.4062" width="99.1961" height="128.054" rx="20" fill="#FDC510"/>
<path d="M91.3841 163.473H11.2928C5.34109 163.473 0.491516 158.624 0.491516 152.672V80.149C0.491516 70.8172 11.5133 65.8207 18.4937 72.0664L98.585 144.589C106.006 151.202 101.304 163.473 91.3841 163.473Z" fill="#4256D6"/>
<path d="M40.1698 163.473H148.697C154.649 163.473 159.499 158.623 159.499 152.671V81.2505C159.499 71.9188 148.477 66.9223 141.496 73.1679L40.1698 163.473Z" fill="#5166EB"/>
<path d="M74.3975 44.2844C75.8787 41.3624 80.0519 41.3624 81.5331 44.2844L85.1193 51.3591C85.7022 52.5089 86.8035 53.3074 88.0777 53.5038L95.8562 54.703C99.099 55.2029 100.394 59.1795 98.0669 61.4929L92.4275 67.0997C91.5132 68.0087 91.0931 69.3027 91.2991 70.5753L92.5661 78.4052C93.0913 81.6504 89.6947 84.1085 86.7762 82.5952L79.8023 78.9791C78.6502 78.3816 77.2798 78.3803 76.1265 78.9756L69.0712 82.617C66.153 84.1232 62.7634 81.6654 63.288 78.4235L64.5581 70.5753C64.764 69.3027 64.3439 68.0087 63.4297 67.0997L57.7946 61.4972C55.4669 59.183 56.7635 55.205 60.0078 54.7069L67.8512 53.5028C69.1263 53.307 70.2287 52.5083 70.812 51.3577L74.3975 44.2844Z" fill="#EBEFFB"/>
</svg>
