<svg width="333" height="333" viewBox="0 0 333 333" fill="none" xmlns="http://www.w3.org/2000/svg">
<g filter="url(#filter0_d)">
<path d="M166.986 308.867C249.829 308.867 316.986 241.71 316.986 158.867C316.986 76.0245 249.829 8.86719 166.986 8.86719C84.1432 8.86719 16.9859 76.0245 16.9859 158.867C16.9859 241.71 84.1432 308.867 166.986 308.867Z" fill="white"/>
</g>
<path d="M166.986 298.867C244.306 298.867 306.986 236.187 306.986 158.867C306.986 81.5473 244.306 18.8672 166.986 18.8672C89.666 18.8672 26.9859 81.5473 26.9859 158.867C26.9859 236.187 89.666 298.867 166.986 298.867Z" fill="#EBEFFB"/>
<path d="M243.633 162.291L172.506 233.418C169.346 236.577 164.203 236.577 160.97 233.418L89.8429 162.291C86.6834 159.131 86.6834 153.987 89.8429 150.754L160.97 79.6275C164.129 76.4679 169.273 76.4679 172.506 79.6275L243.633 150.754C246.866 153.914 246.866 159.057 243.633 162.291Z" fill="#2B2B68"/>
<rect x="124.515" y="86.8516" width="99.1961" height="128.054" rx="24" fill="#DB910E"/>
<rect x="114.596" y="96.4062" width="99.1961" height="128.054" rx="20" fill="#FDC510"/>
<path d="M178.384 240.473H98.2928C92.3411 240.473 87.4915 235.624 87.4915 229.672V157.149C87.4915 147.817 98.5133 142.821 105.494 149.066L185.585 221.589C193.006 228.202 188.304 240.473 178.384 240.473Z" fill="#4256D6"/>
<path d="M127.17 240.473H235.697C241.649 240.473 246.499 235.623 246.499 229.671V158.251C246.499 148.919 235.477 143.922 228.496 150.168L127.17 240.473Z" fill="#5166EB"/>
<path d="M161.398 121.284C162.879 118.362 167.052 118.362 168.533 121.284L172.119 128.359C172.702 129.509 173.804 130.307 175.078 130.504L182.856 131.703C186.099 132.203 187.394 136.18 185.067 138.493L179.427 144.1C178.513 145.009 178.093 146.303 178.299 147.575L179.566 155.405C180.091 158.65 176.695 161.108 173.776 159.595L166.802 155.979C165.65 155.382 164.28 155.38 163.126 155.976L156.071 159.617C153.153 161.123 149.763 158.665 150.288 155.424L151.558 147.575C151.764 146.303 151.344 145.009 150.43 144.1L144.795 138.497C142.467 136.183 143.764 132.205 147.008 131.707L154.851 130.503C156.126 130.307 157.229 129.508 157.812 128.358L161.398 121.284Z" fill="#EBEFFB"/>
<defs>
<filter id="filter0_d" x="0.98587" y="0.867188" width="332" height="332" filterUnits="userSpaceOnUse" color-interpolation-filters="sRGB">
<feFlood flood-opacity="0" result="BackgroundImageFix"/>
<feColorMatrix in="SourceAlpha" type="matrix" values="0 0 0 0 0 0 0 0 0 0 0 0 0 0 0 0 0 0 127 0"/>
<feOffset dy="8"/>
<feGaussianBlur stdDeviation="8"/>
<feColorMatrix type="matrix" values="0 0 0 0 0.258824 0 0 0 0 0.337255 0 0 0 0 0.839216 0 0 0 0.15 0"/>
<feBlend mode="normal" in2="BackgroundImageFix" result="effect1_dropShadow"/>
<feBlend mode="normal" in="SourceGraphic" in2="effect1_dropShadow" result="shape"/>
</filter>
</defs>
</svg>
