<svg width="332" height="333" viewBox="0 0 332 333" fill="none" xmlns="http://www.w3.org/2000/svg">
<g filter="url(#filter0_d)">
<path d="M166 308.867C248.843 308.867 316 241.71 316 158.867C316 76.0245 248.843 8.86719 166 8.86719C83.1573 8.86719 16 76.0245 16 158.867C16 241.71 83.1573 308.867 166 308.867Z" fill="white"/>
</g>
<path d="M166 298.867C243.665 298.867 306.625 236.187 306.625 158.867C306.625 81.5473 243.665 18.8672 166 18.8672C88.335 18.8672 25.375 81.5473 25.375 158.867C25.375 236.187 88.335 298.867 166 298.867Z" fill="#EBEFFB"/>
<path d="M137.423 234.534H104.76C99.1727 234.534 94.6122 229.987 94.6122 224.415V164.441L137.423 131.668V234.534Z" fill="#4256D6" stroke="#EBEFFB" stroke-width="4" stroke-miterlimit="10"/>
<path d="M180.44 234.534H137.588V131.668L180.44 148.054V234.534Z" fill="#5166EB" stroke="#EBEFFB" stroke-width="4" stroke-miterlimit="10"/>
<path d="M213.102 234.53H180.44V148.092L223.251 94.8359V224.412C223.251 229.983 218.731 234.53 213.102 234.53Z" fill="#4256D6" stroke="#EBEFFB" stroke-width="4" stroke-miterlimit="10"/>
<path d="M137.587 143.261C144.009 143.261 149.215 138.07 149.215 131.668C149.215 125.265 144.009 120.074 137.587 120.074C131.166 120.074 125.96 125.265 125.96 131.668C125.96 138.07 131.166 143.261 137.587 143.261Z" fill="#FDC510" stroke="#FDC510" stroke-width="4" stroke-miterlimit="10"/>
<path d="M223.25 106.39C229.672 106.39 234.878 101.199 234.878 94.7965C234.878 88.3937 229.672 83.2031 223.25 83.2031C216.829 83.2031 211.623 88.3937 211.623 94.7965C211.623 101.199 216.829 106.39 223.25 106.39Z" fill="#FDC510" stroke="#FDC510" stroke-width="4" stroke-miterlimit="10"/>
<path d="M180.44 158.499C186.861 158.499 192.067 153.309 192.067 146.906C192.067 140.503 186.861 135.312 180.44 135.312C174.018 135.312 168.812 140.503 168.812 146.906C168.812 153.309 174.018 158.499 180.44 158.499Z" fill="#FDC510" stroke="#FDC510" stroke-width="4" stroke-miterlimit="10"/>
<path d="M94.5712 174.804C100.993 174.804 106.198 169.613 106.198 163.211C106.198 156.808 100.993 151.617 94.5712 151.617C88.1497 151.617 82.9441 156.808 82.9441 163.211C82.9441 169.613 88.1497 174.804 94.5712 174.804Z" fill="#FDC510" stroke="#FDC510" stroke-width="4" stroke-miterlimit="10"/>
<path d="M113.885 205.661C113.885 203.736 115.446 202.179 117.377 202.179C130.196 202.138 176.499 198.779 220.543 155.478L212.038 146.998C211.298 146.26 211.832 145.031 212.86 145.031H247.905C248.563 145.031 249.056 145.564 249.056 146.178V180.631C249.056 181.655 247.823 182.187 247.084 181.45L238.949 173.339C238.949 173.339 216.27 218.565 117.049 209.143C115.241 208.938 113.885 207.464 113.885 205.661Z" fill="#FF644E"/>
<defs>
<filter id="filter0_d" x="0" y="0.867188" width="332" height="332" filterUnits="userSpaceOnUse" color-interpolation-filters="sRGB">
<feFlood flood-opacity="0" result="BackgroundImageFix"/>
<feColorMatrix in="SourceAlpha" type="matrix" values="0 0 0 0 0 0 0 0 0 0 0 0 0 0 0 0 0 0 127 0"/>
<feOffset dy="8"/>
<feGaussianBlur stdDeviation="8"/>
<feColorMatrix type="matrix" values="0 0 0 0 0.258824 0 0 0 0 0.337255 0 0 0 0 0.839216 0 0 0 0.15 0"/>
<feBlend mode="normal" in2="BackgroundImageFix" result="effect1_dropShadow"/>
<feBlend mode="normal" in="SourceGraphic" in2="effect1_dropShadow" result="shape"/>
</filter>
</defs>
</svg>
