<svg width="170" height="156" viewBox="0 0 170 156" fill="none" xmlns="http://www.w3.org/2000/svg">
<path d="M57.4231 153.534H24.7603C19.1727 153.534 14.6122 148.987 14.6122 143.415V83.4408L57.4231 50.668V153.534Z" fill="#4256D6" stroke="#EBEFFB" stroke-width="4" stroke-miterlimit="10"/>
<path d="M100.44 153.534H57.5875V50.668L100.44 67.0544V153.534Z" fill="#5166EB" stroke="#EBEFFB" stroke-width="4" stroke-miterlimit="10"/>
<path d="M133.102 153.53H100.44V67.0918L143.251 13.8359V143.412C143.251 148.983 138.731 153.53 133.102 153.53Z" fill="#4256D6" stroke="#EBEFFB" stroke-width="4" stroke-miterlimit="10"/>
<path d="M57.5875 62.261C64.009 62.261 69.2146 57.0705 69.2146 50.6676C69.2146 44.2648 64.009 39.0742 57.5875 39.0742C51.166 39.0742 45.9603 44.2648 45.9603 50.6676C45.9603 57.0705 51.166 62.261 57.5875 62.261Z" fill="#FDC510" stroke="#FDC510" stroke-width="4" stroke-miterlimit="10"/>
<path d="M143.25 25.3899C149.672 25.3899 154.878 20.1994 154.878 13.7965C154.878 7.39367 149.672 2.20312 143.25 2.20312C136.829 2.20312 131.623 7.39367 131.623 13.7965C131.623 20.1994 136.829 25.3899 143.25 25.3899Z" fill="#FDC510" stroke="#FDC510" stroke-width="4" stroke-miterlimit="10"/>
<path d="M100.44 77.4993C106.861 77.4993 112.067 72.3088 112.067 65.9059C112.067 59.503 106.861 54.3125 100.44 54.3125C94.018 54.3125 88.8124 59.503 88.8124 65.9059C88.8124 72.3088 94.018 77.4993 100.44 77.4993Z" fill="#FDC510" stroke="#FDC510" stroke-width="4" stroke-miterlimit="10"/>
<path d="M14.5712 93.804C20.9927 93.804 26.1984 88.6134 26.1984 82.2106C26.1984 75.8077 20.9927 70.6172 14.5712 70.6172C8.14974 70.6172 2.94409 75.8077 2.94409 82.2106C2.94409 88.6134 8.14974 93.804 14.5712 93.804Z" fill="#FDC510" stroke="#FDC510" stroke-width="4" stroke-miterlimit="10"/>
<path d="M33.885 124.661C33.885 122.736 35.4463 121.179 37.3773 121.179C50.1959 121.138 96.4991 117.779 140.543 74.4776L132.038 65.9976C131.298 65.2602 131.832 64.0312 132.86 64.0312H167.905C168.563 64.0312 169.056 64.5638 169.056 65.1783V99.6308C169.056 100.655 167.823 101.187 167.084 100.45L158.949 92.3388C158.949 92.3388 136.27 137.565 37.0486 128.143C35.2408 127.938 33.885 126.464 33.885 124.661Z" fill="#FF644E"/>
</svg>
