<svg width="35" height="31" viewBox="0 0 35 31" fill="none" xmlns="http://www.w3.org/2000/svg">
<path d="M14 20.3636C13.6242 20.3636 13.3423 20.2768 13.0604 20.0163L8.08051 15.7612C7.51675 15.2402 7.51675 14.4586 7.98655 13.9376C8.55031 13.4166 9.39595 13.4166 9.95972 13.8507L13.9061 17.2374L32.2283 0.390773C32.7921 -0.130258 33.6377 -0.130258 34.2015 0.390773C34.7652 0.911805 34.7652 1.69335 34.2015 2.21438L15.0336 19.9294C14.7517 20.19 14.3759 20.3636 14 20.3636Z" fill="#287AFF"/>
<path d="M15.0337 30.4368C6.76514 30.4368 0 24.1844 0 16.5426C0 8.90081 6.76514 2.64844 15.0337 2.64844C16.7249 2.64844 18.3223 2.90895 19.9196 3.42999C20.6713 3.6905 21.0471 4.38521 20.7652 5.07992C20.4834 5.77462 19.7317 6.12198 18.98 5.86146C17.6645 5.42727 16.3491 5.25359 15.0337 5.25359C8.36247 5.25359 2.81881 10.2902 2.81881 16.5426C2.81881 22.795 8.26851 27.8316 15.0337 27.8316C21.7988 27.8316 27.2485 22.795 27.2485 16.5426C27.2485 15.9347 27.1545 15.24 27.0606 14.6322C26.9666 13.9374 27.4364 13.2427 28.1881 13.1559C28.9398 13.0691 29.6915 13.5033 29.7854 14.198C29.9733 14.9795 29.9733 15.7611 29.9733 16.5426C29.9733 24.1844 23.3022 30.4368 15.0337 30.4368Z" fill="#287AFF"/>
</svg>
