<svg width="1336" height="656" viewBox="0 0 1336 656" fill="none" xmlns="http://www.w3.org/2000/svg">
<path d="M328.5 616.318C377.553 611.837 425.975 599.067 475.239 598.619C497.976 598.395 525.766 598.843 546.819 609.597C566.82 619.902 582.82 638.049 603.873 647.01C613.557 651.042 623.873 652.61 634.189 653.507C717.138 659.555 787.245 608.477 863.457 584.282C893.983 574.648 927.879 586.746 958.406 593.243C999.248 601.756 1039.46 616.094 1081.57 614.301C1172.94 610.045 1283.89 560.31 1320.73 464.65C1336.52 423.429 1340.52 373.246 1317.99 333.593C1292.1 288.339 1237.57 274.897 1189.78 260.335C1136.09 243.981 1084.93 209.481 1046.62 165.571C1018.83 133.759 1006.2 91.6414 982.617 56.6929C956.09 17.2637 907.036 -9.84379 861.562 7.18242C813.14 25.3288 778.192 61.1734 724.086 65.206C684.717 68.1183 647.663 56.0208 608.926 54.6766C551.451 52.4363 493.555 81.112 458.186 129.502C441.344 152.577 429.133 179.685 409.343 199.623C373.343 236.14 318.605 242.637 269.13 238.604C219.445 234.348 169.76 205.896 120.496 213.737C63.8635 222.698 6.59937 269.745 2.59929 335.609C-2.66397 419.396 35.4419 498.702 95.443 551.349C159.655 607.356 247.025 623.711 328.5 616.318Z" stroke="#9DD4F9" stroke-width="4" stroke-linejoin="round" stroke-dasharray="3.5 3.5"/>
</svg>
