<svg width="968" height="527" viewBox="0 0 968 527" fill="none" xmlns="http://www.w3.org/2000/svg">
<path d="M729.162 494.773C693.683 491.179 658.66 480.936 623.029 480.576C606.584 480.397 586.484 480.756 571.257 489.382C556.791 497.648 545.218 512.204 529.991 519.393C522.987 522.627 515.526 523.885 508.064 524.604C448.07 529.456 397.363 488.483 342.241 469.075C320.162 461.348 295.646 471.052 273.567 476.264C244.027 483.092 214.943 494.593 184.489 493.156C118.403 489.741 38.1562 449.847 11.5088 373.113C0.0884404 340.048 -2.8047 299.794 13.4883 267.986C32.2176 231.686 71.6558 220.904 106.221 209.223C145.05 196.105 182.052 168.43 209.766 133.208C229.865 107.69 239.002 73.9056 256.056 45.8718C275.242 14.2438 310.721 -7.50037 343.612 6.15716C378.634 20.7132 403.911 49.4659 443.045 52.7006C471.519 55.0367 498.319 45.3327 526.337 44.2545C567.907 42.4575 609.781 65.4596 635.363 104.276C647.545 122.785 656.376 144.53 670.69 160.523C696.728 189.815 736.319 195.026 772.102 191.792C808.038 188.377 843.974 165.555 879.606 171.845C920.566 179.033 961.984 216.771 964.877 269.604C968.684 336.813 941.123 400.428 897.726 442.659C851.283 487.585 788.091 500.703 729.162 494.773Z" stroke="#9DD4F9" stroke-width="4" stroke-linejoin="round" stroke-dasharray="3.5 3.5"/>
</svg>
