<svg width="300" height="320" viewBox="0 0 300 320" fill="none" xmlns="http://www.w3.org/2000/svg">
<path d="M290.406 69.4028L299.579 63.4768L297.225 59.499L290.081 62.0967L289.838 59.6614L282.613 65.6686L284.48 70.2145L290.406 69.4028Z" fill="#EAC2AB"/>
<path d="M204.844 52.7617L252.577 72.3257L282.613 65.6691L285.617 71.4327L258.097 91.6461L220.268 87.1813L204.844 52.7617Z" fill="#0028D0"/>
<path d="M154.838 307.174L154.108 312.856L164.823 320L171.236 315.048L166.285 308.635L155.569 301.491L154.838 307.174Z" fill="#3555DB"/>
<path d="M154.514 305.226L162.713 232.49L152.809 151.15L155.082 133.777L199.324 132.154L200.866 160.323L193.479 232.652L165.554 308.96L154.514 305.226Z" fill="#030047"/>
<path d="M231.714 140.271L231.876 213.657L217.102 308.148L206.468 307.986L200.623 220.638L186.904 133.209L231.714 140.271Z" fill="#2B2B68"/>
<path d="M206.468 312.532L217.914 318.377L223.677 312.694L217.995 306.849L206.549 306.768L206.468 312.532Z" fill="#3555DB"/>
<path d="M148.263 165.193C148.344 162.027 148.506 159.349 148.588 158.374C148.831 149.851 149.562 141.327 150.617 132.885C151.591 125.335 152.809 106.42 154.108 98.8709C155.163 92.6201 158.897 77.1151 161.657 71.3515C168.395 56.9829 166.285 55.6841 195.833 51.3816C208.741 49.5145 211.825 57.5512 222.379 66.8055C223.434 67.6984 223.353 73.1374 223.596 74.5986C224.002 77.1151 224.489 79.6316 224.976 82.2293C225.382 84.1776 225.869 86.2071 226.356 88.1553C226.356 88.1553 235.205 128.501 241.131 137.106C246.976 145.711 259.152 157.644 238.858 165.031C235.286 166.168 231.633 167.304 227.899 167.872C227.899 167.872 211.338 166.005 202.815 166.086C194.94 166.168 187.066 166.979 179.354 168.278C174.159 169.171 168.882 170.389 164.336 172.824C159.953 175.097 156.787 178.507 152.241 180.861C151.835 181.104 151.348 181.348 150.861 181.267C148.182 180.942 148.019 171.931 148.263 165.193Z" fill="#3555DB"/>
<path d="M195.752 55.5216C194.291 56.2522 190.719 56.4957 187.066 55.1157C186.335 54.791 185.848 54.1415 185.848 53.3298C185.848 51.1379 186.092 48.865 186.417 46.6731C183.657 45.699 180.491 44.2378 180.004 41.3966C179.841 40.5036 180.004 39.5295 180.166 38.6365C180.815 34.9023 181.465 31.1681 182.114 27.4339C182.358 26.1351 182.601 24.8362 183.251 23.6997C184.468 21.7514 186.904 20.9397 189.177 20.5338C194.94 19.5596 201.272 20.7773 205.737 24.5927C206.955 25.5668 208.01 26.7845 208.578 28.3269C209.39 30.5999 208.822 33.1164 208.172 35.4706C207.604 37.6624 207.036 39.773 206.468 41.9648C205.818 44.4002 204.844 47.2414 202.49 48.2155C201.191 48.7026 199.73 48.5402 198.593 49.2708C196.564 50.3262 196.807 53.3298 195.752 55.5216Z" fill="#EAC2AB"/>
<path d="M229.198 18.1795C229.766 17.2054 230.415 16.3124 231.065 15.5006C232.526 13.6335 234.393 12.0912 235.611 10.0617C236.828 8.03225 237.234 5.27219 235.773 3.40509C234.88 2.18742 233.338 1.61917 231.877 1.1321C227.087 -0.24793 221.892 -0.410286 217.021 0.888565C212.394 2.10624 208.254 4.05451 203.627 2.26859C199.243 0.645031 196.077 1.29446 191.531 2.91802C186.579 4.70394 179.923 5.10983 175.458 7.62636C173.591 8.68167 172.129 10.3052 170.912 12.0912C166.853 18.3419 166.853 26.8656 170.831 33.1163C171.723 34.4963 172.779 35.7952 173.915 37.0129C176.269 39.5294 179.03 42.6953 182.277 43.5883C182.358 40.7471 179.76 31.6551 181.952 29.3009C185.443 25.5667 193.398 26.8656 197.701 27.7585C202.409 28.7327 206.63 32.1422 211.338 32.8728C214.748 33.3598 219.05 31.7363 221.892 29.9504C225.463 27.9209 227.087 21.589 229.198 18.1795Z" fill="#030047"/>
<path d="M171.236 56.9824L152.809 73.0557L132.271 116.243L158.248 147.09L162.713 129.88L171.236 56.9824Z" fill="black"/>
<path d="M51.0059 52.0199C66.6733 36.3525 87.4549 27.7476 109.535 27.7476C131.616 27.7476 152.479 36.3525 168.065 52.0199C183.732 67.6872 192.337 88.4688 192.337 110.549C192.337 132.63 183.732 153.493 168.065 169.079C152.397 184.746 131.616 193.351 109.535 193.351C87.4549 193.351 66.5921 184.746 51.0059 169.079C35.3385 153.411 26.7336 132.63 26.7336 110.549C26.7336 88.4688 35.4196 67.6872 51.0059 52.0199Z" fill="#EBEFFB"/>
<path d="M55.1522 164.949C25.0989 134.896 25.0989 86.1697 55.1522 56.1165C85.2054 26.0632 133.931 26.0632 163.985 56.1165C194.038 86.1697 194.038 134.896 163.985 164.949C133.931 195.002 85.2054 195.002 55.1522 164.949Z" fill="#18F0BC"/>
<path d="M139.6 73.949L83.1208 130.428L100.227 147.533L156.705 91.0546L139.6 73.949Z" fill="white"/>
<path d="M62.8264 111.349L99.2427 147.766L116.348 130.66L79.932 94.2436L62.8264 111.349Z" fill="white"/>
</svg>
