<?xml version="1.0" encoding="utf-8"?>
<!-- Generator: Adobe Illustrator 22.1.0, SVG Export Plug-In . SVG Version: 6.00 Build 0)  -->
<svg version="1.1" id="Слой_1" xmlns="http://www.w3.org/2000/svg" xmlns:xlink="http://www.w3.org/1999/xlink" x="0px" y="0px"
	 width="167.5px" height="167.5px" viewBox="0 0 167.5 167.5" style="enable-background:new 0 0 167.5 167.5;" xml:space="preserve"
	>
<style type="text/css">
	.st0{fill:#EBEFFB;}
	.st1{fill:#FF644E;}
	.st2{fill:#FFFFFF;}
</style>
<path class="st0" d="M24.6,24.6C40.4,8.7,61.4,0,83.8,0c22.3,0,43.4,8.7,59.2,24.6c15.8,15.8,24.6,36.9,24.6,59.2
	c0,22.3-8.7,43.4-24.6,59.2c-15.8,15.8-36.9,24.6-59.2,24.6c-22.3,0-43.4-8.7-59.2-24.6C8.7,127.1,0,106.1,0,83.8
	C0,61.4,8.8,40.4,24.6,24.6z"/>
<path class="st1" d="M28.7,138.8c-30.4-30.4-30.4-79.7,0-110.1c30.4-30.4,79.7-30.4,110.1,0c30.4,30.4,30.4,79.7,0,110.1
	C108.4,169.2,59.1,169.2,28.7,138.8z"/>
<path class="st2" d="M24.4,71.6h118.7v24.5H24.4V71.6z"/>
</svg>
