<svg width="266" height="310" viewBox="0 0 266 310" fill="none" xmlns="http://www.w3.org/2000/svg">
<path d="M202.075 71.6815L236.348 63.5824L245.451 17.6875L234.116 18.7674L225.281 48.734L180.923 49.9939L178.424 53.4135L202.075 71.6815Z" fill="#0028D0"/>
<path d="M236.142 18.6186L237.31 6.50744L245.843 0L246.382 3.52486L243.418 6.50744C243.418 6.50744 242.699 10.0324 240.543 11.84C240.813 13.8284 242.43 18.1667 242.43 18.1667L236.142 18.6186Z" fill="#EAC2AB"/>
<path d="M190.302 289.52L179.355 295.501L180.326 300.691L199.836 297.964L198.776 290.575L190.302 289.52Z" fill="#3555DB"/>
<path d="M241.073 296.122L249.007 296.036L251.037 302.29L250.76 302.376H250.852L237.568 309.486L231.202 310L230.556 303.318L232.217 302.204L241.073 296.122Z" fill="#3555DB"/>
<path d="M217.525 171.176C216.271 171.087 212.869 215.737 212.869 215.737L237.044 296.967L251.013 294.188L242.506 213.047C242.506 213.047 271.965 178.977 263.459 153.604C250.565 159.88 217.525 171.176 217.525 171.176Z" fill="#2B2B68"/>
<path d="M182.094 171.292L179.355 211.472L187.043 291.382L201.182 290.659C201.182 290.659 204.628 214.993 205.953 213.458C207.367 211.923 219.385 172.194 219.385 172.194L182.094 171.292Z" fill="#030047"/>
<path d="M200.871 189.883C246.422 189.069 249.733 165.824 259.756 163.291C269.779 160.758 264.588 148.729 264.588 148.729C264.588 148.729 262.709 143.392 261.903 140.498C256.087 120.237 238.546 94.2777 238.546 94.2777C229.866 82.3383 221.185 71.7557 213.668 65.4242C191.385 46.5202 167.491 45.6157 167.491 45.6157C133.037 56.4697 145.208 72.8411 144.85 77.1827C156.126 87.6749 164.359 103.413 170.444 120.237C173.308 129.191 176.619 144.568 174.292 163.381C173.576 169.351 172.681 174.597 171.786 179.12C171.518 184.999 177.156 190.335 200.871 189.883Z" fill="#3555DB"/>
<path d="M167.367 49.622C167.367 49.622 159.653 45.3668 154.899 52.7908C149.159 61.7539 181.718 102.224 181.001 188.596C189.522 190.316 211.587 194.481 234.28 183.707C229.167 157.994 206.833 80.495 167.367 49.622Z" fill="white"/>
<path d="M134.995 176.538L126.182 184.324L122.568 180.939L127.328 174.253L124.86 173.407L133.145 167.567L137.463 170.699L134.995 176.538Z" fill="#EBCEB1"/>
<path d="M144.59 62.3721L141.455 69.6155L144.411 122.555C144.411 122.555 128.733 167.893 129.091 167.893C129.539 167.893 139.663 171.291 139.663 171.291L162.598 125.506V97.6053L144.59 62.3721Z" fill="#0028D0"/>
<path d="M150.758 22.3289C146.842 25.3846 143.473 31.7656 144.748 36.7985C145.385 39.2251 147.207 40.8428 147.753 43.539C148.937 48.7516 158.044 52.5263 154.219 58.5478C152.215 61.6035 148.39 62.9516 144.839 64.0301C144.383 64.1199 143.928 64.2997 143.473 64.2098C142.744 64.0301 142.289 63.3111 142.107 62.5921C142.016 61.8731 142.107 61.1541 142.198 60.4351C143.017 52.7959 137.826 45.2466 135.823 38.0567C133.911 30.8669 134.002 22.6885 139.01 16.7568C143.291 17.1163 145.021 16.3074 147.753 19.6327L150.758 22.3289Z" fill="#030047"/>
<path d="M159.083 53.0306C153.972 53.3929 148.952 50.6758 145.758 46.6908C142.472 42.7057 140.829 37.7244 139.734 32.7431C136.175 16.169 156.71 10.8255 167.479 20.9692C176.788 29.8449 173.959 51.8532 159.083 53.0306Z" fill="#EAC2AB"/>
<path d="M184.298 49.8799C181.618 49.7005 178.937 49.4314 176.614 47.6372C172.772 44.8563 170.448 38.5769 168.125 34.5401C165.623 30.3239 162.764 25.8386 158.207 24.2239C155.169 23.1474 152.488 23.865 149.718 25.0312C147.753 25.8386 148.021 26.5562 145.965 26.1974C144.357 25.9282 142.302 24.0444 141.498 22.6988C140.068 20.5459 139.979 17.6753 140.694 15.2532C141.855 11.4855 144.089 8.88404 147.663 7.26932C160.083 1.70752 172.593 5.20608 181.26 15.9709C185.46 21.1738 186.89 28.2607 191.089 33.1945C193.681 36.2445 196.897 37.5901 199.399 40.9989C205.833 49.7005 216.287 59.8373 220.129 70.0639C220.308 70.4227 220.397 70.8712 220.219 71.23C219.861 71.9477 218.789 71.6786 218.074 71.3198C213.785 69.1668 209.586 67.0138 205.297 64.9506C203.599 64.1432 201.901 63.2462 200.561 61.9903C197.165 58.8506 195.914 53.3784 191.804 51.3152C189.213 50.149 186.711 50.0593 184.298 49.8799Z" fill="#030047"/>
<path d="M51.5843 96.346C67.4319 80.4983 88.4526 71.7944 110.787 71.7944C133.122 71.7944 154.224 80.4983 169.99 96.346C185.838 112.194 194.542 133.214 194.542 155.549C194.542 177.883 185.838 198.986 169.99 214.752C154.142 230.599 133.122 239.303 110.787 239.303C88.4526 239.303 67.3498 230.599 51.5843 214.752C35.7366 198.904 27.0327 177.883 27.0327 155.549C27.0327 133.214 35.8187 112.194 51.5843 96.346Z" fill="#EBEFFB"/>
<path d="M55.7783 210.575C25.3792 180.175 25.3792 130.889 55.7783 100.49C86.1773 70.0909 135.464 70.0909 165.863 100.49C196.262 130.889 196.262 180.175 165.863 210.575C135.464 240.974 86.1773 240.974 55.7783 210.575Z" fill="#FF644E"/>
<path d="M51.4201 143.396H170.154V167.866H51.4201V143.396Z" fill="white"/>
</svg>
