<?xml version="1.0" encoding="utf-8"?>
<!-- Generator: Adobe Illustrator 22.1.0, SVG Export Plug-In . SVG Version: 6.00 Build 0)  -->
<svg version="1.1" id="Слой_1" xmlns="http://www.w3.org/2000/svg" xmlns:xlink="http://www.w3.org/1999/xlink" x="0px" y="0px"
	 width="165.6px" height="165.6px" viewBox="0 0 165.6 165.6" style="enable-background:new 0 0 165.6 165.6;" xml:space="preserve"
	>
<style type="text/css">
	.st0{fill:#EBEFFB;}
	.st1{fill:#18F0BC;}
	.st2{fill:#FFFFFF;}
</style>
<path class="st0" d="M24.3,24.3C39.9,8.6,60.7,0,82.8,0c22.1,0,42.9,8.6,58.5,24.3c15.7,15.7,24.3,36.4,24.3,58.5
	c0,22.1-8.6,42.9-24.3,58.5c-15.7,15.7-36.4,24.3-58.5,24.3c-22.1,0-42.9-8.6-58.5-24.3C8.6,125.7,0,104.9,0,82.8
	C0,60.7,8.7,39.9,24.3,24.3z"/>
<path class="st1" d="M28.4,137.2c-30.1-30.1-30.1-78.8,0-108.8c30.1-30.1,78.8-30.1,108.8,0c30.1,30.1,30.1,78.8,0,108.8
	C107.2,167.3,58.5,167.3,28.4,137.2z"/>
<path class="st2" d="M112.9,46.2l-56.5,56.5l17.1,17.1L130,63.3L112.9,46.2z"/>
<path class="st2" d="M36.1,83.6L72.5,120l17.1-17.1L53.2,66.5L36.1,83.6z"/>
</svg>
