<svg width="26" height="29" viewBox="0 0 26 29" fill="none" xmlns="http://www.w3.org/2000/svg">
<path d="M9.01592 13.9032V12.3477H3.83582V20.7355H9.18876V19.1799H5.74213V17.1872H8.82783V15.6418H5.74213V13.9032H9.01592Z" fill="#F5F5F5"/>
<path d="M13.0471 12.2861C11.8881 12.2861 11.0697 12.3624 10.485 12.459V20.7349H12.3659V17.7357C12.5388 17.7611 12.7625 17.7712 13.0116 17.7712C14.1299 17.7712 15.0907 17.4967 15.7363 16.8867C16.2345 16.4139 16.509 15.7175 16.509 14.894C16.509 14.0755 16.1481 13.374 15.6143 12.9521C15.05 12.5098 14.2163 12.2861 13.0471 12.2861ZM12.9963 16.3174C12.7218 16.3174 12.5235 16.3072 12.3609 16.2665V13.7909C12.4981 13.7553 12.7574 13.7146 13.1437 13.7146C14.0893 13.7146 14.623 14.1721 14.623 14.9448C14.6281 15.8039 14.0028 16.3174 12.9963 16.3174Z" fill="#F5F5F5"/>
<path d="M21.8975 8.04619H17.0478C16.7428 8.04619 16.4988 7.80218 16.4988 7.49717V1.87988H3.77985V10.7964H21.8975V8.04619Z" fill="#F5F5F5"/>
<path d="M21.8975 22.0977H3.77985V27.3845H21.8975V22.0977Z" fill="#F5F5F5"/>
<path d="M20.9723 15.7534C19.8895 15.3416 19.4167 15.1078 19.4167 14.5689C19.4167 14.1317 19.8133 13.7606 20.6368 13.7606C21.4603 13.7606 22.0551 13.9996 22.3906 14.1571L22.8125 12.627C22.3144 12.4033 21.6179 12.2051 20.6724 12.2051C18.6949 12.2051 17.5003 13.298 17.5003 14.7316C17.5003 15.9516 18.4102 16.7243 19.8031 17.2073C20.8096 17.5682 21.2112 17.8681 21.2112 18.3917C21.2112 18.9407 20.7486 19.3017 19.8794 19.3017C19.0711 19.3017 18.2882 19.0424 17.7748 18.7781L17.3884 20.3438C17.8612 20.603 18.8067 20.8521 19.7675 20.8521C22.0703 20.8521 23.1531 19.6575 23.1531 18.2494C23.148 17.0751 22.4516 16.3024 20.9723 15.7534Z" fill="#F5F5F5"/>
<path d="M23.6666 10.7968H22.9956V7.55347C22.9956 7.53313 22.9905 7.5128 22.9905 7.49247C22.9905 7.36538 22.9498 7.23829 22.8583 7.13662L17.4596 0.970317C17.4596 0.970317 17.4545 0.970317 17.4545 0.965233C17.424 0.929649 17.3834 0.899147 17.3427 0.87373C17.3325 0.863563 17.3173 0.858479 17.3071 0.853396C17.2715 0.833062 17.2359 0.817811 17.2004 0.807644C17.1902 0.802561 17.18 0.802561 17.1699 0.797477C17.1292 0.78731 17.0885 0.782227 17.0428 0.782227H3.77479C3.17493 0.782227 2.68183 1.27533 2.68183 1.88027V10.7968H2.01081C1.14153 10.7968 0.440002 11.4983 0.440002 12.3676V20.5266C0.440002 21.3908 1.14153 22.0974 2.01081 22.0974H2.68183V27.6842C2.68183 28.2891 3.17493 28.7822 3.77987 28.7822H21.8975C22.5025 28.7822 22.9956 28.2891 22.9956 27.6842V22.0974H23.6666C24.5359 22.0974 25.2374 21.3959 25.2374 20.5266V12.3676C25.2374 11.4983 24.5359 10.7968 23.6666 10.7968ZM3.77987 10.7968V1.88027H16.4988V7.49755C16.4988 7.80256 16.7428 8.04657 17.0478 8.04657H21.8975V10.7968H3.77987ZM16.5039 14.8991C16.5039 15.7227 16.2294 16.4191 15.7312 16.8919C15.0856 17.5019 14.1248 17.7764 13.0065 17.7764C12.7574 17.7764 12.5337 17.7612 12.3608 17.7408V20.7401H10.4799V12.4591C11.0645 12.3574 11.8881 12.2862 13.042 12.2862C14.2112 12.2862 15.0449 12.5099 15.6041 12.9572C16.143 13.3792 16.5039 14.0756 16.5039 14.8991ZM8.8278 15.6413V17.1867H5.74211V19.1795H9.18873V20.735H3.83579V12.3472H9.01081V13.9028H5.73703V15.6464H8.8278V15.6413ZM21.8975 27.3843H3.77987V22.0974H21.8975V27.3843ZM19.7624 20.857C18.8067 20.857 17.8612 20.6079 17.3834 20.3487L17.7748 18.7779C18.2831 19.0371 19.066 19.3015 19.8794 19.3015C20.7486 19.3015 21.2112 18.9405 21.2112 18.3915C21.2112 17.8679 20.8147 17.568 19.8031 17.2071C18.4102 16.719 17.5003 15.9514 17.5003 14.7314C17.5003 13.3029 18.6949 12.2049 20.6724 12.2049C21.6179 12.2049 22.3144 12.4031 22.8126 12.6268L22.3906 14.157C22.0551 13.9943 21.4553 13.7604 20.6368 13.7604C19.8133 13.7604 19.4168 14.1315 19.4168 14.5687C19.4168 15.1025 19.8895 15.3414 20.9723 15.7532C22.4516 16.3022 23.1481 17.0749 23.1481 18.2543C23.1481 19.6624 22.0653 20.857 19.7624 20.857Z" fill="#F5AA2B"/>
<path d="M13.1437 13.7148C12.7574 13.7148 12.4981 13.7504 12.3608 13.7911V16.2668C12.5235 16.3024 12.7218 16.3176 12.9963 16.3176C14.0028 16.3176 14.6281 15.8093 14.6281 14.9501C14.6281 14.1774 14.0892 13.7148 13.1437 13.7148Z" fill="#F5AA2B"/>
</svg>
