<svg width="344" height="701" viewBox="0 0 344 701" fill="none" xmlns="http://www.w3.org/2000/svg">
<path d="M207.761 150.078C180.799 147.33 155.382 139.516 131.854 125.262C118.029 116.933 102.315 106.027 89.864 95.8091C68.4827 78.206 33.5343 42.7424 4.33899 33.211C1.50533 32.2664 -0.984857 35.2718 0.389039 37.8479C5.28354 46.7782 13.8704 58.1128 23.4018 58.1128C47.5308 58.1128 57.3198 89.7983 77.2413 106.457C111.417 134.965 152.72 162.357 198.745 165.964C208.019 166.822 207.761 150.078 207.761 150.078Z" fill="#D4A79A"/>
<path d="M293.63 603.464L311.576 650.692L327.977 646.313L306.253 598.141C306.253 598.141 296.979 599.257 293.63 603.464Z" fill="#D4A79A"/>
<path d="M269.587 694.742C270.188 695.686 275.941 695.343 276.8 695.343C285.73 695.514 299.555 696.115 307.197 690.963C314.668 685.897 319.562 677.224 326.174 671.128C330.811 666.834 336.822 664.258 342.317 661.253C348.414 657.904 336.049 630.168 328.664 634.634C322.653 638.24 325.659 648.373 310.374 646.999C297.322 645.882 305.566 664.516 290.453 675.679C276.971 685.468 263.147 684.008 269.587 694.742Z" fill="#DB910E"/>
<path d="M244.084 428.979C253.272 474.403 270.36 516.135 294.746 554.948C306.682 573.925 310.889 579.506 323.169 598.14C340.686 624.759 293.372 641.074 279.719 645.11C270.789 647.772 257.393 647.943 257.737 640.215C257.823 637.897 259.283 635.75 260.485 633.603C271.476 613.939 260.399 593.073 251.468 574.612C224.849 519.226 220.126 506.089 198.659 448.642C190.502 426.746 186.38 352.556 184.405 328.856C183.203 314.344 195.396 254.58 220.47 271.324C236.098 281.8 229.143 318.552 228.026 333.407C227.339 343.711 225.794 354.874 227.683 365.35C231.719 386.817 239.704 407.511 244.084 428.979Z" fill="#030047"/>
<path d="M237.386 622.183L226.223 673.017L242.796 678.512L251.297 624.759C251.383 624.759 242.71 620.465 237.386 622.183Z" fill="#EAC2AB"/>
<path d="M158.215 693.024C158.215 693.024 170.666 697.231 194.452 699.035C218.237 700.838 244.856 701.696 249.665 698.176C254.474 694.655 257.565 664.601 249.665 664.601C241.765 664.601 238.674 676.108 224.677 665.803C212.656 657.045 203.124 673.617 182.258 677.997C161.392 682.376 152.891 684.179 158.215 693.024Z" fill="#FDC510"/>
<path d="M199.089 642.018C199.862 640.129 202.008 638.755 203.811 637.296C220.47 624.072 216.348 603.807 213.686 586.118C207.332 544.214 220.728 501.795 216.692 459.977C210.853 400.299 215.06 377.973 205.701 338.13C202.266 323.618 197.629 301.206 220.041 305.5C230.688 307.475 241.164 307.131 251.726 305.242C257.308 304.298 251.64 302.494 257.308 304.298C276.714 310.48 275.168 328.856 273.451 346.717C270.961 373.164 269.415 409.572 268.127 436.449C266.324 474.575 259.969 512.786 264.521 550.568C266.753 569.116 269.329 587.578 271.819 606.125C273.279 616.945 282.295 640.559 276.199 650.348C267.869 663.743 230.86 652.409 218.495 652.065C209.221 651.893 196.427 648.373 199.089 642.018Z" fill="#2B2B68"/>
<path d="M192.82 222.636C198.402 199.881 192.305 161.498 208.362 144.581C209.994 142.864 211.625 140.632 213.944 140.116C255.59 131.1 257.909 151.709 266.581 166.049C275.254 180.475 263.49 191.895 267.698 208.038C272.506 226.328 271.562 245.477 271.905 264.368C272.077 275.874 270.531 281.542 271.218 293.048C271.647 301.12 271.132 307.045 272.936 314.945C274.138 320.183 282.81 338.387 280.835 343.711C279.29 347.918 271.991 346.372 268.47 346.458C254.731 346.888 250.352 346.888 238.159 340.791C226.996 335.295 183.976 347.746 171.01 346.63C164.655 346.115 179.854 315.116 182.688 303.524C189.557 275.96 186.208 261.019 189.042 241.613C190.072 235.344 191.275 228.99 192.82 222.636Z" fill="#FF644E"/>
<path d="M214.03 140.203C214.03 140.203 203.039 150.164 175.389 137.627L166.287 166.135C166.287 166.135 192.992 178.93 205.701 169.227C216.606 160.897 213.686 140.718 214.03 140.203Z" fill="#C6110C"/>
<path d="M265.98 261.364C259.54 278.28 178.48 293.823 138.981 290.388C129.278 289.529 119.145 288.327 112.619 296.227C117.256 298.459 120.691 297 125.671 297.944C119.746 303.268 113.821 308.506 107.896 313.83C106.093 315.461 104.032 317.952 105.149 320.27C105.921 321.987 107.982 322.331 109.786 322.331C121.292 322.159 130.909 313.143 141.9 309.279C155.382 304.47 166.115 305.93 179.682 303.612C271.304 287.812 291.655 285.064 285.902 228.477C281.437 185.457 272.85 178.759 260.399 165.192C258.424 163.045 254.903 160.898 252.928 163.131C251.984 164.247 252.07 165.878 252.327 167.338C253.787 175.41 257.823 182.709 261.086 190.265C268.986 208.555 271.476 246.767 265.98 261.364Z" fill="#EAC2AB"/>
<path d="M252.756 200.139C252.756 200.139 227.769 131.702 248.377 141.405C268.814 151.022 288.564 194.558 288.564 194.558L254.56 208.984L252.756 200.139Z" fill="#F44E4E"/>
<path d="M220.47 133.247L226.395 173.777C236.871 176.697 247.862 182.192 258.853 182.106C258.338 174.55 250.438 165.963 246.832 158.922C242.452 150.335 239.361 141.405 239.876 131.787C241.164 106.542 220.47 133.247 220.47 133.247Z" fill="#D4A79A"/>
<path d="M202.094 54.6779C202.094 54.7638 185.092 65.4973 194.108 91.3438C203.811 118.993 217.722 142.178 226.652 139.774C251.383 133.162 258.767 115.902 266.238 100.961C275.426 82.6711 250.438 41.6259 250.438 41.6259L229.486 33.0391L202.094 54.6779Z" fill="#EAC2AB"/>
<path d="M170.495 52.9604C168.004 47.2072 170.752 36.3878 175.046 32.3519C176.677 30.8063 178.824 29.7759 181.142 29.7759C182.86 29.7759 184.577 30.4628 186.209 30.0335C191.103 28.8313 191.103 24.9672 195.654 23.164C199.003 21.876 202.609 24.5379 206.216 25.0531C208.964 25.3966 211.626 24.5379 214.288 23.851C221.672 21.7901 228.37 17.8402 236.098 16.3804C242.538 15.1782 249.408 15.2641 255.59 17.8402C262.03 20.4162 266.925 25.8259 269.844 32.1802C271.562 35.9584 272.42 40.3377 271.648 44.4594C272.249 41.1105 278.946 44.1159 280.149 45.404C284.614 50.2126 295.948 64.2092 294.317 70.3058C293.029 75.1145 297.065 79.4938 295.863 84.3883C294.489 90.2273 278.174 93.5762 275.254 98.9C271.905 104.997 264.521 108.517 257.737 107.401C259.283 101.991 260.828 96.4957 260.742 90.8284C260.656 85.1611 266.324 59.1429 236.27 55.9658C224.334 54.6777 210.939 64.982 199.175 66.3559C193.593 66.9569 187.926 66.4417 182.43 64.8102C178.223 63.6081 173.758 58.1984 171.182 54.2484C170.924 53.8191 170.752 53.3897 170.495 52.9604Z" fill="#011627"/>
<path d="M189.557 50.3845C182.173 46.4345 180.026 37.5042 179.253 29.5184C178.395 20.8457 178.566 19.386 186.38 13.2893C189.386 10.9708 196.77 8.39479 196.77 8.39479C215.576 2.12639 236.871 -2.42464 256.535 2.98508C274.653 7.96545 287.19 22.4772 293.372 38.6205C296.55 46.778 298.267 55.6225 298.353 64.3811C298.353 73.9125 294.403 84.5602 301.101 92.9753C298.61 93.147 296.12 92.8894 293.716 92.2883C304.02 93.8339 319.562 96.3241 319.906 108.603C320.078 114.013 316.299 118.65 313.208 123.201C310.117 127.752 307.283 133.333 309.43 138.314C312.178 144.582 321.795 147.072 322.997 153.77C324.457 161.756 316.385 165.362 313.208 171.631C309.086 179.445 313.036 188.547 313.981 196.704C314.84 203.917 307.712 207.18 303.076 211.474C289.594 223.925 289.766 238.093 304.535 251.832C304.793 252.09 304.707 252.691 304.535 253.034C304.278 253.378 303.848 253.549 303.419 253.635C284.442 258.272 259.712 241.098 255.333 224.011C253.358 216.282 258.424 209.069 256.191 201.685C253.787 193.699 244.342 190.694 237.987 186.143C226.395 177.642 213.944 162.958 215.661 148.275C216.692 139.344 219.697 129.212 226.309 121.913C232.062 115.559 249.322 112.038 249.15 102.507C249.064 98.2991 245.458 95.0361 242.71 91.6872C235.755 83.1862 249.064 75.7157 242.538 71.3364C238.331 68.5027 233.264 66.4419 228.112 65.5832C222.617 64.6387 217.121 63.78 212.828 60.1735C208.878 56.8246 203.382 49.1823 197.286 49.6975C189.643 50.2986 180.799 48.5812 176.849 42.3987" fill="#011627"/>
</svg>
