<svg width="458" height="822" viewBox="0 0 458 822" fill="none" xmlns="http://www.w3.org/2000/svg">
<path d="M11.3377 787.392C-10.4623 747.992 2.43777 697.092 29.2378 660.892C56.0378 624.792 94.5378 599.392 130.238 571.992C200.338 517.992 263.438 450.492 293.738 367.392C308.038 328.092 314.738 286.392 328.838 247.092C343.038 207.792 366.638 169.292 403.938 150.492C455.238 124.692 521.738 144.492 559.638 187.692C597.538 230.892 609.838 291.992 604.138 349.192C598.438 406.392 576.738 460.592 553.338 512.992C523.838 579.092 491.338 643.792 456.038 706.892C448.638 719.992 440.838 733.492 428.538 742.292C413.538 752.992 394.138 754.892 375.738 756.492C254.338 767.091 132.938 777.592 11.5377 788.192" fill="#287AFF"/>
<path d="M181.538 744.598C196.138 718.898 210.138 691.698 212.638 662.198C215.838 625.098 200.638 589.198 191.338 553.198C182.038 517.198 179.838 474.798 204.238 446.698C230.538 416.498 276.038 414.798 312.338 398.098C368.738 372.098 399.538 311.398 424.338 254.498C439.638 219.398 460.638 178.998 498.538 174.098C529.538 170.098 558.838 194.098 570.838 222.998C582.838 251.898 581.438 284.398 578.738 315.598C570.338 412.198 551.538 507.898 522.838 600.498C516.938 619.498 510.138 639.198 495.938 653.198C476.238 672.498 446.738 676.898 419.438 681.098C340.338 693.298 262.438 712.598 186.838 738.798" fill="#66ABFF"/>
<path d="M308.238 768.396C341.438 743.796 344.038 695.596 340.138 654.396C336.238 613.296 329.838 567.996 353.138 533.896C370.938 507.996 402.138 494.896 432.638 487.196C463.138 479.496 494.938 475.496 523.238 461.696C561.338 442.996 591.638 406.896 633.538 399.796C661.538 395.096 693.238 406.796 706.238 431.996C719.438 457.596 710.838 489.696 694.338 513.396C677.838 537.096 654.638 554.996 634.938 575.996C596.138 617.296 571.538 669.796 537.438 714.996C503.338 760.196 453.638 800.296 396.938 798.796C367.338 797.996 339.138 785.696 313.138 771.596" fill="#9DD4F9"/>
<path d="M216.138 820.999C257.438 778.199 257.638 714.499 257.138 658.899C256.838 625.099 256.638 590.499 266.438 557.799C275.338 527.999 293.338 502.399 315.538 480.999C337.938 459.399 363.938 441.799 390.338 425.299C419.538 406.999 449.838 390.399 480.138 373.899C538.238 342.499 597.138 311.799 650.338 272.399C697.438 237.599 740.438 195.899 770.238 145.099C774.038 138.599 777.538 131.999 780.938 125.299C781.738 123.599 779.238 122.099 778.338 123.799C751.538 177.699 709.738 222.299 662.738 259.199C611.438 299.499 553.938 330.699 496.738 361.599C466.438 377.999 436.038 394.299 406.438 411.999C379.638 427.999 353.038 444.899 329.038 464.899C306.938 483.399 286.838 505.199 273.838 531.199C259.538 559.799 255.338 591.899 254.438 623.499C252.738 682.599 261.938 748.799 228.038 801.299C223.938 807.599 219.238 813.499 214.038 818.899C212.638 820.299 214.738 822.399 216.138 820.999Z" fill="#9DD4F9"/>
<path d="M320.438 661.794C358.438 640.694 388.038 605.594 402.438 564.594C411.138 539.794 413.538 513.494 414.938 487.494C416.438 460.194 417.438 432.894 422.238 405.894C431.838 351.794 451.538 300.094 470.138 248.594C479.938 221.594 489.638 194.494 499.438 167.494C508.038 143.694 517.038 119.794 530.738 98.294C560.338 51.794 610.838 26.594 658.738 3.29402C660.438 2.49402 658.938 -0.105983 657.238 0.694017C615.938 20.794 572.738 41.994 542.338 77.594C526.438 96.194 515.438 118.094 506.438 140.594C496.438 165.494 487.838 190.994 478.738 216.194C459.938 268.194 439.338 320.094 426.138 373.894C419.638 400.194 415.538 426.794 413.838 453.794C412.138 480.894 412.038 508.294 407.138 535.094C397.638 587.294 365.638 633.294 319.038 659.194C317.338 660.194 318.838 662.794 320.438 661.794Z" fill="#287AFF"/>
</svg>
