<svg width="514" height="736" viewBox="0 0 514 736" fill="none" xmlns="http://www.w3.org/2000/svg">
<path d="M507.038 55.0209C524.138 96.6209 505.538 145.821 474.638 178.621C443.738 211.421 402.638 232.121 364.038 255.321C288.238 300.921 217.738 360.621 178.138 439.721C159.338 477.121 147.938 517.821 129.338 555.221C110.738 592.621 82.8378 628.221 43.6378 642.621C-10.2622 662.421 -74.0622 635.021 -106.762 587.721C-139.462 540.521 -144.562 478.321 -132.362 422.221C-120.162 366.121 -92.2622 314.721 -63.0622 265.321C-26.1622 203.121 13.5378 142.521 55.9378 83.8209C64.7378 71.6209 74.1378 59.1209 87.3378 51.8209C103.538 42.9209 122.938 43.2209 141.338 43.7209C263.138 47.2209 384.938 50.7209 506.738 54.1209" fill="#287AFF"/>
<path d="M331.938 80.0195C314.438 103.92 297.438 129.22 291.538 158.22C284.138 194.72 295.038 232.12 300.138 269.02C305.238 305.92 302.538 348.22 275.038 373.32C245.438 400.22 200.038 396.72 162.038 409.12C102.938 428.52 65.4378 485.12 34.2378 538.92C15.0378 572.02 -10.4622 609.72 -48.7622 610.22C-80.0622 610.62 -106.362 583.42 -114.962 553.32C-123.562 523.22 -118.462 491.12 -112.162 460.42C-92.6622 365.42 -63.0622 272.52 -23.8622 183.82C-15.7622 165.62 -6.76222 146.82 8.93777 134.62C30.7378 117.72 60.5378 116.82 88.1378 115.72C168.038 112.72 247.738 102.52 325.838 85.2195" fill="#66ABFF"/>
<path d="M229.738 41.9181C193.938 62.5181 185.738 110.118 184.938 151.418C184.138 192.718 185.238 238.518 158.138 269.618C137.538 293.318 104.938 302.718 73.7378 306.818C42.5378 311.018 10.4378 311.218 -19.1622 321.718C-59.1622 335.918 -93.4622 368.318 -135.862 370.518C-164.162 372.018 -194.362 356.618 -204.362 330.118C-214.562 303.118 -202.262 272.218 -183.162 250.618C-164.062 229.018 -138.962 213.818 -116.862 195.218C-73.5622 158.618 -43.0622 109.418 -3.9622 68.4181C35.1378 27.4181 89.1378 -6.68195 145.238 1.41805C174.538 5.61805 201.138 21.0181 225.338 38.1181" fill="#9DD4F9"/>
<path d="M327.238 0.419888C282.138 37.5199 274.038 99.7199 268.238 154.12C264.738 186.62 261.238 219.72 249.338 250.32C237.938 279.62 218.038 303.72 193.738 323.22C169.338 342.72 141.538 357.52 113.538 371.02C81.5378 386.42 48.6378 400.02 15.6378 413.22C-45.8622 437.92 -108.162 461.52 -165.862 494.52C-217.162 523.82 -265.162 560.52 -300.962 608.02C-305.462 614.02 -309.762 620.12 -313.862 626.42C-314.862 628.02 -312.362 629.52 -311.262 627.92C-278.062 576.92 -230.662 537.22 -178.962 505.82C-122.362 471.42 -60.5622 446.92 0.737762 422.42C32.8378 409.62 64.9378 396.82 96.3378 382.42C125.138 369.22 153.938 355.12 180.138 337.12C203.538 320.92 225.038 301.22 239.838 276.72C256.338 249.42 263.238 217.92 267.438 186.72C275.238 129.42 274.938 63.7199 314.438 17.2199C318.938 11.9199 323.938 7.01989 329.338 2.61989C330.838 1.31989 328.738 -0.780112 327.238 0.419888Z" fill="#9DD4F9"/>
<path d="M242.838 117.319C202.638 133.919 169.038 165.219 150.038 204.419C127.138 251.619 127.638 306.119 113.238 355.919C98.1378 408.419 72.9378 457.219 48.7378 506.019C35.9378 531.719 23.2378 557.319 10.4378 583.019C-1.06221 606.219 -12.7622 629.619 -28.7622 650.119C-63.5622 694.619 -117.462 714.419 -168.962 732.519C-170.762 733.119 -169.962 736.019 -168.162 735.419C-124.162 720.019 -78.2622 703.719 -43.7622 671.019C-25.6622 653.919 -12.1622 632.719 -0.462204 610.819C12.5378 586.419 24.4378 561.419 36.7378 536.619C60.8378 488.119 86.6378 439.919 105.438 388.919C114.638 363.919 121.538 338.419 126.238 312.119C130.838 286.019 134.138 259.519 141.738 234.119C157.038 183.119 194.138 140.719 243.638 120.219C245.338 119.519 244.638 116.619 242.838 117.319Z" fill="#287AFF"/>
</svg>
