<svg width="33" height="32" viewBox="0 0 33 32" fill="none" xmlns="http://www.w3.org/2000/svg">
<path d="M28.6534 0.0917969H3.90344C2.005 0.0917969 0.528442 1.63867 0.528442 3.4668V28.2168C0.528442 30.1152 2.005 31.5918 3.90344 31.5918H13.5363V20.9043H9.10657V15.8418H13.5363V12.0449C13.5363 7.68555 16.1378 5.22461 20.0753 5.22461C22.0441 5.22461 24.0128 5.57617 24.0128 5.57617V9.86523H21.8331C19.6534 9.86523 18.9503 11.2012 18.9503 12.6074V15.8418H23.8019L23.0284 20.9043H18.9503V31.5918H28.6534C30.4816 31.5918 32.0284 30.1152 32.0284 28.2168V3.4668C32.0284 1.63867 30.4816 0.0917969 28.6534 0.0917969Z" fill="#287AFF"/>
</svg>
