<svg width="26" height="25" viewBox="0 0 26 25" fill="none" xmlns="http://www.w3.org/2000/svg">
<path d="M10.9219 14.2812C10.9219 13.2422 10.2656 12.8047 9.28125 12.8047H6.76562V15.7031H9.22656C10.1562 15.7031 10.9219 15.375 10.9219 14.2812ZM10.4844 9.79688C10.4844 8.8125 9.77344 8.59375 8.89844 8.59375H6.76562V11.0547H9.11719C9.9375 11.0547 10.4844 10.6719 10.4844 9.79688ZM17.7578 11.0547C16.7188 11.0547 16.0625 11.7109 16.0078 12.6953H19.3984C19.2891 11.7109 18.7969 11.0547 17.7578 11.0547ZM25.25 2.63281C25.25 1.21094 24.0469 0.0078125 22.625 0.0078125H3.375C1.89844 0.0078125 0.75 1.21094 0.75 2.63281V21.8828C0.75 23.3594 1.89844 24.5078 3.375 24.5078H22.625C24.0469 24.5078 25.25 23.3594 25.25 21.8828V2.63281ZM15.5703 8.375V7.39062H19.8359V8.375H15.5703ZM13.2188 14.4453C13.2188 16.5781 11.4688 17.4531 9.55469 17.5078H4.46875V7.00781H9.39062C11.1953 7.00781 12.7266 7.5 12.7266 9.57812C12.7266 10.6172 12.2344 11.1641 11.3047 11.6016C12.6172 11.9844 13.2188 13.1328 13.2188 14.4453ZM21.5312 13.625C21.5312 13.7344 21.4766 13.8984 21.4766 14.0078H16.0078C16.0078 15.2109 16.6641 15.9219 17.8672 15.9219C18.5234 15.9219 19.3438 15.5938 19.5078 14.9375H21.3672C20.8203 16.6875 19.6172 17.5078 17.8125 17.5078C15.4062 17.5078 13.9297 15.8672 13.9297 13.5156C13.9297 11.2188 15.5156 9.52344 17.8125 9.52344C20.1641 9.52344 21.5312 11.3828 21.5312 13.625Z" fill="#EBEFFB"/>
</svg>
