<svg width="26" height="25" viewBox="0 0 26 25" fill="none" xmlns="http://www.w3.org/2000/svg">
<path d="M13 5.96875C9.5 5.96875 6.71094 8.8125 6.71094 12.2578C6.71094 15.7578 9.5 18.5469 13 18.5469C16.4453 18.5469 19.2891 15.7578 19.2891 12.2578C19.2891 8.8125 16.4453 5.96875 13 5.96875ZM13 16.3594C10.7578 16.3594 8.89844 14.5547 8.89844 12.2578C8.89844 10.0156 10.7031 8.21094 13 8.21094C15.2422 8.21094 17.0469 10.0156 17.0469 12.2578C17.0469 14.5547 15.2422 16.3594 13 16.3594ZM20.9844 5.75C20.9844 4.92969 20.3281 4.27344 19.5078 4.27344C18.6875 4.27344 18.0312 4.92969 18.0312 5.75C18.0312 6.57031 18.6875 7.22656 19.5078 7.22656C20.3281 7.22656 20.9844 6.57031 20.9844 5.75ZM25.1406 7.22656C25.0312 5.25781 24.5938 3.50781 23.1719 2.08594C21.75 0.664062 20 0.226562 18.0312 0.117188C16.0078 0.0078125 9.9375 0.0078125 7.91406 0.117188C5.94531 0.226562 4.25 0.664062 2.77344 2.08594C1.35156 3.50781 0.914062 5.25781 0.804688 7.22656C0.695312 9.25 0.695312 15.3203 0.804688 17.3438C0.914062 19.3125 1.35156 21.0078 2.77344 22.4844C4.25 23.9062 5.94531 24.3438 7.91406 24.4531C9.9375 24.5625 16.0078 24.5625 18.0312 24.4531C20 24.3438 21.75 23.9062 23.1719 22.4844C24.5938 21.0078 25.0312 19.3125 25.1406 17.3438C25.25 15.3203 25.25 9.25 25.1406 7.22656ZM22.5156 19.4766C22.1328 20.5703 21.2578 21.3906 20.2188 21.8281C18.5781 22.4844 14.75 22.3203 13 22.3203C11.1953 22.3203 7.36719 22.4844 5.78125 21.8281C4.6875 21.3906 3.86719 20.5703 3.42969 19.4766C2.77344 17.8906 2.9375 14.0625 2.9375 12.2578C2.9375 10.5078 2.77344 6.67969 3.42969 5.03906C3.86719 4 4.6875 3.17969 5.78125 2.74219C7.36719 2.08594 11.1953 2.25 13 2.25C14.75 2.25 18.5781 2.08594 20.2188 2.74219C21.2578 3.125 22.0781 4 22.5156 5.03906C23.1719 6.67969 23.0078 10.5078 23.0078 12.2578C23.0078 14.0625 23.1719 17.8906 22.5156 19.4766Z" fill="#EBEFFB"/>
</svg>
