<svg width="26" height="25" viewBox="0 0 26 25" fill="none" xmlns="http://www.w3.org/2000/svg">
<path d="M22.625 0.0078125H3.375C1.89844 0.0078125 0.75 1.21094 0.75 2.63281V21.8828C0.75 23.3594 1.89844 24.5078 3.375 24.5078H10.8672V16.1953H7.42188V12.2578H10.8672V9.30469C10.8672 5.91406 12.8906 4 15.9531 4C17.4844 4 19.0156 4.27344 19.0156 4.27344V7.60938H17.3203C15.625 7.60938 15.0781 8.64844 15.0781 9.74219V12.2578H18.8516L18.25 16.1953H15.0781V24.5078H22.625C24.0469 24.5078 25.25 23.3594 25.25 21.8828V2.63281C25.25 1.21094 24.0469 0.0078125 22.625 0.0078125Z" fill="#EBEFFB"/>
</svg>
