<svg width="441" height="384" viewBox="0 0 441 384" fill="none" xmlns="http://www.w3.org/2000/svg">
<path d="M49.5895 217.584C49.5895 217.584 42.1533 248.455 71.8624 255.037C96.2134 260.456 102.334 294.026 102.334 294.026" stroke="#FF644E" stroke-width="3" stroke-miterlimit="10" stroke-linecap="round" stroke-linejoin="round"/>
<path d="M52.8658 218.493C55.3213 216.975 56.1489 213.638 54.7142 211.039C53.2795 208.44 50.1259 207.565 47.6703 209.083C45.2148 210.601 44.3872 213.939 45.8219 216.537C47.2566 219.136 50.4102 220.012 52.8658 218.493Z" fill="#FF644E"/>
<path d="M69.9172 233.049C69.9172 233.049 95.0692 250.595 77.2728 276.644C62.7015 297.983 79.5298 327.208 79.5298 327.208" stroke="#FF644E" stroke-width="3" stroke-miterlimit="10" stroke-linecap="round" stroke-linejoin="round"/>
<path d="M72.0787 236.336C74.5342 234.818 75.3618 231.48 73.9271 228.882C72.4924 226.283 69.3388 225.407 66.8832 226.926C64.4277 228.444 63.6001 231.781 65.0348 234.38C66.4695 236.979 69.6231 237.854 72.0787 236.336Z" fill="#FF644E"/>
<path d="M153.775 287.465C160.466 297.198 163.443 309.374 161.546 321.262C159.443 334.158 151.444 348.938 127.234 354.954C80.4822 366.616 57.1596 325.628 51.7185 316.15C46.2773 306.671 34.7276 275.577 0.160156 228.039C0.160156 228.039 45.3592 266.948 82.0885 258.989C121.391 250.539 143.697 272.854 153.775 287.465Z" fill="#FF644E"/>
<path d="M157.124 301.319C139.237 307.609 81.7936 322.139 43.247 266.64" stroke="white" stroke-width="2" stroke-miterlimit="10" stroke-linecap="round" stroke-linejoin="round"/>
<path d="M72.0047 268.233C72.0047 268.233 73.9907 286.526 87.3534 302.188" stroke="white" stroke-width="2" stroke-miterlimit="10" stroke-linecap="round" stroke-linejoin="round"/>
<path d="M105.092 306.558C90.366 288.803 90.4904 268.178 90.4904 268.178" stroke="white" stroke-width="2" stroke-miterlimit="10" stroke-linecap="round" stroke-linejoin="round"/>
<path d="M127.388 307.376C113.562 287.23 115.616 265.705 115.616 265.705" stroke="white" stroke-width="2" stroke-miterlimit="10" stroke-linecap="round" stroke-linejoin="round"/>
<path d="M106.148 352.434C106.148 352.434 115.405 324.987 147.058 304.314" stroke="white" stroke-width="2" stroke-miterlimit="10" stroke-linecap="round" stroke-linejoin="round"/>
<path d="M87.0157 345.917C87.0157 345.917 94.2322 321.933 118.963 307.816" stroke="white" stroke-width="2" stroke-miterlimit="10" stroke-linecap="round" stroke-linejoin="round"/>
<path d="M68.8559 330.359C68.8559 330.359 75.8877 313.828 101.769 306.191" stroke="white" stroke-width="2" stroke-miterlimit="10" stroke-linecap="round" stroke-linejoin="round"/>
<path d="M40.6348 252.99C25.2105 228.695 5.26325 228.113 0.556854 228.381C0.505154 228.413 0.474948 228.358 0.423248 228.39C34.7665 275.773 46.3075 306.726 51.7486 316.204C54.6095 321.261 62.549 335.139 76.3307 345.405C55.5872 307.079 65.0616 308.413 47.7036 266.673C45.4718 261.374 43.1286 256.879 40.6348 252.99Z" fill="#C6110C"/>
<path d="M64.9978 210.698C64.9978 210.698 90.5158 221.119 94.1804 255.768C97.845 290.417 125.714 291.532 138.268 281.861C150.821 272.191 160.542 254.879 146.785 236.745C133.028 218.61 103.298 205.583 64.9978 210.698Z" fill="#F9AE10"/>
<path d="M68.1079 208.041C68.1079 208.041 93.6259 218.463 97.2905 253.111C100.955 287.76 124.561 293.713 137.114 284.043C149.667 274.373 163.652 252.222 149.895 234.088C136.065 216.072 106.356 202.959 68.1079 208.041Z" fill="#FDC510"/>
<path d="M84.0063 212.595C84.0063 212.595 113.092 214.279 134.411 276.761" stroke="white" stroke-width="2" stroke-miterlimit="10" stroke-linecap="round" stroke-linejoin="round"/>
<path d="M93.8018 230.463C93.8018 230.463 99.7531 222.527 108.127 227.77" stroke="white" stroke-width="2" stroke-miterlimit="10" stroke-linecap="round" stroke-linejoin="round"/>
<path d="M127.983 221.657C127.983 221.657 115.364 228.946 120.965 246.252" stroke="white" stroke-width="2" stroke-miterlimit="10" stroke-linecap="round" stroke-linejoin="round"/>
<path d="M115.322 216.936C115.322 216.936 109.981 222.587 111.275 230.961" stroke="white" stroke-width="2" stroke-miterlimit="10" stroke-linecap="round" stroke-linejoin="round"/>
<path d="M99.6809 244.001C99.6809 244.001 106.562 234.609 115.779 237.863" stroke="white" stroke-width="2" stroke-miterlimit="10" stroke-linecap="round" stroke-linejoin="round"/>
<path d="M126.554 257.254C126.554 257.254 128.591 241.096 140.28 234.382" stroke="white" stroke-width="2" stroke-miterlimit="10" stroke-linecap="round" stroke-linejoin="round"/>
<path d="M123.278 250.692C123.278 250.692 111.149 248.945 103.128 262.932" stroke="white" stroke-width="2" stroke-miterlimit="10" stroke-linecap="round" stroke-linejoin="round"/>
<path d="M391.221 205.695C391.221 205.695 398.657 236.566 368.948 243.148C344.597 248.567 338.476 282.137 338.476 282.137" stroke="#287AFF" stroke-width="3" stroke-miterlimit="10" stroke-linecap="round" stroke-linejoin="round"/>
<path d="M387.945 206.605C385.489 205.086 384.661 201.749 386.096 199.15C387.531 196.552 390.684 195.676 393.14 197.194C395.596 198.712 396.423 202.05 394.988 204.649C393.554 207.247 390.4 208.123 387.945 206.605Z" fill="#4256D6"/>
<path d="M370.893 221.16C370.893 221.16 345.741 238.706 363.538 264.755C378.109 286.094 361.281 315.319 361.281 315.319" stroke="#287AFF" stroke-width="3" stroke-miterlimit="10" stroke-linecap="round" stroke-linejoin="round"/>
<path d="M368.732 224.447C366.276 222.929 365.449 219.591 366.883 216.993C368.318 214.394 371.472 213.518 373.927 215.037C376.383 216.555 377.21 219.892 375.776 222.491C374.341 225.09 371.187 225.965 368.732 224.447Z" fill="#4256D6"/>
<path d="M287.036 275.576C280.345 285.309 277.367 297.485 279.264 309.373C281.368 322.269 289.366 337.049 313.576 343.065C360.328 354.727 383.651 313.74 389.092 304.261C394.533 294.782 406.083 263.688 440.65 216.15C440.65 216.15 395.451 255.059 358.722 247.1C319.42 238.65 297.114 260.965 287.036 275.576Z" fill="#287AFF"/>
<path d="M283.686 289.43C301.573 295.72 359.017 310.25 397.563 254.751" stroke="white" stroke-width="2" stroke-miterlimit="10" stroke-linecap="round" stroke-linejoin="round"/>
<path d="M368.806 256.344C368.806 256.344 366.82 274.637 353.457 290.3" stroke="white" stroke-width="2" stroke-miterlimit="10" stroke-linecap="round" stroke-linejoin="round"/>
<path d="M335.718 294.669C350.444 276.915 350.32 256.289 350.32 256.289" stroke="white" stroke-width="2" stroke-miterlimit="10" stroke-linecap="round" stroke-linejoin="round"/>
<path d="M313.422 295.487C327.249 275.342 325.194 253.816 325.194 253.816" stroke="white" stroke-width="2" stroke-miterlimit="10" stroke-linecap="round" stroke-linejoin="round"/>
<path d="M334.663 340.545C334.663 340.545 325.405 313.098 293.753 292.425" stroke="white" stroke-width="2" stroke-miterlimit="10" stroke-linecap="round" stroke-linejoin="round"/>
<path d="M353.795 334.028C353.795 334.028 346.578 310.044 321.848 295.927" stroke="white" stroke-width="2" stroke-miterlimit="10" stroke-linecap="round" stroke-linejoin="round"/>
<path d="M371.954 318.47C371.954 318.47 364.923 301.939 339.042 294.302" stroke="white" stroke-width="2" stroke-miterlimit="10" stroke-linecap="round" stroke-linejoin="round"/>
<path d="M400.175 241.101C415.6 216.806 435.547 216.224 440.253 216.492C440.305 216.524 440.335 216.469 440.387 216.501C406.044 263.884 394.503 294.837 389.061 304.316C386.201 309.372 378.261 323.25 364.479 333.516C385.223 295.19 375.749 296.524 393.106 254.784C395.338 249.486 397.682 244.99 400.175 241.101Z" fill="#4256D6"/>
<path d="M375.813 198.809C375.813 198.809 350.295 209.231 346.63 243.879C342.965 278.528 315.096 279.643 302.543 269.973C289.99 260.303 280.269 242.99 294.025 224.856C307.782 206.722 337.513 193.695 375.813 198.809Z" fill="#F9AE10"/>
<path d="M372.702 196.152C372.702 196.152 347.184 206.574 343.52 241.223C339.855 275.871 316.25 281.824 303.696 272.154C291.143 262.484 277.159 240.333 290.915 222.199C304.745 204.183 334.454 191.07 372.702 196.152Z" fill="#FDC510"/>
<path d="M356.804 200.706C356.804 200.706 327.719 202.39 306.399 264.872" stroke="white" stroke-width="2" stroke-miterlimit="10" stroke-linecap="round" stroke-linejoin="round"/>
<path d="M347.009 218.574C347.009 218.574 341.057 210.638 332.684 215.881" stroke="white" stroke-width="2" stroke-miterlimit="10" stroke-linecap="round" stroke-linejoin="round"/>
<path d="M312.827 209.768C312.827 209.768 325.446 217.057 319.845 234.363" stroke="white" stroke-width="2" stroke-miterlimit="10" stroke-linecap="round" stroke-linejoin="round"/>
<path d="M325.489 205.048C325.489 205.048 330.829 210.699 329.535 219.072" stroke="white" stroke-width="2" stroke-miterlimit="10" stroke-linecap="round" stroke-linejoin="round"/>
<path d="M341.129 232.112C341.129 232.112 334.248 222.72 325.031 225.974" stroke="white" stroke-width="2" stroke-miterlimit="10" stroke-linecap="round" stroke-linejoin="round"/>
<path d="M314.256 245.365C314.256 245.365 312.22 229.207 300.531 222.494" stroke="white" stroke-width="2" stroke-miterlimit="10" stroke-linecap="round" stroke-linejoin="round"/>
<path d="M317.532 238.804C317.532 238.804 329.661 237.057 337.682 251.043" stroke="white" stroke-width="2" stroke-miterlimit="10" stroke-linecap="round" stroke-linejoin="round"/>
<path d="M189.667 285.013C189.908 284.227 190.161 283.45 190.426 282.673C199.621 255.73 222.7 236.722 246.838 223.758C255.167 219.285 263.989 215.156 270.286 207.863C284.631 191.255 280.26 163.857 261.601 153.132C270.266 158.11 295.34 147.823 281.846 137.339C278.655 134.859 274.633 133.967 271.069 132.144C267.505 130.322 264.089 126.882 264.334 122.698C264.442 120.871 265.245 119.168 266.216 117.651C270.471 111.025 277.96 107.266 281.974 100.474C282.861 98.9703 283.58 97.2542 283.439 95.4872C283.214 92.6838 280.83 90.509 278.27 89.7614C252.799 82.3365 233.172 115.099 207.958 112.117C206.517 111.947 204.975 111.679 203.691 112.389C202.198 113.217 201.556 115.09 201.126 116.815C198.144 128.7 199.027 141.634 203.599 152.941C207.396 162.337 213.794 171.388 212.83 181.557C211.967 190.66 205.224 198.501 205.405 207.646C205.453 210.08 205.995 212.565 205.405 214.918C204.514 218.465 201.311 220.755 198.208 222.394C183.117 230.367 165.541 230.49 149.113 234.534C147.953 234.819 146.737 235.158 145.894 236.046C144.425 237.588 144.617 240.098 144.822 242.278C146.428 259.255 142.595 276.225 138.79 292.803C134.587 311.115 130.385 329.427 126.183 347.738C125.737 349.675 125.36 351.948 126.576 353.468C127.242 354.305 128.262 354.717 129.237 355.078C134.896 357.172 140.736 358.706 146.664 359.657C151.36 360.413 156.257 360.783 160.785 359.258C167.821 356.888 172.882 350.283 176.173 343.287C184.618 325.328 183.807 304.072 189.667 285.013Z" fill="#D4A79A"/>
<path d="M155.234 183.018C158.188 174.761 162.005 166.856 164.578 158.454C166.645 151.7 167.881 144.692 168.904 137.675C170.775 124.877 170.783 111.964 171.28 99.0211C177.538 102.092 184.706 109.343 185.77 116.555C186.83 123.768 184.582 131.112 183.839 138.371C182.013 156.284 181.495 175.84 191.73 190.235C195.599 195.676 200.637 200.068 204.682 205.361C208.728 210.658 211.827 217.39 210.735 224.102C209.383 232.431 202.19 238.106 195.355 242.477C186.396 248.207 177.052 253.258 167.415 257.573C161.736 260.118 160.845 262.819 153.171 262.904C148.964 262.951 143.229 247.914 144.786 229.628C146.508 209.345 148.322 202.345 155.234 183.018Z" fill="#D4A79A"/>
<path d="M253.886 24.1267H185.453C177.67 24.1267 171.305 30.8635 171.305 39.0997V111.739C201.448 83.1011 232.176 55.1558 264.214 28.9393C261.629 25.9957 257.96 24.1267 253.886 24.1267Z" fill="white"/>
<path d="M264.218 28.9392C232.18 55.1557 201.456 83.101 171.309 111.739V175.343V216.35C171.309 224.582 177.674 231.323 185.457 231.323H253.886C261.669 231.323 268.035 224.586 268.035 216.35V39.0953C268.035 35.247 266.634 31.7384 264.358 29.0794C264.31 29.0327 264.262 28.9902 264.218 28.9392Z" fill="#EBEFFB"/>
<path fill-rule="evenodd" clip-rule="evenodd" d="M185.453 24.1267H253.886C261.665 24.1267 268.031 30.8635 268.031 39.0997V216.354C268.031 224.59 261.665 231.327 253.882 231.327H185.453C177.67 231.327 171.305 224.59 171.305 216.354V39.0997C171.305 30.8635 177.67 24.1267 185.453 24.1267ZM247.745 211.996C255.528 211.996 261.894 205.259 261.894 197.023V46.0616C261.894 37.8254 255.524 31.0886 247.745 31.0886H191.59C183.807 31.0886 177.442 37.8254 177.442 46.0616V197.023C177.442 205.259 183.807 211.996 191.59 211.996H247.745Z" fill="#4256D6"/>
<path d="M229.166 28.867H210.173C209.94 28.867 209.752 28.6673 209.752 28.421V27.6054C209.752 27.3591 209.94 27.1594 210.173 27.1594H229.166C229.399 27.1594 229.588 27.3591 229.588 27.6054V28.421C229.588 28.6673 229.399 28.867 229.166 28.867Z" fill="#EBEFFB"/>
<path d="M219.67 226.328C222.441 226.328 224.687 223.951 224.687 221.018C224.687 218.086 222.441 215.709 219.67 215.709C216.899 215.709 214.653 218.086 214.653 221.018C214.653 223.951 216.899 226.328 219.67 226.328Z" fill="#4B369D"/>
<path opacity="0.36" d="M221.612 145.966C236.44 145.966 248.46 133.245 248.46 117.554C248.46 101.862 236.44 89.1411 221.612 89.1411C206.785 89.1411 194.765 101.862 194.765 117.554C194.765 133.245 206.785 145.966 221.612 145.966Z" fill="#FF644E"/>
<path opacity="0.36" d="M221.612 139.068C232.84 139.068 241.942 129.436 241.942 117.554C241.942 105.672 232.84 96.0396 221.612 96.0396C210.385 96.0396 201.283 105.672 201.283 117.554C201.283 129.436 210.385 139.068 221.612 139.068Z" fill="#FF644E"/>
<path d="M221.612 129.167C227.673 129.167 232.586 123.968 232.586 117.554C232.586 111.14 227.673 105.941 221.612 105.941C215.552 105.941 210.639 111.14 210.639 117.554C210.639 123.968 215.552 129.167 221.612 129.167Z" fill="#FF644E"/>
<path d="M286.791 30.7275C285.96 30.7275 285.286 30.0139 285.286 29.1346C285.286 14.8285 274.288 3.18574 260.766 3.18574C259.935 3.18574 259.261 2.47213 259.261 1.59287C259.261 0.713605 259.935 0 260.766 0C275.942 0 288.292 13.0658 288.292 29.1304C288.296 30.0139 287.622 30.7275 286.791 30.7275Z" fill="#4256D6"/>
<path d="M278.358 30.7274C277.527 30.7274 276.853 30.0138 276.853 29.1346C276.853 20.3504 270.102 13.2059 261.802 13.2059C260.971 13.2059 260.296 12.4923 260.296 11.613C260.296 10.7337 260.971 10.0201 261.802 10.0201C271.76 10.0201 279.859 18.5919 279.859 29.1346C279.863 30.0138 279.189 30.7274 278.358 30.7274Z" fill="#4256D6"/>
<path d="M339.945 50.2327H301.449C300.201 50.2327 299.181 49.1538 299.181 47.8328V45.4923C299.181 44.1713 300.201 43.0924 301.449 43.0924H339.945C341.193 43.0924 342.212 44.1713 342.212 45.4923V47.8328C342.212 49.1538 341.193 50.2327 339.945 50.2327Z" fill="#EBEFFB"/>
<path d="M339.944 62.3514H301.449C300.201 62.3514 299.181 61.2725 299.181 59.9514V57.611C299.181 56.29 300.201 55.2111 301.449 55.2111H339.944C341.192 55.2111 342.212 56.29 342.212 57.611V59.9514C342.212 61.2682 341.192 62.3514 339.944 62.3514Z" fill="#EBEFFB"/>
<path d="M339.944 74.4656H301.449C300.201 74.4656 299.181 73.3867 299.181 72.0657V69.7252C299.181 68.4042 300.201 67.3253 301.449 67.3253H339.944C341.192 67.3253 342.212 68.4042 342.212 69.7252V72.0657C342.212 73.3867 341.192 74.4656 339.944 74.4656Z" fill="#EBEFFB"/>
<path d="M339.944 86.5841H301.449C300.201 86.5841 299.181 85.5052 299.181 84.1842V81.8438C299.181 80.5228 300.201 79.4438 301.449 79.4438H339.944C341.192 79.4438 342.212 80.5228 342.212 81.8438V84.1842C342.212 85.5052 341.192 86.5841 339.944 86.5841Z" fill="#EBEFFB"/>
<path d="M137.63 100.036H49.0795C47.8312 100.036 46.8117 98.9574 46.8117 97.6364V92.7261C46.8117 91.4051 47.8312 90.3262 49.0795 90.3262H137.63C138.878 90.3262 139.897 91.4051 139.897 92.7261V97.6364C139.897 98.9574 138.878 100.036 137.63 100.036Z" fill="#EBEFFB"/>
<path d="M137.63 116.513H83.6535C82.4052 116.513 81.3857 115.434 81.3857 114.113V109.203C81.3857 107.882 82.4052 106.803 83.6535 106.803H137.63C138.878 106.803 139.897 107.882 139.897 109.203V114.113C139.897 115.434 138.878 116.513 137.63 116.513Z" fill="#EBEFFB"/>
<path d="M137.63 153.459H86.6598C85.4115 153.459 84.392 152.38 84.392 151.059V146.153C84.392 144.832 85.4115 143.753 86.6598 143.753H137.63C138.878 143.753 139.897 144.832 139.897 146.153V151.059C139.897 152.38 138.878 153.459 137.63 153.459Z" fill="#EBEFFB"/>
<path d="M137.63 169.936H107.274C106.026 169.936 105.006 168.857 105.006 167.536V162.626C105.006 161.305 106.026 160.226 107.274 160.226H137.63C138.878 160.226 139.897 161.305 139.897 162.626V167.536C139.897 168.857 138.878 169.936 137.63 169.936Z" fill="#EBEFFB"/>
<path d="M299.667 281.152C299.197 277.333 298.904 273.464 298.836 269.526C298.402 243.539 302.015 209.558 278.534 193.65C267.97 186.493 254.007 186.034 245.433 175.254C242.279 171.286 240.581 166.21 238.971 161.249C233.954 145.796 229.11 130.275 224.446 114.691C219.653 115.247 216.912 120.977 215.857 126.134C212.794 141.081 216.619 156.67 221.624 170.968C226.629 185.265 232.903 199.261 234.99 214.409C235.781 220.156 234.127 228.226 228.833 228.014C226.035 227.899 223.912 225.24 222.483 222.598C216.675 211.864 214.945 196.543 204.321 192.07C201.508 190.885 197.486 191.314 196.567 194.466C196.069 196.165 195.531 197.987 196.161 199.631C204.999 222.806 211.61 243.743 225.216 263.949C230.406 271.658 241.412 279.703 246.409 287.583C264.302 315.8 263.876 320.15 278.502 350.253C279.47 352.245 281.432 333.177 283.239 334.26C284.976 335.305 283.788 343.711 285.755 343.452C295.689 342.148 307.248 349.751 316.159 344.76C317.64 343.932 319.201 343.019 320.02 341.426C320.839 339.829 320.734 337.883 320.61 336.057C318.479 305.249 303.415 311.544 299.667 281.152Z" fill="#EAC2AB"/>
<path d="M364.685 303.461C360.667 300.649 355.866 298.996 350.717 298.996H201.869C201.58 298.996 201.303 299.03 201.014 299.043C222.853 305.117 244.47 312.389 265.863 320.133C299.418 334.333 331.218 314.352 364.685 303.461Z" fill="#EBEFFB"/>
<path d="M364.685 303.461C331.218 314.351 299.418 334.332 265.867 320.133C244.474 312.389 222.857 305.113 201.018 299.043C187.416 299.527 176.422 311.421 176.422 325.931C176.422 340.746 187.873 352.865 201.873 352.865H350.717C364.713 352.865 376.168 340.746 376.168 325.931C376.164 316.569 371.584 308.29 364.685 303.461Z" fill="#66ABFF"/>
<path d="M228.094 362.868H92.2749C82.3329 362.868 74.2012 354.263 74.2012 343.741V340.832C74.2012 330.31 82.3329 321.704 92.2749 321.704H228.094C238.036 321.704 246.168 330.31 246.168 340.832V343.741C246.168 354.258 238.036 362.868 228.094 362.868Z" fill="#4256D6"/>
<path d="M228.564 342.428L227.958 343.214C227.817 343.397 227.56 343.422 227.388 343.274L216.711 334.069C216.539 333.92 216.515 333.649 216.655 333.466L217.261 332.68C217.402 332.497 217.659 332.472 217.831 332.621L228.512 341.825C228.68 341.974 228.704 342.246 228.564 342.428Z" fill="white"/>
<path d="M228.564 342.14L227.958 341.354C227.817 341.171 227.561 341.146 227.388 341.294L216.712 350.499C216.539 350.648 216.515 350.92 216.655 351.102L217.261 351.888C217.402 352.071 217.659 352.096 217.831 351.948L228.512 342.743C228.68 342.594 228.704 342.322 228.564 342.14Z" fill="white"/>
<path d="M213.903 342.428L213.296 343.214C213.156 343.397 212.899 343.422 212.727 343.274L202.046 334.069C201.874 333.92 201.849 333.649 201.99 333.466L202.596 332.68C202.736 332.497 202.993 332.472 203.166 332.621L213.846 341.825C214.015 341.974 214.043 342.246 213.903 342.428Z" fill="white"/>
<path d="M213.902 342.14L213.296 341.354C213.155 341.171 212.898 341.146 212.726 341.294L202.045 350.499C201.873 350.648 201.849 350.92 201.989 351.102L202.595 351.888C202.736 352.071 202.993 352.096 203.165 351.948L213.846 342.743C214.014 342.594 214.042 342.322 213.902 342.14Z" fill="white"/>
<path d="M197.895 342.428L197.289 343.214C197.149 343.397 196.892 343.422 196.719 343.274L186.039 334.069C185.866 333.92 185.842 333.649 185.983 333.466L186.589 332.68C186.729 332.497 186.986 332.472 187.159 332.621L197.839 341.825C198.012 341.974 198.036 342.246 197.895 342.428Z" fill="white"/>
<path d="M197.895 342.14L197.289 341.354C197.149 341.171 196.892 341.146 196.719 341.294L186.039 350.499C185.866 350.648 185.842 350.92 185.983 351.102L186.589 351.888C186.729 352.071 186.986 352.096 187.159 351.948L197.839 342.743C198.012 342.594 198.036 342.322 197.895 342.14Z" fill="white"/>
</svg>
