<svg width="100" height="101" viewBox="0 0 100 101" fill="none" xmlns="http://www.w3.org/2000/svg">
<path d="M30.2272 4.54797C33.1721 4.54797 35.7804 6.1762 37.2529 8.88991L44.2785 21.961H30.2272C27.2823 21.961 24.674 20.3327 23.2016 17.619C21.7291 14.9053 21.7291 11.6489 23.2016 8.88991C24.674 6.1762 27.2823 4.54797 30.2272 4.54797ZM30.2272 0.929688C26.3568 0.929688 22.4864 2.96497 20.2988 7.08077C15.8814 15.3124 21.3926 25.5793 30.2272 25.5793H50.0841L40.1557 7.08077C37.926 2.96497 34.0976 0.929688 30.2272 0.929688Z" fill="#FDC510"/>
<path d="M69.7728 4.54797C72.7177 4.54797 75.326 6.1762 76.7985 8.88991C78.2709 11.6036 78.2709 14.8601 76.7985 17.619C75.326 20.3327 72.7177 21.961 69.7728 21.961H55.7636L62.7892 8.88991C64.2196 6.1762 66.87 4.54797 69.7728 4.54797ZM69.7728 0.929688C65.9024 0.929688 62.032 2.96497 59.8444 7.08077L49.9159 25.5793H69.7728C78.6075 25.5793 84.1186 15.3124 79.7013 7.08077C77.5137 2.96497 73.6432 0.929688 69.7728 0.929688Z" fill="#FDC510"/>
<path d="M8.22659 53.3203V91.6103C8.22659 96.7474 12.1182 100.931 16.8965 100.931H41.8226V53.3203H8.22659Z" fill="#FF644E"/>
<path d="M83.1527 100.931C87.9311 100.931 91.8227 96.7474 91.8227 91.6103V53.3203H58.2266V100.931H83.1527Z" fill="#FF644E"/>
<path d="M5.51724 28.375C2.46305 28.375 0 31.023 0 34.3065V49.5589H41.8227V28.375H5.51724Z" fill="#FF644E"/>
<path d="M100 49.5589V34.3065C100 31.023 97.537 28.375 94.4828 28.375H58.2266V49.6119H100V49.5589Z" fill="#FF644E"/>
<path d="M55.7143 28.375H44.335V100.93H55.7143V28.375Z" fill="#FDC510"/>
</svg>
