<svg width="100" height="101" viewBox="0 0 100 101" fill="none" xmlns="http://www.w3.org/2000/svg">
<path d="M30.2272 4.48352C33.1721 4.48352 35.7804 6.11175 37.2529 8.82546L44.2785 21.8965H30.2272C27.2823 21.8965 24.674 20.2683 23.2016 17.5546C21.7291 14.8409 21.7291 11.5844 23.2016 8.82546C24.674 6.11175 27.2823 4.48352 30.2272 4.48352ZM30.2272 0.865234C26.3568 0.865234 22.4864 2.90052 20.2988 7.01632C15.8814 15.2479 21.3926 25.5148 30.2272 25.5148H50.0841L40.1557 7.01632C37.926 2.90052 34.0976 0.865234 30.2272 0.865234Z" fill="#2B2B68"/>
<path d="M69.7728 4.48352C72.7177 4.48352 75.326 6.11175 76.7985 8.82546C78.2709 11.5392 78.2709 14.7956 76.7985 17.5546C75.326 20.2683 72.7177 21.8965 69.7728 21.8965H55.7636L62.7892 8.82546C64.2196 6.11175 66.87 4.48352 69.7728 4.48352ZM69.7728 0.865234C65.9024 0.865234 62.032 2.90052 59.8444 7.01632L49.9159 25.5148H69.7728C78.6075 25.5148 84.1186 15.2479 79.7013 7.01632C77.5137 2.90052 73.6432 0.865234 69.7728 0.865234Z" fill="#2B2B68"/>
<path d="M8.22659 53.2539V91.5439C8.22659 96.681 12.1182 100.865 16.8965 100.865H41.8226V53.2539H8.22659Z" fill="#5166EB"/>
<path d="M83.1527 100.865C87.9311 100.865 91.8227 96.681 91.8227 91.5439V53.2539H58.2266V100.865H83.1527Z" fill="#5166EB"/>
<path d="M5.51724 28.3105C2.46305 28.3105 0 30.9585 0 34.2421V49.4945H41.8227V28.3105H5.51724Z" fill="#5166EB"/>
<path d="M100 49.4945V34.2421C100 30.9585 97.537 28.3105 94.4828 28.3105H58.2266V49.5474H100V49.4945Z" fill="#5166EB"/>
<path d="M55.7143 28.3105H44.335V100.866H55.7143V28.3105Z" fill="#FDC510"/>
</svg>
