<svg width="81" height="56" viewBox="0 0 81 56" fill="none" xmlns="http://www.w3.org/2000/svg">
<g clip-path="url(#clip6)">
<path d="M3.90817 0.695312C2.28611 0.695312 0.923584 2.05788 0.923584 3.67998V9.7142V52.927C0.923584 54.614 2.28611 55.9117 3.90817 55.9117H77.8741C79.5611 55.9117 80.8587 54.5491 80.8587 52.927V9.7142V3.67998C80.8587 1.99299 79.4962 0.695312 77.8741 0.695312H3.90817Z" fill="#3555DB"/>
<path d="M20.4532 29.6971C25.2549 29.6971 29.1474 25.8045 29.1474 21.0028C29.1474 16.2011 25.2549 12.3086 20.4532 12.3086C15.6515 12.3086 11.7589 16.2011 11.7589 21.0028C11.7589 25.8045 15.6515 29.6971 20.4532 29.6971Z" fill="#FDC510"/>
<path d="M35.1815 44.3611C35.1815 36.2508 28.6283 29.6328 20.4532 29.6328C12.278 29.6328 5.78973 36.2508 5.78973 44.3611H35.1815Z" fill="#FDC510"/>
<path d="M74.3704 22.8865H46.6656C45.6924 22.8865 44.9138 22.1079 44.9138 21.1346C44.9138 20.1614 45.6924 19.3828 46.6656 19.3828H74.3055C75.2788 19.3828 76.0574 20.1614 76.0574 21.1346C76.0574 22.1079 75.2788 22.8865 74.3704 22.8865Z" fill="#FDC510"/>
<path d="M74.3704 31.449H46.6656C45.6924 31.449 44.9138 30.6704 44.9138 29.6971C44.9138 28.7239 45.6924 27.9453 46.6656 27.9453H74.3055C75.2788 27.9453 76.0574 28.7239 76.0574 29.6971C76.0574 30.6704 75.2788 31.449 74.3704 31.449Z" fill="#FDC510"/>
<path d="M59.6421 39.949H46.6656C45.6924 39.949 44.9138 39.1704 44.9138 38.1971C44.9138 37.2239 45.6924 36.4453 46.6656 36.4453H59.6421C60.6154 36.4453 61.3939 37.2239 61.3939 38.1971C61.3939 39.1704 60.6154 39.949 59.6421 39.949Z" fill="#FDC510"/>
</g>
<defs>
<clipPath id="clip6">
<rect x="0.923584" y="0.695312" width="80" height="55.2812" fill="white"/>
</clipPath>
</defs>
</svg>
