<svg width="81" height="56" viewBox="0 0 81 56" fill="none" xmlns="http://www.w3.org/2000/svg">
<g clip-path="url(#clip4)">
<path d="M3.9083 0.0859375C2.28624 0.0859375 0.923706 1.4485 0.923706 3.07061V9.10483V52.3176C0.923706 54.0046 2.28624 55.3023 3.9083 55.3023H77.8742C79.5612 55.3023 80.8588 53.9397 80.8588 52.3176V9.10483V3.07061C80.8588 1.38362 79.4963 0.0859375 77.8742 0.0859375H3.9083Z" fill="#3555DB"/>
<path d="M70.9967 50.0446H10.9156C8.32026 50.0446 6.24402 47.9683 6.24402 45.3729V15.656C6.24402 13.0607 8.32026 10.9844 10.9156 10.9844H70.9967C73.592 10.9844 75.6682 13.0607 75.6682 15.656V45.3729C75.6682 47.9683 73.5271 50.0446 70.9967 50.0446Z" fill="#FF644E"/>
<path d="M15.8467 4.10938C16.6901 4.10938 17.339 4.82308 17.339 5.66655C17.339 6.51002 16.6901 7.22373 15.8467 7.22373C15.0032 7.22373 14.3544 6.51002 14.3544 5.66655C14.3544 4.82308 15.0032 4.10938 15.8467 4.10938Z" fill="#FDC510"/>
<path d="M11.0454 4.10938C11.8889 4.10938 12.5377 4.82308 12.5377 5.66655C12.5377 6.51002 11.8889 7.22373 11.0454 7.22373C10.2019 7.22373 9.5531 6.51002 9.5531 5.66655C9.5531 4.82308 10.2668 4.10938 11.0454 4.10938Z" fill="#FDC510"/>
<path d="M6.30895 4.10938C7.15242 4.10938 7.80124 4.82308 7.80124 5.66655C7.80124 6.51002 7.15242 7.22373 6.30895 7.22373C5.46547 7.15885 4.81665 6.51002 4.81665 5.66655C4.81665 4.82308 5.46547 4.10938 6.30895 4.10938Z" fill="#FDC510"/>
<path d="M55.6844 30.1254C48.8717 41.4798 32.9756 41.4798 26.098 30.1254V29.801C32.9107 18.4466 48.8717 18.4466 55.6844 29.801V30.1254Z" fill="#3555DB"/>
<path d="M34.4031 29.9961C34.4031 33.5646 37.3228 36.4843 40.8913 36.4843C44.4598 36.4843 47.3796 33.5646 47.3796 29.9961C47.3796 26.4275 44.4598 23.5078 40.8913 23.5078C37.3228 23.5078 34.4031 26.4275 34.4031 29.9961ZM37.2579 27.9847C37.2579 26.9466 38.1014 26.1031 39.1395 26.1031C40.1776 26.1031 41.0211 26.9466 41.0211 27.9847C41.0211 29.0228 40.1776 29.8663 39.1395 29.8663C38.1663 29.8663 37.2579 29.0228 37.2579 27.9847Z" fill="#FDC510"/>
</g>
<defs>
<clipPath id="clip4">
<rect x="0.923706" y="0.0859375" width="80" height="55.2812" fill="white"/>
</clipPath>
</defs>
</svg>
