<svg width="55" height="71" viewBox="0 0 55 71" fill="none" xmlns="http://www.w3.org/2000/svg">
<g clip-path="url(#clip8)">
<path d="M28.0942 35.5498C17.7775 35.5498 9.42188 27.1942 9.42188 16.8775V2.89453H46.7666V16.8775C46.7666 27.1942 38.4109 35.5498 28.0942 35.5498Z" fill="#FDC510"/>
<path d="M28.0943 35.5508C38.411 35.5508 46.7666 43.9064 46.7666 54.2231V68.2061H9.33667V54.2231C9.33667 43.9064 17.6923 35.5508 28.0943 35.5508Z" fill="#FDC510"/>
<path d="M46.6814 54.2227H9.33667V68.2056H46.6814V54.2227Z" fill="#DB910E"/>
<path d="M52.8202 4.42851H3.02724C1.91884 4.42851 0.980957 3.49063 0.980957 2.38222C0.980957 1.27382 1.91884 0.335938 3.02724 0.335938H52.8202C53.9286 0.335938 54.8665 1.27382 54.8665 2.38222C54.8665 3.49063 53.9286 4.42851 52.8202 4.42851Z" fill="#3555DB"/>
<path d="M52.8202 70.3347H3.02724C1.91884 70.3347 0.980957 69.3969 0.980957 68.2885C0.980957 67.1801 1.91884 66.2422 3.02724 66.2422H52.8202C53.9286 66.2422 54.8665 67.1801 54.8665 68.2885C54.8665 69.3969 53.9286 70.3347 52.8202 70.3347Z" fill="#3555DB"/>
</g>
<defs>
<clipPath id="clip8">
<rect x="0.980957" y="0.335938" width="53.8855" height="70" fill="white"/>
</clipPath>
</defs>
</svg>
