<svg width="54" height="81" viewBox="0 0 54 81" fill="none" xmlns="http://www.w3.org/2000/svg">
<g clip-path="url(#clip3)">
<path d="M33.4514 63.5312H20.3961C18.9008 63.5312 17.693 64.739 17.693 66.2343C17.693 67.7297 18.9008 68.9374 20.3961 68.9374H33.4514C34.9468 68.9374 36.1545 67.7297 36.1545 66.2343C36.212 64.739 34.9468 63.5312 33.4514 63.5312Z" fill="#FF644E"/>
<path d="M20.4536 72.6758C18.9583 72.6758 17.9806 74.2286 18.6707 75.6089C20.166 78.6571 23.3292 80.7275 26.9525 80.7275C30.5758 80.7275 33.739 78.6571 35.2343 75.6089C35.9245 74.2861 34.9468 72.6758 33.4515 72.6758H20.4536Z" fill="#FF644E"/>
<path d="M24.8821 0.785514C11.8267 1.76323 1.30191 12.4606 0.496735 25.5734C-0.135903 35.8107 5.09774 44.8977 13.092 49.8438C15.9101 51.5691 17.6355 54.5598 17.6355 57.838C17.6355 58.9307 18.5557 59.8509 19.6484 59.8509H34.1416C35.2343 59.8509 36.1545 58.9307 36.1545 57.838V57.6655C36.1545 54.4448 37.8799 51.5116 40.6405 49.8438C48.2897 45.1852 53.4083 36.7884 53.4083 27.1838C53.4083 11.943 40.468 -0.364737 24.8821 0.785514Z" fill="#FF644E"/>
<path d="M26.9525 53.7532C41.5954 53.7532 53.4658 41.8828 53.4658 27.2399C53.4658 12.597 41.5954 0.726562 26.9525 0.726562C12.3096 0.726562 0.439209 12.597 0.439209 27.2399C0.439209 41.8828 12.3096 53.7532 26.9525 53.7532Z" fill="#FDC510"/>
<path d="M26.9526 38.7408C30.1289 38.7408 32.7038 36.1659 32.7038 32.9895C32.7038 29.8132 30.1289 27.2383 26.9526 27.2383C23.7762 27.2383 21.2013 29.8132 21.2013 32.9895C21.2013 36.1659 23.7762 38.7408 26.9526 38.7408Z" fill="#DB910E"/>
<path d="M29.1955 34.9453H24.5945V53.6944H29.1955V34.9453Z" fill="#DB910E"/>
</g>
<defs>
<clipPath id="clip3">
<rect x="0.439209" y="0.726562" width="52.9691" height="80" fill="white"/>
</clipPath>
</defs>
</svg>
