<svg width="48" height="71" viewBox="0 0 48 71" fill="none" xmlns="http://www.w3.org/2000/svg">
<g clip-path="url(#clip2)">
<path d="M47.785 4.60977V66.8433C47.785 68.9893 46.0478 70.7266 43.9018 70.7266H3.94559C1.7996 70.7266 0.0623779 68.9893 0.0623779 66.8433V4.60977C0.0623779 2.46379 1.7996 0.726562 3.94559 0.726562H43.8507C45.9967 0.726562 47.785 2.46379 47.785 4.60977Z" fill="#3555DB"/>
<path d="M43.9529 9.20726V58.4627C43.9529 60.2 42.5222 61.6817 40.7339 61.6817H7.01128C5.27405 61.6817 3.7923 60.251 3.7923 58.4627V9.20726C3.7923 7.47003 5.22295 5.98828 7.01128 5.98828H40.7339C42.5222 5.98828 43.9529 7.41894 43.9529 9.20726Z" fill="#FF644E"/>
<path d="M32.712 32.0479H15.1354C14.7266 32.0479 14.42 31.7413 14.42 31.3325V30.0552C14.42 29.6464 14.7266 29.3398 15.1354 29.3398H32.712C33.1208 29.3398 33.4273 29.6464 33.4273 30.0552V31.3836C33.4273 31.7413 33.1208 32.0479 32.712 32.0479Z" fill="#3555DB"/>
<path d="M32.712 38.2822H15.1354C14.7266 38.2822 14.42 37.9757 14.42 37.5669V36.2895C14.42 35.8808 14.7266 35.5742 15.1354 35.5742H32.712C33.1208 35.5742 33.4273 35.8808 33.4273 36.2895V37.5669C33.4273 37.9246 33.1208 38.2822 32.712 38.2822Z" fill="#3555DB"/>
<path d="M32.712 19.3252H15.1354C14.7266 19.3252 14.42 19.0186 14.42 18.6099V17.3325C14.42 16.9238 14.7266 16.6172 15.1354 16.6172H32.712C33.1208 16.6172 33.4273 16.9238 33.4273 17.3325V18.6099C33.4273 19.0186 33.1208 19.3252 32.712 19.3252Z" fill="#3555DB"/>
<path d="M32.712 25.5088H15.1354C14.7266 25.5088 14.42 25.2022 14.42 24.7935V23.5161C14.42 23.1073 14.7266 22.8008 15.1354 22.8008H32.712C33.1208 22.8008 33.4273 23.1073 33.4273 23.5161V24.7935C33.4273 25.2022 33.1208 25.5088 32.712 25.5088Z" fill="#3555DB"/>
<path d="M23.9237 68.4259C25.3347 68.4259 26.4784 67.2821 26.4784 65.8711C26.4784 64.4602 25.3347 63.3164 23.9237 63.3164C22.5128 63.3164 21.369 64.4602 21.369 65.8711C21.369 67.2821 22.5128 68.4259 23.9237 68.4259Z" fill="#FDC510"/>
</g>
<defs>
<clipPath id="clip2">
<rect x="0.0623779" y="0.726562" width="47.7226" height="70" fill="white"/>
</clipPath>
</defs>
</svg>
