<svg width="1920" height="458" viewBox="0 0 1920 458" fill="none" xmlns="http://www.w3.org/2000/svg">
<path d="M2142.66 30.7753C2037.86 -13.835 1909.16 -12.5758 1816.4 53.5301C1753.31 98.5001 1704.14 172.521 1627.38 182.864C1574.63 189.969 1523.93 164.156 1472.88 148.956C1375.72 119.996 1267.42 130.429 1177.45 177.287C1092.42 221.538 1024.74 297.987 990.5 387.477C990.68 387.567 990.77 387.657 990.949 387.657C1153.81 331.445 1419.76 297.357 1584.78 309.589C1911.04 333.873 2144.73 457.99 2144.73 457.901L2144.73 31.6747C2144.1 31.4049 2143.38 31.0451 2142.66 30.7753Z" fill="#66ABFF"/>
<path d="M-222.663 30.7753C-117.864 -13.835 10.8437 -12.5758 103.599 53.5301C166.694 98.5001 215.858 172.521 292.615 182.864C345.374 189.969 396.066 164.156 447.118 148.956C544.277 119.996 652.582 130.429 742.551 177.287C827.577 221.538 895.256 297.987 929.5 387.477C929.32 387.567 929.23 387.657 929.051 387.657C766.189 331.445 500.237 297.357 335.218 309.589C8.95624 333.873 -224.73 457.99 -224.73 457.901L-224.73 31.6747C-224.101 31.4049 -223.382 31.0451 -222.663 30.7753Z" fill="#66ABFF"/>
</svg>
