<svg width="30" height="29" viewBox="0 0 30 29" fill="none" xmlns="http://www.w3.org/2000/svg">
<path d="M1.83765 1.97949H28.2646V27.5863H1.83765V1.97949Z" fill="url(#paint0_radia3)"/>
<path d="M1.8375 1.97879H28.2645V27.5856H1.8375V1.97879ZM0.636292 28.7822H29.4657V0.782227H0.636292V28.7822ZM18.8709 12.413C18.6907 12.3292 18.4504 12.2933 18.1621 12.2933C16.6126 12.2933 15.5315 13.478 15.5315 15.4523C15.5315 17.7018 16.6366 18.6112 18.018 18.6112C18.3183 18.6112 18.6306 18.5753 18.8709 18.4677V12.413ZM18.2342 10.4626C18.4865 10.4626 18.6306 10.4626 18.8709 10.4865V7.30357C18.8709 7.21983 18.9309 7.18393 18.9909 7.18393H20.9369C21.033 7.18393 21.057 7.21983 21.057 7.27965V18.4677C21.057 18.8027 21.057 19.2215 21.1171 19.6762C21.1171 19.76 21.0931 19.7719 21.009 19.8198C19.9759 20.3104 18.8829 20.5258 17.8618 20.5258C15.2071 20.5258 13.3092 18.8865 13.3092 15.5481C13.2972 12.6882 15.1951 10.4626 18.2342 10.4626ZM11.1831 20.1908C11.1831 20.3104 11.1591 20.3463 11.0269 20.3463H9.17701C9.05691 20.3463 9.02083 20.2865 9.02083 20.1908V7.33947C9.02083 7.21982 9.08088 7.18388 9.17701 7.18388H11.0389C11.135 7.18388 11.1831 7.21978 11.1831 7.3275V20.1908Z" fill="#FF408C"/>
<defs>
<radialGradient id="paint0_radia3" cx="0" cy="0" r="1" gradientUnits="userSpaceOnUse" gradientTransform="translate(10.5414 7.718) scale(20.0845 19.3702)">
<stop stop-color="#4B2B36" stop-opacity="0.98"/>
<stop offset="1" stop-color="#250012"/>
</radialGradient>
</defs>
</svg>
