<svg width="26" height="29" viewBox="0 0 26 29" fill="none" xmlns="http://www.w3.org/2000/svg">
<path d="M22.2964 8.04619H17.4467C17.1417 8.04619 16.8977 7.80218 16.8977 7.49717V1.87988H4.17877V10.7964H22.2964V8.04619Z" fill="#F5F5F5"/>
<path d="M22.2964 22.0977H4.17877V27.3845H22.2964V22.0977Z" fill="#F5F5F5"/>
<path d="M24.0655 10.7968H23.3945V7.55347C23.3945 7.53313 23.3894 7.5128 23.3894 7.49247C23.3894 7.36538 23.3487 7.23829 23.2572 7.13662L17.8585 0.970317C17.8585 0.970317 17.8535 0.970317 17.8535 0.965233C17.823 0.929649 17.7823 0.899147 17.7416 0.87373C17.7314 0.863563 17.7162 0.858479 17.706 0.853396C17.6704 0.833062 17.6349 0.817811 17.5993 0.807644C17.5891 0.802561 17.5789 0.802561 17.5688 0.797477C17.5281 0.78731 17.4874 0.782227 17.4417 0.782227H4.17371C3.57386 0.782227 3.08076 1.27533 3.08076 1.88027V10.7968H2.40973C1.54045 10.7968 0.838928 11.4983 0.838928 12.3676V20.5266C0.838928 21.3908 1.54045 22.0974 2.40973 22.0974H3.08076V27.6842C3.08076 28.2891 3.57386 28.7822 4.1788 28.7822H22.2964C22.9014 28.7822 23.3945 28.2891 23.3945 27.6842V22.0974H24.0655C24.9348 22.0974 25.6363 21.3959 25.6363 20.5266V12.3676C25.6363 11.4983 24.9348 10.7968 24.0655 10.7968ZM4.1788 1.88027H16.8978V7.49755C16.8978 7.80256 17.1418 8.04657 17.4468 8.04657H22.2964V10.7968H4.1788V1.88027ZM22.2964 27.3843H4.1788V22.0974H22.2964V27.3843Z" fill="#992B60"/>
<path d="M4.78889 12.3105V20.7288H3.14691V12.3105H4.78889Z" fill="#F5F5F5"/>
<path d="M6.24786 12.4381C6.65454 12.3415 7.25948 12.2754 7.91017 12.2754C8.97263 12.2754 9.70974 12.5245 10.2486 13.0227C10.9704 13.6734 11.3415 14.7866 11.3415 16.4134C11.3415 18.1214 10.9044 19.3262 10.1723 19.982C9.5979 20.5259 8.76929 20.7954 7.60008 20.7954C7.08156 20.7954 6.56813 20.7445 6.24786 20.6988V12.4381ZM7.87459 19.433C7.96101 19.4584 8.08301 19.4584 8.16943 19.4584C8.96246 19.4584 9.64365 18.6857 9.64365 16.3676C9.64365 14.6392 9.1963 13.5869 8.19993 13.5869C8.08301 13.5869 7.97117 13.592 7.87459 13.6276V19.433Z" fill="#F5F5F5"/>
<path d="M17.5231 17.7857C17.4824 16.9774 17.4265 15.8997 17.4468 14.9948H17.4112C17.2587 15.8997 17.0351 16.9317 16.8775 17.5874L16.1454 20.5918H14.9864L14.29 17.6332C14.1273 16.952 13.9036 15.9048 13.7765 14.9898H13.746C13.7206 15.9099 13.6596 16.9723 13.6189 17.8009L13.4766 20.724H12.0735L12.6785 12.3057H14.4069L15.0779 15.3507C15.3117 16.4182 15.5253 17.3485 15.6727 18.2991H15.6981C15.8252 17.3638 16.0133 16.4182 16.2369 15.3507L16.9029 12.3057H18.6313L19.1396 20.729H17.6756L17.5231 17.7857Z" fill="#F5F5F5"/>
<path d="M20.3343 12.3105H21.9763V19.341H24.1317V20.7288H20.3394V12.3105H20.3343Z" fill="#F5F5F5"/>
</svg>
