<svg width="32" height="32" viewBox="0 0 32 32" fill="none" xmlns="http://www.w3.org/2000/svg">
<path d="M16.2784 7.75586C11.7784 7.75586 8.1925 11.4121 8.1925 15.8418C8.1925 20.3418 11.7784 23.9277 16.2784 23.9277C20.7081 23.9277 24.3644 20.3418 24.3644 15.8418C24.3644 11.4121 20.7081 7.75586 16.2784 7.75586ZM16.2784 21.1152C13.3956 21.1152 11.005 18.7949 11.005 15.8418C11.005 12.959 13.3253 10.6387 16.2784 10.6387C19.1613 10.6387 21.4816 12.959 21.4816 15.8418C21.4816 18.7949 19.1613 21.1152 16.2784 21.1152ZM26.5441 7.47461C26.5441 6.41992 25.7003 5.57617 24.6456 5.57617C23.5909 5.57617 22.7472 6.41992 22.7472 7.47461C22.7472 8.5293 23.5909 9.37305 24.6456 9.37305C25.7003 9.37305 26.5441 8.5293 26.5441 7.47461ZM31.8878 9.37305C31.7472 6.8418 31.1847 4.5918 29.3566 2.76367C27.5284 0.935547 25.2784 0.373047 22.7472 0.232422C20.1456 0.0917969 12.3409 0.0917969 9.73938 0.232422C7.20813 0.373047 5.02844 0.935547 3.13 2.76367C1.30188 4.5918 0.73938 6.8418 0.598755 9.37305C0.45813 11.9746 0.45813 19.7793 0.598755 22.3809C0.73938 24.9121 1.30188 27.0918 3.13 28.9902C5.02844 30.8184 7.20813 31.3809 9.73938 31.5215C12.3409 31.6621 20.1456 31.6621 22.7472 31.5215C25.2784 31.3809 27.5284 30.8184 29.3566 28.9902C31.1847 27.0918 31.7472 24.9121 31.8878 22.3809C32.0284 19.7793 32.0284 11.9746 31.8878 9.37305ZM28.5128 25.123C28.0206 26.5293 26.8956 27.584 25.5597 28.1465C23.4503 28.9902 18.5284 28.7793 16.2784 28.7793C13.9581 28.7793 9.03625 28.9902 6.99719 28.1465C5.59094 27.584 4.53625 26.5293 3.97375 25.123C3.13 23.084 3.34094 18.1621 3.34094 15.8418C3.34094 13.5918 3.13 8.66992 3.97375 6.56055C4.53625 5.22461 5.59094 4.16992 6.99719 3.60742C9.03625 2.76367 13.9581 2.97461 16.2784 2.97461C18.5284 2.97461 23.4503 2.76367 25.5597 3.60742C26.8956 4.09961 27.9503 5.22461 28.5128 6.56055C29.3566 8.66992 29.1456 13.5918 29.1456 15.8418C29.1456 18.1621 29.3566 23.084 28.5128 25.123Z" fill="#287AFF"/>
</svg>
