<svg width="297" height="439" viewBox="0 0 297 439" fill="none" xmlns="http://www.w3.org/2000/svg">
<path d="M279.82 296.174C279.82 296.174 199.35 280.157 132.079 85.9026" stroke="#FF644E" stroke-width="4" stroke-miterlimit="10" stroke-linecap="round" stroke-linejoin="round"/>
<path d="M133.993 89.9103C133.993 89.9103 145.074 46.7982 102.586 3.71215C102.586 3.71215 89.677 73.459 133.993 89.9103Z" fill="#FF644E"/>
<path d="M138.168 103.317C138.168 103.317 113.784 84.2843 74.4733 99.3652C74.4733 99.3652 115.323 127.037 138.168 103.317Z" fill="#FF644E"/>
<path d="M139.164 104.155C139.164 104.155 137.534 69.6176 176.881 43.3809C177.006 43.5012 175.714 98.6876 139.164 104.155Z" fill="#FF644E"/>
<path d="M151.809 137.75C151.809 137.75 115.645 118.081 67.3925 146.569C67.3925 146.569 126.988 173.766 151.809 137.75Z" fill="#FF644E"/>
<path d="M170.293 175.527C170.293 175.527 183.042 136.429 237.603 124.004C237.603 124.004 213.003 184.775 170.293 175.527Z" fill="#FF644E"/>
<path d="M170.312 176.508C170.312 176.508 134.148 156.839 85.8954 185.327C85.8977 185.449 145.494 212.646 170.312 176.508Z" fill="#FF644E"/>
<path d="M151.804 137.507C151.804 137.507 160.119 97.2651 212.972 78.7422C212.972 78.7422 195.282 141.961 151.804 137.507Z" fill="#FF644E"/>
<path d="M200.284 225.468C200.284 225.468 158.176 202.601 101.799 235.777C101.799 235.777 171.412 267.689 200.284 225.468Z" fill="#FF644E"/>
<path d="M197.939 224.654C197.939 224.654 210.8 178.443 273.847 160.955C273.724 160.957 248.235 233.147 197.939 224.654Z" fill="#FF644E"/>
<path d="M292.596 314.914C292.596 314.914 82.1027 187.127 19.3176 301.54C2.96808 338.746 16.9443 369.214 40.4488 375.022C63.9533 380.829 95.2124 379.739 108.582 333.247C108.582 333.247 107.241 365.696 136.392 373.516C165.542 381.336 168.742 346.403 168.742 346.403C168.742 346.403 186.743 376.152 215.77 346.498C244.797 316.845 273.212 306.596 292.596 314.914Z" fill="#FF644E"/>
<path d="M42.1973 336.194C42.1973 336.194 69.6675 260.412 284.201 312.525" stroke="white" stroke-width="4" stroke-miterlimit="10" stroke-linecap="round" stroke-linejoin="round"/>
<path d="M121.181 271.451C121.181 271.451 119.421 288.871 134.661 294.493" stroke="white" stroke-width="4" stroke-miterlimit="10" stroke-linecap="round" stroke-linejoin="round"/>
<path d="M143.109 350.454C143.109 350.454 126.469 319.027 159.69 294.25" stroke="white" stroke-width="4" stroke-miterlimit="10" stroke-linecap="round" stroke-linejoin="round"/>
<path d="M195.393 335.374C195.393 335.374 176.579 319.251 197.677 296.791" stroke="white" stroke-width="4" stroke-miterlimit="10" stroke-linecap="round" stroke-linejoin="round"/>
</svg>
