<svg width="324" height="398" viewBox="0 0 324 398" fill="none" xmlns="http://www.w3.org/2000/svg">
<g clip-path="url(#clip0)">
<path d="M103.921 64.5186C103.921 64.5186 68.7982 116.401 122.592 149.52C166.668 176.71 156.296 243.142 156.296 243.142" stroke="#FF644E" stroke-width="3" stroke-miterlimit="10" stroke-linecap="round" stroke-linejoin="round"/>
<path d="M109.73 68.5111C115.55 67.4324 119.394 61.8401 118.315 56.0205C117.236 50.2009 111.644 46.3576 105.824 47.4364C100.004 48.5152 96.1608 54.1074 97.2395 59.9271C98.3182 65.7467 103.911 69.5899 109.73 68.5111Z" fill="#FF644E"/>
<path d="M133.427 107.463C133.427 107.463 170.995 157.658 118.796 193.315C76.0501 222.53 89.5399 288.468 89.5399 288.468" stroke="#FF644E" stroke-width="3" stroke-miterlimit="10" stroke-linecap="round" stroke-linejoin="round"/>
<path d="M135.47 115.069C141.29 113.99 145.134 108.398 144.055 102.578C142.976 96.7583 137.384 92.9151 131.564 93.9938C125.744 95.0726 121.901 100.665 122.98 106.485C124.058 112.304 129.651 116.147 135.47 115.069Z" fill="#FF644E"/>
<path d="M261.398 267.258C268.019 289.984 265.74 314.613 254.107 335.273C241.399 357.653 215.893 379.364 164.477 373.432C65.1588 362.059 46.7858 269.778 42.4436 248.404C38.1014 227.03 36.1934 161.353 0.162964 49.0254C0.162964 49.0254 62.7593 152.88 139.985 164.04C222.576 176.106 251.394 233.118 261.398 267.258Z" fill="#FF644E"/>
<path d="M258.73 295.254C219.514 294.286 97.3491 280.684 58.8288 150.821" stroke="white" stroke-width="3" stroke-miterlimit="10" stroke-linecap="round" stroke-linejoin="round"/>
<path d="M114.082 174.037C114.082 174.037 105.787 209.287 121.524 247.686" stroke="white" stroke-width="3" stroke-miterlimit="10" stroke-linecap="round" stroke-linejoin="round"/>
<path d="M153.35 268.275C136.338 225.043 150.318 186.965 150.318 186.965" stroke="white" stroke-width="3" stroke-miterlimit="10" stroke-linecap="round" stroke-linejoin="round"/>
<path d="M196.467 285.504C182.808 238.481 201.168 200.098 201.168 200.098" stroke="white" stroke-width="3" stroke-miterlimit="10" stroke-linecap="round" stroke-linejoin="round"/>
<path d="M124.864 353.907C124.864 353.907 161.272 309.644 237.023 293.702" stroke="white" stroke-width="3" stroke-miterlimit="10" stroke-linecap="round" stroke-linejoin="round"/>
<path d="M91.7387 328.363C91.7387 328.363 121.844 289.07 179.674 280.378" stroke="white" stroke-width="3" stroke-miterlimit="10" stroke-linecap="round" stroke-linejoin="round"/>
<path d="M66.5394 286.775C66.5394 286.775 91.3189 261.143 147.087 265.254" stroke="white" stroke-width="3" stroke-miterlimit="10" stroke-linecap="round" stroke-linejoin="round"/>
<path d="M62.8043 123.722C48.7806 67.8957 10.1071 52.7586 0.712263 49.9375C0.589732 49.9602 0.567019 49.8376 0.444489 49.8604C36.139 161.743 38.1241 227.152 42.4663 248.526C44.7011 259.899 51.0055 291.175 71.1559 319.885C56.0608 234.347 73.7254 243.493 67.5338 154.023C66.6923 142.646 65.0977 132.676 62.8043 123.722Z" fill="#C6110C"/>
<path d="M138.679 62.6381C138.679 62.6381 181.709 99.9073 165.809 166.604C149.909 233.3 203.741 255.006 234.764 245.96C265.786 236.914 296.352 211.731 281.491 168.48C266.63 125.229 217.086 80.1689 138.679 62.6381Z" fill="#C6110C"/>
<path d="M146.539 59.9138C146.539 59.9138 189.569 97.183 173.669 163.879C157.768 230.576 200.029 258.228 231.052 249.183C262.074 240.137 304.212 209.007 289.351 165.756C274.267 122.673 224.824 77.4673 146.539 59.9138Z" fill="#FF644E"/>
<path d="M174.639 79.5456C174.639 79.5456 230.474 103.162 230.609 233.803" stroke="white" stroke-width="3" stroke-miterlimit="10" stroke-linecap="round" stroke-linejoin="round"/>
<path d="M181.921 119.512C181.921 119.512 198.861 109.021 211.766 124.626" stroke="white" stroke-width="3" stroke-miterlimit="10" stroke-linecap="round" stroke-linejoin="round"/>
<path d="M254.721 127.31C254.721 127.31 225.155 131.903 224.598 167.873" stroke="white" stroke-width="3" stroke-miterlimit="10" stroke-linecap="round" stroke-linejoin="round"/>
<path d="M233.071 109.651C233.071 109.651 218.849 116.343 215.806 132.749" stroke="white" stroke-width="3" stroke-miterlimit="10" stroke-linecap="round" stroke-linejoin="round"/>
<path d="M184.417 148.706C184.417 148.706 204.148 136.177 220.03 148.695" stroke="white" stroke-width="3" stroke-miterlimit="10" stroke-linecap="round" stroke-linejoin="round"/>
<path d="M228.215 192.17C228.215 192.17 242.964 163.708 270.325 159.524" stroke="white" stroke-width="3" stroke-miterlimit="10" stroke-linecap="round" stroke-linejoin="round"/>
<path d="M226.17 177.721C226.17 177.721 203.581 165.939 178.56 186.166" stroke="white" stroke-width="3" stroke-miterlimit="10" stroke-linecap="round" stroke-linejoin="round"/>
</g>
<defs>
<clipPath id="clip0">
<rect x="0.162964" y="49.0254" width="263.567" height="354.903" transform="rotate(-10.5014 0.162964 49.0254)" fill="white"/>
</clipPath>
</defs>
</svg>
