<svg width="309" height="413" viewBox="0 0 309 413" fill="none" xmlns="http://www.w3.org/2000/svg">
<path d="M264.534 290.172C264.534 290.172 224.029 192.747 110.831 121.752" stroke="#FF644E" stroke-width="4" stroke-miterlimit="10"/>
<path d="M233.073 234.908C233.073 234.908 247.327 161.471 221.304 160.544C202.375 159.895 209.532 210.075 233.073 234.908Z" fill="#FF644E"/>
<path d="M174.926 171.358C174.926 171.358 220.342 98.687 192.941 87.0543C172.907 78.5897 159.948 135.118 174.926 171.358Z" fill="#FF644E"/>
<path d="M191.975 187.69C191.975 187.69 153.181 196.639 158.348 209.488C162.047 218.78 184.96 204.511 191.975 187.69Z" fill="#FF644E"/>
<path d="M242.188 252.192C242.188 252.192 185.718 240.023 184.66 260.099C183.808 274.609 222.686 269.922 242.188 252.192Z" fill="#FF644E"/>
<path d="M136.97 138.079C136.97 138.079 59.0385 156.042 69.4736 181.811C77.0915 200.62 122.972 171.895 136.97 138.079Z" fill="#FF644E"/>
<path d="M138.187 136.96C138.187 136.96 159.884 28.9703 126.306 24.8213C101.856 21.8176 108.851 97.3439 138.187 136.96Z" fill="#FF644E"/>
<path d="M113.392 123.056C113.392 123.056 37.9777 15.3133 6.67389 40.9559C-16.0529 59.5572 55.074 115.78 113.392 123.056Z" fill="#FF644E"/>
<path d="M293.599 285.514C293.599 285.514 235.953 370.784 173.224 375.879C110.494 380.973 137.009 338.289 137.009 338.289C137.009 338.289 64.0715 378.097 68.9742 300.426C68.9742 300.426 10.395 274.035 52.031 218.293C80.2014 187.924 111.476 211.847 118.555 241.859C118.555 241.859 163.692 180.35 173.781 279.161C178.326 324.384 293.599 285.514 293.599 285.514Z" fill="#FF644E"/>
<path d="M67.827 248.527C67.827 248.527 141.602 377.641 273.59 298.814" stroke="white" stroke-width="4" stroke-miterlimit="10" stroke-linecap="round" stroke-linejoin="round"/>
<path d="M88.3774 331.33C88.3774 331.33 89.8866 301.491 115.98 299.735" stroke="white" stroke-width="4" stroke-miterlimit="10" stroke-linecap="round" stroke-linejoin="round"/>
<path d="M143.263 243.084C143.263 243.084 107.753 274.828 141.799 314.165" stroke="white" stroke-width="4" stroke-miterlimit="10" stroke-linecap="round" stroke-linejoin="round"/>
<path d="M158.47 356.861C158.47 356.861 153.957 331.936 179.209 323.762" stroke="white" stroke-width="4" stroke-miterlimit="10" stroke-linecap="round" stroke-linejoin="round"/>
</svg>
