<?xml version="1.0" encoding="utf-8"?>
<!-- Generator: Adobe Illustrator 22.1.0, SVG Export Plug-In . SVG Version: 6.00 Build 0)  -->
<svg version="1.1" id="Слой_1" xmlns="http://www.w3.org/2000/svg" xmlns:xlink="http://www.w3.org/1999/xlink" x="0px" y="0px"
	 width="1239.3px" height="396.6px" viewBox="0 0 1239.3 396.6" style="enable-background:new 0 0 1239.3 396.6;"
	 xml:space="preserve">
<style type="text/css">
	.st0{clip-path:url(#SVGID_2_);}
	.st1{fill:none;stroke:#FF644E;stroke-width:3;stroke-linecap:round;stroke-linejoin:round;stroke-miterlimit:10;}
	.st2{fill:#FF644E;}
	.st3{fill:none;stroke:#FFFFFF;stroke-width:3;stroke-linecap:round;stroke-linejoin:round;stroke-miterlimit:10;}
	.st4{fill:#C6110C;}
	.st5{clip-path:url(#SVGID_4_);}
</style>
<g>
	<defs>
		
			<rect id="SVGID_1_" x="922.9" y="98.8" transform="matrix(0.5402 -0.8415 0.8415 0.5402 317.0915 994.9232)" width="292.3" height="217.1"/>
	</defs>
	<clipPath id="SVGID_2_">
		<use xlink:href="#SVGID_1_"  style="overflow:visible;"/>
	</clipPath>
	<g class="st0">
		<path class="st1" d="M1155.4,122.5c0,0,10.6,50.5-40.7,59c-42.1,7-54.8,60.9-54.8,60.9"/>
		<path class="st2" d="M1149.7,123.7c-4.1-2.6-5.3-8.1-2.7-12.2c2.6-4.1,8.1-5.3,12.2-2.7c4.1,2.6,5.3,8.1,2.7,12.2
			C1159.3,125.1,1153.8,126.3,1149.7,123.7z"/>
		<path class="st1" d="M1119.5,146c0,0-44.3,26.6-15.6,70c23.5,35.6-7.3,81.7-7.3,81.7"/>
		<path class="st2" d="M1115.6,151.2c-4.1-2.6-5.3-8.1-2.7-12.2c2.6-4.1,8.1-5.3,12.2-2.7s5.3,8.1,2.7,12.2
			C1125.1,152.6,1119.7,153.8,1115.6,151.2z"/>
		<path class="st2" d="M972.2,228.1c-12.1,15.3-18,34.8-15.6,54.1c2.7,21,15.4,45.5,56.5,57c79.3,22.2,122-42.4,131.9-57.4
			c10-14.9,31.8-64.4,94.3-138.9c0,0-80,59.7-142.4,44.2C1030.2,170.6,990.5,205.1,972.2,228.1z"/>
		<path class="st3" d="M965.5,250.2c30.2,11.5,127.6,39.1,197.4-47.9"/>
		<path class="st3" d="M1113.5,202.8c0,0-4.6,29.5-28.6,53.8"/>
		<path class="st3" d="M1054.3,262.5c26.4-27.7,27.6-61.1,27.6-61.1"/>
		<path class="st3" d="M1016,262.2c25-31.6,23-66.6,23-66.6"/>
		<path class="st3" d="M1049.4,336.6c0,0-14-45.1-66.8-80.8"/>
		<path class="st3" d="M1082.6,327.4c0,0-10.7-39.3-52.1-63.9"/>
		<path class="st3" d="M1114.7,303.6c0,0-10.9-27.3-54.7-41.5"/>
		<path class="st4" d="M1168.3,180.4c28.1-38.2,62.3-37.7,70.3-36.9c0.1,0.1,0.1,0,0.2,0c-62,74.2-83.9,123.5-93.8,138.4
			c-5.2,8-19.8,29.9-44.1,45.5c38.1-60.5,21.8-59,54.4-125.3C1159.4,193.6,1163.8,186.5,1168.3,180.4z"/>
		<path class="st4" d="M1129.4,110.2c0,0-44.4,15-53,70.8c-8.6,55.8-56.4,55.6-77.3,39.1c-20.8-16.5-36.3-45.3-11.5-73.6
			C1012.4,118.1,1064.2,99.2,1129.4,110.2z"/>
		<path class="st2" d="M1124.3,105.7c0,0-44.4,15-53,70.8c-8.6,55.8-49.5,63.7-70.3,47.2c-20.8-16.5-43.3-53.4-18.5-81.8
			C1007.4,113.8,1059.1,94.7,1124.3,105.7z"/>
		<path class="st3" d="M1096.8,111.9c0,0-49.9,0.6-90.7,100.2"/>
		<path class="st3" d="M1078.8,140.1c0,0-9.7-13.3-24.3-5.4"/>
		<path class="st3" d="M1020.8,123.4c0,0,21.1,12.7,10.3,40.3"/>
		<path class="st3" d="M1042.8,116.7c0,0,8.8,9.5,6,23"/>
		<path class="st3" d="M1067.8,161.6c0,0-11.1-15.7-27.2-11.1"/>
		<path class="st3" d="M1020.9,181.1c0,0-2.4-26.3-22-38"/>
		<path class="st3" d="M1026.9,170.7c0,0,20.9-2,33.7,21.3"/>
	</g>
</g>
<g>
	<defs>
		
			<rect id="SVGID_3_" x="73.3" y="39" transform="matrix(0.7839 -0.6208 0.6208 0.7839 -81.707 161.7946)" width="236.6" height="318.5"/>
	</defs>
	<clipPath id="SVGID_4_">
		<use xlink:href="#SVGID_3_"  style="overflow:visible;"/>
	</clipPath>
	<g class="st5">
		<path class="st1" d="M88.8,115.6c0,0-6.1,55.9,50.5,59.6c46.4,3.1,66,60.1,66,60.1"/>
		<path class="st2" d="M95.1,116.3c4.2-3.3,4.9-9.3,1.6-13.5c-3.3-4.2-9.3-4.9-13.5-1.6c-4.2,3.3-4.9,9.3-1.6,13.5
			C84.9,118.9,90.9,119.6,95.1,116.3z"/>
		<path class="st1" d="M130.3,137.3c0,0,50.9,24.1,24.4,74.3c-21.7,41.1,16.7,87.8,16.7,87.8"/>
		<path class="st2" d="M135.1,142.5c4.2-3.3,4.9-9.3,1.6-13.5c-3.3-4.2-9.3-4.9-13.5-1.6c-4.2,3.3-4.9,9.3-1.6,13.5
			C124.9,145.1,130.9,145.8,135.1,142.5z"/>
		<path class="st2" d="M298.8,210.4c14.8,15.3,23.3,35.7,22.8,57c-0.7,23.1-11.8,51-55.1,67.9c-83.6,32.7-136.9-32.8-149.3-48
			S75.7,220.9,0,146.9c0,0,93.2,56.1,159.2,32.6C229.8,154.4,276.6,187.5,298.8,210.4z"/>
		<path class="st3" d="M308.5,233.7C277,249.4,174.3,289.9,89.3,203"/>
		<path class="st3" d="M142.8,198.2c0,0,8.2,31.4,36.8,55.3"/>
		<path class="st3" d="M213.5,256.5c-31.6-27.2-36.5-63.2-36.5-63.2"/>
		<path class="st3" d="M255,252.1c-30.6-31.6-32.1-69.7-32.1-69.7"/>
		<path class="st3" d="M226.9,336.4c0,0,10.3-50.4,63.7-94.8"/>
		<path class="st3" d="M189.9,330.1c0,0,7.4-43.8,49.6-75"/>
		<path class="st3" d="M152.4,307.6c0,0,8.9-30.7,54.9-50.9"/>
		<path class="st4" d="M81,179.8c-34.6-38.4-71.6-34.2-80.2-32.5c-0.1,0.1-0.2,0-0.2,0.1c75.3,73.8,104.3,124.8,116.7,140
			c6.5,8.1,24.7,30.3,52.7,44.6c-47.9-61.5-30-61.7-72.5-130.1C92.1,193.2,86.6,186,81,179.8z"/>
		<path class="st4" d="M115.6,99.5c0,0,49.8,11.5,65.2,71.1c15.4,59.6,67.2,54.2,88,34c20.8-20.2,34.5-53,4.6-81.1
			C243.4,95.5,185.2,80.5,115.6,99.5z"/>
		<path class="st2" d="M120.7,94.1c0,0,49.8,11.5,65.2,71.1c15.4,59.6,60.5,63.8,81.3,43.6c20.8-20.2,41.2-62.6,11.2-90.7
			C248.4,90.3,190.2,75.2,120.7,94.1z"/>
		<path class="st3" d="M151.2,97.9c0,0,54.2-4.7,109.1,98.9"/>
		<path class="st3" d="M173.8,126.5c0,0,9-15.4,25.8-8.5"/>
		<path class="st3" d="M234.8,102.2c0,0-21.5,16.1-6.9,44.8"/>
		<path class="st3" d="M210.2,97.2c0,0-8.5,11.3-4,25.6"/>
		<path class="st3" d="M188,148.6c0,0,10.4-18.2,28.3-15"/>
		<path class="st3" d="M241,164.7c0,0-0.2-28.8,19.7-43.6"/>
		<path class="st3" d="M233.3,154.1c0,0-22.9,0.1-34.2,26.7"/>
	</g>
</g>
</svg>
