<svg width="242" height="629" viewBox="0 0 242 629" fill="none" xmlns="http://www.w3.org/2000/svg">
<path fill-rule="evenodd" clip-rule="evenodd" d="M39.0087 266.662C28.5897 376.699 68.8867 415.472 71.7979 599.224L92.6358 599.071C107.039 480.759 113.627 369.189 112.401 264.363L39.0087 266.662Z" fill="#030047"/>
<path fill-rule="evenodd" clip-rule="evenodd" d="M12.0419 594.78C49.7341 501.448 79.3057 438.92 100.45 407.197C59.2338 354.477 39.3151 308.347 40.6941 268.808L87.7328 248.885C135.997 303.597 159.593 354.017 158.674 400.147C153.311 431.564 110.103 499.303 28.7429 603.209L12.0419 594.78Z" fill="#2B2B68"/>
<path fill-rule="evenodd" clip-rule="evenodd" d="M72.1043 588.497C68.7334 594.933 68.1205 600.45 70.4188 605.201C93.5551 607.653 112.401 608.573 127.11 607.653C128.796 595.546 101.369 596.313 94.7809 583.899C88.0392 587.884 80.3782 589.263 72.1043 588.497Z" fill="#FFE428"/>
<path fill-rule="evenodd" clip-rule="evenodd" d="M17.5578 582.06C11.7355 586.351 8.21139 591.562 7.29207 597.692C15.7192 606.581 36.2507 621.14 60.9192 615.623C61.5321 601.217 34.4121 609.952 36.7104 592.635C29.8155 592.328 23.3802 588.65 17.5578 582.06Z" fill="#FFE428"/>
<path fill-rule="evenodd" clip-rule="evenodd" d="M47.8955 127.507L133.852 107.737L202.495 30.6502L213.68 36.9337C192.382 84.1361 172.617 117.086 154.384 135.936C137.989 150.342 113.933 158.158 82.3701 159.078C69.6528 151.568 58.1612 140.993 47.8955 127.507Z" fill="#F9AE10"/>
<path fill-rule="evenodd" clip-rule="evenodd" d="M29.0493 305.895C71.951 327.351 108.264 326.431 137.683 303.137C104.893 245.207 130.022 215.628 119.449 150.342C110.256 101.607 47.4358 103.293 37.17 135.936C21.848 176.242 19.09 232.946 29.0493 305.895Z" fill="#F9AE10"/>
<path fill-rule="evenodd" clip-rule="evenodd" d="M202.648 31.2632C204.487 22.8342 209.543 15.7845 217.664 9.80761C222.413 6.28275 229.155 3.37092 237.889 1.22535C240.8 -0.000681579 241.719 1.0721 240.493 4.29045C236.357 7.50879 232.066 10.5739 227.623 13.639C230.994 15.6313 232.373 19.7692 231.76 25.8993C228.696 32.1828 222.107 36.3206 211.688 38.7727L202.648 31.2632Z" fill="#FFE4C4"/>
<path d="M163.883 264.976L49.2744 306.202C39.3151 309.727 28.5897 305.129 25.3721 295.934L12.3483 259.612L1.01001 227.889C-0.828631 222.985 -0.0625283 217.621 2.54222 213.33C4.84053 209.652 8.36459 206.433 12.9612 204.901L98.9179 174.096L127.57 163.828C132.167 162.143 136.763 162.296 140.9 163.828C145.803 165.514 149.634 169.192 151.319 174.096L175.681 241.988C179.052 251.03 173.843 261.452 163.883 264.976Z" fill="#E3E5FC"/>
<path d="M92.4825 231.26H113.474C113.474 242.908 103.974 252.41 92.3293 252.41C80.6846 252.41 71.1849 242.908 71.1849 231.26C71.1849 219.613 80.6846 210.111 92.3293 210.111C99.8371 210.111 106.885 214.096 110.563 220.686L92.4825 231.26Z" fill="#A7ADFF"/>
<path fill-rule="evenodd" clip-rule="evenodd" d="M103.361 177.008L83.749 209.039L118.683 279.536L107.805 289.037C66.8947 248.578 47.4357 220.533 49.4276 204.901C52.9517 183.292 61.6853 161.836 75.7815 140.381C88.8053 120.151 127.264 135.323 103.361 177.008Z" fill="#FDC510"/>
<path fill-rule="evenodd" clip-rule="evenodd" d="M107.345 287.198C109.49 290.417 112.401 292.256 116.385 291.489C121.288 290.876 122.82 291.183 128.03 287.811C134.005 283.98 139.675 281.375 137.836 274.325L121.135 274.631L115.619 273.712L107.345 287.198Z" fill="#FFE4C4"/>
<path fill-rule="evenodd" clip-rule="evenodd" d="M52.7985 119.385C57.2419 128.427 66.4351 129.959 80.6846 123.829C74.8622 117.086 73.33 109.73 76.088 102.067L57.7015 100.841C60.6127 108.81 59.0805 115.094 52.7985 119.385Z" fill="#FFE4C4"/>
<path d="M76.2412 100.994L76.3945 106.511L76.5477 114.634L76.7009 119.998C76.8541 123.216 74.2494 125.975 70.8785 126.128C62.9111 126.434 55.25 120.611 55.25 120.611L56.4758 95.6301C59.8467 92.1053 76.2412 100.994 76.2412 100.994Z" fill="#FFE4C4"/>
<path d="M96.3131 57.4697L107.805 72.9484C108.111 73.2549 108.111 73.868 107.805 74.1745L102.135 82.1437L96.3131 57.4697Z" fill="#FFE4C4"/>
<path d="M90.9504 43.0638L105.2 78.7721L107.192 83.8295L109.337 89.1934C111.176 93.9443 109.337 99.155 105.2 101.76C104.127 102.373 103.055 102.833 101.829 103.14L98.9179 103.753L87.5796 106.205C72.1043 109.423 56.1694 101.607 49.1212 87.2011L37.0168 61.9141C37.0168 61.9141 51.8792 23.907 90.9504 43.0638Z" fill="#FFE4C4"/>
<path d="M91.5633 44.4432C91.4101 44.4432 84.0555 43.0639 75.3219 44.5964C66.4352 46.129 68.8867 55.9373 68.8867 55.9373C73.1769 68.5041 61.6853 69.7302 61.6853 69.7302C61.6853 69.7302 57.3952 61.4544 47.2826 64.6728C37.3233 67.8911 53.4114 83.6763 53.4114 83.6763L56.9355 97.6225L56.3226 102.986C56.3226 102.986 39.6216 82.6035 25.6785 60.8414C25.0656 59.9219 24.606 58.8491 24.1463 57.9296C19.5497 45.9757 32.7267 33.4088 47.7423 26.5124C48.3552 26.2059 73.6365 17.1639 76.5477 2.14493C76.5477 2.14493 92.3294 5.66978 97.9986 16.3976C101.523 22.8343 101.216 31.8763 91.5633 44.4432Z" fill="#2B2B68"/>
<path d="M91.5633 44.4432C91.4101 44.4432 84.0555 43.0639 75.3219 44.5964C66.4351 46.129 68.8867 55.9373 68.8867 55.9373C73.1768 68.5041 61.6853 69.7302 61.6853 69.7302C61.6853 69.7302 57.3951 61.4544 47.2826 64.6728C37.3232 67.8911 53.4114 83.6763 53.4114 83.6763L56.9355 97.6225L56.3226 102.986C56.3226 102.986 39.6216 82.6036 25.6785 60.8414C25.0656 59.9219 24.6059 58.8491 24.1463 57.9296C30.5815 69.7302 57.3951 56.397 60.766 48.4278C63.9836 40.4586 70.8785 32.3361 85.7409 30.3438C100.45 28.3515 98.1518 16.7041 98.1518 16.3976C101.523 22.8343 101.216 31.8763 91.5633 44.4432Z" fill="#030047"/>
<path d="M67.048 616.695C65.669 619.607 64.7497 622.059 62.7578 627.117C61.2256 630.948 46.21 625.584 40.694 622.672L7.29199 605.201C2.54216 602.749 2.38894 597.539 4.53402 592.634L6.67911 587.73C18.6303 606.734 44.3713 618.994 67.048 616.695Z" fill="#536FB7"/>
<path d="M46.6696 580.068C48.2019 591.715 56.629 599.684 65.0561 609.799C68.7334 614.243 66.8947 618.075 65.9754 619.607C65.0561 621.753 55.8629 620.527 53.1049 619.914C41.7666 617.155 31.0412 611.638 17.711 603.975C13.2676 601.37 8.0581 599.224 5.75979 595.087C4.07437 592.175 5.75979 589.11 6.83233 586.198C9.43708 578.535 20.6222 571.332 20.6222 571.332C20.6222 571.332 26.4445 580.068 29.509 582.673C32.5734 585.278 36.8635 586.964 40.694 586.198C43.452 585.432 45.7503 582.213 46.6696 580.068Z" fill="#B1C4E5"/>
<path d="M36.3076 598.344L51.3828 594.219L49.7654 588.306L34.6902 592.431L36.3076 598.344Z" fill="#536FB7"/>
<path d="M127.417 597.692C127.57 600.604 127.876 603.056 128.489 607.96C128.949 611.638 114.546 613.937 108.724 614.09L74.2493 614.703C69.3463 614.856 66.8948 610.718 66.4351 605.814L65.9754 600.91C84.0554 610.872 110.103 609.492 127.417 597.692Z" fill="#536FB7"/>
<path d="M94.7809 577.156C101.063 585.891 111.482 588.65 122.667 592.941C127.57 594.933 127.723 598.765 127.876 600.45C128.03 602.596 120.062 605.661 117.611 606.274C107.345 609.033 96.1599 609.339 82.0636 609.033C77.3137 608.879 72.2575 609.339 68.427 607.04C65.8222 605.354 65.8222 602.136 65.3625 599.378C64.1368 592.175 69.9592 581.293 69.9592 581.293C69.9592 581.293 78.5395 585.738 82.0636 586.504C85.7409 587.27 89.8778 586.657 92.6358 584.512C94.7809 582.979 95.0873 579.301 94.7809 577.156Z" fill="#B1C4E5"/>
<path d="M94.6299 596.391L104.997 586.39L101.168 582.419L90.8007 592.419L94.6299 596.391Z" fill="#536FB7"/>
</svg>
