<svg width="255" height="654" viewBox="0 0 255 654" fill="none" xmlns="http://www.w3.org/2000/svg">
<path fill-rule="evenodd" clip-rule="evenodd" d="M91.9749 177.89C75.4976 166.664 58.243 155.905 40.0557 145.614C31.0398 108.973 26.6873 74.6698 18.7595 45.0447C14.2515 42.8618 9.1218 43.0177 5.08018 45.5124C0.416778 81.5303 2.12669 119.263 10.2099 158.712C14.407 182.568 41.9211 200.81 90.7313 232.463C103.012 216.247 102.856 204.397 91.9749 177.89Z" fill="#030047"/>
<path fill-rule="evenodd" clip-rule="evenodd" d="M85.2906 316.66C60.4192 377.782 58.5538 474.921 79.3837 608.234C80.3163 614.938 91.353 615.25 103.012 609.013C108.452 542.747 108.141 494.255 111.561 463.85C139.386 391.503 159.594 345.506 172.341 325.86C130.059 298.573 100.991 295.455 85.2906 316.66Z" fill="#F9AE10"/>
<path fill-rule="evenodd" clip-rule="evenodd" d="M117.157 329.446C122.598 362.501 131.614 402.261 144.05 448.57C150.578 484.9 176.072 541.187 220.529 617.433C224.726 618.836 234.52 616.03 240.893 608.702C224.571 543.059 205.762 490.981 193.792 452.468C201.098 402.261 197.99 358.135 184.466 320.091C160.216 309.488 137.676 312.606 117.157 329.446Z" fill="#FDC510"/>
<path fill-rule="evenodd" clip-rule="evenodd" d="M70.8341 353.146C88.3996 368.582 130.526 365.62 197.523 344.258C190.062 293.584 188.818 242.909 194.103 192.235C161.77 180.541 127.883 175.863 92.2858 177.89C54.3567 226.226 93.5293 254.759 70.8341 353.146Z" fill="#2B2B68"/>
<path fill-rule="evenodd" clip-rule="evenodd" d="M194.103 192.235C217.887 202.682 234.83 234.178 244.624 284.54C248.665 303.251 212.757 321.962 136.899 340.984C132.236 337.71 130.059 333.032 130.215 327.263C156.796 311.983 182.756 296.546 208.405 280.954C187.886 256.163 178.714 240.57 175.761 224.978C174.362 205.8 178.403 191.143 194.103 192.235Z" fill="#030047"/>
<path fill-rule="evenodd" clip-rule="evenodd" d="M122.909 177.578C135.344 176.954 134.256 173.368 131.769 154.814C142.34 150.915 152.288 151.539 161.926 156.373C158.195 170.873 154.309 177.578 164.724 183.815C143.894 204.397 113.893 201.746 122.909 177.578Z" fill="#FFE4C4"/>
<path fill-rule="evenodd" clip-rule="evenodd" d="M18.9134 45.0447C23.1105 21.3446 15.9599 0.139221 11.9183 0.139221C6.16677 0.139221 15.4936 11.6774 4.61231 22.2801C-4.09271 30.6999 5.07865 45.3565 5.07865 45.3565L18.9134 45.0447Z" fill="#FFE4C4"/>
<path d="M50.0043 628.348C50.3152 631.31 50.3152 633.649 50.6261 638.639C50.7815 642.381 65.2381 642.381 70.8341 641.601L104.722 636.923C109.54 636.3 111.406 631.778 110.939 626.944L110.629 622.111C94.462 634.585 68.6579 637.235 50.0043 628.348Z" fill="#536FB7"/>
<path d="M78.762 603.088C73.9431 612.6 64.15 616.965 53.8905 623.046C49.3825 625.697 49.8489 629.595 50.0043 631.154C50.1598 633.181 58.3984 635.052 60.8856 635.364C71.456 636.456 82.3372 635.052 96.172 632.558C100.835 631.778 105.81 631.31 109.23 628.504C111.561 626.477 111.095 623.358 111.095 620.552C111.25 613.223 103.789 603.556 103.789 603.556C103.789 603.556 96.172 609.169 92.5967 610.573C89.1769 611.82 84.9798 611.976 81.8709 610.261C79.6946 608.702 78.762 605.271 78.762 603.088Z" fill="#B1C4E5"/>
<path d="M83.672 619.053L73.1779 609.307L69.3759 613.426L79.87 623.172L83.672 619.053Z" fill="#536FB7"/>
<path d="M195.813 642.069C196.901 644.875 197.523 647.058 199.233 651.736C200.477 655.322 214.312 651.268 219.597 648.929L250.841 634.896C255.349 632.869 255.816 628.192 254.106 623.514L252.396 618.992C240.116 635.52 216.177 645.343 195.813 642.069Z" fill="#536FB7"/>
<path d="M216.332 609.793C214.311 620.396 206.228 627.1 197.99 635.832C194.414 639.574 195.969 643.16 196.59 644.719C197.368 646.746 205.762 646.123 208.249 645.655C218.664 643.784 228.768 639.262 241.359 633.025C245.556 630.998 250.375 629.127 252.707 625.541C254.417 622.891 253.018 620.084 252.24 617.277C250.22 610.261 240.426 602.933 240.426 602.933C240.426 602.933 234.675 610.573 231.721 612.756C228.768 614.939 224.726 616.186 221.307 615.406C218.819 614.939 216.954 611.82 216.332 609.793Z" fill="#B1C4E5"/>
<path d="M226.452 621.82L212.91 617.205L211.11 622.52L224.651 627.135L226.452 621.82Z" fill="#536FB7"/>
<path d="M118.401 351.743L100.835 355.173C96.9492 355.952 93.2185 353.302 92.4413 349.404L82.8036 299.041C82.0264 295.143 84.6689 291.401 88.5551 290.621L106.121 287.191C110.007 286.411 113.737 289.062 114.515 292.96L124.152 343.323C124.774 347.221 122.287 350.963 118.401 351.743Z" fill="#E3E5FC"/>
<path d="M99.2809 303.719C101.771 303.719 103.789 301.694 103.789 299.197C103.789 296.7 101.771 294.675 99.2809 294.675C96.7912 294.675 94.7729 296.7 94.7729 299.197C94.7729 301.694 96.7912 303.719 99.2809 303.719Z" fill="#A7ADFF"/>
<path d="M142.184 90.4179C155.864 89.4824 172.341 98.8377 175.916 112.715C179.025 125.188 176.693 140.625 170.475 151.851C162.703 166.196 143.894 170.873 130.37 164.325C125.707 161.986 124.774 158.712 122.753 154.658C118.712 146.862 116.225 139.845 117.468 136.103C119.334 130.334 124.463 131.269 122.753 114.274C121.354 101.177 132.391 91.0416 142.184 90.4179Z" fill="#FFE4C4"/>
<path d="M179.491 139.065C179.491 139.065 170.786 137.35 169.543 132.049C168.299 126.748 175.294 125.656 169.543 121.914C163.791 118.172 159.75 115.365 159.439 110.376C158.972 100.709 150.578 106.166 138.143 108.817C125.707 111.467 121.043 113.65 111.25 112.403C101.457 111.155 114.67 95.2514 114.67 95.2514C114.67 95.2514 106.121 95.7192 109.54 89.4823C113.116 83.2454 133.79 73.4224 152.755 76.073C171.719 78.7237 184.466 89.1705 186.02 92.2889C186.02 92.2889 186.642 88.079 189.44 89.0145C192.238 89.9501 192.393 95.8751 192.393 95.8751C192.393 95.8751 197.212 97.1225 197.057 98.8376C196.901 100.553 193.482 101.176 193.482 101.176C193.482 101.176 195.813 106.478 193.171 113.962C190.684 121.134 179.491 139.065 179.491 139.065Z" fill="#030047"/>
<path d="M168.766 136.103C168.766 136.103 176.227 125.5 182.134 128.619C187.885 131.737 185.709 140.001 180.113 145.458C174.517 150.915 167.833 144.835 167.833 144.835" fill="#FFE4C4"/>
<path fill-rule="evenodd" clip-rule="evenodd" d="M130.37 327.263C122.287 323.989 103.789 326.171 103.478 333.656C103.167 341.14 107.209 355.953 122.132 350.495C137.054 345.038 136.899 341.14 136.899 341.14L130.37 327.263Z" fill="#FFE4C4"/>
</svg>
