<svg width="26" height="26" viewBox="0 0 26 26" fill="none" xmlns="http://www.w3.org/2000/svg">
<path d="M13.8111 0.518555H15.4679V3.13486C18.5919 3.1523 21.7188 3.10276 24.8397 3.14928C25.5119 3.08532 26.0379 3.60556 25.9708 4.27417C26.0203 9.70445 25.9591 15.1375 26 20.5708C25.9708 21.158 26.0584 21.8092 25.7195 22.3295C25.2928 22.6376 24.7376 22.5969 24.2378 22.6202C21.3155 22.6057 18.3932 22.6116 15.4679 22.6116V25.5186H13.6505C9.19697 24.7104 4.73455 23.972 0.278206 23.193C0.275167 16.411 0.278206 9.62887 0.278206 2.84974C4.78691 2.07392 9.29609 1.28321 13.8111 0.518555Z" fill="#D24625"/>
<path d="M15.4679 4.00781H25.1114V21.7405H15.4679V19.4149H22.4813V18.2521H15.4679V16.7986H22.4813V15.6358H15.4709C15.4679 15.0661 15.4679 14.4963 15.4653 13.9265C16.6226 14.284 17.9404 14.2754 18.9749 13.5833C20.0942 12.9235 20.6787 11.6646 20.775 10.4088C19.4922 10.4 18.2092 10.403 16.9293 10.403C16.9265 9.13833 16.9438 7.8739 16.9031 6.61226C16.4238 6.70528 15.9446 6.80412 15.4681 6.90575V4.00781H15.4679Z" fill="white"/>
<path d="M17.5165 6.00391C19.5476 6.09693 21.254 7.79741 21.3622 9.81208C20.0792 9.82673 18.7965 9.82092 17.5135 9.82092C17.5135 8.54765 17.5107 7.27438 17.5165 6.00391Z" fill="#D24625"/>
<path d="M4.96533 8.1985C6.55224 8.27408 8.47509 7.57337 9.79011 8.75664C11.0497 10.2771 10.7166 13.0734 8.84914 13.9837C8.1859 14.3206 7.42611 14.2744 6.7042 14.2509C6.70116 15.3876 6.69858 16.5242 6.70116 17.6609C6.12167 17.6108 5.54205 17.5624 4.96229 17.5156C4.93611 14.4106 4.9305 11.3032 4.96533 8.1985Z" fill="white"/>
<path d="M6.70107 9.77176C7.27687 9.74548 7.9899 9.64106 8.37868 10.1787C8.71182 10.7485 8.69429 11.4985 8.41656 12.0857C8.08342 12.6846 7.32947 12.6264 6.74782 12.6962C6.68634 11.7222 6.69242 10.7483 6.70107 9.77176Z" fill="#D24625"/>
</svg>
