<svg width="28" height="29" viewBox="0 0 28 29" fill="none" xmlns="http://www.w3.org/2000/svg">
<path d="M6.42794 0.782227H21.5756C25.1347 0.782227 28 3.64792 28 7.20749V22.357C28 25.9166 25.1347 28.7822 21.5756 28.7822H6.42794C2.86882 28.7822 0.003479 25.9166 0.003479 22.357V7.20749C0.003479 3.64792 2.86882 0.782227 6.42794 0.782227Z" fill="url(#paint0_linear)"/>
<path d="M7.28619 21.971C7.73921 21.6687 8.12808 21.404 8.15023 21.3828C8.18544 21.3492 8.14005 21.2937 7.79517 20.9481C7.5777 20.7302 7.37942 20.552 7.35454 20.552C7.3102 20.552 6.23965 22.1377 6.1825 22.288C6.12937 22.4277 6.2379 22.5606 6.38397 22.5347C6.42715 22.527 6.83317 22.2734 7.28619 21.971ZM8.83713 20.9457C9.57032 20.4562 10.0066 20.1067 11.0386 19.1821C12.5562 17.8226 15.9976 14.5429 15.9976 14.4562C15.9976 14.4011 14.3023 12.7046 14.2471 12.7046C14.178 12.7046 11.4701 15.5295 10.1049 17.0256C9.19023 18.028 8.73882 18.5455 8.41277 18.9652C8.01574 19.4764 7.49473 20.2398 7.49473 20.3104C7.49473 20.3625 8.34705 21.2082 8.39961 21.2082C8.424 21.2082 8.62085 21.0901 8.83713 20.9457ZM17.8458 14.7717C17.9223 14.6953 17.9388 14.6582 17.9388 14.563C17.9388 14.4994 17.9245 14.3997 17.9071 14.3415C17.8644 14.1989 17.9058 14.0679 18.0598 13.8587C18.2229 13.6372 18.3909 13.4565 19.5676 12.2374C21.1388 10.6096 22.0829 9.6001 22.5168 9.08397C22.745 8.81252 22.8448 8.5865 22.8437 8.34347C22.8429 8.15308 22.8388 8.14023 22.6831 7.84296C22.6227 7.72774 22.6426 7.61665 22.7523 7.45486C23.1539 6.86247 23.1727 6.31169 22.8048 5.9126C22.4797 5.55985 21.9298 5.52769 21.4188 5.83158C21.2534 5.92993 20.576 6.51752 19.7711 7.26089C17.9971 8.89925 14.4392 12.407 14.4392 12.5176C14.4392 12.5689 16.1385 14.2632 16.1899 14.2632C16.2132 14.2632 16.9404 13.5526 17.8059 12.6841C19.4336 11.051 20.1936 10.2673 21.1266 9.25991C21.9305 8.39201 21.937 8.3855 22.0125 8.37781C22.0686 8.37207 22.0823 8.3841 22.0893 8.44469C22.1006 8.54226 22.0738 8.58773 21.8385 8.87017C21.3879 9.41118 20.5885 10.259 18.8286 12.0623C18.2415 12.664 17.6962 13.2423 17.6168 13.3474C17.4334 13.5906 17.269 13.9152 17.2263 14.1185C17.1454 14.5032 17.3547 14.862 17.6612 14.8641C17.7294 14.8645 17.7766 14.8409 17.8458 14.7717ZM6.10365 22.7996C5.91261 22.7996 5.75916 22.9696 5.75916 23.1802C5.75916 23.3908 5.91261 23.5597 6.10365 23.5597H27.895L27.9185 23.3822L27.9497 23.1843L27.9716 22.9959L27.9825 22.7996H6.10365V22.7996Z" fill="white"/>
<defs>
<linearGradient id="paint0_linear" x1="13.9889" y1="28.6714" x2="14.0161" y2="1.12245" gradientUnits="userSpaceOnUse">
<stop stop-color="#FF8500"/>
<stop offset="1" stop-color="#FFB900"/>
</linearGradient>
</defs>
</svg>
