<?xml version="1.0" encoding="utf-8"?>
<!-- Generator: Adobe Illustrator 22.1.0, SVG Export Plug-In . SVG Version: 6.00 Build 0)  -->
<svg version="1.1" id="Слой_1" xmlns="http://www.w3.org/2000/svg" xmlns:xlink="http://www.w3.org/1999/xlink" x="0px" y="0px"
	 width="28px" height="29px" viewBox="0 0 28 29" style="enable-background:new 0 0 28 29;" xml:space="preserve">
<style type="text/css">
	.st0{fill:url(#SVGID_1_);}
	.st1{fill:#FFFFFF;}
</style>
<linearGradient id="SVGID_1_" gradientUnits="userSpaceOnUse" x1="13.988" y1="1.3286" x2="14.0152" y2="28.8776" gradientTransform="matrix(1 0 0 -1 0 30)">
	<stop  offset="0" style="stop-color:#FF8500"/>
	<stop  offset="1" style="stop-color:#FFB900"/>
</linearGradient>
<path class="st0" d="M6.4,0.8h15.1c3.6,0,6.4,2.9,6.4,6.4v15.1c0,3.6-2.9,6.4-6.4,6.4H6.4c-3.6,0-6.4-2.9-6.4-6.4V7.2
	C0,3.6,2.9,0.8,6.4,0.8z"/>
<path class="st1" d="M7.3,22c0.5-0.3,0.8-0.6,0.9-0.6c0,0,0-0.1-0.4-0.4c-0.2-0.2-0.4-0.4-0.4-0.4c0,0-1.1,1.6-1.2,1.7
	c-0.1,0.1,0.1,0.3,0.2,0.2C6.4,22.5,6.8,22.3,7.3,22z M8.8,20.9c0.7-0.5,1.2-0.8,2.2-1.8c1.5-1.4,5-4.6,5-4.7c0-0.1-1.7-1.8-1.8-1.8
	c-0.1,0-2.8,2.8-4.1,4.3c-0.9,1-1.4,1.5-1.7,1.9c-0.4,0.5-0.9,1.3-0.9,1.3c0,0.1,0.9,0.9,0.9,0.9C8.4,21.2,8.6,21.1,8.8,20.9z
	 M17.8,14.8c0.1-0.1,0.1-0.1,0.1-0.2c0-0.1,0-0.2,0-0.2c0-0.1,0-0.3,0.2-0.5c0.2-0.2,0.3-0.4,1.5-1.6c1.6-1.6,2.5-2.6,2.9-3.2
	c0.2-0.3,0.3-0.5,0.3-0.7c0-0.2,0-0.2-0.2-0.5c-0.1-0.1,0-0.2,0.1-0.4c0.4-0.6,0.4-1.1,0.1-1.5c-0.3-0.4-0.9-0.4-1.4-0.1
	c-0.2,0.1-0.8,0.7-1.6,1.4c-1.8,1.6-5.3,5.1-5.3,5.3c0,0.1,1.7,1.7,1.8,1.7c0,0,0.8-0.7,1.6-1.6c1.6-1.6,2.4-2.4,3.3-3.4
	c0.8-0.9,0.8-0.9,0.9-0.9c0.1,0,0.1,0,0.1,0.1c0,0.1,0,0.1-0.3,0.4c-0.5,0.5-1.3,1.4-3,3.2c-0.6,0.6-1.1,1.2-1.2,1.3
	c-0.2,0.2-0.3,0.6-0.4,0.8c-0.1,0.4,0.1,0.7,0.4,0.7C17.7,14.9,17.8,14.8,17.8,14.8z M6.1,22.8c-0.2,0-0.3,0.2-0.3,0.4
	s0.2,0.4,0.3,0.4h21.8l0-0.2l0-0.2l0-0.2l0-0.2H6.1L6.1,22.8z"/>
</svg>
