<svg width="358" height="701" viewBox="0 0 358 701" fill="none" xmlns="http://www.w3.org/2000/svg">
<path d="M186.981 115.397L189.112 155.195L220.302 167.211C220.302 167.211 201.554 139.77 204.707 115.397C207.86 91.0239 186.981 115.397 186.981 115.397Z" fill="#D4A79A"/>
<path d="M159.114 33.926C159.114 33.926 152.297 42.8741 158.944 70.4855C165.591 98.0969 176.329 121.618 184.595 119.913C207.605 115.311 215.615 99.1195 223.626 85.1434C233.426 68.0993 213.996 26.4266 213.996 26.4266L195.674 16.541L159.114 33.926Z" fill="#EAC2AB"/>
<path d="M163.801 12.4499C149.228 26.3409 144.371 47.7312 143.689 67.8432C143.348 78.0696 144.03 88.3813 146.757 98.1816C149.825 109.09 155.535 119.146 160.222 129.457C161.074 131.247 161.841 133.122 161.671 135.082C161.5 137.383 159.881 139.343 158.603 141.303C149.825 154.257 149.91 172.579 158.688 185.447C161.756 189.964 166.187 193.969 171.556 194.992C178.289 196.27 187.748 193.969 189.964 200.446C191.072 203.684 189.282 207.349 190.39 210.587C191.924 215.36 198.401 216.127 203.343 215.189C208.286 214.252 213.74 212.547 218.001 215.104C223.626 218.513 223.796 227.631 229.676 230.614C231.892 231.722 234.449 231.807 236.92 231.807C247.147 231.807 251.749 239.562 261.975 239.562C266.577 239.562 277.059 231.637 280.809 229.08C284.558 226.523 286.178 220.388 282.854 217.405C279.53 214.422 273.565 215.786 270.923 212.206C266.747 206.497 277.229 199.423 275.525 192.606C274.928 190.305 272.968 188.43 272.542 186.129C272.031 183.317 273.821 180.675 274.588 177.948C277.229 169 269.73 160.478 262.486 154.597C255.243 148.717 246.806 141.985 246.806 132.696C246.806 121.702 258.907 113.862 260.1 102.954C261.378 91.2788 249.788 81.1375 250.726 69.4624C251.322 62.3038 256.521 56.2532 257.288 49.0947C258.14 40.9135 253.027 33.3289 248.169 26.6817C244.505 21.739 240.755 16.6257 235.642 13.1317C228.739 8.35937 223.37 11.5977 216.638 9.72289C210.587 8.1037 206.241 2.73482 199.423 1.54174C186.981 -0.759212 173.005 3.67225 163.801 12.4499Z" fill="#011627"/>
<path d="M285.155 565.871L322.567 603.623L336.458 592.46L295.126 555.389C295.041 555.389 286.604 560.417 285.155 565.871Z" fill="#D4A79A"/>
<path d="M302.029 672.993C302.029 672.993 312.511 664.727 327.254 645.211C341.997 625.781 357.422 603.453 357.081 597.403C356.74 591.352 332.708 572.007 328.276 578.825C323.845 585.642 332.026 594.676 315.493 600.982C301.347 606.436 310.21 623.821 302.455 644.103C294.7 664.471 291.461 672.652 302.029 672.993Z" fill="#DB910E"/>
<path d="M258.907 471.788C262.572 486.19 263.594 501.871 271.52 513.631C283.536 531.613 304.671 536.726 323.93 540.646C318.391 558.286 307.824 573.03 297.427 587.432C289.757 597.999 281.831 608.822 271.605 615.981C268.111 602.26 264.617 588.455 258.396 576.098C252.857 565.104 245.357 555.559 238.88 545.333C219.535 514.739 209.565 477.838 199.849 441.62C194.821 422.701 158.091 274.844 208.116 308.932C241.948 332.027 233.852 372.932 258.907 471.788Z" fill="#030047"/>
<path d="M170.534 621.008L159.114 672.907L176.073 678.531L184.765 623.735C184.765 623.564 175.902 619.218 170.534 621.008Z" fill="#EAC2AB"/>
<path d="M89.6594 693.274C89.6594 693.274 102.357 697.621 126.645 699.41C150.933 701.2 178.118 702.137 182.976 698.473C187.833 694.808 191.072 664.214 182.976 664.214C174.88 664.214 171.727 675.975 157.41 665.493C145.138 656.544 135.423 673.418 114.118 677.935C92.8978 682.451 84.2053 684.241 89.6594 693.274Z" fill="#FDC510"/>
<path d="M126.389 632.513C127.327 630.638 129.542 629.36 131.503 627.996C149.314 615.554 146.501 594.675 144.882 576.523C141.132 533.402 150.762 490.792 156.046 448.267C161.159 406.764 159.625 364.665 152.722 323.419C150.166 308.42 146.842 285.325 169.426 291.12C180.078 293.847 190.816 294.103 201.724 292.91C207.434 292.313 201.809 290.098 207.434 292.313C226.779 299.898 211.951 319.243 207.093 332.026C197.378 357.337 206.582 406.679 203.599 433.95C199.253 472.64 196.696 504.768 198.912 543.628C199.935 562.632 201.383 581.637 202.747 600.641C203.514 611.719 211.184 636.433 204.366 645.978C195.077 659.102 158.091 645.126 145.479 644.018C136.019 643.166 123.236 638.819 126.389 632.513Z" fill="#2B2B68"/>
<path d="M123.748 191.583C106.192 204.877 82.4157 228.398 65.5421 201.042C56.6792 186.725 50.4581 170.96 42.1917 156.302C36.3115 141.047 29.3235 125.026 29.8348 108.323C30.4313 91.2786 29.4087 68.3543 27.7895 64.2637C26.1703 60.0879 6.65484 41.7655 6.39918 49.4354C6.14352 57.1052 17.3074 84.9723 2.81992 71.7631C-1.52631 67.7577 1.0303 75.1719 2.47904 84.0348C3.92779 92.8977 15.7734 104.573 15.7734 104.573C27.4486 153.745 24.0398 212.036 78.4956 236.238C93.5796 242.971 117.356 221.24 129.543 213.825C133.804 211.184 176.329 181.953 177.436 183.146C172.408 178.203 167.466 173.346 162.438 168.403C161.245 167.21 159.966 166.017 158.262 165.761C156.302 165.505 154.512 166.613 152.893 167.721C144.882 173.346 137.894 180.163 130.48 186.384C128.179 188.089 125.963 189.879 123.748 191.583Z" fill="#EAC2AB"/>
<path d="M149.825 300.92C149.825 299.131 146.757 251.663 153.49 221.239C160.222 190.815 153.49 164.738 176.584 146.501C199.679 128.264 218.513 152.637 224.563 165.42C230.614 178.203 225.16 243.396 226.012 264.872C226.864 286.859 226.012 282.853 230.87 306.459C233.938 321.543 262.913 357.08 226.353 346.428C213.911 342.849 187.919 341.229 177.351 337.48C167.892 334.156 156.643 331.77 149.058 324.015C146.757 321.629 149.825 300.92 149.825 300.92Z" fill="#FF644E"/>
<path d="M136.957 170.874C136.957 170.874 179.652 125.366 196.014 145.99C212.377 166.613 154.427 209.223 154.427 209.223L128.094 175.05L136.957 170.874Z" fill="#C6110C"/>
</svg>
