<svg width="344" height="701" viewBox="0 0 344 701" fill="none" xmlns="http://www.w3.org/2000/svg">
<path d="M100.773 192.636C100.773 192.636 81.3504 218.349 80.1709 236.985C78.9914 255.622 128.295 263.092 128.295 263.092L100.773 192.636Z" fill="#D4A79A"/>
<path d="M155.738 121.157L153.694 159.924L123.341 171.64C123.341 171.64 141.584 144.904 138.517 121.157C135.451 97.4095 155.738 121.157 155.738 121.157Z" fill="#D4A79A"/>
<path d="M182.867 41.8936C182.867 41.8936 189.472 50.622 183.024 77.5148C176.576 104.408 166.118 127.29 158.019 125.717C135.608 121.235 127.823 105.43 120.038 91.8262C110.524 75.1558 129.396 34.5807 129.396 34.5807L147.246 24.9873L182.867 41.8936Z" fill="#EAC2AB"/>
<path d="M206.693 34.6598C208.659 28.3691 205.199 20.2698 200.638 16.4167C198.908 14.9227 196.628 13.9791 194.426 14.215C192.775 14.3722 191.123 15.1586 189.472 14.9227C184.518 14.0577 183.889 6.74474 179.25 5.25069C175.79 4.07118 172.487 7.13791 168.949 8.00288C166.275 8.63196 163.523 7.92425 160.849 7.37381C153.301 5.80113 146.381 2.18397 138.675 1.24036C132.148 0.454018 125.385 1.16172 119.488 4.30708C113.354 7.60971 108.951 13.6645 106.592 20.663C105.177 24.8306 104.705 29.5486 105.884 33.7948C104.941 30.2563 98.6499 34.0307 97.549 35.4462C93.5387 40.8719 92.831 52.667 94.9541 59.0364C96.684 64.0689 99.4362 68.4724 101.009 73.5837C102.817 79.6385 103.604 86.401 106.985 91.7481C110.838 97.8816 118.466 101.027 125.071 99.3756C123.026 93.7926 121.061 88.0523 120.667 82.0761C120.274 76.0999 112.332 48.9712 141.899 43.1523C153.615 40.7933 167.769 50.6225 179.564 51.0943C185.147 51.3302 190.73 50.2294 195.999 48.1062C200.009 46.4549 204.019 40.4001 206.221 35.9966C206.378 35.6034 206.536 35.1316 206.693 34.6598Z" fill="#011627"/>
<path d="M120.667 62.5751C120.667 62.5751 112.411 53.2963 113.354 67.4505C114.219 81.6832 121.69 84.5927 121.69 84.5927L120.667 62.5751Z" fill="#EAC2AB"/>
<path d="M50.3686 607.194L32.5187 654.139L16.2414 649.814L37.7872 601.926C37.7085 601.926 46.9873 603.027 50.3686 607.194Z" fill="#D4A79A"/>
<path d="M74.2733 697.938C73.7229 698.882 67.904 698.489 67.039 698.567C58.1534 698.725 44.4711 699.354 36.7649 694.164C29.2947 689.131 24.498 680.56 17.8928 674.505C13.332 670.18 7.3558 667.585 1.93006 664.597C-4.12476 661.295 8.22078 633.694 15.5337 638.098C21.5099 641.715 18.5218 651.701 33.6982 650.443C46.6728 649.342 38.4162 667.9 53.514 678.909C66.8817 688.659 80.6427 687.244 74.2733 697.938Z" fill="#DB910E"/>
<path d="M83.3163 439.625C76.0819 479.099 60.9056 515.035 38.4162 548.219C27.4861 564.417 15.691 579.987 4.3677 595.871C-11.8309 618.517 43.0556 623.864 56.5807 627.953C65.4663 630.627 78.5982 631.335 77.9691 624.494C77.8119 622.528 76.2392 620.483 74.9811 618.596C63.4219 600.903 73.487 583.053 81.5077 567.169C105.491 519.596 121.768 464.788 140.562 415.248C147.718 396.376 144.494 377.819 145.516 357.138C146.145 344.478 124.206 288.648 100.223 302.409C85.2821 310.98 93.5387 343.534 95.19 356.587C96.2909 365.63 98.2567 375.46 96.7627 384.581C93.7746 403.139 86.7762 420.989 83.3163 439.625Z" fill="#030047"/>
<path d="M141.82 622.998L152.907 673.56L136.394 678.986L127.902 625.593C127.98 625.593 136.551 621.268 141.82 622.998Z" fill="#EAC2AB"/>
<path d="M220.533 693.455C220.533 693.455 208.187 697.701 184.518 699.431C160.849 701.161 134.428 702.105 129.632 698.566C124.835 695.028 121.768 665.147 129.632 665.147C137.495 665.147 140.562 676.548 154.48 666.405C166.432 657.676 175.947 674.111 196.707 678.514C217.466 682.918 225.88 684.648 220.533 693.455Z" fill="#FDC510"/>
<path d="M184.833 637.154C184.046 635.267 181.923 633.93 180.115 632.436C163.602 619.225 167.612 599.174 170.285 581.56C176.576 539.883 169.814 497.893 167.297 456.138C164.86 415.484 168.949 374.595 178.228 334.963C181.609 320.573 186.248 298.241 163.995 302.487C153.458 304.453 142.999 304.06 132.463 302.251C126.958 301.308 132.541 299.499 126.958 301.308C107.693 307.441 100.537 343.849 104.469 356.509C112.332 381.75 114.927 405.97 116.185 432.705C117.994 470.607 124.285 508.587 119.802 546.174C117.601 564.575 115.006 582.975 112.568 601.375C111.153 612.069 102.188 635.66 108.165 645.332C116.421 658.699 153.222 647.376 165.567 647.062C174.846 646.904 187.506 643.444 184.833 637.154Z" fill="#2B2B68"/>
<path d="M168.477 232.11C162.894 209.463 168.949 171.326 152.986 154.498C151.335 152.768 149.605 151.038 147.482 150.095C127.43 141.052 115.32 157.565 106.671 171.798C98.0208 186.109 98.2567 201.6 94.0105 217.563C89.2138 235.806 90.1574 254.756 89.8429 273.55C89.607 285.031 91.0224 296.354 90.3933 307.834C89.9215 315.855 88.8207 323.797 87.0121 331.582C85.8326 336.772 78.9914 347.073 80.9572 352.341C82.5299 356.509 89.6856 354.936 93.2242 355.093C106.906 355.565 120.274 351.476 132.463 345.5C143.55 339.996 153.301 331.503 166.118 330.402C172.487 329.852 192.539 332.447 189.629 320.888C182.788 293.523 175.004 270.169 172.173 250.746C171.229 244.691 169.971 238.401 168.477 232.11Z" fill="#FF644E"/>
<path d="M196.314 251.06C196.314 251.06 219.746 277.01 223.6 273.314C227.374 269.618 297.516 194.758 300.975 186.581C304.514 178.403 312.849 154.812 311.984 150.094C311.119 145.376 308.839 145.848 318.196 144.197C327.554 142.545 345.168 142.074 343.674 145.691C342.18 149.308 334.867 149.623 334.867 149.623C334.867 149.623 344.381 151.982 340.764 153.869C337.147 155.835 325.195 157.407 326.374 160.867C327.554 164.327 329.284 172.269 328.655 178.953C328.026 185.637 325.431 188.704 317.646 193.5C309.861 198.297 308.524 194.916 303.964 204.43C299.403 213.867 230.677 295.96 226.273 299.42C221.87 302.802 220.769 306.576 211.018 297.612C201.268 288.647 184.125 266.394 170.364 252.004C157.783 238.794 152.593 220.236 152.593 220.236L172.959 217.248C173.038 217.169 175.476 231.323 196.314 251.06Z" fill="#EAC2AB"/>
<path d="M181.294 217.72C181.294 217.72 165.096 165.35 144.258 175.336C123.42 185.323 152.75 241.232 152.75 241.232L186.642 224.404L181.294 217.72Z" fill="#C6110C"/>
</svg>
