<svg width="261" height="701" viewBox="0 0 261 701" fill="none" xmlns="http://www.w3.org/2000/svg">
<path d="M21.3876 206.297C21.3876 206.297 11.8236 251.885 12.6206 270.535C13.4176 289.184 29.6763 316.999 29.6763 316.999L40.1169 206.297H21.3876Z" fill="#EAC2AB"/>
<path d="M78.6915 122.692L76.6193 161.983L45.8553 173.859C45.8553 173.859 64.3456 146.84 61.2373 122.692C58.0493 98.6223 78.6915 122.692 78.6915 122.692Z" fill="#D4A79A"/>
<path d="M106.108 42.276C106.108 42.276 112.803 51.1226 106.267 78.3798C99.7321 105.637 89.1321 128.83 80.923 127.156C58.2087 122.613 50.3184 106.593 42.4282 92.8851C32.7845 75.9889 51.9124 34.864 51.9124 34.864L70.0042 25.1406L106.108 42.276Z" fill="#EAC2AB"/>
<path d="M130.257 34.9432C132.249 28.5672 128.743 20.3582 124.12 16.4529C122.367 14.9386 120.055 13.9822 117.824 14.2213C116.15 14.3807 114.476 15.1777 112.803 14.9386C107.782 14.0619 107.144 6.64987 102.442 5.13558C98.935 4.01978 95.5876 7.20776 92.0011 8.00476C89.2913 8.64235 86.5018 7.92506 83.7921 7.36716C76.1409 5.77317 69.1274 2.107 61.3168 1.15061C54.7018 0.353611 47.8476 1.07091 41.8702 4.25888C35.6536 7.60626 31.1905 13.7431 28.7995 20.8364C27.3649 25.0604 26.8867 29.7627 28.0822 34.1462C27.1258 30.5597 20.7498 34.3853 19.7137 35.8199C15.6491 41.3191 14.9318 53.274 17.0837 59.7297C18.837 64.8304 21.6265 69.2936 23.2205 74.4741C25.0536 80.6109 25.8506 87.4651 29.2777 92.8846C33.1829 99.1012 54.2236 119.664 60.8386 117.91C58.7664 112.252 68.8086 107.151 68.4101 101.014C68.0116 94.8771 64.2657 63.3162 94.153 57.3387C106.028 54.9477 90.8056 51.1221 102.681 51.6003C108.339 51.8394 113.998 50.7236 119.338 48.5718C123.403 46.8981 127.467 40.7612 129.699 36.298C129.938 35.9793 130.177 35.5011 130.257 34.9432Z" fill="#011627"/>
<path d="M70.323 75.9884C70.323 75.9884 57.8899 65.3087 58.7666 79.7343C59.6433 94.1599 71.2794 98.3043 71.2794 98.3043L70.323 75.9884Z" fill="#EAC2AB"/>
<path d="M37.0884 620.016L44.7395 671.901L27.6838 676.204L22.9019 621.61C22.9019 621.69 31.9079 617.944 37.0884 620.016Z" fill="#D4A79A"/>
<path d="M111.687 696.847C111.687 696.847 98.9351 700.275 74.8659 700.354C50.7967 700.434 24.0177 699.478 19.3951 695.572C14.7725 691.667 13.8161 661.222 21.7861 661.859C29.756 662.417 32.0673 674.213 46.8117 664.888C59.4839 656.918 67.932 674.213 88.6539 680.111C109.376 686.008 117.664 688.32 111.687 696.847Z" fill="#DB910E"/>
<path d="M79.6479 636.037C79.0103 633.965 77.0178 632.291 75.2644 630.538C59.5636 614.837 65.2223 592.92 69.2072 573.712C78.7712 528.204 75.2644 481.341 75.902 435.195C76.6193 390.164 83.8719 345.373 96.305 302.256C100.848 286.635 107.304 262.327 84.4298 265.435C73.5907 266.869 63.0704 265.754 52.6298 262.964C47.1305 261.53 52.9486 259.936 47.1305 261.53C27.2056 266.949 15.8086 324.412 18.8372 338.679C24.8147 367.052 26.8868 376.137 26.0898 405.786C24.974 447.707 28.4011 490.028 20.9891 531.232C17.3229 551.396 13.3379 571.481 9.43266 591.645C7.12137 603.36 -3.71774 628.705 1.62212 639.783C8.95447 655.085 47.0508 645.203 59.4839 645.76C68.8087 646.079 81.8795 643.13 79.6479 636.037Z" fill="#030047"/>
<path d="M75.8223 621.85L87.0599 673.017L70.323 678.516L61.7155 624.4C61.7155 624.4 70.4027 620.096 75.8223 621.85Z" fill="#EAC2AB"/>
<path d="M155.522 693.182C155.522 693.182 143.009 697.485 119.019 699.239C95.0297 700.992 68.2507 701.948 63.389 698.362C58.5273 694.776 55.4191 664.49 63.389 664.49C71.3589 664.49 74.4672 676.046 88.574 665.765C100.688 656.918 110.332 673.575 131.373 678.039C152.413 682.502 160.941 684.335 155.522 693.182Z" fill="#FDC510"/>
<path d="M119.338 636.196C118.541 634.283 116.389 632.928 114.556 631.414C97.8192 618.024 101.884 597.701 104.594 579.848C110.97 537.607 104.115 495.048 101.565 452.807C99.0944 411.602 103.239 370.238 112.643 329.99C116.07 315.405 120.773 292.85 98.2177 297.074C87.5379 299.067 76.9379 298.668 66.2582 296.835C60.6792 295.879 66.3379 294.046 60.6792 295.879C41.1529 302.095 33.5814 322.897 37.5664 335.729C45.5364 361.312 48.4055 401.959 49.7604 428.977C51.5935 467.392 57.9695 505.807 53.4266 543.983C51.195 562.633 48.5649 581.283 46.0942 599.932C44.6597 610.771 35.5739 634.602 41.6311 644.484C49.9995 658.033 87.2988 646.556 99.8117 646.238C109.216 646.078 122.048 642.571 119.338 636.196Z" fill="#2B2B68"/>
<path d="M141.096 197.929C149.146 204.066 157.753 209.406 166.759 214.108C173.773 217.695 192.741 229.889 200.074 222.477C202.226 220.325 203.182 217.217 203.899 214.268C208.442 196.814 215.057 179.997 221.513 163.18C227.331 148.117 234.265 132.337 233.707 115.839C233.149 99.0223 234.185 76.3877 235.779 72.323C237.373 68.1787 250.523 44.0297 250.763 51.5215C251.081 59.0132 238.409 79.6554 244.227 78.9381C250.045 78.2208 262.319 83.0028 260.884 91.69C259.45 100.377 250.205 119.266 250.205 119.266C246.14 136.242 241.916 153.218 237.453 170.114C234.105 182.786 230.758 195.379 227.012 207.892C223.346 220.086 219.919 233.236 209.239 241.286C207.805 242.322 206.37 243.278 204.776 243.996C192.104 250.053 177.2 243.677 164.926 236.982C138.466 222.556 113.44 205.899 88.1757 189.481C93.1171 184.62 98.0584 179.758 103 174.896C104.195 173.701 105.47 172.505 107.144 172.266C109.057 171.947 110.89 173.063 112.484 174.179C120.374 179.678 127.228 186.453 134.64 192.669C136.713 194.502 138.865 196.256 141.096 197.929Z" fill="#EAC2AB"/>
<path d="M55.3395 211.399C55.3395 211.399 81.3215 167.803 61.4764 159.674C41.6312 151.544 21.3876 206.378 21.3876 206.378L54.0643 219.209L55.3395 211.399Z" fill="#C6110C"/>
<path d="M115.353 305.921C115.353 304.088 118.382 257.304 111.767 227.257C105.152 197.211 111.767 171.468 88.9727 153.456C66.1787 135.444 47.529 159.433 41.5516 172.026C35.5741 184.618 30.553 224.627 29.6763 245.827C28.7996 267.506 17.4026 313.253 16.9244 314.289C7.91838 333.098 13.8161 331.743 14.6131 333.497C19.4748 344.655 51.2749 346.806 58.926 342.822C75.6629 334.214 79.2494 329.432 97.2614 332.221C105.072 333.417 113.68 331.026 115.991 328.635C118.302 326.244 115.353 305.921 115.353 305.921Z" fill="#FF644E"/>
<path d="M128.105 177.525C128.105 177.525 85.944 132.575 69.8447 152.978C53.7454 173.381 110.89 215.383 110.89 215.383L136.872 181.67L128.105 177.525Z" fill="#C6110C"/>
</svg>
