<svg width="113" height="103" viewBox="0 0 113 103" fill="none" xmlns="http://www.w3.org/2000/svg">
<path d="M29.7689 65.2993L3.86895 74.8993C-0.731055 76.5993 -0.731055 81.6993 3.86895 83.3993L53.7689 101.999C55.4689 102.599 57.3689 102.599 59.069 101.999L108.969 83.3993C113.569 81.6993 113.569 76.5993 108.969 74.8993L83.0689 65.2993" fill="#FF644E"/>
<path d="M29.7689 37.499L3.86895 47.099C-0.731055 48.799 -0.731055 53.899 3.86895 55.599L53.7689 74.199C55.4689 74.799 57.3689 74.799 59.069 74.199L108.969 55.599C113.569 53.899 113.569 48.799 108.969 47.099L83.0689 37.499" fill="#978CFF"/>
<path d="M59.069 46.399L108.969 27.799C113.569 26.099 113.569 20.999 108.969 19.299L59.069 0.699023C57.3689 0.0990234 55.4689 0.0990234 53.7689 0.699023L3.86895 19.299C-0.731055 20.999 -0.731055 26.099 3.86895 27.799L53.7689 46.399C55.4689 47.099 57.3689 47.099 59.069 46.399Z" fill="#3555DB"/>
</svg>
