<svg width="116" height="114" viewBox="0 0 116 114" fill="none" xmlns="http://www.w3.org/2000/svg">
<path d="M115.119 107.299C115.119 110.999 112.119 113.999 108.419 113.999C104.719 113.999 101.719 110.999 101.719 107.299C101.719 103.599 104.719 100.599 108.419 100.599C112.119 100.599 115.119 103.599 115.119 107.299Z" fill="#C6110C"/>
<path d="M53.6189 107.299C53.6189 110.999 50.6189 113.999 46.9189 113.999C43.2189 113.999 40.2189 110.999 40.2189 107.299C40.2189 103.599 43.2189 100.599 46.9189 100.599C50.5189 100.599 53.6189 103.599 53.6189 107.299Z" fill="#4B369D"/>
<path d="M60.619 60.7993H104.119V93.6993L93.319 104.299H60.619V60.7993Z" fill="#FF644E"/>
<path d="M0.418945 60.7993H43.9189V93.6993L33.1189 104.299H0.418945V60.7993Z" fill="#978CFF"/>
<path d="M60.619 0.599121H104.119V33.4991L93.319 44.0991H60.619V0.599121Z" fill="#3555DB"/>
<path d="M0.418945 0.599121H43.9189V33.4991L33.1189 44.0991H0.418945V0.599121Z" fill="#FDC510"/>
<path d="M53.6189 45.699C53.6189 49.399 50.6189 52.399 46.9189 52.399C43.2189 52.399 40.2189 49.399 40.2189 45.699C40.2189 41.999 43.2189 38.999 46.9189 38.999C50.5189 38.999 53.6189 41.999 53.6189 45.699Z" fill="#DB910E"/>
<path d="M115.119 45.699C115.119 49.399 112.119 52.399 108.419 52.399C104.719 52.399 101.719 49.399 101.719 45.699C101.719 41.999 104.719 38.999 108.419 38.999C112.119 38.999 115.119 41.999 115.119 45.699Z" fill="#0028D0"/>
</svg>
