<svg width="109" height="102" viewBox="0 0 109 102" fill="none" xmlns="http://www.w3.org/2000/svg">
<path d="M35.3189 101.05C54.5937 101.05 70.2189 85.4247 70.2189 66.15C70.2189 46.8753 54.5937 31.25 35.3189 31.25C16.0442 31.25 0.418945 46.8753 0.418945 66.15C0.418945 85.4247 16.0442 101.05 35.3189 101.05Z" fill="#030047"/>
<path d="M73.419 101.05C92.6937 101.05 108.319 85.4247 108.319 66.15C108.319 46.8753 92.6937 31.25 73.419 31.25C54.1442 31.25 38.519 46.8753 38.519 66.15C38.519 85.4247 54.1442 101.05 73.419 101.05Z" fill="#FDC510"/>
<path d="M73.419 70.55C92.6937 70.55 108.319 54.9247 108.319 35.65C108.319 16.3753 92.6937 0.75 73.419 0.75C54.1442 0.75 38.519 16.3753 38.519 35.65C38.519 54.9247 54.1442 70.55 73.419 70.55Z" fill="#FF644E"/>
<path d="M35.3189 70.55C54.5937 70.55 70.2189 54.9247 70.2189 35.65C70.2189 16.3753 54.5937 0.75 35.3189 0.75C16.0442 0.75 0.418945 16.3753 0.418945 35.65C0.418945 54.9247 16.0442 70.55 35.3189 70.55Z" fill="#3555DB"/>
</svg>
