<svg width="103" height="119" viewBox="0 0 103 119" fill="none" xmlns="http://www.w3.org/2000/svg">
<path d="M52.9189 58.7008L96.1189 83.7008L51.6189 109.401V117.901V109.401L7.21895 83.7008L50.4189 58.7008L0.418945 29.8008V89.1008L51.6189 118.701L102.919 89.1008V29.8008L52.9189 58.7008Z" fill="#3555DB"/>
<path d="M52.919 58.7002L51.619 59.4002L50.419 58.7002L7.21899 83.7002L51.619 109.4L96.119 83.7002L52.919 58.7002Z" fill="#FF644E"/>
<path d="M51.6189 57.9006L52.9189 58.7006L102.919 29.8006L51.6189 0.100586L0.418945 29.8006L50.4189 58.7006L51.6189 57.9006Z" fill="#FDC510"/>
<path d="M50.4189 58.7004L51.6189 59.4004L52.9189 58.7004L51.6189 57.9004L50.4189 58.7004Z" fill="#FDC510"/>
</svg>
