<svg width="99" height="119" viewBox="0 0 99 119" fill="none" xmlns="http://www.w3.org/2000/svg">
<path d="M92.919 93.499H47.919L26.619 72.199V5.99902C26.619 2.69902 29.319 -0.000976562 32.619 -0.000976562H92.819C96.119 -0.000976562 98.819 2.69902 98.819 5.99902V87.499C98.919 90.799 96.219 93.499 92.919 93.499Z" fill="#3555DB"/>
<path d="M80.419 105.999H35.419L14.119 84.699V18.499C14.119 15.199 16.819 12.499 20.119 12.499H80.319C83.619 12.499 86.319 15.199 86.319 18.499V99.999C86.419 103.299 83.719 105.999 80.419 105.999Z" fill="#FF644E"/>
<path d="M66.7189 118.699H21.7189L0.418945 97.3992V31.1992C0.418945 27.8992 3.11895 25.1992 6.41895 25.1992H66.6189C69.919 25.1992 72.6189 27.8992 72.6189 31.1992V112.699C72.7189 115.999 70.1189 118.699 66.7189 118.699Z" fill="#FDC510"/>
<path d="M21.7189 118.699L0.418945 97.3989H17.4189C19.7189 97.3989 21.7189 99.2989 21.7189 101.699V118.699Z" fill="#DB910E"/>
</svg>
