<svg width="97" height="125" viewBox="0 0 97 125" fill="none" xmlns="http://www.w3.org/2000/svg">
<path d="M17.019 116.4C17.019 112 8.71895 102.1 8.71895 102.1C8.71895 102.1 0.418945 112 0.418945 116.4C0.418945 120.8 4.11895 124.3 8.71895 124.3C13.2189 124.4 17.019 120.8 17.019 116.4Z" fill="#3555DB"/>
<path d="M52.6189 23.5996L11.9189 64.2996C7.41895 68.7996 6.51895 75.5996 9.21895 81.0996L4.61895 85.6996C2.81895 87.5996 2.81895 90.5996 4.61895 92.3996C6.51895 94.1996 9.51895 94.1996 11.3189 92.3996L15.9189 87.7996C21.4189 90.4996 28.1189 89.5996 32.719 84.9996L73.4189 44.2996L52.6189 23.5996Z" fill="#FDC510"/>
<path d="M27.719 48.5996L11.9189 64.3996C7.41895 68.8996 6.51895 75.6996 9.21895 81.1996L4.61895 85.7996C2.81895 87.6996 2.81895 90.6996 4.61895 92.4996C6.51895 94.2996 9.51895 94.2996 11.3189 92.4996L15.9189 87.8996C21.4189 90.5996 28.1189 89.6996 32.719 85.0996L48.519 69.2996L27.719 48.5996Z" fill="#3555DB"/>
<path d="M61.519 15.2L57.119 10.8C54.719 8.4 50.819 8.4 48.419 10.8C46.019 13.2 46.019 17.1 48.419 19.5L77.419 48.5C79.819 50.9 83.719 50.9 86.119 48.5C88.519 46.1 88.519 42.2 86.119 39.8L81.719 35.4L92.319 24.9C97.919 19.3 97.919 10.3 92.319 4.7C86.719 -0.9 77.719 -0.9 72.119 4.7L61.519 15.2Z" fill="#FF644E"/>
</svg>
