<svg width="123" height="123" viewBox="0 0 123 123" fill="none" xmlns="http://www.w3.org/2000/svg">
<path d="M81.619 9.84277L6.11899 85.3428C2.91899 88.5428 2.91899 93.6428 6.11899 96.7428L25.819 116.543C29.019 119.743 34.119 119.743 37.219 116.543L112.719 41.0428" fill="#3555DB"/>
<path d="M6.21897 22.3425L22.119 6.44248C25.319 3.24248 30.519 3.24248 33.719 6.44248L116.319 89.0425C119.519 92.2425 119.519 97.4425 116.319 100.642L100.419 116.542C97.219 119.742 92.019 119.742 88.819 116.542L6.21897 33.8425C3.01897 30.6425 3.01897 25.5425 6.21897 22.3425ZM26.819 29.3425C27.719 25.1425 24.319 21.5425 20.219 22.0425C17.519 22.3425 15.319 24.5425 15.019 27.2425C14.519 31.3425 18.119 34.8425 22.319 33.8425C24.519 33.3425 26.319 31.5425 26.819 29.3425Z" fill="#FF644E"/>
<path d="M105.819 4.34277L81.6189 9.84277L112.819 41.0428L118.319 16.8428L105.819 4.34277Z" fill="#978CFF"/>
<path d="M56.2189 28.6428C55.3189 27.7428 53.9189 27.7428 53.0189 28.6428L49.4189 32.2428C48.5189 33.1428 48.5189 34.5428 49.4189 35.4428C49.8189 35.8428 50.4189 36.1428 51.0189 36.1428C51.6189 36.1428 52.1189 35.9428 52.6189 35.4428L56.2189 31.8428C57.1189 30.9428 57.1189 29.5428 56.2189 28.6428Z" fill="#C6110C"/>
<path d="M37.5189 9.94258C36.6189 9.04258 35.2189 9.04258 34.3189 9.94258L30.7189 13.5426C29.8189 14.4426 29.8189 15.8426 30.7189 16.7426C31.1189 17.1426 31.7189 17.4426 32.3189 17.4426C32.9189 17.4426 33.4189 17.2426 33.9189 16.7426L37.5189 13.1426C38.4189 12.2426 38.4189 10.8426 37.5189 9.94258Z" fill="#C6110C"/>
<path d="M74.919 47.3425C74.019 46.4425 72.619 46.4425 71.719 47.3425L68.119 50.9425C67.219 51.8425 67.219 53.2425 68.119 54.1425C68.519 54.5425 69.119 54.8425 69.719 54.8425C70.319 54.8425 70.919 54.6425 71.319 54.1425L74.919 50.5425C75.819 49.6425 75.819 48.2425 74.919 47.3425Z" fill="#C6110C"/>
<path d="M93.6189 66.0427C92.7189 65.1427 91.3189 65.1427 90.4189 66.0427L86.8189 69.6427C85.9189 70.5427 85.9189 71.9427 86.8189 72.8427C87.2189 73.2427 87.8189 73.5427 88.4189 73.5427C89.0189 73.5427 89.6189 73.3427 90.0189 72.8427L93.6189 69.2427C94.5189 68.3427 94.5189 66.9427 93.6189 66.0427Z" fill="#C6110C"/>
<path d="M62.419 37.9428L56.7189 43.6428C55.8189 44.5428 55.8189 45.9428 56.7189 46.8428C57.1189 47.2428 57.7189 47.5428 58.3189 47.5428C58.9189 47.5428 59.5189 47.3428 59.9189 46.8428L65.6189 41.1428C66.5189 40.2428 66.5189 38.8428 65.6189 37.9428C64.7189 37.1428 63.219 37.1428 62.419 37.9428Z" fill="#C6110C"/>
<path d="M43.6189 19.2426L37.9189 24.9426C37.0189 25.8426 37.0189 27.2426 37.9189 28.1426C38.3189 28.5426 38.9189 28.8426 39.5189 28.8426C40.1189 28.8426 40.6189 28.6426 41.1189 28.1426L46.8189 22.4426C47.7189 21.5426 47.7189 20.1426 46.8189 19.2426C46.0189 18.4426 44.5189 18.4426 43.6189 19.2426Z" fill="#C6110C"/>
<path d="M81.1189 56.7424L75.4189 62.4424C74.5189 63.3424 74.5189 64.7424 75.4189 65.6424C75.8189 66.0424 76.4189 66.3424 77.0189 66.3424C77.6189 66.3424 78.2189 66.1424 78.6189 65.6424L84.3189 59.9424C85.2189 59.0424 85.2189 57.6424 84.3189 56.7424C83.4189 55.8424 81.9189 55.8424 81.1189 56.7424Z" fill="#C6110C"/>
<path d="M99.819 75.4426L94.119 81.1426C93.219 82.0426 93.219 83.4426 94.119 84.3426C94.519 84.7426 95.119 85.0426 95.719 85.0426C96.319 85.0426 96.919 84.8426 97.319 84.3426L103.019 78.6426C103.919 77.7426 103.919 76.3426 103.019 75.4426C102.119 74.5426 100.619 74.5426 99.819 75.4426Z" fill="#C6110C"/>
<path d="M112.319 84.7424C111.419 83.8424 110.019 83.8424 109.119 84.7424L105.519 88.3424C104.619 89.2424 104.619 90.6424 105.519 91.5424C105.919 91.9424 106.519 92.2424 107.119 92.2424C107.719 92.2424 108.319 92.0424 108.719 91.5424L112.319 87.9424C113.219 87.0424 113.219 85.6424 112.319 84.7424Z" fill="#C6110C"/>
<path d="M105.819 4.34277L81.6189 9.84277L112.819 41.0428L118.319 16.8428" fill="#FDC510"/>
<path d="M105.819 4.34263C106.519 7.34263 107.919 10.1426 110.319 12.4426C112.619 14.7426 115.419 16.2426 118.419 16.8426L120.519 7.64263C121.219 4.34263 118.319 1.44263 115.119 2.24263L105.819 4.34263Z" fill="#C6110C"/>
</svg>
