<svg width="154" height="151" viewBox="0 0 154 151" fill="none" xmlns="http://www.w3.org/2000/svg">
<path d="M5.82038 103.637C4.82038 103.637 3.92038 103.037 3.52038 102.137C3.12038 101.237 3.22038 100.137 3.82038 99.437C5.72038 97.037 7.42038 94.437 8.72038 91.637C6.42038 91.437 4.32038 90.437 2.62038 88.837C0.920378 87.137 0.12038 84.737 0.52038 82.337C0.92038 80.237 2.02038 78.437 3.82038 77.137C7.02038 74.837 11.3204 75.137 14.2204 77.737C16.2204 79.837 17.0204 82.737 16.5204 85.537C16.4204 85.937 16.4204 86.337 16.3204 86.737C18.0204 86.637 19.7204 86.537 21.5204 86.437C24.0204 86.237 26.5204 86.137 29.0204 86.137C30.4204 86.137 31.6204 87.337 31.6204 88.737C31.6204 90.137 30.4204 91.337 29.0204 91.337C26.6204 91.337 24.2204 91.537 21.8204 91.637C19.3204 91.837 16.7204 91.937 14.2204 91.937L14.0204 92.537C12.5204 96.137 10.4204 99.537 7.92038 102.637C7.42038 103.237 6.62038 103.637 5.82038 103.637ZM8.62038 80.737C7.92038 80.737 7.32038 80.937 6.72038 81.337C6.12038 81.737 5.72038 82.337 5.52038 83.037C5.42038 83.837 5.72038 84.637 6.32038 85.137C7.62038 86.137 9.22038 86.637 10.8204 86.537C11.0204 85.937 11.2204 85.337 11.3204 84.737C11.6204 83.537 11.3204 82.337 10.5204 81.337C10.0204 80.937 9.32038 80.737 8.62038 80.737Z" fill="#C6110C"/>
<path d="M148.92 72.4365L139.72 71.4365C136.92 65.3365 132.72 59.9365 127.62 55.5365L127.32 55.4365C128.12 54.7365 128.82 53.9365 129.22 52.9365C130.02 51.2365 130.52 49.3365 130.72 47.4365C131.12 43.8365 131.02 40.1365 130.52 36.5365C130.62 33.6365 129.62 30.8365 127.72 28.5365C124.22 25.4365 118.42 29.7365 115.62 32.0365C112.32 34.7365 109.72 38.2365 108.12 42.1365C107.72 43.2365 107.42 44.3365 107.22 45.4365C107.22 45.7365 107.12 46.0366 107.12 46.3365C104.02 45.2365 100.82 44.2365 97.5204 43.5365L52.2204 46.8365C38.8204 53.0365 27.6204 64.8365 24.5204 79.4365C20.7204 97.7365 31.2204 114.537 46.3204 124.137C46.8204 124.437 47.3204 124.737 47.8204 125.037L49.5204 148.337C49.6204 149.737 50.7204 150.737 52.1204 150.737H68.0204C69.4204 150.737 70.5204 149.637 70.6204 148.337L71.6204 133.837C79.4204 135.537 87.4204 135.537 95.2204 133.837L96.2204 148.337C96.3204 149.737 97.4204 150.737 98.8204 150.737H114.72C116.12 150.737 117.22 149.637 117.32 148.337L119.02 125.037C123.82 122.137 128.22 118.637 132.02 114.437C133.22 113.137 134.32 111.737 135.42 110.237C137.12 107.937 138.52 105.537 139.62 102.937L148.82 101.937C151.42 101.637 153.42 99.4365 153.42 96.7365V77.5365C153.62 74.9365 151.62 72.7365 148.92 72.4365Z" fill="#FF644E"/>
<path d="M63.4204 55.6367C52.0204 51.5367 44.5204 40.8367 44.5204 28.7367C44.5204 24.2367 45.6204 19.7367 47.6204 15.7367C53.4204 4.33674 66.2204 -1.86326 78.7204 0.73674C91.2204 3.33674 100.62 13.9367 101.52 26.7367C102.42 39.5367 94.7204 51.3367 82.6204 55.7367H63.4204V55.6367Z" fill="#FDC510"/>
<path d="M127.62 101.537C127.62 100.537 127.12 99.7368 126.32 99.2368C125.52 98.7368 124.52 98.7368 123.72 99.2368C122.92 99.7368 122.42 100.537 122.42 101.537C122.92 107.337 126.62 112.437 132.12 114.537C133.32 113.237 134.42 111.837 135.52 110.337C128.02 107.537 127.62 101.937 127.62 101.537Z" fill="#C6110C"/>
<path d="M93.8204 62.5366C93.3204 62.5366 92.7204 62.3366 92.3204 62.0366C86.5204 58.6366 79.8204 57.0366 73.0204 57.3366C66.3204 57.0366 59.6204 58.6366 53.8204 62.0366C52.6204 62.8366 51.0204 62.5366 50.2204 61.3366C49.4204 60.1366 49.7204 58.5366 50.8204 57.7366C55.8204 54.1366 64.2204 52.0366 73.1204 52.0366C82.0204 52.0366 90.3204 54.1366 95.4204 57.7366C96.3204 58.4366 96.7204 59.5366 96.4204 60.6366C96.0204 61.8366 95.0204 62.5366 93.8204 62.5366Z" fill="#C6110C"/>
<path d="M75.7204 26.4365V13.6365C78.6204 14.3365 80.7204 16.7365 80.9204 19.7365C80.9204 21.1365 82.1204 22.3365 83.5204 22.3365C84.9204 22.3365 86.1204 21.1365 86.1204 19.7365C85.8204 13.9365 81.5204 9.13652 75.7204 8.23652V8.03652C75.7204 6.63652 74.5204 5.43652 73.1204 5.43652C71.7204 5.43652 70.5204 6.63652 70.5204 8.03652V8.23652C64.7204 9.03652 60.4204 13.8365 60.1204 19.7365C60.4204 25.5365 64.7204 30.3365 70.5204 31.2365V44.0365C67.6204 43.3365 65.5204 40.9365 65.3204 37.9365C65.3204 36.5365 64.1204 35.3365 62.7204 35.3365C61.3204 35.3365 60.1204 36.5365 60.1204 37.9365C60.4204 43.7365 64.7204 48.5365 70.5204 49.4365V49.6365C70.5204 51.0365 71.7204 52.2365 73.1204 52.2365C74.5204 52.2365 75.7204 51.0365 75.7204 49.6365V49.4365C81.5204 48.6365 85.8204 43.8365 86.1204 37.9365C85.8204 32.0365 81.4204 27.2365 75.7204 26.4365ZM65.3204 19.7365C65.5204 16.7365 67.6204 14.3365 70.5204 13.6365V25.8365C67.6204 25.1365 65.5204 22.6365 65.3204 19.7365ZM75.7204 43.9365V31.7365C78.6204 32.4365 80.7204 34.8365 80.9204 37.8365C80.7204 40.8365 78.5204 43.3365 75.7204 43.9365Z" fill="#DB910E"/>
<path d="M120.22 78.9368C124.418 78.9368 127.82 75.5342 127.82 71.3368C127.82 67.1395 124.418 63.7368 120.22 63.7368C116.023 63.7368 112.62 67.1395 112.62 71.3368C112.62 75.5342 116.023 78.9368 120.22 78.9368Z" fill="#C6110C"/>
</svg>
