<svg width="29" height="29" viewBox="0 0 29 29" fill="none" xmlns="http://www.w3.org/2000/svg">
<path d="M1.42908 1.97949H27.6472V27.5863H1.42908V1.97949Z" fill="url(#paint0_radia3)"/>
<path d="M1.42908 1.97879H27.6472V27.5856H1.42908V1.97879ZM0.237366 28.7822H28.8389V0.782227H0.237366V28.7822ZM19.5196 12.2694C18.5781 12.2694 18.2564 12.748 18.2564 13.1429C18.2564 13.5736 18.4709 13.8728 19.7341 14.5309C21.6051 15.4403 22.1891 16.3138 22.1891 17.5942C22.1891 19.5087 20.7352 20.5377 18.7688 20.5377C17.732 20.5377 16.8382 20.3223 16.3257 20.0232C16.2423 19.9873 16.2304 19.9275 16.2304 19.8318V18.0728C16.2304 17.9531 16.29 17.9172 16.3735 17.9771C17.1242 18.4677 17.9823 18.6831 18.7688 18.6831C19.7103 18.6831 20.1036 18.2882 20.1036 17.7497C20.1036 17.3189 19.8294 16.936 18.6258 16.3138C16.9335 15.5001 16.2304 14.6745 16.2304 13.2984C16.2304 11.7548 17.4341 10.4745 19.5196 10.4745C20.5445 10.4745 21.2595 10.6301 21.6528 10.8096C21.7481 10.8694 21.7719 10.9651 21.7719 11.0488V12.6881C21.7719 12.7838 21.7124 12.8437 21.5932 12.8078C21.0688 12.4728 20.2942 12.2694 19.5196 12.2694ZM9.27068 13.6933C9.54479 13.7172 9.75932 13.7172 10.236 13.7172C11.6304 13.7172 12.9412 13.2267 12.9412 11.3241C12.9412 9.80447 11.9998 9.03862 10.4148 9.03862C9.9381 9.03862 9.48521 9.06255 9.27068 9.07451V13.6933ZM7.14944 7.33947C7.14944 7.25572 7.31631 7.19585 7.41159 7.19585C8.17434 7.15996 9.30647 7.13603 10.4863 7.13603C13.7874 7.13603 15.0744 8.95482 15.0744 11.2762C15.0744 14.3155 12.8816 15.6198 10.1883 15.6198C9.73549 15.6198 9.58058 15.5959 9.25876 15.5959V20.1907C9.25876 20.2864 9.22302 20.3343 9.11578 20.3343H7.29243C7.1971 20.3343 7.14939 20.2984 7.14939 20.1907V7.33947H7.14944Z" fill="#31C5F0"/>
<defs>
<radialGradient id="paint0_radia3" cx="0" cy="0" r="1" gradientUnits="userSpaceOnUse" gradientTransform="translate(10.064 7.718) scale(19.9258 19.3702)">
<stop stop-color="#34364E" stop-opacity="0.98"/>
<stop offset="1" stop-color="#0C0824"/>
</radialGradient>
</defs>
</svg>
