<svg width="522" height="388" viewBox="0 0 522 388" fill="none" xmlns="http://www.w3.org/2000/svg">
<path opacity="0.8" d="M19.4618 237.452C19.4618 112.771 120.646 11.6387 245.39 11.6387C370.135 11.6387 471.158 112.771 471.158 237.452C471.158 291.809 451.954 341.811 419.84 380.844H70.7798C38.6657 341.811 19.4618 291.809 19.4618 237.452Z" fill="#E3E5FC"/>
<rect x="16.9984" y="8.86719" width="217.047" height="48.951" fill="white"/>
<rect x="290.207" y="116.467" width="217.047" height="48.951" fill="white"/>
<path d="M42.8636 258.332C59.0908 218.686 77.5216 211.278 77.5216 211.278C77.5216 211.278 76.9205 210.477 75.9189 209.075C68.3062 212.279 61.8954 218.286 57.6884 225.094C57.2877 225.694 56.4864 225.094 56.8871 224.693C61.0941 217.685 67.7051 211.678 75.3179 208.274C74.9172 207.673 74.5165 207.073 73.9155 206.272C68.1058 207.473 62.6968 209.676 57.4881 212.279C56.8871 212.479 56.4864 211.678 57.0874 211.478C62.2961 208.875 67.9055 206.672 73.5149 205.471C63.4981 189.052 41.862 143.399 105.168 138.193C101.161 133.988 95.752 131.184 90.343 129.182C89.742 128.982 89.9423 127.981 90.5433 128.181C95.9523 130.183 101.361 132.786 105.368 136.991C104.767 134.188 103.765 131.385 102.764 128.782C102.563 128.181 103.565 127.981 103.765 128.581C104.967 131.385 105.969 134.388 106.57 137.592C107.572 136.591 109.775 134.588 112.981 131.985C114.784 129.382 116.587 126.979 118.79 124.977C129.609 113.964 144.634 110.16 159.859 111.562C160.059 111.562 160.26 111.762 160.26 111.962C169.275 111.962 178.691 114.565 187.105 121.773C197.722 130.584 199.125 144.199 196.52 157.215C196.32 159.217 195.919 161.219 195.719 162.621C194.116 172.432 189.909 181.643 184.701 189.853C191.111 190.854 202.731 194.858 200.327 208.675C196.921 227.697 181.295 251.524 199.926 254.127C218.357 256.53 227.372 298.98 161.862 338.626C96.353 378.272 33.8486 340.828 59.6917 309.392C59.8921 309.192 26.6365 297.978 42.8636 258.332ZM194.116 165.624C190.711 175.236 185.502 184.046 180.694 189.252C180.694 189.252 181.896 189.252 183.699 189.452C188.307 182.044 192.113 174.234 194.116 165.624ZM119.191 125.978C117.989 127.18 116.987 128.581 115.785 129.783C125.001 122.975 139.425 113.964 155.051 112.162C141.629 111.762 128.607 115.967 119.191 125.978Z" fill="#FF644E"/>
<path d="M159.659 247.724L165.669 237.111C165.669 237.111 182.898 238.913 189.108 246.122C195.318 253.53 235.185 326.215 235.185 326.215C235.185 326.215 252.414 334.425 266.638 341.433C263.032 343.635 259.025 347.64 256.821 355.449C244.4 351.044 228.173 344.036 222.163 339.831C222.163 339.831 183.699 310.397 179.492 290.574C175.285 270.75 159.659 247.724 159.659 247.724Z" fill="#EAC2AB"/>
<path opacity="0.31" d="M197.322 321.005C197.322 321.005 213.148 308.391 188.707 276.153C166.47 246.719 170.276 285.364 170.276 285.364L186.504 320.805L197.322 321.005Z" fill="#E2B187"/>
<path d="M266.638 341.23C284.267 350.041 304.501 359.852 305.703 360.453C307.706 361.454 324.534 356.248 326.538 357.249C328.541 358.25 340.16 364.658 344.367 365.659C348.574 366.66 333.95 368.863 327.74 365.659C321.529 362.455 319.326 368.863 314.117 369.864C308.908 370.865 305.703 371.866 302.698 369.864C302.698 369.864 278.658 363.256 256.821 355.247C259.025 347.638 263.032 343.433 266.638 341.23Z" fill="#EAC2AB"/>
<path d="M148.841 211.078C148.841 211.078 145.635 222.491 159.258 236.107L166.67 249.723L151.044 267.544L135.418 272.75L101.962 234.105L116.587 224.694L120.794 181.844L148.841 211.078Z" fill="#EAC2AB"/>
<path d="M154.049 229.901C154.049 229.901 147.839 247.722 116.386 224.695C116.386 224.695 96.7535 235.107 91.5448 238.311C79.725 245.52 77.1207 244.318 73.9153 255.932L101.762 348.039L92.3461 384.682L192.714 384.882L183.899 344.234C182.897 334.023 186.904 324.211 194.116 317.203C208.54 303.387 189.308 280.36 174.083 238.511C172.881 234.907 154.049 229.901 154.049 229.901Z" fill="#4256D6"/>
<path d="M191.913 360.051L217.756 349.039L228.574 341.029C229.175 340.429 230.177 340.228 230.978 340.429L243.399 341.63C244 341.63 244.4 341.83 244.801 342.231C247.005 343.833 254.016 349.439 252.213 349.439C250.21 349.439 246.003 348.438 242.798 346.235C242.798 346.235 233.382 346.235 232.38 345.234C232.38 345.234 228.173 349.439 226.17 350.44C224.166 351.441 225.168 350.44 225.168 350.44L239.192 354.645C239.993 354.845 240.594 355.246 240.995 355.847C242.798 358.45 247.606 365.257 249.208 367.06C249.208 367.06 244 369.062 239.793 362.855C235.586 356.647 224.166 356.647 223.165 357.649C223.165 357.649 237.789 366.058 241.996 374.268C241.996 374.268 239.993 379.474 236.788 375.269C230.577 367.26 222.163 364.857 218.958 363.856L224.968 370.664C225.769 371.465 225.569 372.866 224.767 373.467L218.958 378.473C218.958 378.473 217.956 374.268 219.959 372.266L214.751 367.06C214.751 367.06 208.941 378.473 191.913 371.665V360.051Z" fill="#EAC2AB"/>
<path d="M146.236 351.844C168.473 356.449 193.716 360.254 193.716 360.254L193.315 371.467C170.477 371.867 152.046 370.465 137.622 368.463C138.023 359.853 142.23 354.847 146.236 351.844Z" fill="#EAC2AB"/>
<path d="M78.3228 246.321C91.7452 240.514 103.164 272.752 103.164 272.752C117.789 302.987 114.183 342.833 114.183 342.833C118.991 345.637 132.013 349.04 146.236 351.844C142.029 354.847 137.822 359.853 137.422 368.463C107.371 364.058 94.3496 356.449 94.3496 356.449C81.9288 337.627 64.7 252.128 78.3228 246.321Z" fill="#EAC2AB"/>
<path d="M143.031 131.986C143.031 131.986 172.079 153.812 168.273 187.251C166.47 202.669 163.064 207.274 156.854 211.879C149.642 217.085 125.401 213.882 118.991 201.667L115.585 191.856C115.585 191.856 109.575 197.262 103.765 189.253C97.9556 181.244 99.1576 168.829 107.772 174.636L102.363 158.818L107.572 145.001L143.031 131.986Z" fill="#EAC2AB"/>
<path d="M102.764 146.604L123.999 135.992L153.649 128.783C153.649 128.783 189.909 141.398 173.482 148.606C159.058 155.014 146.437 140.597 143.632 136.793C143.832 141.198 143.432 148.406 139.425 154.413C135.819 159.619 130.209 163.023 122.597 164.825C122.997 175.037 110.577 176.839 110.577 176.839L105.368 172.834L94.7502 169.631L102.764 146.604ZM138.824 154.013C141.228 150.408 142.43 146.404 142.831 143C139.625 155.214 122.597 163.824 122.597 163.824C122.597 164.024 122.597 164.024 122.597 164.224C130.009 162.422 135.418 159.018 138.824 154.013Z" fill="#FF644E"/>
<path d="M122.597 124.978C122.597 124.978 114.583 121.374 106.77 137.192C106.77 137.192 96.9539 160.219 106.77 181.444H108.774C108.774 181.644 104.767 142.599 122.597 124.978Z" fill="#030047"/>
<path d="M106.77 192.857C101.681 192.857 97.5549 188.733 97.5549 183.646C97.5549 178.559 101.681 174.436 106.77 174.436C111.86 174.436 115.986 178.559 115.986 183.646C115.986 188.733 111.86 192.857 106.77 192.857Z" fill="#2B2B68"/>
<path d="M106.77 187.652C104.557 187.652 102.764 185.859 102.764 183.647C102.764 181.436 104.557 179.643 106.77 179.643C108.983 179.643 110.777 181.436 110.777 183.647C110.777 185.859 108.983 187.652 106.77 187.652Z" fill="#030047"/>
<path d="M115.184 202.667H145.034V201.065H115.986C114.784 198.663 108.573 186.849 107.972 185.447L106.77 186.048C107.371 187.65 114.784 201.466 114.984 202.067L115.184 202.667Z" fill="#030047"/>
<path d="M146.437 203.27C144.224 203.27 142.43 202.553 142.43 201.668C142.43 200.784 144.224 200.066 146.437 200.066C148.65 200.066 150.443 200.784 150.443 201.668C150.443 202.553 148.65 203.27 146.437 203.27Z" fill="#43464A"/>
<path d="M20.0253 387.082H475.587C478.792 387.082 481.597 384.479 481.597 381.075C481.597 377.872 478.992 375.068 475.587 375.068H20.2256C17.0202 375.068 14.2156 377.671 14.2156 381.075C14.2156 384.479 16.8199 387.082 20.0253 387.082Z" fill="#4256D6"/>
<path d="M445.937 230.502L442.131 343.633C441.931 350.641 436.121 356.248 429.109 356.248H266.237C258.825 356.248 253.015 350.041 253.215 342.832L257.022 229.701C257.222 222.692 263.032 217.086 270.043 217.086H432.915C440.328 217.086 446.338 223.093 445.937 230.502Z" fill="#A7ADFF"/>
<path d="M364.401 304.387H337.356C337.356 304.387 378.424 370.464 341.563 375.069H398.258C398.258 375.069 409.476 348.638 364.401 304.387Z" fill="#C0C7EF"/>
<path d="M514.08 110.344H283.381C279.412 110.344 276.133 113.621 276.133 117.587V175.707C276.133 178.121 277.341 180.363 279.412 181.743L316.338 206.578C318.236 207.957 320.651 206.06 320.134 203.818L312.714 179.501H514.08C518.048 179.501 521.327 176.224 521.327 172.258V117.76C521.327 113.621 518.048 110.344 514.08 110.344ZM397.091 158.116C397.091 159.323 396.056 160.358 394.848 160.358H299.773C298.565 160.358 297.53 159.323 297.53 158.116V156.219C297.53 155.011 298.565 153.977 299.773 153.977H394.848C396.056 153.977 397.091 155.011 397.091 156.219V158.116ZM493.374 144.664H300.636C298.91 144.664 297.53 143.284 297.53 141.559C297.53 139.835 298.91 138.455 300.636 138.455H493.374C495.099 138.455 496.48 139.835 496.48 141.559C496.48 143.284 495.099 144.664 493.374 144.664ZM493.374 128.97H300.636C298.91 128.97 297.53 127.59 297.53 125.865C297.53 124.141 298.91 122.761 300.636 122.761H493.374C495.099 122.761 496.48 124.141 496.48 125.865C496.48 127.59 495.099 128.97 493.374 128.97Z" fill="#4256D6"/>
<path d="M7.24704 0.740234H237.946C241.915 0.740234 245.193 4.01702 245.193 7.98365V66.1034C245.193 68.5179 243.985 70.7599 241.915 72.1396L204.989 96.9741C203.091 98.3538 200.675 96.4567 201.193 94.2147L208.613 69.8976H7.24704C3.2784 69.8976 -3.05176e-05 66.6208 -3.05176e-05 62.6542V8.15611C-3.05176e-05 4.01702 3.2784 0.740234 7.24704 0.740234ZM124.236 48.5123C124.236 49.7195 125.271 50.7543 126.479 50.7543H221.554C222.762 50.7543 223.797 49.7195 223.797 48.5123V46.6152C223.797 45.4079 222.762 44.3732 221.554 44.3732H126.479C125.271 44.3732 124.236 45.4079 124.236 46.6152V48.5123ZM27.953 35.0602H220.691C222.417 35.0602 223.797 33.6805 223.797 31.9559C223.797 30.2313 222.417 28.8516 220.691 28.8516H27.953C26.2275 28.8516 24.8471 30.2313 24.8471 31.9559C24.8471 33.6805 26.2275 35.0602 27.953 35.0602ZM27.953 19.3662H220.691C222.417 19.3662 223.797 17.9865 223.797 16.2618C223.797 14.5372 222.417 13.1575 220.691 13.1575H27.953C26.2275 13.1575 24.8471 14.5372 24.8471 16.2618C24.8471 17.9865 26.2275 19.3662 27.953 19.3662Z" fill="#FDC510"/>
</svg>
