<svg width="420" height="475" viewBox="0 0 420 475" fill="none" xmlns="http://www.w3.org/2000/svg">
<path fill-rule="evenodd" clip-rule="evenodd" d="M10.5043 412.549C-13.1301 343.273 81.9027 289.707 126.695 337.612C70.6516 145.99 420.143 131.342 340.961 334.782C340.961 334.782 426.511 337.683 419.223 399.033C415.26 432.504 386.673 457.624 352.99 458.332L84.3793 463.639C51.2629 464.205 21.1893 443.825 10.5043 412.549Z" fill="#E3E5FC"/>
<path fill-rule="evenodd" clip-rule="evenodd" d="M348.037 326.36C329.568 311.712 316.973 331.313 319.662 350.56C322.138 368.817 343.65 431.157 341.173 457.693L348.461 457.481C364.807 423.091 371.671 345.111 348.037 326.36Z" fill="#4256D6"/>
<path fill-rule="evenodd" clip-rule="evenodd" d="M345.702 457.552C360.845 403.632 336.007 330.394 335.936 330.111C335.795 329.686 335.229 329.403 334.663 329.545C334.097 329.686 333.814 330.111 333.955 330.606C334.026 330.889 358.934 404.198 343.579 457.623L345.702 457.552Z" fill="#C1D7EF"/>
<path fill-rule="evenodd" clip-rule="evenodd" d="M305.226 360.962C286.05 353.178 282.016 371.435 289.942 386.224C296.522 398.466 324.898 434.483 336.007 457.835L345.56 457.552C345.136 424.86 327.87 370.09 305.226 360.962Z" fill="#FDC510"/>
<path fill-rule="evenodd" clip-rule="evenodd" d="M342.093 457.621C334.097 413.678 296.876 366.692 296.735 366.48C296.452 366.126 295.956 366.056 295.532 366.268C295.107 366.48 295.036 366.905 295.249 367.259C295.39 367.4 332.328 414.103 340.324 457.692L342.093 457.621Z" fill="white"/>
<path fill-rule="evenodd" clip-rule="evenodd" d="M385.753 379.713C403.726 372.566 407.335 389.691 399.764 403.418C394.669 412.759 375.776 436.747 363.251 457.056L348.037 457.48C352 427.124 367.143 387.073 385.753 379.713Z" fill="#FF644E"/>
<path fill-rule="evenodd" clip-rule="evenodd" d="M353.415 457.34C364.949 420.403 393.395 385.093 393.536 384.951C393.749 384.668 394.315 384.527 394.669 384.739C395.022 384.951 395.164 385.376 394.881 385.659C394.739 385.8 366.576 420.757 355.042 457.27L353.415 457.34Z" fill="white"/>
<path fill-rule="evenodd" clip-rule="evenodd" d="M413.35 453.023H15.7405C13.1224 453.023 10.9995 455.146 10.9995 457.764C10.9995 460.383 13.1224 462.506 15.7405 462.506H31.7326C33.1479 462.506 34.3508 463.708 34.3508 465.124C34.3508 466.539 33.1479 467.742 31.7326 467.742H25.8594C24.0196 467.742 22.5336 469.228 22.5336 471.068C22.5336 472.907 24.0196 474.393 25.8594 474.393H402.665C404.504 474.393 405.99 472.907 405.99 471.068C405.99 469.228 404.504 467.742 402.665 467.742H398.065C396.65 467.742 395.447 466.539 395.447 465.124C395.447 463.708 396.65 462.506 398.065 462.506H413.35C415.968 462.506 418.091 460.383 418.091 457.764C418.091 455.146 415.968 453.023 413.35 453.023Z" fill="#4256D6"/>
<path fill-rule="evenodd" clip-rule="evenodd" d="M345.914 262.828C357.59 262.828 367.142 253.275 367.142 241.6C367.142 229.924 357.59 220.371 345.914 220.371C334.238 220.371 324.685 229.924 324.685 241.6C324.685 253.275 334.238 262.828 345.914 262.828Z" fill="#FF644E"/>
<path fill-rule="evenodd" clip-rule="evenodd" d="M343.791 259.573C354.971 259.573 364.029 250.516 364.029 239.335C364.029 228.155 354.971 219.098 343.791 219.098C332.611 219.098 323.553 228.155 323.553 239.335C323.553 250.445 332.681 259.573 343.791 259.573Z" fill="white"/>
<path fill-rule="evenodd" clip-rule="evenodd" d="M333.389 231.269C336.078 228.58 340.465 228.58 343.154 231.269L343.791 231.906L344.428 231.269C347.117 228.58 351.504 228.58 354.193 231.269C356.882 233.958 356.882 238.345 354.193 241.034L353.556 241.671L343.791 251.365L334.026 241.6L333.389 240.963C330.7 238.345 330.7 233.958 333.389 231.269Z" fill="#FF644E"/>
<path fill-rule="evenodd" clip-rule="evenodd" d="M263.689 379.856C274.303 379.856 283.007 371.153 283.007 360.539C283.007 349.924 274.303 341.221 263.689 341.221C253.075 341.221 244.371 349.924 244.371 360.539C244.371 371.153 253.004 379.856 263.689 379.856Z" fill="#DCE7F5"/>
<path fill-rule="evenodd" clip-rule="evenodd" d="M298.574 275.907C300.06 275.907 301.263 274.704 301.263 273.218C301.263 271.732 300.06 270.529 298.574 270.529C297.088 270.529 295.885 271.732 295.885 273.218C295.885 274.704 297.088 275.907 298.574 275.907Z" fill="#DCE7F5"/>
<path fill-rule="evenodd" clip-rule="evenodd" d="M7.32001 241.234H60.8865C64.7076 241.234 67.8211 244.348 67.8211 248.169V276.686V278.809V296.994C67.8211 297.348 67.6088 297.561 67.3258 297.702C67.0427 297.844 66.6889 297.773 66.4767 297.561L54.6595 285.743H7.32001C3.49888 285.743 0.385376 282.63 0.385376 278.809V248.169C0.385376 244.348 3.49888 241.234 7.32001 241.234Z" fill="#FF644E"/>
<path fill-rule="evenodd" clip-rule="evenodd" d="M29.2561 257.224C27.9116 258.498 27.1333 260.409 26.8502 262.107C26.8502 262.178 26.8502 262.178 26.8502 262.248V271.377C26.8502 271.589 26.921 271.73 27.0625 271.872C27.6286 272.509 28.407 273.146 29.2561 273.641C30.1052 274.136 31.0251 274.561 31.945 274.561H36.403H41.2856C42.9838 274.561 44.3991 273.358 44.6821 271.73C44.6821 271.589 44.8236 271.447 44.9652 271.377C46.1681 270.811 46.3096 269.183 46.0974 267.98C46.0974 267.98 46.0974 267.98 46.0974 267.909C46.0266 267.697 46.0974 267.556 46.3096 267.414C47.7249 266.353 47.4418 264.301 46.805 262.885C46.805 262.885 46.805 262.885 46.805 262.815C46.7342 262.673 46.7342 262.602 46.7342 262.461C46.8757 261.965 46.9465 261.47 46.9465 260.975C46.9465 260.409 46.805 259.843 46.4512 259.418C46.0974 259.064 45.6728 258.852 45.2482 258.71C44.8236 258.569 44.3991 258.569 43.9745 258.569H38.8797C38.0305 258.569 37.3229 258.357 36.9691 257.507C36.5445 256.446 37.0399 254.606 37.3229 253.474C37.5352 252.837 37.6767 252.13 37.6767 251.422C37.6767 250.431 37.4644 249.37 36.9691 248.45C36.8276 248.238 36.6861 247.955 36.4738 247.742C36.2615 247.53 36.0492 247.318 35.8369 247.176C35.7662 247.105 35.6954 247.105 35.5539 247.105H34.7755C34.4217 247.105 34.0679 247.389 34.0679 247.813C34.0679 249.299 33.9264 250.856 33.5726 252.271C33.0772 254.04 32.1573 255.455 30.4591 256.375C29.9637 256.658 29.6099 256.941 29.2561 257.224ZM25.3642 272.65V259.206C25.3642 258.993 25.2935 258.852 25.2227 258.71C25.1519 258.64 25.1519 258.569 25.0812 258.569C24.8689 258.357 24.6566 258.286 24.3736 258.286H20.1279C19.9156 258.286 19.7033 258.357 19.491 258.498C19.491 258.498 19.491 258.498 19.4203 258.569C19.2787 258.71 19.1372 258.993 19.1372 259.206V272.65C19.1372 272.933 19.208 273.146 19.4203 273.358C19.6325 273.57 19.8448 273.641 20.1279 273.641H24.3736C24.5858 273.641 24.7981 273.57 25.0104 273.429C25.0104 273.429 25.0104 273.429 25.0812 273.358C25.1519 273.287 25.1519 273.287 25.2227 273.216C25.2935 273.004 25.3642 272.863 25.3642 272.65Z" fill="white"/>
<path d="M219.534 5.52737C219.534 5.52737 213.378 -3.38858 198.306 3.61681C183.233 10.5514 164.269 44.5878 187.833 74.7322C187.833 74.7322 192.857 67.373 211.043 65.4624C229.228 63.4811 219.534 5.52737 219.534 5.52737Z" fill="#4256D6"/>
<path d="M224.982 47.2761L225.902 69.6368L205.24 83.3645C204.462 83.8598 203.329 83.4353 203.188 82.5154L199.791 64.3296L219.958 39.7754L224.982 47.2761Z" fill="#EAC2AB"/>
<path d="M182.808 45.7188C183.304 38.9257 187.196 26.0471 187.196 26.4717C187.337 25.6225 189.248 16.9896 192.857 15.2206C196.607 13.31 212.387 18.4048 212.387 20.2446C212.387 21.7306 213.165 32.4156 218.543 37.0151C219.958 38.2181 221.657 38.9964 223.709 39.138C227.459 39.3503 230.077 41.4023 231.917 43.8082C226.185 44.3743 220.595 44.2328 220.595 44.2328C215.713 72.0421 197.456 68.9286 192.078 68.221C186.7 67.3718 182.03 56.6161 182.808 45.7188Z" fill="#EAC2AB"/>
<path opacity="0.45" d="M199.791 13.2402C200.924 13.2402 201.136 37.7237 223.85 41.6864C246.565 45.7198 215.642 18.2643 215.642 18.2643L199.791 13.2402Z" fill="#EAC2AB"/>
<path d="M199.791 14.7967C199.791 14.7967 206.372 37.5819 225.124 39.5632C243.876 41.4738 209.84 11.7539 209.84 11.7539H190.875L185.073 26.0477C185.144 25.977 196.324 22.5097 199.791 14.7967Z" fill="#4256D6"/>
<path d="M199.791 11.6822C200.216 11.6822 218.402 1.63404 226.115 3.96917C233.828 6.3043 251.235 30.6463 248.9 54.9882C246.565 79.3302 213.731 75.8629 213.731 75.8629C213.731 75.8629 230.714 53.8561 215.288 28.7357L203.683 17.8384L199.791 11.6822Z" fill="#4256D6"/>
<path d="M82.7518 90.0158C83.0348 90.0158 83.3179 89.9451 83.5301 90.0158C85.8653 90.4404 86.8559 92.1387 88.9788 93.2001C89.8987 93.6954 92.2338 92.2094 92.5169 94.4738C92.5876 95.3229 92.5876 97.375 92.7291 99.2148C93.0122 101.833 94.852 104.947 96.8333 107.14C99.4515 110.112 102.211 113.155 105.183 115.702C111.41 120.939 118.911 126.104 126.058 130.067C132.922 118.25 146.508 110.961 159.811 112.023C161.226 112.164 162.642 112.376 163.774 113.155C164.764 113.792 165.472 114.853 166.038 115.915C172.194 127.095 161.651 132.685 153.301 137.497C148.135 140.54 142.687 143.229 137.097 145.422C129.313 148.465 122.661 145.634 116.01 140.823C108.934 135.728 101.928 130.421 96.0549 123.84C93.2245 120.656 91.1724 117.118 88.7665 113.579C86.4314 110.112 85.0161 111.386 82.1857 108.909C80.6289 107.494 78.7184 106.433 77.4446 104.734C75.1095 101.762 76.1002 97.8704 76.6663 94.403C76.8078 93.5539 76.8786 92.9878 77.3739 92.2802C78.1523 91.2188 79.3552 90.865 80.5582 90.5112C81.3365 90.2281 82.0441 90.0866 82.7518 90.0158Z" fill="#EAC2AB"/>
<path d="M152.027 145.353C147.782 147.263 143.607 148.891 139.503 150.377C133.346 152.5 126.624 154.693 120.539 152.287C118.203 151.368 116.151 149.811 114.099 148.325C104.546 141.107 95.1352 133.606 85.9362 125.893C88.6251 120.091 92.0924 114.642 96.3381 109.901C97.5411 108.557 98.8855 107.212 100.655 107C103.202 106.646 105.396 108.84 107.094 110.821C109.924 114.076 112.684 117.331 115.514 120.586C116.434 121.648 117.496 122.78 118.84 122.921C119.76 122.992 120.609 122.638 121.388 122.214C136.814 114.925 148.206 105.797 161.226 94.7583C166.958 89.8758 172.902 84.9225 180.12 83.0119C195.404 78.9077 207.929 96.1028 198.376 109.831C187.479 125.54 169.718 137.428 152.027 145.353Z" fill="#F9AE10"/>
<path d="M261.566 201.467L262.911 225.172L238.144 329.687L251.872 435.829L237.083 439.792L195.05 312.492L193.989 274.068L203.683 195.027L261.566 201.467Z" fill="#2B2B68"/>
<path d="M166.746 214.275L156.202 313.412L162.146 443.189L176.086 444.604L196.041 327.423L226.256 211.232L166.746 214.275Z" fill="#030047"/>
<path d="M274.799 214.062C275.789 223.119 276.568 235.361 273.242 236.14C272.605 236.281 271.968 235.998 271.402 235.786C265.317 233.026 260.788 228.78 254.773 226.162C248.475 223.402 241.399 222.27 234.535 221.704C224.275 220.784 213.873 220.572 203.542 221.35C195.475 221.987 187.408 223.473 179.412 224.888C172.76 226.091 166.746 228.71 159.882 228.922C152.876 229.063 145.73 227.507 139.432 224.252C139.219 224.11 138.936 223.969 138.866 223.756C138.724 223.473 138.795 223.19 138.866 222.907C139.927 218.732 140.635 214.628 142.899 211.019C145.446 206.986 147.074 202.032 148.843 197.575C152.452 188.305 155.707 178.61 157.901 168.845C161.368 155.542 165.543 142.522 168.869 129.219C171.133 120.02 173.185 110.609 176.652 101.763C179.341 94.8288 184.365 84.5683 191.158 80.9595C193.423 79.7565 196.112 79.4027 198.659 79.1197C206.443 78.129 214.227 77.2091 221.94 76.2185C224.77 75.8647 227.742 75.5109 230.431 76.5015C234.464 77.9167 237.012 81.9502 239.276 85.7005C249.395 102.471 256.613 121.011 261.354 140.258C263.831 150.306 266.236 160.425 268.289 170.614C270.624 181.936 272.463 193.4 273.666 204.934C273.808 206.207 274.303 209.745 274.799 214.062Z" fill="#FDC510"/>
<path d="M214.227 121.79C214.368 126.39 215.359 130.918 216.42 135.376C222.647 162.62 228.945 189.792 235.172 217.035C214.227 218.804 193.281 220.573 172.407 222.413C172.265 212.011 172.124 201.609 171.911 191.207C171.841 184.556 171.699 177.833 172.477 171.252C173.751 160.567 177.218 150.307 180.757 140.117C187.196 121.295 193.635 102.472 200.074 83.6497C200.428 82.659 200.782 81.5976 201.49 80.8192C202.339 79.8993 203.613 79.4748 204.886 79.1917C210.759 77.5642 217.411 76.0074 223.497 76.3613C225.478 81.8807 220.808 92.2118 219.251 97.6605C216.916 105.444 214.014 113.44 214.227 121.79Z" fill="white"/>
<path d="M218.048 323.246L96.1257 276.756L155.778 109.617L277.629 156.108L218.048 323.246Z" fill="#4256D6"/>
<path opacity="0.26" d="M107.802 273.078L109.641 273.715L215.996 318.224L269.562 159.081L264.043 158.656L107.802 273.078Z" fill="#030047"/>
<path d="M214.439 313.691L104.829 271.942L160.023 117.328L269.562 159.077L214.439 313.691Z" fill="#FCFCFC"/>
<path opacity="0.12" d="M237.224 151.086L189.672 132.9L191.3 128.301L238.923 146.486L237.224 151.086Z" fill="#000100"/>
<path d="M234.111 128.866L233.403 128.583L233.615 128.088C235.314 123.276 232.342 117.686 226.964 115.634L219.888 112.945C214.51 110.893 208.707 113.157 207.009 117.969L206.797 118.464L206.089 118.181C200.711 116.129 194.909 118.394 193.21 123.205L189.743 132.97L237.366 151.085L240.833 141.32C242.461 136.508 239.489 130.918 234.111 128.866ZM226.256 126.107L213.731 121.295C212.458 120.799 211.821 119.313 212.245 118.04C212.741 116.695 214.156 116.058 215.43 116.554L227.954 121.366C229.228 121.861 229.865 123.347 229.44 124.621C228.945 125.894 227.53 126.602 226.256 126.107Z" fill="#4256D6"/>
<g opacity="0.47">
<path opacity="0.47" d="M175.237 172.172C169.86 170.12 164.482 168.068 159.175 166.016C158.75 165.874 158.184 166.086 158.042 166.582C156.061 172.101 154.08 177.621 152.169 183.14C152.028 183.635 152.24 184.131 152.735 184.343C158.113 186.395 163.491 188.447 168.798 190.499C169.01 190.57 169.293 190.57 169.435 190.499C169.435 190.499 169.435 190.499 169.506 190.499C169.718 190.428 169.86 190.287 169.93 190.004C171.912 184.484 173.893 178.965 175.803 173.446C175.874 172.95 175.662 172.384 175.237 172.172ZM168.444 188.447C163.633 186.607 158.821 184.768 154.009 182.928C155.778 177.974 157.547 173.021 159.316 168.139C164.128 169.978 168.94 171.818 173.751 173.658C171.982 178.54 170.213 183.494 168.444 188.447Z" fill="#4256D6"/>
<path opacity="0.47" d="M164.34 202.74C158.962 200.688 153.584 198.636 148.277 196.584C147.853 196.443 147.287 196.655 147.145 197.15C145.164 202.67 143.182 208.189 141.272 213.708C141.13 214.204 141.343 214.699 141.838 214.911C147.216 216.963 152.594 219.015 157.901 221.068C158.113 221.138 158.396 221.138 158.538 221.068C158.538 221.068 158.538 221.068 158.609 221.068C158.821 220.997 158.962 220.855 159.033 220.572C161.014 215.053 162.996 209.533 164.906 204.014C164.977 203.519 164.765 202.953 164.34 202.74ZM157.547 219.015C152.735 217.176 147.924 215.336 143.112 213.496C144.881 208.543 146.65 203.589 148.419 198.707C153.231 200.547 158.042 202.386 162.854 204.226C161.085 209.109 159.316 214.062 157.547 219.015Z" fill="#4256D6"/>
<path opacity="0.47" d="M153.372 233.311C147.994 231.259 142.616 229.206 137.309 227.154C136.885 227.013 136.319 227.225 136.177 227.72C134.196 233.24 132.214 238.759 130.304 244.279C130.162 244.774 130.375 245.269 130.87 245.482C136.248 247.534 141.626 249.586 146.933 251.638C147.145 251.709 147.428 251.709 147.57 251.638C147.57 251.638 147.57 251.638 147.64 251.638C147.853 251.567 147.994 251.426 148.065 251.143C150.046 245.623 152.028 240.104 153.938 234.584C154.08 234.089 153.867 233.523 153.372 233.311ZM146.65 249.586C141.838 247.746 137.026 245.906 132.214 244.066C133.983 239.113 135.752 234.16 137.521 229.277C142.333 231.117 147.145 232.957 151.957 234.797C150.188 239.679 148.419 244.632 146.65 249.586Z" fill="#4256D6"/>
</g>
<path d="M162.288 174.364L166.463 174.505L167.171 179.105L189.46 172.736L191.371 173.939L164.694 183.421L162.288 174.364Z" fill="#4256D6"/>
<path d="M149.763 205.217L153.938 205.359L154.645 209.958L177.006 203.59L178.846 204.793L152.169 214.275L149.763 205.217Z" fill="#4256D6"/>
<path d="M139.149 234.014L143.253 234.156L143.961 238.755L166.321 232.387L168.232 233.59L141.484 243.072L139.149 234.014Z" fill="#4256D6"/>
<path opacity="0.32" d="M215.147 273.924L158.396 252.271L161.368 243.992L218.119 265.645L215.147 273.924Z" fill="#4256D6"/>
<path opacity="0.32" d="M226.681 241.516L169.93 219.863L172.902 211.584L229.653 233.237L226.681 241.516Z" fill="#4256D6"/>
<path opacity="0.32" d="M238.215 209.178L181.464 187.525L184.436 179.246L241.187 200.899L238.215 209.178Z" fill="#4256D6"/>
<path d="M262.486 164.67C262.84 165.731 262.84 167.146 261.92 167.571C261.354 167.854 260.646 167.642 260.08 167.5C257.745 167.076 255.127 168.491 254.207 170.826C253.146 173.515 254.349 176.77 256.542 178.681C258.736 180.52 261.637 181.299 264.468 181.511C266.237 181.653 268.218 181.582 269.492 180.379C270.128 179.742 270.553 178.822 270.907 177.973C272.676 173.515 274.162 167.642 270.695 163.538C268.006 160.353 260.01 157.735 262.486 164.67Z" fill="#EAC2AB"/>
<path d="M282.795 163.749C282.441 163.254 282.016 162.829 281.592 162.475C277.841 159.291 272.959 156.319 267.935 157.876C269.421 167.499 268.006 177.547 263.901 186.322C263.548 187.029 263.194 187.808 263.548 188.515C264.114 189.86 268.218 190.78 269.492 190.851C274.94 191.134 280.601 188.303 282.936 184.128C284.351 181.722 284.635 178.963 284.918 176.344C285.271 172.24 285.413 167.145 282.795 163.749Z" fill="#F9AE10"/>
<path d="M143.311 462.647C143.311 462.647 149.311 464.325 159.608 463.541C169.905 462.758 181.183 461.135 182.562 458.532C183.911 455.94 179.577 436.777 176.254 437.413C172.93 438.049 173.798 445.522 166.017 440.202C159.362 435.652 158.462 446.812 150.556 451.266C142.621 455.731 139.432 457.512 143.311 462.647Z" fill="#F9AE10"/>
<path d="M225.521 462.546C225.521 462.546 231.751 462.449 241.4 458.769C251.049 455.09 261.4 450.326 261.981 447.439C262.538 444.57 252.934 427.431 249.928 428.986C246.923 430.541 249.88 437.459 240.907 434.571C233.232 432.101 235.544 443.056 229.231 449.574C222.893 456.112 220.342 458.726 225.521 462.546Z" fill="#FDC510"/>
</svg>
