<svg width="514" height="488" viewBox="0 0 514 488" fill="none" xmlns="http://www.w3.org/2000/svg">
<path d="M464.446 273.635H392.298V434.078H464.446V273.635Z" fill="#E6E6E6"/>
<path d="M482.512 309.778C490.886 306.879 497.006 298.824 491.691 290.447C482.834 276.754 505.058 273.694 498.777 250.819C490.081 218.278 462.864 246.469 456.1 215.218C451.108 192.504 413.102 177.683 411.652 207.485C410.042 240.187 393.615 218.762 389.911 255.168C387.334 280.299 423.247 284.004 412.457 291.897C404.727 297.696 400.057 307.684 411.008 314.45C425.824 323.793 411.813 331.042 421.959 337.486C431.944 343.93 433.715 333.62 449.337 338.614C463.348 343.124 475.265 329.27 472.366 320.571C469.628 312.839 473.976 312.678 482.512 309.778Z" fill="#E3E5FC"/>
<path d="M401.506 324.76C401.506 324.76 402.634 430.113 446.76 430.113C490.886 430.113 492.013 324.76 492.013 324.76H401.506Z" fill="#E3E5FC"/>
<path d="M407.465 430.115H426.629V397.896H387.174L407.465 430.115Z" fill="#E3E5FC"/>
<path d="M241.267 242.924H169.119V430.112H241.267V242.924Z" fill="#E6E6E6"/>
<path d="M426.629 242.924H224.358V418.997H426.629V242.924Z" fill="#E3E5FC"/>
<path d="M411.652 259.357H239.335V296.247H411.652V259.357Z" fill="white"/>
<path d="M243.683 430.115H224.358V397.896H263.813L243.683 430.115Z" fill="#E3E5FC"/>
<path d="M411.652 312.518H239.335V349.408H411.652V312.518Z" fill="white"/>
<path d="M411.652 365.838H239.335V402.728H411.652V365.838Z" fill="white"/>
<path d="M216.144 242.924H143.996V430.112H216.144V242.924Z" fill="#E6E6E6"/>
<path d="M196.819 430.115H216.144V397.896H176.688L196.819 430.115Z" fill="#E3E5FC"/>
<path d="M216.144 242.924H13.8723V418.997H216.144V242.924Z" fill="#E3E5FC"/>
<path d="M201.167 259.357H28.8494V296.247H201.167V259.357Z" fill="white"/>
<path d="M33.1976 430.115H13.8723V397.896H53.3281L33.1976 430.115Z" fill="#E3E5FC"/>
<path d="M201.167 312.518H28.8494V349.408H201.167V312.518Z" fill="white"/>
<path d="M201.167 365.838H28.8494V402.728H201.167V365.838Z" fill="white"/>
<path d="M297.311 211.191C296.827 211.191 296.344 211.352 296.022 211.352V208.774C296.022 206.68 294.251 204.908 292.157 204.908H271.543C269.45 204.908 267.678 206.68 267.678 208.774V243.087H296.022V236.16C296.505 236.16 296.988 236.321 297.311 236.321C303.591 236.321 308.584 231.166 308.584 225.045V222.628C308.584 216.185 303.43 211.191 297.311 211.191ZM303.752 224.884C303.752 228.428 300.854 231.327 297.311 231.327C296.827 231.327 296.344 231.327 296.022 231.166V216.185C296.505 216.024 296.827 216.023 297.311 216.023C300.854 216.023 303.752 218.923 303.752 222.467V224.884Z" fill="#E3E5FC"/>
<path d="M256.893 487.18C398.367 487.18 513.054 479.03 513.054 468.977C513.054 458.923 398.367 450.773 256.893 450.773C115.418 450.773 0.730774 458.923 0.730774 468.977C0.730774 479.03 115.418 487.18 256.893 487.18Z" fill="#E3E5FC"/>
<path d="M139.941 62.3778C133.821 60.1225 123.676 64.9552 125.608 74.4596C127.541 83.964 104.35 72.0433 99.3579 91.5353C99.3579 91.5353 110.309 93.3073 116.429 104.262C124.964 119.404 191.636 120.854 182.135 102.167C172.633 83.4807 192.764 78.648 186.644 65.4385C180.524 52.229 169.09 48.5239 160.877 51.7458C152.664 54.9676 135.11 50.1348 139.941 62.3778Z" fill="#4256D6"/>
<path d="M182.457 125.043C186.161 123.915 190.187 122.626 193.891 121.176C197.756 119.727 201.621 118.438 205.325 116.988C212.894 113.927 220.302 110.705 227.066 106.678C227.871 106.195 228.999 105.55 229.16 105.389C229.321 105.228 229.643 105.067 229.804 104.906L230.609 104.262C231.575 103.134 232.703 101.845 233.669 100.234C235.602 97.1737 237.212 93.4686 238.661 89.7635C240.111 86.0585 241.56 82.1923 242.688 78.3261C243.976 74.4599 245.103 70.4326 246.231 66.5664L252.833 67.694C252.189 76.393 250.74 84.6086 248.324 93.1465C247.036 97.3348 245.747 101.523 243.493 105.712C242.365 107.806 241.238 109.9 239.467 111.994C238.983 112.477 238.5 112.961 238.017 113.605C237.534 114.088 237.051 114.572 236.407 115.055C234.957 116.183 234.152 116.505 233.186 117.149C225.778 121.982 218.048 125.848 210.157 129.231C202.265 132.614 194.374 135.513 185.839 137.93L182.457 125.043Z" fill="#EAC2AB"/>
<path d="M173.6 125.365C175.693 120.21 205.486 116.344 205.486 116.344L209.673 142.602C209.673 142.602 184.551 152.267 179.236 147.434C173.6 142.279 170.54 132.936 173.6 125.365Z" fill="#F9AE10"/>
<path d="M245.586 64.7941L243.332 54.1621L255.41 59.9614C255.41 59.9614 255.893 68.3381 251.223 71.2378L250.096 70.5934C247.841 69.4658 246.069 67.3716 245.586 64.7941Z" fill="#EAC2AB"/>
<path d="M246.069 44.8184L256.859 48.0402L255.41 59.9609L243.332 54.1617L246.069 44.8184Z" fill="#EAC2AB"/>
<path d="M111.436 424.511L122.709 431.438L140.263 409.53L130.601 400.67L111.436 424.511Z" fill="#EAC2AB"/>
<path d="M194.857 126.008C194.857 126.008 201.138 128.263 187.288 205.426C166.03 205.104 144.128 204.782 133.821 204.621C135.11 182.873 135.432 169.342 125.769 124.558C125.769 124.558 136.881 122.303 148.315 121.981C157.334 121.659 164.742 121.497 172.633 122.303C183.101 123.431 194.857 126.008 194.857 126.008Z" fill="#FDC510"/>
<path d="M151.214 94.5938C152.664 102.487 153.952 116.824 148.316 121.979C148.316 121.979 150.248 129.873 164.903 130.195C180.847 130.517 172.633 122.301 172.633 122.301C163.937 120.046 164.259 113.603 165.869 107.481L151.214 94.5938Z" fill="#EAC2AB"/>
<path d="M148.315 121.981C157.334 121.659 164.742 121.497 172.633 122.303C173.116 122.303 173.76 122.464 174.244 122.464C176.176 126.169 176.659 135.19 171.828 143.406C171.828 143.406 150.57 131.163 145.095 122.142C146.222 121.981 147.349 121.981 148.315 121.981Z" fill="#EAC2AB"/>
<path d="M143.001 80.9033C145.739 93.6295 146.705 99.1066 154.274 104.745C165.547 113.283 180.686 107 181.813 93.6295C182.779 81.5476 178.109 62.7 164.742 59.4781C151.375 56.4174 140.263 68.016 143.001 80.9033Z" fill="#EAC2AB"/>
<path d="M143.323 64.6322C148.637 64.9543 155.079 67.6929 153.469 75.1031C152.019 82.5133 146.061 77.5195 148.154 88.3126C150.248 98.9446 130.6 92.8231 133.499 82.9966C136.559 73.0089 135.11 63.9878 143.323 64.6322Z" fill="#4256D6"/>
<path d="M139.941 72.8474C147.832 80.0965 158.783 59.799 169.573 67.3703C180.363 74.9416 180.041 61.8932 167.963 58.6714C155.724 55.4496 130.44 63.9874 139.941 72.8474Z" fill="#4256D6"/>
<path d="M187.288 205.586C187.288 205.586 192.925 282.265 191.475 322.538C189.865 364.422 136.559 417.904 136.559 417.904L122.709 406.628C122.387 406.789 161.36 337.358 159.266 316.417C154.435 271.794 148.154 204.941 148.154 204.941L187.288 205.586Z" fill="#407BFF"/>
<path d="M187.288 205.586C187.288 205.586 192.925 282.265 191.475 322.538C189.865 364.422 136.559 417.904 136.559 417.904L122.709 406.628C122.387 406.789 161.36 337.358 159.266 316.417C154.435 271.794 148.154 204.941 148.154 204.941L187.288 205.586Z" fill="#030047"/>
<path d="M119.166 409.208L137.042 420.162L141.874 415.33L122.226 402.281L119.166 409.208Z" fill="#2B2B68"/>
<path d="M29.9477 341.226L34.2959 353.63L64.7333 348.475L60.5461 335.91L29.9477 341.226Z" fill="#EAC2AB"/>
<path d="M172.472 205.267C172.472 205.267 165.064 277.114 147.993 314.004C140.585 329.952 54.1044 351.538 54.1044 351.538L46.5353 335.429C45.408 335.429 95.6539 306.755 112.403 300.633C116.107 299.184 118.844 295.962 119.65 292.096C128.024 249.729 133.338 204.623 133.338 204.623L172.472 205.267Z" fill="#407BFF"/>
<path d="M172.472 205.267C172.472 205.267 165.064 277.114 147.993 314.004C140.585 329.952 54.1044 351.538 54.1044 351.538L46.5353 335.429C45.408 335.429 95.6539 306.755 112.403 300.633C116.107 299.184 118.844 295.962 119.65 292.096C128.024 249.729 133.338 204.623 133.338 204.623L172.472 205.267Z" fill="#2B2B68"/>
<path d="M45.7301 333.975L52.3329 353.95L59.4189 354.111L52.655 330.592L45.7301 333.975Z" fill="#030047"/>
<path d="M141.391 93.3041C142.679 95.7205 144.934 97.1703 147.188 97.8146C150.409 98.6201 152.02 95.8816 151.053 92.8208C150.248 90.0823 147.51 86.3772 144.289 86.6994C141.068 87.1826 139.78 90.5655 141.391 93.3041Z" fill="#EAC2AB"/>
<path d="M131.567 142.277C129.151 144.854 126.735 147.593 124.32 150.331C121.904 153.07 119.488 155.808 117.234 158.708C112.724 164.346 108.376 170.146 105.155 176.267L104.511 177.395C104.189 177.878 104.35 177.717 104.189 177.878C104.028 178.2 103.867 178.683 103.867 179.328C103.706 180.616 103.706 182.227 103.706 183.838C103.867 187.221 104.35 190.765 104.994 194.309C105.638 197.853 106.283 201.558 107.249 205.102C108.054 208.646 108.859 212.351 109.826 215.895L103.545 218.151C100.163 211.224 97.4252 204.136 95.1706 196.564C94.0433 192.859 93.077 188.993 92.4328 184.805C92.1107 182.711 91.9497 180.616 91.9497 178.039C91.9497 176.75 92.1107 175.462 92.5939 173.851C92.7549 173.367 92.916 173.045 93.077 172.562C93.2381 172.079 93.3991 171.918 93.5602 171.595L94.2043 170.146C95.9758 166.44 97.9084 163.058 100.002 159.675C102.096 156.292 104.35 153.231 106.766 150.009C111.436 143.727 116.428 137.927 121.904 132.289L131.567 142.277Z" fill="#EAC2AB"/>
<path d="M125.769 124.559C120.294 125.687 109.826 142.924 109.826 142.924L127.541 159.999C127.541 159.999 140.585 149.045 140.263 141.796C140.102 134.225 132.05 123.27 125.769 124.559Z" fill="#F9AE10"/>
<path d="M133.016 201.557L131.567 206.39C131.406 206.712 131.728 207.196 132.372 207.196L187.449 208.162C187.932 208.162 188.415 208.001 188.415 207.679L188.899 202.846C188.899 202.524 188.577 202.202 187.932 202.202L133.66 201.396C133.499 201.074 133.177 201.235 133.016 201.557Z" fill="#4256D6"/>
<path d="M109.987 214.93L118.039 226.69L104.672 225.24C104.672 225.24 101.451 217.508 104.833 213.158L109.987 214.93Z" fill="#EAC2AB"/>
<path d="M117.234 237.804L106.122 236.032L104.672 225.4L118.039 226.85L117.234 237.804Z" fill="#EAC2AB"/>
<path d="M351.07 107.159L349.138 108.126L347.366 108.931C346.239 109.414 344.951 109.898 343.823 110.381C341.408 111.347 338.992 112.153 336.576 112.797C331.745 114.247 326.753 115.375 321.599 116.019C316.446 116.663 311.131 116.824 305.495 116.019C302.757 115.697 300.019 115.052 297.281 114.247C296.637 114.086 295.993 113.764 295.188 113.603L294.222 113.28L293.094 112.797C292.289 112.475 291.484 112.153 290.84 111.67C290.196 111.347 289.39 110.864 288.746 110.542C286.169 108.931 284.076 106.998 282.143 105.226C280.211 103.293 278.439 101.36 276.829 99.4266C273.608 95.3993 270.87 91.3721 268.455 87.1837C263.462 78.8069 259.275 70.2691 255.893 61.248L264.106 57.2207C266.522 60.9258 269.099 64.792 271.675 68.4971C274.252 72.2022 276.99 75.9073 279.728 79.4513C282.465 82.9953 285.364 86.3782 288.263 89.2779C291.162 92.3386 294.383 95.0772 297.281 96.527C299.536 97.8157 303.401 98.6212 307.105 98.7823C310.809 99.1044 314.835 98.6212 318.861 97.9768C322.888 97.3324 326.914 96.3659 330.94 95.0772C333.033 94.4328 334.966 93.7884 336.898 92.983C337.865 92.6608 338.831 92.1775 339.797 91.8553L341.247 91.211L342.535 90.7277L351.07 107.159Z" fill="#D8A384"/>
<path d="M264.912 61.2497L264.106 48.8457L253.155 60.2832C253.155 60.2832 256.054 68.9821 261.852 69.9487L262.818 68.821C264.589 66.7268 265.395 63.9883 264.912 61.2497Z" fill="#D8A384"/>
<path d="M256.537 41.4375L247.036 48.8477L253.316 60.2852L264.106 48.8477L256.537 41.4375Z" fill="#D8A384"/>
<path d="M418.709 89.4434C421.608 92.9874 424.185 96.2092 426.761 99.7532C429.338 103.297 431.754 106.841 434.008 110.546C438.518 117.957 442.705 125.689 445.926 134.388L447.053 137.771L447.375 138.576L447.536 139.059L447.697 139.704C447.858 140.67 448.18 141.476 448.18 142.281C448.663 145.664 448.18 148.403 447.697 150.98C446.731 155.974 445.12 160.324 443.349 164.351C439.645 172.566 435.297 179.816 429.982 186.742L421.93 182.071C423.379 178.366 424.829 174.5 426.117 170.633C427.405 166.767 428.694 163.062 429.66 159.357C430.626 155.652 431.432 151.947 431.754 148.725C431.915 147.114 431.754 145.664 431.593 144.859C431.593 144.698 431.432 144.537 431.432 144.537C431.432 144.537 431.432 144.537 431.432 144.375L431.271 144.053L430.948 143.409L429.821 140.831C426.6 134.066 422.574 127.3 418.226 120.695C415.971 117.312 413.717 114.09 411.301 110.869C409.046 107.647 406.47 104.425 404.215 101.364L418.709 89.4434Z" fill="#EAC2AB"/>
<path d="M420.642 182.55L413.878 193.021L429.499 190.444C429.499 190.444 432.398 181.745 428.372 177.557L427.083 177.879C424.184 178.362 421.93 180.134 420.642 182.55Z" fill="#EAC2AB"/>
<path d="M415.649 203.493L427.727 203.171L429.499 190.283L413.878 193.022L415.649 203.493Z" fill="#EAC2AB"/>
<path d="M387.305 51.7461C387.628 61.8948 384.729 74.2989 391.171 79.776C391.171 79.776 388.916 89.1193 372.328 90.2469C353.969 91.5356 363.31 81.7091 363.31 81.7091C373.295 78.6483 372.811 71.2381 370.718 64.3112L387.305 51.7461Z" fill="#EAC2AB"/>
<path d="M395.68 82.6749C396.968 79.7752 398.095 75.2647 395.036 74.2981C391.654 73.3316 375.066 71.7206 362.827 76.5534C365.403 81.0639 363.632 85.4134 363.632 85.4134L395.68 82.6749Z" fill="#030047"/>
<path d="M409.691 443.189L397.934 446.503L388.916 423.445L400.511 420.131L409.691 443.189Z" fill="#EAC2AB"/>
<path d="M481.907 408.126L472.463 412.03L460.085 390.964L469.661 387.081L481.907 408.126Z" fill="#EAC2AB"/>
<path d="M412.428 80.9029C424.184 81.2251 441.899 109.738 441.899 109.738L421.769 129.875C421.769 129.875 411.301 119.404 402.766 107.161C393.908 94.2735 400.511 80.4196 412.428 80.9029Z" fill="#287AFF"/>
<path d="M342.052 140.989C343.018 154.682 345.112 171.596 348.494 192.538L413.878 188.028C414.039 177.879 406.309 129.229 414.522 81.0629C414.522 81.0629 403.249 79.6131 392.459 79.7742C384.084 79.9353 372.006 80.5797 364.598 81.7073C354.935 83.3182 345.917 86.379 345.917 86.379C345.917 86.379 340.764 92.8226 340.925 121.336C341.247 126.974 341.569 133.579 342.052 140.989Z" fill="#4256D6"/>
<path d="M359.123 106.355C355.419 117.47 332.067 128.103 332.067 128.103L312.742 97.4952C312.742 97.4952 327.88 89.7628 343.018 86.8631C359.928 83.4802 363.31 93.7901 359.123 106.355Z" fill="#287AFF"/>
<path d="M392.781 37.5672C391.17 49.649 390.848 56.8981 384.407 62.8585C374.583 71.8796 359.928 65.9192 357.834 53.6763C355.902 42.7221 358.8 24.6799 371.04 20.3304C383.118 15.9809 394.391 25.4853 392.781 37.5672Z" fill="#EAC2AB"/>
<path d="M373.294 61.8946C376.515 65.5997 387.466 63.9887 389.721 62.0556C391.976 60.1225 413.395 47.5574 408.402 36.7643C403.41 26.1323 375.227 19.8497 371.845 29.193C368.141 38.6974 369.913 58.1895 373.294 61.8946Z" fill="#2B2B68"/>
<path d="M376.837 32.4141C364.115 31.6086 338.992 12.922 357.834 3.57872C376.676 -5.76458 376.193 12.2776 383.762 16.7882C391.331 21.4599 395.036 12.2776 404.054 15.8217C412.589 19.2046 416.454 38.5355 402.121 36.6024C387.627 34.8304 376.837 32.4141 376.837 32.4141Z" fill="#2B2B68"/>
<path d="M376.193 40.6308C375.227 43.6915 373.133 46.4301 371.04 48.041C367.819 50.4573 365.403 48.2021 365.725 44.497C366.047 41.2751 368.141 36.1202 371.684 35.1537C375.227 34.026 377.159 37.0868 376.193 40.6308Z" fill="#EAC2AB"/>
<path d="M371.845 190.513C371.845 190.513 388.594 270.044 397.129 299.73C406.631 332.178 460.098 402.872 460.098 402.872L479.423 393.069C479.423 393.069 439.806 332.868 433.847 300.559C427.406 265.488 413.878 188.027 413.878 188.027L371.845 190.513Z" fill="#030047"/>
<path d="M453.172 398.178C453.011 398.178 459.292 403.701 459.292 403.701L481.033 392.655L477.007 386.994L453.172 398.178Z" fill="#2B2B68"/>
<path d="M348.655 191.896C348.655 191.896 349.621 270.598 352.198 302.632C354.774 335.908 388.594 434.356 388.594 434.356L408.241 428.694C408.241 428.694 389.882 335.77 389.56 303.046C389.399 267.285 391.654 189.41 391.654 189.41L348.655 191.896Z" fill="#2B2B68"/>
<path d="M382.313 428.556C382.152 428.556 385.856 435.322 385.856 435.322L409.852 428.418L409.691 420.271L382.313 428.556Z" fill="#030047"/>
<path d="M229.457 33.4273L228.244 34.4863L233.855 40.9196L235.068 39.8606L229.457 33.4273Z" fill="#4256D6"/>
<path d="M236.729 12.4087L235.216 12.9609L243.497 35.6603L245.01 35.1081L236.729 12.4087Z" fill="#4256D6"/>
<path d="M254.359 19.9394L253.5 33.9277L255.107 34.0265L255.966 20.0382L254.359 19.9394Z" fill="#4256D6"/>
<path d="M270.468 18.8104L262.209 35.5723L263.654 36.2845L271.913 19.5226L270.468 18.8104Z" fill="#4256D6"/>
<path d="M274.852 36.5247L270.091 38.498L270.708 39.9862L275.469 38.0129L274.852 36.5247Z" fill="#4256D6"/>
<path d="M378.251 473.98C378.251 473.98 385.54 474.553 397.221 471.317C408.901 468.082 421.52 463.657 422.518 460.347C423.484 457.056 414.151 435.972 410.468 437.457C406.785 438.943 409.478 447.352 399.312 442.988C390.617 439.257 392.11 452.312 384.015 459.232C375.889 466.172 372.62 468.946 378.251 473.98Z" fill="#287AFF"/>
<path d="M21.318 381.274C21.318 381.274 17.6901 375.721 15.1834 365.014C12.6768 354.308 10.7085 342.336 12.9096 340.102C15.1088 337.901 35.9547 336.156 36.3748 339.734C36.7948 343.313 28.9289 344.828 36.8257 351.022C43.5801 356.321 32.5375 360.813 30.5505 370.268C28.5616 379.757 27.7756 383.566 21.318 381.274Z" fill="#FDC510"/>
<path d="M134.432 458.257C134.432 458.257 127.859 457.366 118.123 452.254C108.387 447.143 98.0471 440.797 97.7982 437.67C97.573 434.567 109.896 417.663 112.877 419.687C115.857 421.712 111.855 428.651 121.707 426.734C130.134 425.094 126.303 436.383 132.153 444.074C138.026 451.787 140.392 454.874 134.432 458.257Z" fill="#F9AE10"/>
<path d="M456.699 441.714C456.699 441.714 463.951 440.78 474.719 435.216C485.487 429.653 496.93 422.733 497.227 419.289C497.498 415.87 484.038 397.149 480.738 399.359C477.438 401.568 481.799 409.246 470.954 407.061C461.678 405.193 465.818 417.664 459.315 426.098C452.786 434.557 450.155 437.943 456.699 441.714Z" fill="#4256D6"/>
</svg>
