<svg width="28" height="13" viewBox="0 0 28 13" fill="none" xmlns="http://www.w3.org/2000/svg">
<path d="M27.4862 6.14258C27.4885 6.54087 27.3321 6.9237 27.0516 7.20649L22.5562 11.7019C21.9687 12.2895 21.016 12.2895 20.4284 11.7019C19.8408 11.1143 19.8408 10.1617 20.4284 9.57407L23.8749 6.14258L20.4284 2.71109C19.8408 2.12351 19.8408 1.17085 20.4284 0.583264C21.016 -0.00431733 21.9687 -0.00431737 22.5562 0.583264L27.0516 5.07867C27.3321 5.36145 27.4885 5.74428 27.4862 6.14258Z" fill="white"/>
<path d="M27.4862 6.14216C27.4862 6.96974 26.8153 7.64062 25.9877 7.64062L2.01226 7.64062C1.18468 7.64062 0.513794 6.96974 0.513794 6.14216C0.513794 5.31458 1.18468 4.64369 2.01226 4.64369L25.9877 4.64369C26.8153 4.64369 27.4862 5.31458 27.4862 6.14216Z" fill="white"/>
</svg>
