<svg width="72" height="73" viewBox="0 0 72 73" fill="none" xmlns="http://www.w3.org/2000/svg">
<path d="M24.75 30.5156H47.25C48.375 30.5156 49.5 29.5312 49.5 28.2656V26.0156C49.5 24.8906 48.375 23.7656 47.25 23.7656H24.75C23.4844 23.7656 22.5 24.8906 22.5 26.0156V28.2656C22.5 29.5312 23.4844 30.5156 24.75 30.5156ZM22.5 41.7656C22.5 43.0312 23.4844 44.0156 24.75 44.0156H47.25C48.375 44.0156 49.5 43.0312 49.5 41.7656V39.5156C49.5 38.3906 48.375 37.2656 47.25 37.2656H24.75C23.4844 37.2656 22.5 38.3906 22.5 39.5156V41.7656ZM36 58.9219C33.6094 58.9219 31.3594 58.2188 29.3906 56.6719L0 35.4375V65.3906C0 69.1875 2.95312 72.1406 6.75 72.1406H65.25C68.9062 72.1406 72 69.1875 72 65.3906V35.4375L42.4688 56.6719C40.5 58.2188 38.25 58.9219 36 58.9219ZM69.3281 23.0625C68.0625 22.2188 66.9375 21.2344 65.25 19.9688V13.6406C65.25 9.98438 62.1562 6.89062 58.5 6.89062H47.5312C47.1094 6.60938 46.6875 6.32812 46.2656 6.04688C43.875 4.35938 39.2344 0.140625 36 0.140625C32.625 0.140625 27.9844 4.35938 25.5938 6.04688C25.1719 6.32812 24.75 6.60938 24.3281 6.89062H13.5C9.70312 6.89062 6.75 9.98438 6.75 13.6406V19.9688C4.92188 21.2344 3.79688 22.2188 2.53125 23.0625C1.125 24.1875 0 26.5781 0 28.4062V29.9531L13.5 39.6562V13.6406H58.5V39.6562L72 29.9531V28.4062C72 26.2969 71.0156 24.4688 69.3281 23.0625Z" fill="#287AFF"/>
</svg>
