<svg width="72" height="73" viewBox="0 0 72 73" fill="none" xmlns="http://www.w3.org/2000/svg">
<path d="M0 57.2344V63.1406C0 68.2031 12.0938 72.1406 27 72.1406C41.9062 72.1406 54 68.2031 54 63.1406V57.2344C48.0938 61.3125 37.5469 63.1406 27 63.1406C16.3125 63.1406 5.76562 61.3125 0 57.2344ZM45 18.1406C59.9062 18.1406 72 14.2031 72 9.14062C72 4.21875 59.9062 0.140625 45 0.140625C30.0938 0.140625 18 4.21875 18 9.14062C18 14.2031 30.0938 18.1406 45 18.1406ZM0 42.4688V49.6406C0 54.7031 12.0938 58.6406 27 58.6406C41.9062 58.6406 54 54.7031 54 49.6406V42.4688C48.0938 47.25 37.5469 49.6406 27 49.6406C16.3125 49.6406 5.76562 47.25 0 42.4688ZM58.5 44.0156C66.5156 42.4688 72 39.5156 72 36.1406V30.2344C68.625 32.4844 63.8438 34.0312 58.5 35.0156V44.0156ZM27 22.6406C12.0938 22.6406 0 27.7031 0 33.8906C0 40.2188 12.0938 45.1406 27 45.1406C41.9062 45.1406 54 40.2188 54 33.8906C54 27.7031 41.9062 22.6406 27 22.6406ZM57.7969 30.6562C66.2344 29.1094 72 26.1562 72 22.6406V16.7344C66.9375 20.25 58.3594 22.0781 49.3594 22.6406C53.4375 24.6094 56.5312 27.2812 57.7969 30.6562Z" fill="white"/>
</svg>
