<svg width="73" height="73" viewBox="0 0 73 73" fill="none" xmlns="http://www.w3.org/2000/svg">
<path d="M0.5 57.2344V63.1406C0.5 68.2031 12.5938 72.1406 27.5 72.1406C42.4062 72.1406 54.5 68.2031 54.5 63.1406V57.2344C48.5938 61.3125 38.0469 63.1406 27.5 63.1406C16.8125 63.1406 6.26562 61.3125 0.5 57.2344ZM45.5 18.1406C60.4062 18.1406 72.5 14.2031 72.5 9.14062C72.5 4.21875 60.4062 0.140625 45.5 0.140625C30.5938 0.140625 18.5 4.21875 18.5 9.14062C18.5 14.2031 30.5938 18.1406 45.5 18.1406ZM0.5 42.4688V49.6406C0.5 54.7031 12.5938 58.6406 27.5 58.6406C42.4062 58.6406 54.5 54.7031 54.5 49.6406V42.4688C48.5938 47.25 38.0469 49.6406 27.5 49.6406C16.8125 49.6406 6.26562 47.25 0.5 42.4688ZM59 44.0156C67.0156 42.4688 72.5 39.5156 72.5 36.1406V30.2344C69.125 32.4844 64.3438 34.0312 59 35.0156V44.0156ZM27.5 22.6406C12.5938 22.6406 0.5 27.7031 0.5 33.8906C0.5 40.2188 12.5938 45.1406 27.5 45.1406C42.4062 45.1406 54.5 40.2188 54.5 33.8906C54.5 27.7031 42.4062 22.6406 27.5 22.6406ZM58.2969 30.6562C66.7344 29.1094 72.5 26.1562 72.5 22.6406V16.7344C67.4375 20.25 58.8594 22.0781 49.8594 22.6406C53.9375 24.6094 57.0312 27.2812 58.2969 30.6562Z" fill="#287AFF"/>
</svg>
