<svg width="527" height="533" viewBox="0 0 527 533" fill="none" xmlns="http://www.w3.org/2000/svg">
<path d="M17.595 369.541C17.595 343.793 35.9466 322.189 59.2544 321.597C64.4785 321.449 69.4348 322.485 74.1231 324.261C80.285 306.504 95.6895 293.926 113.907 293.926C118.328 293.926 122.48 294.666 126.499 295.998C136.411 274.246 156.638 259.301 180.214 259.301C198.967 259.301 215.711 268.771 226.695 283.716C234.331 256.785 257.103 237.253 284.027 237.253C312.693 237.253 336.671 259.449 342.699 289.339C353.013 280.165 366.14 274.69 380.339 274.69C407.398 274.69 430.17 294.37 437.671 321.449C441.422 320.71 445.173 320.266 449.057 320.266C482.277 320.266 509.068 350.008 509.068 386.558C509.068 387.741 509.068 388.925 508.934 390.109C508.934 391.145 509.068 392.181 509.068 393.216C509.068 428.434 483.215 456.993 451.334 456.993H96.7612C53.0925 456.993 17.595 417.78 17.595 369.541Z" fill="#66ABFF"/>
<path d="M526.549 424.981C526.549 397.458 506.858 374.227 481.943 373.635C476.317 373.487 470.958 374.523 466.002 376.446C459.439 357.506 442.828 344.04 423.405 344.04C418.717 344.04 414.162 344.78 409.876 346.26C399.294 323.028 377.593 307.047 352.41 307.047C332.317 307.047 314.368 317.257 302.58 333.238C294.409 304.383 270.029 283.371 241.229 283.371C210.42 283.371 184.835 307.195 178.406 339.009C167.421 329.095 153.356 323.324 138.086 323.324C109.152 323.324 84.6385 344.484 76.6013 373.487C72.5827 372.599 68.5642 372.155 64.4116 372.155C28.9141 372.155 0.114258 403.969 0.114258 443.182C0.114258 444.514 0.114258 445.698 0.248211 447.03C0.248211 448.065 0.114258 449.249 0.114258 450.433C0.114258 488.166 27.8425 518.649 61.8665 518.649H441.623C488.506 518.649 526.549 476.772 526.549 424.981Z" fill="#EBEFFB"/>
<path d="M222.074 263.903C222.074 263.903 202.78 285.399 214.609 337.753C214.828 338.72 216.164 338.819 216.499 337.886L220.133 327.764C220.512 326.709 222.262 326.954 222.345 328.072C223.354 341.657 228.128 377.078 250.703 408.269C251.108 408.828 251.937 408.825 252.311 408.244C257.047 400.887 282.063 360.327 280.15 327.148C280.088 326.065 281.478 325.622 281.959 326.595C283.388 329.485 285.229 333.661 286.696 338.515C286.995 339.504 288.372 339.517 288.581 338.505C290.915 327.222 295.999 292.605 278.334 263.903H222.074Z" fill="#FF644E"/>
<path d="M235.737 263.903C235.737 263.903 226.811 324.285 247.528 361.877C248.242 363.171 250.021 363.176 250.729 361.878C256.179 351.88 273.346 315.457 266.547 263.903H235.737Z" fill="#C6110C"/>
<path d="M162.867 268.194C166.618 273.965 204.928 241.855 241.095 206.341L200.106 170.383C160.188 180.594 153.624 253.988 162.867 268.194Z" fill="#030047"/>
<path d="M337.809 268.194C334.059 273.965 295.748 241.855 259.581 206.341L300.571 170.383C340.489 180.594 347.186 253.988 337.809 268.194Z" fill="#030047"/>
<path d="M195.685 177.042C195.685 230.757 220.467 260.351 250.874 260.351C281.281 260.351 306.063 230.905 306.063 177.042C306.063 155.586 299.633 123.032 291.06 91.8096H210.286C201.847 123.032 195.685 155.586 195.685 177.042Z" fill="#2B2B68"/>
<path d="M251.008 0.362C240.962 0.362 223.012 44.754 210.42 91.8095H291.194C278.2 44.754 260.117 0.362 251.008 0.362Z" fill="#FF644E"/>
<path d="M287.041 268.342H214.975C212.563 268.342 210.554 266.122 210.554 263.459V252.657C210.554 249.993 212.563 247.773 214.975 247.773H287.041C289.452 247.773 291.462 249.993 291.462 252.657V263.459C291.328 266.27 289.452 268.342 287.041 268.342Z" fill="#2B2B68"/>
<path d="M294.141 253.84H207.741C202.517 253.84 198.364 249.105 198.364 243.482V238.451C198.364 232.68 202.651 228.093 207.741 228.093H294.275C299.499 228.093 303.651 232.828 303.651 238.451V243.482C303.517 249.253 299.365 253.84 294.141 253.84Z" fill="#B1C4E5"/>
<path d="M241.967 110.385C229.426 114.891 223.394 128.355 228.321 140.373C228.588 141.076 228.88 141.653 229.303 142.257C240.368 132.264 251.458 122.146 261.837 111.497C255.889 108.491 248.617 107.948 241.967 110.385Z" fill="white"/>
<path d="M229.303 142.257C234.905 152.982 248.213 158.105 260.047 153.718C272.588 149.212 278.62 135.748 273.693 123.73C271.403 118.21 267.074 113.97 261.862 111.372C251.327 122.12 240.368 132.264 229.303 142.257Z" fill="#EBEFFB"/>
<path d="M251.41 170.679C251.41 170.679 223.682 170.679 248.731 274.557C249.535 278.108 253.285 277.96 254.089 274.557C260.117 247.034 273.378 177.042 251.41 170.679Z" fill="#030047"/>
<path d="M484.89 418.292C480.469 418.144 476.317 419.032 472.298 420.511C467.208 405.566 454.08 394.912 438.81 394.912C435.059 394.912 431.576 395.504 428.228 396.688C419.923 378.339 402.777 365.761 382.952 365.761C367.145 365.761 352.946 373.752 343.703 386.33C337.274 363.542 317.984 347.117 295.346 347.117C283.157 347.117 272.039 351.852 263.332 359.694C254.625 351.852 243.507 347.117 231.317 347.117C208.545 347.117 189.39 363.69 182.96 386.33C173.717 373.752 159.518 365.761 143.712 365.761C123.887 365.761 106.741 378.339 98.4357 396.688C95.0868 395.504 91.4701 394.912 87.8534 394.912C72.5828 394.912 59.4554 405.566 54.3652 420.511C50.4805 419.032 46.1941 418.144 41.7736 418.292C22.0825 418.736 6.54401 436.936 6.54401 458.688C6.54401 499.529 36.4155 532.527 73.3865 532.527H154.026H372.637H453.277C490.248 532.527 520.119 499.529 520.119 458.688C520.119 436.936 504.581 418.736 484.89 418.292Z" fill="#9DD4F9"/>
</svg>
