<svg width="197" height="267" viewBox="0 0 197 267" fill="none" xmlns="http://www.w3.org/2000/svg">
<path d="M193.961 -45.9592C201.81 -26.8642 193.272 -4.28083 179.089 10.7748C164.905 25.8304 146.04 35.3319 128.322 45.981C93.5288 66.912 61.1684 94.315 42.9915 130.623C34.3621 147.79 29.1293 166.472 20.5917 183.639C12.0541 200.806 -0.75235 217.147 -18.7456 223.757C-43.4864 232.845 -72.7714 220.268 -87.7811 198.557C-102.791 176.891 -105.132 148.341 -99.5318 122.59C-93.9319 96.8396 -81.1254 73.2464 -67.7222 50.5711C-50.7847 22.0206 -32.5619 -5.79557 -13.0998 -32.7396C-9.06048 -38.3395 -4.74577 -44.0772 1.3132 -47.428C8.7492 -51.5132 17.654 -51.3755 26.0999 -51.146C82.0076 -49.5394 137.915 -47.9329 193.823 -46.3723" fill="#287AFF"/>
<path d="M113.587 -34.4834C105.555 -23.513 97.7515 -11.9 95.0433 1.41137C91.6467 18.1653 96.6499 35.3324 98.9909 52.2699C101.332 69.2075 100.092 88.6237 87.4696 100.145C73.8829 112.492 53.0437 110.886 35.6013 116.578C8.47363 125.482 -8.73933 151.463 -23.0605 176.157C-31.8736 191.351 -43.5784 208.655 -61.1585 208.885C-75.5256 209.069 -87.5976 196.583 -91.5452 182.767C-95.4927 168.951 -93.1517 154.217 -90.2599 140.125C-81.3092 96.5187 -67.7224 53.8765 -49.7291 13.1621C-46.0111 4.80806 -41.88 -3.82138 -34.6735 -9.42133C-24.6671 -17.1786 -10.9885 -17.5917 1.68025 -18.0967C38.3553 -19.4737 74.9386 -24.1556 110.787 -32.0965" fill="#66ABFF"/>
<path d="M66.6764 -51.9728C50.2437 -42.5171 46.4798 -20.6681 46.1126 -1.71094C45.7454 17.2463 46.2503 38.269 33.8111 52.5443C24.3554 63.4229 9.39163 67.7376 -4.92957 69.6196C-19.2507 71.5474 -33.985 71.6392 -47.5718 76.4589C-65.9323 82.9768 -81.6764 97.8488 -101.139 98.8587C-114.129 99.5472 -127.991 92.4784 -132.581 80.3146C-137.263 67.9212 -131.617 53.7377 -122.85 43.8231C-114.083 33.9084 -102.561 26.9314 -92.4173 18.3938C-72.5421 1.59395 -58.5422 -20.9895 -40.5948 -39.809C-22.6474 -58.6285 2.13924 -74.2808 27.8898 -70.5628C41.3389 -68.6349 53.5486 -61.5661 64.6567 -53.717" fill="#9DD4F9"/>
<path d="M111.43 -71.0215C90.7287 -53.9921 87.0107 -25.4416 84.3485 -0.471306C82.7419 14.4466 81.1354 29.6399 75.6732 43.6857C70.4404 57.1348 61.3061 68.1969 50.1521 77.1477C38.9522 86.0984 26.1916 92.8918 13.3393 99.0885C-1.34911 106.157 -16.4506 112.4 -31.598 118.459C-59.8273 129.796 -88.4237 140.629 -114.909 155.776C-138.456 169.226 -160.489 186.071 -176.921 207.874C-178.987 210.628 -180.961 213.428 -182.843 216.32C-183.302 217.055 -182.154 217.743 -181.649 217.009C-166.41 193.599 -144.653 175.376 -120.922 160.963C-94.9417 145.173 -66.5748 133.928 -38.4373 122.682C-23.703 116.806 -8.96872 110.931 5.44427 104.321C18.6638 98.2623 31.8834 91.7902 43.9095 83.5279C54.6504 76.0919 64.5191 67.0494 71.3125 55.8036C78.8862 43.2726 82.0534 28.8137 83.9813 14.4925C87.5616 -11.8089 87.4239 -41.966 105.555 -63.3101C107.62 -65.7429 109.915 -67.992 112.394 -70.0117C113.083 -70.6084 112.119 -71.5723 111.43 -71.0215Z" fill="#9DD4F9"/>
<path d="M72.6896 -17.3625C54.2373 -9.74286 38.8145 4.62423 30.0933 22.6175C19.5819 44.2829 19.8114 69.2991 13.2016 92.1579C6.27054 116.256 -5.29657 138.656 -16.4047 161.056C-22.28 172.852 -28.1095 184.603 -33.9848 196.4C-39.2635 207.049 -44.6339 217.79 -51.9781 227.199C-67.9517 247.625 -92.6925 256.714 -116.332 265.022C-117.158 265.297 -116.791 266.628 -115.964 266.353C-95.7679 259.284 -74.6992 251.802 -58.8633 236.793C-50.5552 228.944 -44.3585 219.212 -38.9881 209.16C-33.0209 197.96 -27.5587 186.485 -21.9128 175.101C-10.8506 152.839 0.991898 130.715 9.62133 107.305C13.8442 95.83 17.0114 84.1252 19.1688 72.0531C21.2802 60.0729 22.795 47.9091 26.2835 36.2502C33.3064 12.8405 50.3357 -6.62157 73.0568 -16.0313C73.8372 -16.3526 73.5159 -17.6838 72.6896 -17.3625Z" fill="#287AFF"/>
</svg>
