<svg width="1920" height="400" viewBox="0 0 1920 400" fill="none" xmlns="http://www.w3.org/2000/svg">
<path d="M1435.3 560C1413.5 520.6 1426.4 469.7 1453.2 433.5C1480 397.4 1518.5 372 1554.2 344.6C1624.3 290.6 1687.4 223.1 1717.7 140C1732 100.7 1738.7 59 1752.8 19.7C1767 -19.6 1790.6 -58.1 1827.9 -76.9C1879.2 -102.7 1945.7 -82.9 1983.6 -39.7C2021.5 3.49997 2033.8 64.6 2028.1 121.8C2022.4 179 2000.7 233.2 1977.3 285.6C1947.8 351.7 1915.3 416.4 1880 479.5C1872.6 492.6 1864.8 506.1 1852.5 514.9C1837.5 525.6 1818.1 527.5 1799.7 529.1C1678.3 539.7 1556.9 550.2 1435.5 560.8" fill="#287AFF"/>
<path d="M1605.5 517.2C1620.1 491.5 1634.1 464.3 1636.6 434.8C1639.8 397.7 1624.6 361.8 1615.3 325.8C1606 289.8 1603.8 247.4 1628.2 219.3C1654.5 189.1 1700 187.4 1736.3 170.7C1792.7 144.7 1823.5 84.0001 1848.3 27.1001C1863.6 -7.99991 1884.6 -48.3999 1922.5 -53.2999C1953.5 -57.2999 1982.8 -33.2999 1994.8 -4.39991C2006.8 24.5001 2005.4 57.0001 2002.7 88.2001C1994.3 184.8 1975.5 280.5 1946.8 373.1C1940.9 392.1 1934.1 411.8 1919.9 425.8C1900.2 445.1 1870.7 449.5 1843.4 453.7C1764.3 465.9 1686.4 485.2 1610.8 511.4" fill="#66ABFF"/>
<path d="M1732.2 541C1765.4 516.4 1768 468.2 1764.1 427C1760.2 385.9 1753.8 340.6 1777.1 306.5C1794.9 280.6 1826.1 267.5 1856.6 259.8C1887.1 252.1 1918.9 248.1 1947.2 234.3C1985.3 215.6 2015.6 179.5 2057.5 172.4C2085.5 167.7 2117.2 179.4 2130.2 204.6C2143.4 230.2 2134.8 262.3 2118.3 286C2101.8 309.7 2078.6 327.6 2058.9 348.6C2020.1 389.9 1995.5 442.4 1961.4 487.6C1927.3 532.8 1877.6 572.9 1820.9 571.4C1791.3 570.6 1763.1 558.3 1737.1 544.2" fill="#9DD4F9"/>
<path d="M1640.1 593.6C1681.4 550.8 1681.6 487.1 1681.1 431.5C1680.8 397.7 1680.6 363.1 1690.4 330.4C1699.3 300.6 1717.3 275 1739.5 253.6C1761.9 232 1787.9 214.4 1814.3 197.9C1843.5 179.6 1873.8 163 1904.1 146.5C1962.2 115.1 2021.1 84.4002 2074.3 45.0002C2121.4 10.2002 2164.4 -31.4998 2194.2 -82.2998C2198 -88.7998 2201.5 -95.3998 2204.9 -102.1C2205.7 -103.8 2203.2 -105.3 2202.3 -103.6C2175.5 -49.6998 2133.7 -5.09983 2086.7 31.8002C2035.4 72.1002 1977.9 103.3 1920.7 134.2C1890.4 150.6 1860 166.9 1830.4 184.6C1803.6 200.6 1777 217.5 1753 237.5C1730.9 256 1710.8 277.8 1697.8 303.8C1683.5 332.4 1679.3 364.5 1678.4 396.1C1676.7 455.2 1685.9 521.4 1652 573.9C1647.9 580.2 1643.2 586.1 1638 591.5C1636.6 592.9 1638.7 595 1640.1 593.6Z" fill="#9DD4F9"/>
<path d="M1744.4 434.401C1782.4 413.301 1812 378.201 1826.4 337.201C1835.1 312.401 1837.5 286.1 1838.9 260.1C1840.4 232.8 1841.4 205.5 1846.2 178.5C1855.8 124.4 1875.5 72.7005 1894.1 21.2005C1903.9 -5.79953 1913.6 -32.8995 1923.4 -59.8995C1932 -83.6995 1941 -107.6 1954.7 -129.1C1984.3 -175.6 2034.8 -200.8 2082.7 -224.1C2084.4 -224.9 2082.9 -227.5 2081.2 -226.7C2039.9 -206.6 1996.7 -185.4 1966.3 -149.8C1950.4 -131.2 1939.4 -109.3 1930.4 -86.7995C1920.4 -61.8995 1911.8 -36.3996 1902.7 -11.1996C1883.9 40.8004 1863.3 92.7005 1850.1 146.5C1843.6 172.8 1839.5 199.4 1837.8 226.4C1836.1 253.5 1836 280.901 1831.1 307.701C1821.6 359.901 1789.6 405.9 1743 431.8C1741.3 432.8 1742.8 435.401 1744.4 434.401Z" fill="#287AFF"/>
<path d="M479 -142.7C496.1 -101.1 477.5 -51.8998 446.6 -19.0998C415.7 13.7002 374.6 34.4003 336 57.6003C260.2 103.2 189.7 162.9 150.1 242C131.3 279.4 119.9 320.1 101.3 357.5C82.6999 394.9 54.7999 430.5 15.5999 444.9C-38.3001 464.7 -102.1 437.3 -134.8 390C-167.5 342.8 -172.6 280.6 -160.4 224.5C-148.2 168.4 -120.3 117 -91.1001 67.6003C-54.2001 5.40025 -14.5001 -55.1998 27.8999 -113.9C36.6999 -126.1 46.0999 -138.6 59.2999 -145.9C75.4999 -154.8 94.8999 -154.5 113.3 -154C235.1 -150.5 356.9 -147 478.7 -143.6" fill="#287AFF"/>
<path d="M303.9 -117.699C286.4 -93.7992 269.4 -68.4992 263.5 -39.4992C256.1 -2.99922 267 34.4008 272.1 71.3008C277.2 108.201 274.5 150.501 247 175.601C217.4 202.501 172 199.001 134 211.401C74.8999 230.801 37.3999 287.401 6.19986 341.201C-13.0001 374.301 -38.5001 412.001 -76.8001 412.501C-108.1 412.901 -134.4 385.701 -143 355.601C-151.6 325.501 -146.5 293.401 -140.2 262.701C-120.7 167.701 -91.1001 74.8008 -51.9001 -13.8992C-43.8001 -32.0992 -34.8001 -50.8992 -19.1001 -63.0992C2.69987 -79.9992 32.4999 -80.8992 60.0999 -81.9992C140 -84.9992 219.7 -95.1992 297.8 -112.499" fill="#66ABFF"/>
<path d="M201.7 -155.8C165.9 -135.2 157.7 -87.5997 156.9 -46.2997C156.1 -4.99973 157.2 40.8003 130.1 71.9003C109.5 95.6003 76.8999 105 45.6999 109.1C14.4999 113.3 -17.6001 113.5 -47.2001 124C-87.2001 138.2 -121.5 170.6 -163.9 172.8C-192.2 174.3 -222.4 158.9 -232.4 132.4C-242.6 105.4 -230.3 74.5003 -211.2 52.9003C-192.1 31.3003 -167 16.1003 -144.9 -2.49973C-101.6 -39.0997 -71.1001 -88.2997 -32.0001 -129.3C7.09988 -170.3 61.0999 -204.4 117.2 -196.3C146.5 -192.1 173.1 -176.7 197.3 -159.6" fill="#9DD4F9"/>
<path d="M299.2 -197.3C254.1 -160.2 246 -97.9998 240.2 -43.5998C236.7 -11.0998 233.2 22.0002 221.3 52.6002C209.9 81.9002 190 106 165.7 125.5C141.3 145 113.5 159.8 85.4999 173.3C53.4999 188.7 20.5999 202.3 -12.4001 215.5C-73.9001 240.2 -136.2 263.8 -193.9 296.8C-245.2 326.1 -293.2 362.8 -329 410.3C-333.5 416.3 -337.8 422.4 -341.9 428.7C-342.9 430.3 -340.4 431.8 -339.3 430.2C-306.1 379.2 -258.7 339.5 -207 308.1C-150.4 273.7 -88.6001 249.2 -27.3001 224.7C4.79987 211.9 36.8999 199.1 68.2999 184.7C97.0999 171.5 125.9 157.4 152.1 139.4C175.5 123.2 197 103.5 211.8 79.0002C228.3 51.7001 235.2 20.2002 239.4 -10.9998C247.2 -68.2998 246.9 -134 286.4 -180.5C290.9 -185.8 295.9 -190.7 301.3 -195.1C302.8 -196.4 300.7 -198.5 299.2 -197.3Z" fill="#9DD4F9"/>
<path d="M214.8 -80.3997C174.6 -63.7997 141 -32.4997 122 6.70035C99.0999 53.9003 99.5999 108.4 85.1999 158.2C70.0999 210.7 44.8999 259.5 20.6999 308.3C7.89987 334 -4.80011 359.6 -17.6001 385.3C-29.1001 408.5 -40.8001 431.9 -56.8001 452.4C-91.6001 496.9 -145.5 516.7 -197 534.8C-198.8 535.4 -198 538.3 -196.2 537.7C-152.2 522.3 -106.3 506 -71.8001 473.3C-53.7001 456.2 -40.2001 435 -28.5001 413.1C-15.5001 388.7 -3.60013 363.7 8.69987 338.9C32.7999 290.4 58.5999 242.2 77.3999 191.2C86.5999 166.2 93.4998 140.7 98.1999 114.4C102.8 88.3003 106.1 61.8004 113.7 36.4004C129 -14.5996 166.1 -56.9997 215.6 -77.4997C217.3 -78.1997 216.6 -81.0997 214.8 -80.3997Z" fill="#287AFF"/>
</svg>
