<svg width="210" height="227" viewBox="0 0 210 227" fill="none" xmlns="http://www.w3.org/2000/svg">
<path d="M5.86767 361.989C-4.1388 343.904 1.78247 320.54 14.084 303.924C26.3855 287.354 44.0575 275.695 60.4442 263.118C92.621 238.331 121.585 207.348 135.493 169.204C142.057 151.165 145.132 132.024 151.604 113.985C158.122 95.9455 168.955 78.2735 186.076 69.6441C209.623 57.8016 240.148 66.89 257.544 86.7193C274.941 106.549 280.587 134.594 277.97 160.85C275.354 187.105 265.393 211.984 254.652 236.036C241.111 266.377 226.194 296.075 209.99 325.039C206.594 331.052 203.013 337.248 197.368 341.288C190.482 346.199 181.578 347.071 173.132 347.806C117.408 352.671 61.6835 357.491 5.95945 362.356" fill="#287AFF"/>
<path d="M83.9915 342.343C90.693 330.546 97.1192 318.061 98.2667 304.52C99.7356 287.491 92.7586 271.012 88.4898 254.488C84.221 237.963 83.2112 218.501 94.4111 205.603C106.483 191.741 127.368 190.96 144.03 183.295C169.919 171.361 184.056 143.499 195.44 117.381C202.462 101.269 212.102 82.7253 229.498 80.4762C243.728 78.6401 257.177 89.6564 262.685 102.922C268.193 116.187 267.551 131.105 266.311 145.426C262.455 189.767 253.826 233.694 240.652 276.199C237.944 284.92 234.823 293.963 228.305 300.389C219.262 309.248 205.722 311.268 193.19 313.195C156.883 318.795 121.126 327.654 86.4242 339.68" fill="#66ABFF"/>
<path d="M142.148 353.267C157.388 341.975 158.581 319.851 156.791 300.94C155.001 282.074 152.063 261.281 162.758 245.629C170.928 233.74 185.25 227.727 199.25 224.193C213.249 220.658 227.846 218.822 240.836 212.488C258.324 203.904 272.233 187.334 291.465 184.075C304.318 181.918 318.868 187.288 324.835 198.855C330.894 210.606 326.947 225.34 319.373 236.219C311.799 247.098 301.15 255.314 292.108 264.953C274.298 283.91 263.006 308.008 247.354 328.756C231.702 349.503 208.889 367.91 182.863 367.221C169.276 366.854 156.332 361.208 144.398 354.736" fill="#9DD4F9"/>
<path d="M99.8733 377.412C118.831 357.766 118.922 328.527 118.693 303.006C118.555 287.491 118.463 271.609 122.962 256.6C127.047 242.921 135.309 231.17 145.499 221.347C155.781 211.433 167.715 203.354 179.833 195.78C193.236 187.38 207.145 179.761 221.053 172.187C247.721 157.774 274.757 143.682 299.176 125.597C320.796 109.624 340.534 90.483 354.212 67.1651C355.956 64.1816 357.563 61.1521 359.124 58.0767C359.491 57.2964 358.343 56.6079 357.93 57.3882C345.628 82.1289 326.442 102.601 304.868 119.538C281.321 138.037 254.928 152.358 228.672 166.541C214.764 174.069 200.81 181.551 187.223 189.676C174.922 197.02 162.712 204.777 151.696 213.957C141.552 222.449 132.326 232.455 126.358 244.39C119.795 257.518 117.867 272.252 117.454 286.757C116.673 313.884 120.896 344.271 105.336 368.369C103.454 371.261 101.296 373.969 98.9094 376.448C98.2668 377.09 99.2307 378.054 99.8733 377.412Z" fill="#9DD4F9"/>
<path d="M147.748 304.337C165.191 294.652 178.777 278.54 185.387 259.721C189.381 248.337 190.482 236.265 191.125 224.331C191.813 211.8 192.272 199.269 194.476 186.876C198.882 162.043 207.925 138.312 216.462 114.673C220.961 102.28 225.413 89.8404 229.911 77.447C233.859 66.5226 237.99 55.5522 244.279 45.6834C257.865 24.3393 281.045 12.7722 303.032 2.07722C303.812 1.71001 303.124 0.516576 302.344 0.883786C283.386 10.1099 263.557 19.841 249.603 36.1818C242.305 44.7195 237.256 54.7718 233.125 65.0996C228.534 76.529 224.587 88.2338 220.41 99.8009C211.78 123.67 202.325 147.492 196.266 172.187C193.282 184.259 191.4 196.469 190.62 208.862C189.84 221.302 189.794 233.878 187.545 246.18C183.184 270.14 168.496 291.255 147.106 303.143C146.325 303.602 147.014 304.796 147.748 304.337Z" fill="#287AFF"/>
</svg>
