<svg width="1920" height="1304" viewBox="0 0 1920 1304" fill="none" xmlns="http://www.w3.org/2000/svg">
<path d="M1138.46 -84C1138.46 -117.137 1165.32 -144 1198.46 -144L2276.8 -144C2322.02 -144 2350.99 -95.8868 2329.83 -55.9267L1745.36 1048.07C1734.96 1067.72 1714.56 1080 1692.33 1080H1198.46C1165.32 1080 1138.46 1053.14 1138.46 1020V-84Z" fill="#4256D6"/>
<g filter="url(#filter0_d)">
<path d="M496.818 -54L1845.31 -54L1139.48 1279.24H496.818V-54Z" fill="#5166EB"/>
</g>
<path d="M-72 -277.355L1477 -277.355L694.871 1200H-72V-277.355Z" fill="#4256D6"/>
<g filter="url(#filter1_d)">
<rect x="113.946" y="-627.558" width="372.633" height="1492.97" transform="rotate(28 113.946 -627.558)" fill="#5166EB"/>
</g>
<defs>
<filter id="filter0_d" x="484.818" y="-62" width="1380.49" height="1365.24" filterUnits="userSpaceOnUse" color-interpolation-filters="sRGB">
<feFlood flood-opacity="0" result="BackgroundImageFix"/>
<feColorMatrix in="SourceAlpha" type="matrix" values="0 0 0 0 0 0 0 0 0 0 0 0 0 0 0 0 0 0 127 0"/>
<feOffset dx="4" dy="8"/>
<feGaussianBlur stdDeviation="8"/>
<feColorMatrix type="matrix" values="0 0 0 0 0.258824 0 0 0 0 0.337255 0 0 0 0 0.839216 0 0 0 0.1 0"/>
<feBlend mode="multiply" in2="BackgroundImageFix" result="effect1_dropShadow"/>
<feBlend mode="normal" in="SourceGraphic" in2="effect1_dropShadow" result="shape"/>
</filter>
<filter id="filter1_d" x="-598.962" y="-635.558" width="1061.92" height="1525.16" filterUnits="userSpaceOnUse" color-interpolation-filters="sRGB">
<feFlood flood-opacity="0" result="BackgroundImageFix"/>
<feColorMatrix in="SourceAlpha" type="matrix" values="0 0 0 0 0 0 0 0 0 0 0 0 0 0 0 0 0 0 127 0"/>
<feOffset dx="4" dy="8"/>
<feGaussianBlur stdDeviation="8"/>
<feColorMatrix type="matrix" values="0 0 0 0 0.258824 0 0 0 0 0.337255 0 0 0 0 0.839216 0 0 0 0.1 0"/>
<feBlend mode="multiply" in2="BackgroundImageFix" result="effect1_dropShadow"/>
<feBlend mode="normal" in="SourceGraphic" in2="effect1_dropShadow" result="shape"/>
</filter>
</defs>
</svg>
