<svg width="65" height="49" viewBox="0 0 65 49" fill="none" xmlns="http://www.w3.org/2000/svg">
<path d="M64.2161 3.64251C64.2161 17.4764 64.2161 31.2978 64.2161 45.1317C64.1786 45.1817 64.1287 45.2317 64.1162 45.2817C63.4538 47.3936 62.1292 48.3809 59.9172 48.3809C48.5077 48.3809 37.0857 48.3809 25.6762 48.3809C18.553 48.3809 11.4299 48.3809 4.30673 48.3809C1.98233 48.3809 0.245285 46.6438 0.232788 44.3194C0.232788 31.0479 0.232788 17.7888 0.232788 4.51728C0.232788 3.2801 0.670174 2.24287 1.56994 1.40559C2.51969 0.53082 3.69439 0.380859 4.93156 0.380859C13.9917 0.405853 23.0518 0.393356 32.112 0.393356C41.4221 0.393356 50.7321 0.393356 60.0422 0.393356C62.1167 0.393356 63.5038 1.45558 64.0912 3.43007C64.1161 3.50505 64.1786 3.56753 64.2161 3.64251ZM24.2265 24.4246C24.2265 26.9239 24.2265 29.4233 24.2265 31.9101C24.2265 32.0601 24.2265 32.1976 24.2265 32.3475C24.2515 34.5845 25.8011 35.5717 27.8006 34.572C33.3992 31.7852 38.9977 28.9859 44.5837 26.1866C45.346 25.8117 46.0958 25.3494 46.0958 24.3746C46.0958 23.4249 45.371 22.975 44.6337 22.6001C39.0102 19.7758 33.3867 16.9515 27.7381 14.1523C25.8261 13.2025 24.314 14.1648 24.2265 16.3017C24.214 16.4892 24.2265 16.6766 24.2265 16.8641C24.2265 19.3884 24.2265 21.9003 24.2265 24.4246Z" fill="white"/>
</svg>
