<svg width="228" height="204" viewBox="0 0 228 204" fill="none" xmlns="http://www.w3.org/2000/svg">
<path d="M215.179 132.1C238.479 169.2 224.279 196.2 181.779 202.2C167.979 204.2 156.279 202.3 145.279 199.1C141.979 198.1 138.679 197 135.379 196C133.879 195.5 132.279 194.9 130.779 194.4C117.279 189.6 103.879 184.7 87.4787 184.9C78.3787 185 68.4787 186.7 57.0787 190.8C1.87868 210.7 -23.1213 143.8 29.2787 90.3002C46.7787 72.5002 16.0787 61.4001 19.3787 38.8001C23.7787 8.40015 63.8787 4.60015 76.7787 24.1001C89.6787 43.6002 110.579 46.5001 139.379 21.3001C190.379 -23.2999 232.979 9.90015 227.379 52.5001C223.379 82.1002 191.879 95.1002 215.179 132.1Z" fill="#EBEFFB"/>
<path d="M91.4787 126.1L65.5787 135.7C60.9787 137.4 60.9787 142.5 65.5787 144.2L115.479 162.8C117.179 163.4 119.079 163.4 120.779 162.8L170.679 144.2C175.279 142.5 175.279 137.4 170.679 135.7L144.779 126.1" fill="#FF644E"/>
<path d="M91.4787 98.2998L65.5787 107.9C60.9787 109.6 60.9787 114.7 65.5787 116.4L115.479 135C117.179 135.6 119.079 135.6 120.779 135L170.679 116.4C175.279 114.7 175.279 109.6 170.679 107.9L144.779 98.2998" fill="#978CFF"/>
<path d="M120.779 107.2L170.679 88.5998C175.279 86.8998 175.279 81.7998 170.679 80.0998L120.779 61.4998C119.079 60.8998 117.179 60.8998 115.479 61.4998L65.5787 80.0998C60.9787 81.7998 60.9787 86.8998 65.5787 88.5998L115.479 107.2C117.179 107.9 119.079 107.9 120.779 107.2Z" fill="#3555DB"/>
</svg>
