<svg width="228" height="204" viewBox="0 0 228 204" fill="none" xmlns="http://www.w3.org/2000/svg">
<path d="M215.179 132.1C238.479 169.2 224.279 196.2 181.779 202.2C167.979 204.2 156.279 202.3 145.279 199.1C141.979 198.1 138.679 197 135.379 196C133.879 195.5 132.279 194.9 130.779 194.4C117.279 189.6 103.879 184.7 87.4786 184.9C78.3786 185 68.4786 186.7 57.0786 190.8C1.87856 210.7 -23.1214 143.8 29.2786 90.3002C46.7786 72.5002 16.0786 61.4001 19.3786 38.8001C23.7786 8.40015 63.8786 4.60015 76.7786 24.1001C89.6786 43.6002 110.579 46.5001 139.379 21.3001C190.379 -23.2999 232.979 9.90015 227.379 52.5001C223.379 82.1002 191.879 95.1002 215.179 132.1Z" fill="#EBEFFB"/>
<path d="M41.6786 123.6C40.6786 123.6 39.7786 123 39.3786 122.1C38.9786 121.2 39.0786 120.1 39.6786 119.4C41.5786 117 43.2786 114.4 44.5786 111.6C42.2786 111.4 40.1786 110.4 38.4786 108.8C36.7786 107.1 35.9786 104.7 36.3786 102.3C36.7786 100.2 37.8786 98.4003 39.6786 97.1003C42.8786 94.8003 47.1786 95.1003 50.0786 97.7003C52.0786 99.8003 52.8786 102.7 52.3786 105.5C52.2786 105.9 52.2786 106.3 52.1786 106.7C53.8786 106.6 55.5786 106.5 57.3786 106.4C59.8786 106.2 62.3786 106.1 64.8786 106.1C66.2786 106.1 67.4786 107.3 67.4786 108.7C67.4786 110.1 66.2786 111.3 64.8786 111.3C62.4786 111.3 60.0786 111.5 57.6786 111.6C55.1786 111.8 52.5786 111.9 50.0786 111.9L49.8786 112.5C48.3786 116.1 46.2786 119.5 43.7786 122.6C43.2786 123.2 42.4786 123.6 41.6786 123.6ZM44.4786 100.7C43.7786 100.7 43.1786 100.9 42.5786 101.3C41.9786 101.7 41.5786 102.3 41.3786 103C41.2786 103.8 41.5786 104.6 42.1786 105.1C43.4786 106.1 45.0786 106.6 46.6786 106.5C46.8786 105.9 47.0786 105.3 47.1786 104.7C47.4786 103.5 47.1786 102.3 46.3786 101.3C45.8786 100.9 45.1786 100.7 44.4786 100.7Z" fill="#C6110C"/>
<path d="M184.779 92.3999L175.579 91.3999C172.779 85.2999 168.579 79.8999 163.479 75.4999L163.179 75.3999C163.979 74.6999 164.679 73.8999 165.079 72.8999C165.879 71.1999 166.379 69.2999 166.579 67.3999C166.979 63.7999 166.879 60.0999 166.379 56.4999C166.479 53.5999 165.479 50.7999 163.579 48.4999C160.079 45.3999 154.279 49.6999 151.479 51.9999C148.179 54.6999 145.579 58.1999 143.979 62.0999C143.579 63.1999 143.279 64.2999 143.079 65.3999C143.079 65.6999 142.979 65.9999 142.979 66.2999C139.879 65.1999 136.679 64.1999 133.379 63.4999L88.0786 66.7999C74.6786 72.9999 63.4786 84.7999 60.3786 99.3999C56.5786 117.7 67.0786 134.5 82.1786 144.1C82.6786 144.4 83.1786 144.7 83.6786 145L85.3786 168.3C85.4786 169.7 86.5786 170.7 87.9786 170.7H103.879C105.279 170.7 106.379 169.6 106.479 168.3L107.479 153.8C115.279 155.5 123.279 155.5 131.079 153.8L132.079 168.3C132.179 169.7 133.279 170.7 134.679 170.7H150.579C151.979 170.7 153.079 169.6 153.179 168.3L154.879 145C159.679 142.1 164.079 138.6 167.879 134.4C169.079 133.1 170.179 131.7 171.279 130.2C172.979 127.9 174.379 125.5 175.479 122.9L184.679 121.9C187.279 121.6 189.279 119.4 189.279 116.7V97.4999C189.479 94.8999 187.479 92.6999 184.779 92.3999Z" fill="#FF644E"/>
<path d="M99.2786 75.6001C87.8786 71.5001 80.3786 60.8001 80.3786 48.7001C80.3786 44.2001 81.4786 39.7001 83.4786 35.7001C89.2786 24.3001 102.079 18.1001 114.579 20.7001C127.079 23.3001 136.479 33.9001 137.379 46.7001C138.279 59.5001 130.579 71.3001 118.479 75.7001H99.2786V75.6001Z" fill="#FDC510"/>
<path d="M163.479 121.5C163.479 120.5 162.979 119.7 162.179 119.2C161.379 118.7 160.379 118.7 159.579 119.2C158.779 119.7 158.279 120.5 158.279 121.5C158.779 127.3 162.479 132.4 167.979 134.5C169.179 133.2 170.279 131.8 171.379 130.3C163.879 127.5 163.479 121.9 163.479 121.5Z" fill="#C6110C"/>
<path d="M129.679 82.5C129.179 82.5 128.579 82.3 128.179 82C122.379 78.6 115.679 77 108.879 77.3C102.179 77 95.4786 78.6 89.6786 82C88.4786 82.8 86.8786 82.5 86.0786 81.3C85.2786 80.1 85.5786 78.5 86.6786 77.7C91.6786 74.1 100.079 72 108.979 72C117.879 72 126.179 74.1 131.279 77.7C132.179 78.4 132.579 79.5 132.279 80.6C131.879 81.8 130.879 82.5 129.679 82.5Z" fill="#C6110C"/>
<path d="M111.579 46.3999V33.5999C114.479 34.2999 116.579 36.6999 116.779 39.6999C116.779 41.0999 117.979 42.2999 119.379 42.2999C120.779 42.2999 121.979 41.0999 121.979 39.6999C121.679 33.8999 117.379 29.0999 111.579 28.1999V27.9999C111.579 26.5999 110.379 25.3999 108.979 25.3999C107.579 25.3999 106.379 26.5999 106.379 27.9999V28.1999C100.579 28.9999 96.2786 33.7999 95.9786 39.6999C96.2786 45.4999 100.579 50.2999 106.379 51.1999V63.9999C103.479 63.2999 101.379 60.8999 101.179 57.8999C101.179 56.4999 99.9786 55.2999 98.5786 55.2999C97.1786 55.2999 95.9786 56.4999 95.9786 57.8999C96.2786 63.6999 100.579 68.4999 106.379 69.3999V69.5999C106.379 70.9999 107.579 72.1999 108.979 72.1999C110.379 72.1999 111.579 70.9999 111.579 69.5999V69.3999C117.379 68.5999 121.679 63.7999 121.979 57.8999C121.679 51.9999 117.279 47.1999 111.579 46.3999ZM101.179 39.6999C101.379 36.6999 103.479 34.2999 106.379 33.5999V45.7999C103.479 45.0999 101.379 42.5999 101.179 39.6999ZM111.579 63.8999V51.6999C114.479 52.3999 116.579 54.7999 116.779 57.7999C116.579 60.7999 114.379 63.2999 111.579 63.8999Z" fill="#DB910E"/>
<path d="M156.079 98.9002C160.276 98.9002 163.679 95.4976 163.679 91.3002C163.679 87.1028 160.276 83.7002 156.079 83.7002C151.881 83.7002 148.479 87.1028 148.479 91.3002C148.479 95.4976 151.881 98.9002 156.079 98.9002Z" fill="#C6110C"/>
</svg>
