<svg width="228" height="204" viewBox="0 0 228 204" fill="none" xmlns="http://www.w3.org/2000/svg">
<path d="M215.179 132.1C238.479 169.2 224.279 196.2 181.779 202.2C167.979 204.2 156.279 202.3 145.279 199.1C141.979 198.1 138.679 197 135.379 196C133.879 195.5 132.279 194.9 130.779 194.4C117.279 189.6 103.879 184.7 87.4786 184.9C78.3786 185 68.4786 186.7 57.0786 190.8C1.87856 210.7 -23.1214 143.8 29.2786 90.3002C46.7786 72.5002 16.0786 61.4001 19.3786 38.8001C23.7786 8.40015 63.8786 4.60015 76.7786 24.1001C89.6786 43.6002 110.579 46.5001 139.379 21.3001C190.379 -23.2999 232.979 9.90015 227.379 52.5001C223.379 82.1002 191.879 95.1002 215.179 132.1Z" fill="#EBEFFB"/>
<path d="M89.7786 158.499C89.7786 154.099 81.4786 144.199 81.4786 144.199C81.4786 144.199 73.1786 154.099 73.1786 158.499C73.1786 162.899 76.8786 166.399 81.4786 166.399C85.9786 166.499 89.7786 162.899 89.7786 158.499Z" fill="#3555DB"/>
<path d="M125.379 65.6992L84.6786 106.399C80.1786 110.899 79.2786 117.699 81.9786 123.199L77.3786 127.799C75.5786 129.699 75.5786 132.699 77.3786 134.499C79.2786 136.299 82.2786 136.299 84.0786 134.499L88.6786 129.899C94.1786 132.599 100.879 131.699 105.479 127.099L146.179 86.3992L125.379 65.6992Z" fill="#FDC510"/>
<path d="M100.479 90.6992L84.6786 106.499C80.1786 110.999 79.2786 117.799 81.9786 123.299L77.3786 127.899C75.5786 129.799 75.5786 132.799 77.3786 134.599C79.2786 136.399 82.2786 136.399 84.0786 134.599L88.6786 129.999C94.1786 132.699 100.879 131.799 105.479 127.199L121.279 111.399L100.479 90.6992Z" fill="#3555DB"/>
<path d="M134.279 57.2996L129.879 52.8996C127.479 50.4996 123.579 50.4996 121.179 52.8996C118.779 55.2996 118.779 59.1996 121.179 61.5996L150.179 90.5996C152.579 92.9996 156.479 92.9996 158.879 90.5996C161.279 88.1996 161.279 84.2996 158.879 81.8996L154.479 77.4996L165.079 66.9996C170.679 61.3996 170.679 52.3996 165.079 46.7996C159.479 41.1996 150.479 41.1996 144.879 46.7996L134.279 57.2996Z" fill="#FF644E"/>
</svg>
