<svg width="228" height="204" viewBox="0 0 228 204" fill="none" xmlns="http://www.w3.org/2000/svg">
<path d="M215.179 132.1C238.479 169.2 224.279 196.2 181.779 202.2C167.979 204.2 156.279 202.3 145.279 199.1C141.979 198.1 138.679 197 135.379 196C133.879 195.5 132.279 194.9 130.779 194.4C117.279 189.6 103.879 184.7 87.4786 184.9C78.3786 185 68.4786 186.7 57.0786 190.8C1.87856 210.7 -23.1214 143.8 29.2786 90.3002C46.7786 72.5002 16.0786 61.4001 19.3786 38.8001C23.7786 8.40015 63.8786 4.60015 76.7786 24.1001C89.6786 43.6002 110.579 46.5001 139.379 21.3001C190.379 -23.2999 232.979 9.90015 227.379 52.5001C223.379 82.1002 191.879 95.1002 215.179 132.1Z" fill="#EBEFFB"/>
<path d="M159.579 144.9H114.579L93.2786 123.6V57.3999C93.2786 54.0999 95.9786 51.3999 99.2786 51.3999H159.479C162.779 51.3999 165.479 54.0999 165.479 57.3999V138.9C165.579 142.2 162.879 144.9 159.579 144.9Z" fill="#3555DB"/>
<path d="M147.079 157.4H102.079L80.7786 136.1V69.8999C80.7786 66.5999 83.4786 63.8999 86.7786 63.8999H146.979C150.279 63.8999 152.979 66.5999 152.979 69.8999V151.4C153.079 154.7 150.379 157.4 147.079 157.4Z" fill="#FF644E"/>
<path d="M133.379 170.1H88.3786L67.0786 148.8V82.6001C67.0786 79.3001 69.7786 76.6001 73.0786 76.6001H133.279C136.579 76.6001 139.279 79.3001 139.279 82.6001V164.1C139.379 167.4 136.779 170.1 133.379 170.1Z" fill="#FDC510"/>
<path d="M88.3786 170.1L67.0786 148.8H84.0786C86.3786 148.8 88.3786 150.7 88.3786 153.1V170.1Z" fill="#DB910E"/>
</svg>
