<svg width="228" height="204" viewBox="0 0 228 204" fill="none" xmlns="http://www.w3.org/2000/svg">
<path d="M215.179 132.1C238.479 169.2 224.279 196.2 181.779 202.2C167.979 204.2 156.279 202.3 145.279 199.1C141.979 198.1 138.679 197 135.379 196C133.879 195.5 132.279 194.9 130.779 194.4C117.279 189.6 103.879 184.7 87.4787 184.9C78.3787 185 68.4787 186.7 57.0787 190.8C1.87868 210.7 -23.1213 143.8 29.2787 90.3002C46.7787 72.5002 16.0787 61.4001 19.3787 38.8001C23.7787 8.40015 63.8787 4.60015 76.7787 24.1001C89.6787 43.6002 110.579 46.5001 139.379 21.3001C190.379 -23.2999 232.979 9.90015 227.379 52.5001C223.379 82.1002 191.879 95.1002 215.179 132.1Z" fill="#EBEFFB"/>
<path d="M134.979 56.7002L59.4787 132.2C56.2787 135.4 56.2787 140.5 59.4787 143.6L79.1787 163.4C82.3787 166.6 87.4787 166.6 90.5787 163.4L166.079 87.9002" fill="#3555DB"/>
<path d="M59.5787 69.1999L75.4787 53.2999C78.6787 50.0999 83.8787 50.0999 87.0787 53.2999L169.679 135.9C172.879 139.1 172.879 144.3 169.679 147.5L153.779 163.4C150.579 166.6 145.379 166.6 142.179 163.4L59.5787 80.6999C56.3787 77.4999 56.3787 72.3999 59.5787 69.1999ZM80.1787 76.1999C81.0787 71.9999 77.6787 68.3999 73.5787 68.8999C70.8787 69.1999 68.6787 71.3999 68.3787 74.0999C67.8787 78.1999 71.4787 81.6999 75.6787 80.6999C77.8787 80.1999 79.6787 78.3999 80.1787 76.1999Z" fill="#FF644E"/>
<path d="M159.179 51.2002L134.979 56.7002L166.179 87.9002L171.679 63.7002L159.179 51.2002Z" fill="#978CFF"/>
<path d="M109.579 75.5002C108.679 74.6002 107.279 74.6002 106.379 75.5002L102.779 79.1002C101.879 80.0002 101.879 81.4002 102.779 82.3002C103.179 82.7002 103.779 83.0002 104.379 83.0002C104.979 83.0002 105.479 82.8002 105.979 82.3002L109.579 78.7002C110.479 77.8002 110.479 76.4002 109.579 75.5002Z" fill="#C6110C"/>
<path d="M90.8787 56.8C89.9787 55.9 88.5787 55.9 87.6787 56.8L84.0787 60.4C83.1787 61.3 83.1787 62.7 84.0787 63.6C84.4787 64 85.0787 64.3 85.6787 64.3C86.2787 64.3 86.7787 64.1 87.2787 63.6L90.8787 60C91.7787 59.1 91.7787 57.7 90.8787 56.8Z" fill="#C6110C"/>
<path d="M128.279 94.1999C127.379 93.2999 125.979 93.2999 125.079 94.1999L121.479 97.7999C120.579 98.6999 120.579 100.1 121.479 101C121.879 101.4 122.479 101.7 123.079 101.7C123.679 101.7 124.279 101.5 124.679 101L128.279 97.3999C129.179 96.4999 129.179 95.0999 128.279 94.1999Z" fill="#C6110C"/>
<path d="M146.979 112.9C146.079 112 144.679 112 143.779 112.9L140.179 116.5C139.279 117.4 139.279 118.8 140.179 119.7C140.579 120.1 141.179 120.4 141.779 120.4C142.379 120.4 142.979 120.2 143.379 119.7L146.979 116.1C147.879 115.2 147.879 113.8 146.979 112.9Z" fill="#C6110C"/>
<path d="M115.779 84.8002L110.079 90.5002C109.179 91.4002 109.179 92.8002 110.079 93.7002C110.479 94.1002 111.079 94.4002 111.679 94.4002C112.279 94.4002 112.879 94.2002 113.279 93.7002L118.979 88.0002C119.879 87.1002 119.879 85.7002 118.979 84.8002C118.079 84.0002 116.579 84.0002 115.779 84.8002Z" fill="#C6110C"/>
<path d="M96.9786 66.1L91.2786 71.8C90.3786 72.7 90.3786 74.1 91.2786 75C91.6786 75.4 92.2786 75.7 92.8786 75.7C93.4786 75.7 93.9786 75.5 94.4786 75L100.179 69.3C101.079 68.4 101.079 67 100.179 66.1C99.3786 65.3 97.8786 65.3 96.9786 66.1Z" fill="#C6110C"/>
<path d="M134.479 103.6L128.779 109.3C127.879 110.2 127.879 111.6 128.779 112.5C129.179 112.9 129.779 113.2 130.379 113.2C130.979 113.2 131.579 113 131.979 112.5L137.679 106.8C138.579 105.9 138.579 104.5 137.679 103.6C136.779 102.7 135.279 102.7 134.479 103.6Z" fill="#C6110C"/>
<path d="M153.179 122.3L147.479 128C146.579 128.9 146.579 130.3 147.479 131.2C147.879 131.6 148.479 131.9 149.079 131.9C149.679 131.9 150.279 131.7 150.679 131.2L156.379 125.5C157.279 124.6 157.279 123.2 156.379 122.3C155.479 121.4 153.979 121.4 153.179 122.3Z" fill="#C6110C"/>
<path d="M165.679 131.6C164.779 130.7 163.379 130.7 162.479 131.6L158.879 135.2C157.979 136.1 157.979 137.5 158.879 138.4C159.279 138.8 159.879 139.1 160.479 139.1C161.079 139.1 161.679 138.9 162.079 138.4L165.679 134.8C166.579 133.9 166.579 132.5 165.679 131.6Z" fill="#C6110C"/>
<path d="M159.179 51.2002L134.979 56.7002L166.179 87.9002L171.679 63.7002" fill="#FDC510"/>
<path d="M159.179 51.2001C159.879 54.2001 161.279 57.0001 163.679 59.3001C165.979 61.6001 168.779 63.1001 171.779 63.7001L173.879 54.5001C174.579 51.2001 171.679 48.3001 168.479 49.1001L159.179 51.2001Z" fill="#C6110C"/>
</svg>
