<svg width="66" height="68" viewBox="0 0 66 68" fill="none" xmlns="http://www.w3.org/2000/svg">
<path d="M10.92 7.43304H21.3636C22.9703 7.43304 24.2727 6.11144 24.2727 4.48117C24.2727 2.85089 22.9703 1.5293 21.3636 1.5293H3.90909C3.52894 1.53396 3.15337 1.61419 2.80364 1.76545C2.0928 2.06499 1.52793 2.63817 1.23273 3.35946C1.08366 3.71434 1.0046 4.09543 1 4.48117V22.1924C1 23.8227 2.30244 25.1443 3.90909 25.1443C5.51574 25.1443 6.81818 23.8227 6.81818 22.1924V11.5952L22.2073 27.2401C22.7535 27.7989 23.4971 28.1133 24.2727 28.1133C25.0484 28.1133 25.7919 27.7989 26.3382 27.2401C26.8889 26.6858 27.1987 25.9313 27.1987 25.1443C27.1987 24.3572 26.8889 23.6027 26.3382 23.0484L10.92 7.43304Z" fill="white" stroke="#66ABFF" stroke-width="2" stroke-linecap="round"/>
<path d="M64.7672 3.35946C64.472 2.63817 63.9071 2.06499 63.1963 1.76545C62.8466 1.61419 62.471 1.53396 62.0909 1.5293H44.6363C43.0297 1.5293 41.7272 2.85089 41.7272 4.48117C41.7272 6.11144 43.0297 7.43304 44.6363 7.43304H55.08L39.6618 23.0484C39.111 23.6027 38.8013 24.3572 38.8013 25.1443C38.8013 25.9313 39.111 26.6858 39.6618 27.2401C40.208 27.7989 40.9516 28.1133 41.7272 28.1133C42.5029 28.1133 43.2465 27.7989 43.7927 27.2401L59.1818 11.5952V22.1924C59.1818 23.8227 60.4842 25.1443 62.0909 25.1443C63.6975 25.1443 65 23.8227 65 22.1924V4.48117C64.9954 4.09543 64.9163 3.71434 64.7672 3.35946Z" fill="white" stroke="#66ABFF" stroke-width="2" stroke-linecap="round"/>
<path d="M22.2073 40.7607L6.81818 56.4056V45.8084C6.81818 44.1781 5.51574 42.8565 3.90909 42.8565C2.30244 42.8565 1 44.1781 1 45.8084V63.5196C1.0046 63.9054 1.08366 64.2865 1.23273 64.6413C1.52793 65.3626 2.0928 65.9358 2.80364 66.2353C3.15337 66.3866 3.52894 66.4668 3.90909 66.4715H21.3636C22.9703 66.4715 24.2727 65.1499 24.2727 63.5196C24.2727 61.8894 22.9703 60.5678 21.3636 60.5678H10.92L26.3382 44.9524C27.4789 43.7949 27.4789 41.9182 26.3382 40.7607C25.1975 39.6032 23.348 39.6032 22.2073 40.7607Z" fill="white" stroke="#66ABFF" stroke-width="2" stroke-linecap="round"/>
<path d="M62.091 42.8565C60.4843 42.8565 59.1819 44.1781 59.1819 45.8084V56.4056L43.7928 40.7607C42.6521 39.6032 40.8026 39.6032 39.6619 40.7607C38.5212 41.9182 38.5212 43.7949 39.6619 44.9524L55.0801 60.5678H44.6364C43.0298 60.5678 41.7273 61.8894 41.7273 63.5196C41.7273 65.1499 43.0298 66.4715 44.6364 66.4715H62.091C62.4711 66.4668 62.8467 66.3866 63.1964 66.2353C63.9072 65.9358 64.4721 65.3626 64.7673 64.6413C64.9164 64.2865 64.9955 63.9054 65 63.5196V45.8084C65 44.1781 63.6976 42.8565 62.091 42.8565Z" fill="white" stroke="#66ABFF" stroke-width="2" stroke-linecap="round"/>
</svg>
