<svg width="228" height="204" viewBox="0 0 228 204" fill="none" xmlns="http://www.w3.org/2000/svg">
<path d="M215.179 132.1C238.479 169.2 224.279 196.2 181.779 202.2C167.979 204.2 156.279 202.3 145.279 199.1C141.979 198.1 138.679 197 135.379 196C133.879 195.5 132.279 194.9 130.779 194.4C117.279 189.6 103.879 184.7 87.4787 184.9C78.3787 185 68.4787 186.7 57.0787 190.8C1.87868 210.7 -23.1213 143.8 29.2787 90.3002C46.7787 72.5002 16.0787 61.4001 19.3787 38.8001C23.7787 8.40015 63.8787 4.60015 76.7787 24.1001C89.6787 43.6002 110.579 46.5001 139.379 21.3001C190.379 -23.2999 232.979 9.90015 227.379 52.5001C223.379 82.1002 191.879 95.1002 215.179 132.1Z" fill="#EBEFFB"/>
<path d="M147.479 96.3999H178.679V169.2H105.879V138" fill="#3555DB"/>
<path d="M105.879 96.3999H147.479C147.479 119.4 128.879 138 105.879 138V96.3999Z" fill="#FF644E"/>
<path d="M147.479 96.3998H105.879V138C82.8787 138 64.2787 119.4 64.2787 96.3998C64.2787 73.3998 82.8787 54.7998 105.879 54.7998C128.879 54.7998 147.479 73.3998 147.479 96.3998Z" fill="#FDC510"/>
</svg>
