<svg width="228" height="204" viewBox="0 0 228 204" fill="none" xmlns="http://www.w3.org/2000/svg">
<path d="M215.179 132.1C238.479 169.2 224.279 196.2 181.779 202.2C167.979 204.2 156.279 202.3 145.279 199.1C141.979 198.1 138.679 197 135.379 196C133.879 195.5 132.279 194.9 130.779 194.4C117.279 189.6 103.879 184.7 87.4786 184.9C78.3786 185 68.4786 186.7 57.0786 190.8C1.87856 210.7 -23.1214 143.8 29.2786 90.3002C46.7786 72.5002 16.0786 61.4001 19.3786 38.8001C23.7786 8.40015 63.8786 4.60015 76.7786 24.1001C89.6786 43.6002 110.579 46.5001 139.379 21.3001C190.379 -23.2999 232.979 9.90015 227.379 52.5001C223.379 82.1002 191.879 95.1002 215.179 132.1Z" fill="#EBEFFB"/>
<path d="M181.479 163.5C181.479 167.2 178.479 170.2 174.779 170.2C171.079 170.2 168.079 167.2 168.079 163.5C168.079 159.8 171.079 156.8 174.779 156.8C178.479 156.8 181.479 159.8 181.479 163.5Z" fill="#C6110C"/>
<path d="M119.979 163.5C119.979 167.2 116.979 170.2 113.279 170.2C109.579 170.2 106.579 167.2 106.579 163.5C106.579 159.8 109.579 156.8 113.279 156.8C116.879 156.8 119.979 159.8 119.979 163.5Z" fill="#4B369D"/>
<path d="M126.979 117H170.479V149.9L159.679 160.5H126.979V117Z" fill="#FF644E"/>
<path d="M66.7786 117H110.279V149.9L99.4786 160.5H66.7786V117Z" fill="#978CFF"/>
<path d="M126.979 56.7998H170.479V89.6998L159.679 100.3H126.979V56.7998Z" fill="#3555DB"/>
<path d="M66.7786 56.7998H110.279V89.6998L99.4786 100.3H66.7786V56.7998Z" fill="#FDC510"/>
<path d="M119.979 101.9C119.979 105.6 116.979 108.6 113.279 108.6C109.579 108.6 106.579 105.6 106.579 101.9C106.579 98.1997 109.579 95.1997 113.279 95.1997C116.879 95.1997 119.979 98.1997 119.979 101.9Z" fill="#DB910E"/>
<path d="M181.479 101.9C181.479 105.6 178.479 108.6 174.779 108.6C171.079 108.6 168.079 105.6 168.079 101.9C168.079 98.1997 171.079 95.1997 174.779 95.1997C178.479 95.1997 181.479 98.1997 181.479 101.9Z" fill="#0028D0"/>
</svg>
