<svg width="74" height="76" viewBox="0 0 74 76" fill="none" xmlns="http://www.w3.org/2000/svg">
<path d="M64 62.8242H55C53.3431 62.8242 52 61.4613 52 59.78C52 58.0988 53.3431 56.7359 55 56.7359H64C65.6569 56.7359 67 55.373 67 53.6918V38.4712C67 36.79 65.6569 35.4271 64 35.4271H10C8.34315 35.4271 7 36.79 7 38.4712V53.6918C7 55.373 8.34315 56.7359 10 56.7359H19C20.6569 56.7359 22 58.0988 22 59.78C22 61.4613 20.6569 62.8242 19 62.8242H10C5.02944 62.8242 1 58.7355 1 53.6918V38.4712C1 33.4276 5.02944 29.3389 10 29.3389H64C68.9706 29.3389 73 33.4276 73 38.4712V53.6918C73 58.7355 68.9706 62.8242 64 62.8242Z" fill="white" stroke="#66ABFF" stroke-width="2" stroke-linecap="round"/>
<path d="M55 35.4267H19C17.3431 35.4267 16 34.0638 16 32.3826V4.98552C16 3.3043 17.3431 1.94141 19 1.94141H40C41.6569 1.94141 43 3.3043 43 4.98552C43 6.66674 41.6569 8.02964 40 8.02964H22V29.3385H52V20.2061C52 18.5249 53.3431 17.162 55 17.162C56.6569 17.162 58 18.5249 58 20.2061V32.3826C58 34.0638 56.6569 35.4267 55 35.4267Z" fill="white" stroke="#66ABFF" stroke-width="2" stroke-linecap="round"/>
<path fill-rule="evenodd" clip-rule="evenodd" d="M19 74.9999H55C56.6569 74.9999 58 73.637 58 71.9558V44.5588C58 42.8775 56.6569 41.5146 55 41.5146H19C17.3431 41.5146 16 42.8775 16 44.5588V71.9558C16 73.637 17.3431 74.9999 19 74.9999ZM51.9999 68.9115H21.9999V47.6027H51.9999V68.9115Z" fill="white"/>
<path d="M21.9999 68.9115H20.9999V69.9115H21.9999V68.9115ZM51.9999 68.9115V69.9115H52.9999V68.9115H51.9999ZM21.9999 47.6027V46.6027H20.9999V47.6027H21.9999ZM51.9999 47.6027H52.9999V46.6027H51.9999V47.6027ZM55 73.9999H19V75.9999H55V73.9999ZM57 71.9558C57 73.0986 56.0909 73.9999 55 73.9999V75.9999C57.2229 75.9999 59 74.1755 59 71.9558H57ZM57 44.5588V71.9558H59V44.5588H57ZM55 42.5146C56.0909 42.5146 57 43.416 57 44.5588H59C59 42.3391 57.2229 40.5146 55 40.5146V42.5146ZM19 42.5146H55V40.5146H19V42.5146ZM17 44.5588C17 43.416 17.9091 42.5146 19 42.5146V40.5146C16.7771 40.5146 15 42.3391 15 44.5588H17ZM17 71.9558V44.5588H15V71.9558H17ZM19 73.9999C17.9091 73.9999 17 73.0986 17 71.9558H15C15 74.1755 16.7771 75.9999 19 75.9999V73.9999ZM21.9999 69.9115H51.9999V67.9115H21.9999V69.9115ZM20.9999 47.6027V68.9115H22.9999V47.6027H20.9999ZM51.9999 46.6027H21.9999V48.6027H51.9999V46.6027ZM52.9999 68.9115V47.6027H50.9999V68.9115H52.9999Z" fill="#66ABFF"/>
<path d="M46 56.7357H28C26.3431 56.7357 25 55.3728 25 53.6916C25 52.0104 26.3431 50.6475 28 50.6475H46C47.6569 50.6475 49 52.0104 49 53.6916C49 55.3728 47.6569 56.7357 46 56.7357Z" fill="white" stroke="#66ABFF" stroke-width="2" stroke-linecap="round"/>
<path d="M46 65.8675H28C26.3431 65.8675 25 64.5046 25 62.8234C25 61.1422 26.3431 59.7793 28 59.7793H46C47.6569 59.7793 49 61.1422 49 62.8234C49 64.5046 47.6569 65.8675 46 65.8675Z" fill="white" stroke="#66ABFF" stroke-width="2" stroke-linecap="round"/>
<path fill-rule="evenodd" clip-rule="evenodd" d="M40 23.2507H55C56.2111 23.2445 57.2998 22.5 57.76 21.3633C58.2298 20.2297 57.9812 18.9206 57.13 18.0452L42.13 2.82462C41.2673 1.96087 39.9772 1.70866 38.86 2.18536C37.7397 2.65234 37.006 3.75703 37 4.98595V20.2065C37 21.8878 38.3431 23.2507 40 23.2507ZM47.77 17.1625H43V12.3223L47.77 17.1625Z" fill="white"/>
<path d="M55 23.2507V24.2507L55.0051 24.2506L55 23.2507ZM57.76 21.3633L56.8362 20.9804L56.8331 20.988L57.76 21.3633ZM57.13 18.0452L57.8469 17.348L57.8423 17.3433L57.13 18.0452ZM42.13 2.82462L42.8423 2.12268L42.8375 2.11795L42.13 2.82462ZM38.86 2.18536L39.2448 3.10841L39.2525 3.10513L38.86 2.18536ZM37 4.98595L36 4.98103V4.98595H37ZM43 17.1625H42V18.1625H43V17.1625ZM47.77 17.1625V18.1625H50.1595L48.4822 16.4605L47.77 17.1625ZM43 12.3223L43.7122 11.6204L42 9.88297V12.3223H43ZM55 22.2507H40V24.2507H55V22.2507ZM56.8331 20.988C56.5225 21.7551 55.7938 22.2466 54.9949 22.2507L55.0051 24.2506C56.6284 24.2424 58.0771 23.2449 58.6869 21.7386L56.8331 20.988ZM56.4131 18.7424C56.984 19.3295 57.1541 20.2134 56.8362 20.9805L58.6838 21.7461C59.3055 20.2459 58.9785 18.5117 57.8469 17.3481L56.4131 18.7424ZM41.4178 3.52655L56.4178 18.7471L57.8423 17.3433L42.8422 2.1227L41.4178 3.52655ZM39.2525 3.10513C39.9914 2.78984 40.8465 2.95467 41.4225 3.53129L42.8375 2.11795C41.6881 0.967074 39.963 0.627475 38.4675 1.26559L39.2525 3.10513ZM38 4.99086C38.0041 4.15717 38.5015 3.4182 39.2448 3.10838L38.4752 1.26234C36.978 1.88647 36.008 3.35689 36 4.98103L38 4.99086ZM38 20.2065V4.98595H36V20.2065H38ZM40 22.2507C38.9091 22.2507 38 21.3493 38 20.2065H36C36 22.4262 37.7771 24.2507 40 24.2507V22.2507ZM43 18.1625H47.77V16.1625H43V18.1625ZM42 12.3223V17.1625H44V12.3223H42ZM48.4822 16.4605L43.7122 11.6204L42.2877 13.0243L47.0577 17.8644L48.4822 16.4605Z" fill="#66ABFF"/>
</svg>
