<svg width="1920" height="1124" viewBox="0 0 1920 1124" fill="none" xmlns="http://www.w3.org/2000/svg">
<path d="M-135.911 0.408203C-120.783 48.843 -102.858 98.1677 -68.7887 135.924C-25.8203 183.342 36.9797 206.224 93.1692 236.735C149.359 267.245 205.167 314.027 211.904 377.717C219.023 445.983 167.919 505.224 146.435 570.439C113.128 671.885 153.3 781.468 195.76 879.354C221.947 939.612 248.135 1013.22 209.87 1066.61C178.598 1110.34 114.145 1118.99 63.8032 1100.3C13.4615 1081.61 -25.8203 1041.69 -61.7968 1001.9C-173.413 878.337 -271.681 742.694 -354.44 598.153C-371.475 568.405 -388.255 536.878 -389.145 502.681C-390.416 455.263 -361.305 413.185 -334.608 373.903C-257.443 260.253 -190.448 139.611 -134.894 14.0106" fill="#287AFF"/>
<path d="M-260.267 623.914C-223.527 633.957 -185.262 642.601 -147.76 636.372C-100.47 628.49 -60.6794 598.107 -18.728 574.97C23.2234 551.834 75.3449 535.561 118.186 557.046C164.206 580.183 180.859 636.372 213.276 676.289C263.745 738.327 349.173 757.268 427.991 769.981C476.553 777.863 533.632 791.084 551.811 836.722C566.685 874.097 546.091 918.209 513.928 942.49C481.765 966.771 440.831 975.289 401.041 981.899C277.983 1002.37 152.764 1009.49 28.1813 1003.26C2.50192 1001.99 -24.1944 999.824 -46.06 986.476C-76.443 968.043 -91.3167 932.702 -105.173 900.03C-145.599 805.449 -194.67 714.427 -251.368 628.617" fill="#66ABFF"/>
<path d="M73.7417 1068.87C73.7417 1068.87 303.33 1055.53 488.679 885.05C674.029 714.574 1004.94 752.077 1199.31 813.478C1393.69 874.88 1687.09 909.331 1775.83 718.007C1826.93 607.662 1810.02 522.742 1775.83 445.068C1741.76 367.522 1731.46 230.226 1888.33 243.829C2089.44 261.372 2205.51 390.531 2205.51 390.531V1069H73.7417V1068.87Z" fill="#287AFF"/>
<path d="M1935.8 794.049C1935.8 794.049 1797.49 992.492 1569.68 891.808C1341.87 791.125 1227.33 644.422 951.98 902.995C676.626 1161.57 404.196 1120.63 404.196 1120.63H1935.8V794.049Z" fill="#66ABFF"/>
</svg>
