<svg width="228" height="204" viewBox="0 0 228 204" fill="none" xmlns="http://www.w3.org/2000/svg">
<path d="M215.179 132.1C238.479 169.2 224.279 196.2 181.779 202.2C167.979 204.2 156.279 202.3 145.279 199.1C141.979 198.1 138.679 197 135.379 196C133.879 195.5 132.279 194.9 130.779 194.4C117.279 189.6 103.879 184.7 87.4787 184.9C78.3787 185 68.4787 186.7 57.0787 190.8C1.87868 210.7 -23.1213 143.8 29.2787 90.3002C46.7787 72.5002 16.0787 61.4001 19.3787 38.8001C23.7787 8.40015 63.8787 4.60015 76.7787 24.1001C89.6787 43.6002 110.579 46.5001 139.379 21.3001C190.379 -23.2999 232.979 9.90015 227.379 52.5001C223.379 82.1002 191.879 95.1002 215.179 132.1Z" fill="#EBEFFB"/>
<path d="M121.579 112.6L164.779 137.6L120.279 163.3V171.8V163.3L75.8787 137.6L119.079 112.6L69.0787 83.7002V143L120.279 172.6L171.579 143V83.7002L121.579 112.6Z" fill="#3555DB"/>
<path d="M121.579 112.6L120.279 113.3L119.079 112.6L75.8787 137.6L120.279 163.3L164.779 137.6L121.579 112.6Z" fill="#FF644E"/>
<path d="M120.279 111.8L121.579 112.6L171.579 83.7L120.279 54L69.0787 83.7L119.079 112.6L120.279 111.8Z" fill="#FDC510"/>
<path d="M119.079 112.6L120.279 113.3L121.579 112.6L120.279 111.8L119.079 112.6Z" fill="#FDC510"/>
</svg>
