<svg width="228" height="204" viewBox="0 0 228 204" fill="none" xmlns="http://www.w3.org/2000/svg">
<path d="M215.179 132.1C238.479 169.2 224.279 196.2 181.779 202.2C167.979 204.2 156.279 202.3 145.279 199.1C141.979 198.1 138.679 197 135.379 196C133.879 195.5 132.279 194.9 130.779 194.4C117.279 189.6 103.879 184.7 87.4786 184.9C78.3786 185 68.4786 186.7 57.0786 190.8C1.87856 210.7 -23.1214 143.8 29.2786 90.3002C46.7786 72.5002 16.0786 61.4001 19.3786 38.8001C23.7786 8.40015 63.8786 4.60015 76.7786 24.1001C89.6786 43.6002 110.579 46.5001 139.379 21.3001C190.379 -23.2999 232.979 9.90015 227.379 52.5001C223.379 82.1002 191.879 95.1002 215.179 132.1Z" fill="#EBEFFB"/>
<path d="M100.879 162.8C120.153 162.8 135.779 147.175 135.779 127.9C135.779 108.625 120.153 93 100.879 93C81.6038 93 65.9786 108.625 65.9786 127.9C65.9786 147.175 81.6038 162.8 100.879 162.8Z" fill="#030047"/>
<path d="M138.979 162.8C158.253 162.8 173.879 147.175 173.879 127.9C173.879 108.625 158.253 93 138.979 93C119.704 93 104.079 108.625 104.079 127.9C104.079 147.175 119.704 162.8 138.979 162.8Z" fill="#FDC510"/>
<path d="M138.979 132.3C158.253 132.3 173.879 116.675 173.879 97.4C173.879 78.1253 158.253 62.5 138.979 62.5C119.704 62.5 104.079 78.1253 104.079 97.4C104.079 116.675 119.704 132.3 138.979 132.3Z" fill="#FF644E"/>
<path d="M100.879 132.3C120.153 132.3 135.779 116.675 135.779 97.4C135.779 78.1253 120.153 62.5 100.879 62.5C81.6038 62.5 65.9786 78.1253 65.9786 97.4C65.9786 116.675 81.6038 132.3 100.879 132.3Z" fill="#3555DB"/>
</svg>
