<svg width="30" height="29" viewBox="0 0 30 29" fill="none" xmlns="http://www.w3.org/2000/svg">
<path d="M15.3802 0.782227H17.319V3.38688C20.7879 3.40641 24.2538 3.35093 27.7197 3.40641C28.4588 3.3314 29.039 3.90781 28.9711 4.65013C29.0261 11.0641 28.9581 17.4812 29.0035 23.8951C28.9711 24.5528 29.0683 25.2821 28.6889 25.8648C28.2156 26.2034 27.6027 26.1612 27.0518 26.187C23.8061 26.1711 20.5641 26.1776 17.319 26.1776V28.7822H15.2928C10.3587 27.8771 5.41111 27.047 0.467136 26.1776C0.463764 18.5819 0.467136 10.9859 0.467136 3.39339C5.43678 2.52083 10.4103 1.67119 15.3805 0.782227H15.3802Z" fill="#2A5699"/>
<path d="M17.3187 4.3623H28.0174V25.2001H17.3187V22.5953H25.748V21.293H17.3187V19.665H25.748V18.3627H17.3187V16.7347H25.748V15.4324H17.3187V13.8044H25.748V12.5021H17.3187V10.8741H25.748V9.57174H17.3187V7.94379H25.748V6.64143H17.3187V4.3623ZM7.16468 10.1154C7.78066 10.0797 8.39665 10.0536 9.01264 10.0211C9.4437 12.2189 9.88461 14.4131 10.3515 16.6011C10.7179 14.3415 11.1233 12.0884 11.5152 9.83222C12.1636 9.80956 12.812 9.77361 13.4573 9.73454C12.7246 12.8894 12.0827 16.0705 11.2818 19.2058C10.7402 19.4892 9.92974 19.1928 9.28782 19.2384C8.8565 17.0832 8.35411 14.9406 7.96818 12.7755C7.58899 14.8789 7.09621 16.9626 6.66177 19.0532C6.0393 19.0206 5.41372 18.9816 4.78762 18.9391C4.2497 16.0739 3.61738 13.2283 3.11499 10.3565C3.66925 10.3305 4.22688 10.3076 4.78139 10.288C5.11519 12.3619 5.49464 14.4264 5.78642 16.5034C6.2442 14.3743 6.71079 12.245 7.16468 10.1154Z" fill="white"/>
</svg>
